<svg xmlns="http://www.w3.org/2000/svg" xmlns:xlink="http://www.w3.org/1999/xlink" xmlns:ifc="http://www.ifcopenshell.org/ns" width="148.3mm" height="81.4462mm" viewBox="0 0 148.3 81.4462">
    <defs>
        <marker id="arrowend" markerWidth="10" markerHeight="7" refX="10" refY="3.5" orient="auto">
          <polygon points="0 0, 10 3.5, 0 7"/>
        </marker>
        <marker id="arrowstart" markerWidth="10" markerHeight="7" refX="0" refY="3.5" orient="auto">
          <polygon points="10 0, 0 3.5, 10 7"/>
        </marker>
    </defs>
    <g ifc:name="Elevation MY STOREY PLAN" class="section" ifc:plane="[[1.000000,0.000000,0.000000,0.000000],[0.000000,1.000000,0.000000,0.000000],[0.000000,0.000000,1.000000,1.600000],[0.000000,0.000000,0.000000,1.000000]]" ifc:matrix3="[[10.416667,0.000000,20.174992],[0.000000,10.416667,69.298121],[0.000000,0.000000,1.000000]]">
        <g id="product-52765868-e5d3-4d63-a459-1744b94fb1b2" class="IfcBeam material-null projection" ifc:name="Beam" ifc:guid="1ITbXevTDDOwHP5qIvJx6o">
            <path d="M123.379,30.465 L123.379,31.5066"/>
            <path d="M12.2541,30.465 L12.2541,31.5066"/>
            <path d="M12.2541,31.5066 L20.175,31.5066"/>
            <path d="M96.375,31.5066 L96.5908,31.5066"/>
            <path d="M97.1117,31.5066 L123.379,31.5066"/>
            <path d="M12.2541,30.465 L20.175,30.465"/>
            <path d="M96.375,30.465 L96.5908,30.465"/>
            <path d="M97.1117,30.465 L123.379,30.465"/>
        </g>
    <g id="product-247b9fc3-d910-48bf-9a75-62f04bd7c84e" class="IfcBeam material-null projection" ifc:name="Beam" ifc:guid="0aUv$3sH18lvfrOl1BryXE">
            <path d="M123.379,62.7576 L123.379,63.7993"/>
            <path d="M12.2541,62.7576 L12.2541,63.7993"/>
            <path d="M12.2541,63.7993 L20.175,63.7993"/>
            <path d="M96.375,63.7993 L96.5908,63.7993"/>
            <path d="M97.1117,63.7993 L123.379,63.7993"/>
            <path d="M12.2541,62.7576 L20.175,62.7576"/>
            <path d="M96.375,62.7576 L96.5908,62.7576"/>
            <path d="M97.1117,62.7576 L123.379,62.7576"/>
        </g>
        <g id="product-2bff8ae5-453a-4ad7-9b4b-21b7709ec1b8" class="IfcRailing material-null projection" ifc:name="Railing" ifc:guid="0h$uhbHJfArvjB8RTmdi6u">
            <path d="M96.8513,24.1114 L96.8513,24.6323"/>
            <path d="M96.8513,24.6323 L73.136,24.6323"/>
            <path d="M73.136,24.1114 L73.136,24.6323"/>
            <path d="M73.136,24.1114 L96.8513,24.1114"/>
            <path d="M97.1117,69.7744 L96.5908,69.7744"/>
            <path d="M96.5908,69.7744 L96.5908,24.3718"/>
            <path d="M97.1117,24.3718 L96.5908,24.3718"/>
            <path d="M97.1117,24.3718 L97.1117,69.7744"/>
            <path d="M61.1205,70.0348 L61.1205,69.514"/>
            <path d="M61.1205,69.514 L96.8512,69.514"/>
            <path d="M96.8512,70.0348 L96.8512,69.514"/>
            <path d="M96.8512,70.0348 L61.1205,70.0348"/>
        </g>
        <g id="product-260ae996-97db-494b-b666-6b20682ca0fc" class="IfcBeam material-null projection" ifc:name="Beam" ifc:guid="0c2kcMbzj9IxPcQo1eBA3y">
            <path d="M123.379,46.141 L123.379,47.1827"/>
            <path d="M12.2541,46.141 L12.2541,47.1827"/>
            <path d="M12.2541,47.1827 L20.175,47.1827"/>
            <path d="M96.375,47.1827 L96.5908,47.1827"/>
            <path d="M97.1117,47.1827 L123.379,47.1827"/>
            <path d="M12.2541,46.141 L20.175,46.141"/>
            <path d="M96.375,46.141 L96.5908,46.141"/>
            <path d="M97.1117,46.141 L123.379,46.141"/>
        </g>
        <g id="product-483204c3-2d45-445f-bc16-a828a15b00c0" class="IfcPile material-null projection" ifc:name="Pile" ifc:guid="18CWJ3BKL4NxmMg2YXMm30">
            <path d="M15.2883,47.4097 L15.3159,47.1827"/>
            <path d="M15.0212,48.1141 L15.2883,47.4097"/>
            <path d="M14.5932,48.7341 L15.0212,48.1141"/>
            <path d="M14.0293,49.2337 L14.5932,48.7341"/>
            <path d="M13.3623,49.5838 L14.0293,49.2337"/>
            <path d="M12.6308,49.7641 L13.3623,49.5838"/>
            <path d="M11.8774,49.7641 L12.6308,49.7641"/>
            <path d="M11.146,49.5838 L11.8774,49.7641"/>
            <path d="M10.4789,49.2337 L11.146,49.5838"/>
            <path d="M9.91502,48.7341 L10.4789,49.2337"/>
            <path d="M9.48707,48.1141 L9.91502,48.7341"/>
            <path d="M9.21992,47.4097 L9.48707,48.1141"/>
            <path d="M9.12912,46.6618 L9.21992,47.4097"/>
            <path d="M9.21992,45.914 L9.12912,46.6618"/>
            <path d="M9.48707,45.2096 L9.21992,45.914"/>
            <path d="M9.91502,44.5896 L9.48707,45.2096"/>
            <path d="M10.4789,44.09 L9.91502,44.5896"/>
            <path d="M11.146,43.7399 L10.4789,44.09"/>
            <path d="M11.8774,43.5596 L11.146,43.7399"/>
            <path d="M12.6308,43.5596 L11.8774,43.5596"/>
            <path d="M13.3623,43.7399 L12.6308,43.5596"/>
            <path d="M14.0293,44.09 L13.3623,43.7399"/>
            <path d="M14.5932,44.5896 L14.0293,44.09"/>
            <path d="M15.0212,45.2096 L14.5932,44.5896"/>
            <path d="M15.2883,45.914 L15.0212,45.2096"/>
            <path d="M15.3159,46.141 L15.2883,45.914"/>
        </g>
        <g id="product-26a76b06-ab3e-4d5d-a565-58b81bbb7334" class="IfcWall material-null projection" ifc:name="Wall" ifc:guid="0cfsi6gpvDNQLbMBWRktCq">
            <path d="M21.2167,68.2564 L20.175,69.2981"/>
            <path d="M21.2167,51.3593 L21.2167,68.2564"/>
            <path d="M21.2167,51.3593 L20.175,51.3593"/>
            <path d="M20.175,69.2981 L20.175,51.3593"/>
            <path d="M21.2167,51.3593 L21.2167,41.9843"/>
            <path d="M20.175,41.9843 L20.175,51.3593"/>
            <path d="M20.175,41.9843 L21.2167,41.9843"/>
            <path d="M21.2167,25.8898 L21.2167,41.9843"/>
            <path d="M20.175,24.8481 L21.2167,25.8898"/>
            <path d="M20.175,41.9843 L20.175,24.8481"/>
        </g>
        <g id="product-acd19d0a-3ccb-4380-a9d0-6972737632aa" class="IfcWall material-null projection" ifc:name="Wall" ifc:guid="2iqPqAFCj3WAdGQN9pTZAg">
            <path d="M21.2166,25.8898 L20.175,24.8481"/>
            <path d="M37.2855,25.8898 L21.2166,25.8898"/>
            <path d="M37.2855,25.8898 L37.2855,24.8481"/>
            <path d="M20.175,24.8481 L37.2855,24.8481"/>
            <path d="M37.2855,25.8898 L46.6605,25.8898"/>
            <path d="M46.6605,24.8481 L37.2855,24.8481"/>
            <path d="M46.6605,24.8481 L46.6605,25.8898"/>
            <path d="M63.5833,25.8898 L46.6605,25.8898"/>
            <path d="M64.625,24.8481 L63.5833,25.8898"/>
            <path d="M46.6605,24.8481 L64.625,24.8481"/>
        </g>
        <g id="product-620d8084-2446-4319-a3e1-07868a72c9f9" class="IfcWall material-null projection" ifc:name="Wall" ifc:guid="1Y3O2494P36QFX1uQASidv">
            <path d="M63.5833,68.2565 L64.625,69.2981"/>
            <path d="M63.4003,68.2565 L63.5833,68.2565"/>
            <path d="M63.4003,68.2565 L63.4003,69.2981"/>
            <path d="M64.625,69.2981 L63.4003,69.2981"/>
            <path d="M63.4003,68.2565 L54.0253,68.2565"/>
            <path d="M54.0253,69.2981 L63.4003,69.2981"/>
            <path d="M54.0253,69.2981 L54.0253,68.2565"/>
            <path d="M21.2167,68.2565 L54.0253,68.2565"/>
            <path d="M20.175,69.2981 L21.2167,68.2565"/>
            <path d="M54.0253,69.2981 L20.175,69.2981"/>
        </g>
        <g id="product-7c26e8a6-13e0-4244-b501-0be2c17030ce" class="IfcPile material-null projection" ifc:name="Pile" ifc:guid="1y9kYc4_12HBK12_B1S33E">
            <path d="M15.2883,31.7279 L15.3152,31.5066"/>
            <path d="M15.0212,32.4323 L15.2883,31.7279"/>
            <path d="M14.5932,33.0523 L15.0212,32.4323"/>
            <path d="M14.0293,33.5518 L14.5932,33.0523"/>
            <path d="M13.3623,33.9019 L14.0293,33.5518"/>
            <path d="M12.6308,34.0822 L13.3623,33.9019"/>
            <path d="M11.8774,34.0822 L12.6308,34.0822"/>
            <path d="M11.146,33.9019 L11.8774,34.0822"/>
            <path d="M10.4789,33.5518 L11.146,33.9019"/>
            <path d="M9.91502,33.0523 L10.4789,33.5518"/>
            <path d="M9.48707,32.4323 L9.91502,33.0523"/>
            <path d="M9.21992,31.7279 L9.48707,32.4323"/>
            <path d="M9.12912,30.98 L9.21992,31.7279"/>
            <path d="M9.21992,30.2321 L9.12912,30.98"/>
            <path d="M9.48707,29.5277 L9.21992,30.2321"/>
            <path d="M9.91502,28.9077 L9.48707,29.5277"/>
            <path d="M10.4789,28.4082 L9.91502,28.9077"/>
            <path d="M11.146,28.0581 L10.4789,28.4082"/>
            <path d="M11.8774,27.8778 L11.146,28.0581"/>
            <path d="M12.6308,27.8778 L11.8774,27.8778"/>
            <path d="M13.3623,28.0581 L12.6308,27.8778"/>
            <path d="M14.0293,28.4082 L13.3623,28.0581"/>
            <path d="M14.5932,28.9077 L14.0293,28.4082"/>
            <path d="M15.0212,29.5277 L14.5932,28.9077"/>
            <path d="M15.2883,30.2321 L15.0212,29.5277"/>
            <path d="M15.3166,30.465 L15.2883,30.2321"/>
        </g>
        <g id="product-2f70f1fd-5343-4ace-8c53-ddb7a3e4bb91" class="IfcStairFlight material-null projection" ifc:name="StairFlight" ifc:guid="0lSF7zKqDApenJtRUZvBkH">
            <path d="M93.25,8.9731 L93.25,24.1114"/>
            <path d="M93.25,24.6323 L93.25,24.8481"/>
            <path d="M83.875,8.97311 L83.875,24.1114"/>
            <path d="M83.875,24.6323 L83.875,24.8481"/>
            <path d="M96.375,8.9731 L96.375,24.1114"/>
            <path d="M96.375,24.6323 L96.375,24.8481"/>
            <path d="M87,8.97311 L87,24.1114"/>
            <path d="M87,24.6323 L87,24.8481"/>
            <path d="M74.5,8.97311 L74.5,24.1114"/>
            <path d="M74.5,24.6323 L74.5,24.8481"/>
            <path d="M77.625,8.97311 L77.625,24.1114"/>
            <path d="M77.625,24.6323 L77.625,24.8481"/>
            <path d="M90.125,8.9731 L90.125,24.1114"/>
            <path d="M90.125,24.6323 L90.125,24.8481"/>
            <path d="M80.75,8.97311 L80.75,24.1114"/>
            <path d="M80.75,24.6323 L80.75,24.8481"/>
            <path d="M77.625,24.8481 L93.25,24.8481"/>
            <path d="M77.625,24.8481 L74.5,24.8481"/>
            <path d="M80.75,24.8481 L77.625,24.8481"/>
            <path d="M83.875,24.8481 L80.75,24.8481"/>
            <path d="M87,24.8481 L83.875,24.8481"/>
            <path d="M90.125,24.8481 L87,24.8481"/>
            <path d="M93.25,24.8481 L90.125,24.8481"/>
            <path d="M96.375,24.8481 L93.25,24.8481"/>
            <path d="M93.25,8.9731 L90.125,8.9731"/>
            <path d="M90.125,8.9731 L87,8.97311"/>
            <path d="M87,8.97311 L83.875,8.97311"/>
            <path d="M83.875,8.97311 L80.75,8.97311"/>
            <path d="M80.75,8.97311 L77.625,8.97311"/>
            <path d="M77.625,8.97311 L74.5,8.97311"/>
            <path d="M77.625,8.97311 L93.25,8.9731"/>
            <path d="M96.375,8.9731 L93.25,8.9731"/>
        </g>
        <g id="product-4ebcf8b7-05a5-4b0c-946e-e4f31d014e7d" class="IfcWall material-null projection" ifc:name="Wall" ifc:guid="1ElFYt1QLB39HkvFCT0Kvz">
            <path d="M64.625,37.3148 L63.5833,37.3148"/>
            <path d="M63.5833,38.1393 L63.5833,37.3148"/>
            <path d="M63.5833,38.1393 L64.625,38.1393"/>
            <path d="M64.625,37.3148 L64.625,38.1393"/>
            <path d="M63.5833,38.1393 L63.5833,47.5143"/>
            <path d="M64.625,47.5143 L64.625,38.1393"/>
            <path d="M64.625,47.5143 L63.5833,47.5143"/>
            <path d="M63.5833,48.4924 L63.5833,47.5143"/>
            <path d="M63.5833,48.4924 L64.625,48.4924"/>
            <path d="M64.625,47.5143 L64.625,48.4924"/>
            <path d="M63.5833,48.4924 L63.5833,57.8674"/>
            <path d="M64.625,57.8674 L64.625,48.4924"/>
            <path d="M64.625,57.8674 L63.5833,57.8674"/>
            <path d="M63.5833,58.7173 L63.5833,57.8674"/>
            <path d="M63.5833,58.7173 L64.625,58.7173"/>
            <path d="M64.625,57.8674 L64.625,58.7173"/>
            <path d="M63.5833,58.7173 L63.5833,68.0923"/>
            <path d="M64.625,68.0923 L64.625,58.7173"/>
            <path d="M64.625,68.0923 L63.5833,68.0923"/>
            <path d="M63.5833,68.2564 L63.5833,68.0923"/>
            <path d="M64.625,69.2981 L63.5833,68.2564"/>
            <path d="M64.625,68.0923 L64.625,69.2981"/>
            <path d="M63.5833,25.8898 L64.625,24.8481"/>
            <path d="M63.5833,26.794 L63.5833,25.8898"/>
            <path d="M63.5833,26.794 L64.625,26.794"/>
            <path d="M64.625,24.8481 L64.625,26.794"/>
        </g>
        <g id="product-696b04bf-f692-478c-821c-e7849c548ac6" class="IfcPile material-null projection" ifc:name="Pile" ifc:guid="1fQmI$zf97Z88SvuISL8h6">
            <path d="M15.2883,64.0263 L15.3159,63.7993"/>
            <path d="M15.0212,64.7307 L15.2883,64.0263"/>
            <path d="M14.5932,65.3507 L15.0212,64.7307"/>
            <path d="M14.0293,65.8503 L14.5932,65.3507"/>
            <path d="M13.3623,66.2004 L14.0293,65.8503"/>
            <path d="M12.6308,66.3807 L13.3623,66.2004"/>
            <path d="M11.8774,66.3807 L12.6308,66.3807"/>
            <path d="M11.146,66.2004 L11.8774,66.3807"/>
            <path d="M10.4789,65.8503 L11.146,66.2004"/>
            <path d="M9.91502,65.3507 L10.4789,65.8503"/>
            <path d="M9.48707,64.7307 L9.91502,65.3507"/>
            <path d="M9.21992,64.0263 L9.48707,64.7307"/>
            <path d="M9.12912,63.2784 L9.21992,64.0263"/>
            <path d="M9.21992,62.5306 L9.12912,63.2784"/>
            <path d="M9.48707,61.8262 L9.21992,62.5306"/>
            <path d="M9.91502,61.2062 L9.48707,61.8262"/>
            <path d="M10.4789,60.7066 L9.91502,61.2062"/>
            <path d="M11.146,60.3565 L10.4789,60.7066"/>
            <path d="M11.8774,60.1762 L11.146,60.3565"/>
            <path d="M12.6308,60.1762 L11.8774,60.1762"/>
            <path d="M13.3623,60.3565 L12.6308,60.1762"/>
            <path d="M14.0293,60.7066 L13.3623,60.3565"/>
            <path d="M14.5932,61.2062 L14.0293,60.7066"/>
            <path d="M15.0212,61.8262 L14.5932,61.2062"/>
            <path d="M15.2883,62.5306 L15.0212,61.8262"/>
            <path d="M15.3159,62.7576 L15.2883,62.5306"/>
        </g>
        <g id="product-ef992d51-8200-48c6-b886-a53813b7d3d9" class="IfcSlab material-null projection" ifc:name="Slab" ifc:guid="3lcIrHWW18nhY6fJWJjzFP">
            <path d="M96.375,69.2981 L54.0253,69.2981"/>
            <path d="M96.375,24.8481 L96.375,69.2981"/>
            <path d="M77.625,24.8481 L96.375,24.8481"/>
            <path d="M77.625,8.9731 L77.625,24.1114"/>
            <path d="M77.625,24.6323 L77.625,24.8481"/>
            <path d="M20.175,8.9731 L77.625,8.9731"/>
            <path d="M20.175,69.2981 L20.175,69.2981"/>
            <path d="M20.175,24.8481 L20.175,8.9731"/>
        </g>
        <g id="product-2fdac2ae-3e20-43ae-9c56-6d2ba15cf9fc" class="IfcColumn material-null projection" ifc:name="Column" ifc:guid="0lsiAkFY13hfnMRIkXNFdy">
            <path d="M100.59,27.8608 L100.59,30.465"/>
            <path d="M100.59,31.5066 L100.59,34.1108"/>
            <path d="M105.799,27.8608 L100.59,27.8608"/>
            <path d="M105.799,34.1108 L105.799,31.5066"/>
            <path d="M105.799,30.465 L105.799,27.8608"/>
            <path d="M100.59,34.1108 L105.799,34.1108"/>
        </g>
        <g id="product-dbb8d10f-c60f-4b13-a5fd-685497ddad75" class="IfcColumn material-null projection" ifc:name="Column" ifc:guid="3RkD4FnWzB4wNzQ5INtQrr">
            <path d="M100.59,43.5369 L100.59,46.141"/>
            <path d="M100.59,47.1827 L100.59,49.7869"/>
            <path d="M105.799,43.5369 L100.59,43.5369"/>
            <path d="M105.799,49.7869 L105.799,47.1827"/>
            <path d="M105.799,46.141 L105.799,43.5369"/>
            <path d="M100.59,49.7869 L105.799,49.7869"/>
        </g>
        <g id="product-10905807-3dcc-42fc-afc7-35dd5e035bc4" class="IfcColumn material-null projection" ifc:name="Column" ifc:guid="0Ga5W7FSn2$A$7DTrU0rl4">
            <path d="M100.59,60.1535 L100.59,62.7576"/>
            <path d="M100.59,63.7993 L100.59,66.4035"/>
            <path d="M105.799,60.1535 L100.59,60.1535"/>
            <path d="M105.799,66.4035 L105.799,63.7993"/>
            <path d="M105.799,62.7576 L105.799,60.1535"/>
            <path d="M100.59,66.4035 L105.799,66.4035"/>
        </g>
        <g id="product-7a1221eb-ea40-46c3-9c6a-e12a5dce91a2" class="IfcDuctSegment material-null projection" ifc:name="DuctSegment" ifc:guid="1w4Y7hwa16mvnguIfTpf6Y">
            <path d="M26.129,65.172 L21.9623,65.172"/>
            <path d="M21.9623,65.172 L21.9623,67.2554"/>
            <path d="M21.9623,67.2554 L26.129,67.2554"/>
            <path d="M26.129,67.2554 L26.129,65.172"/>
        </g>
        <g id="product-259da587-cd59-41b9-89d2-c9c6b0ddc4b4" class="IfcPipeSegment material-null projection" ifc:name="PipeSegment" ifc:guid="0bdQM7pLb1kOdIoSQmtSIq">
            <path d="M27.8427,65.7442 L27.9673,65.7291"/>
            <path d="M27.7253,65.7887 L27.8427,65.7442"/>
            <path d="M27.622,65.8601 L27.7253,65.7887"/>
            <path d="M27.5387,65.9541 L27.622,65.8601"/>
            <path d="M27.4804,66.0652 L27.5387,65.9541"/>
            <path d="M27.4503,66.1871 L27.4804,66.0652"/>
            <path d="M27.4503,66.3127 L27.4503,66.1871"/>
            <path d="M27.4804,66.4346 L27.4503,66.3127"/>
            <path d="M27.5387,66.5458 L27.4804,66.4346"/>
            <path d="M27.622,66.6398 L27.5387,66.5458"/>
            <path d="M27.7253,66.7111 L27.622,66.6398"/>
            <path d="M27.8427,66.7556 L27.7253,66.7111"/>
            <path d="M27.9673,66.7708 L27.8427,66.7556"/>
            <path d="M28.092,66.7556 L27.9673,66.7708"/>
            <path d="M28.2094,66.7111 L28.092,66.7556"/>
            <path d="M28.3127,66.6398 L28.2094,66.7111"/>
            <path d="M28.396,66.5458 L28.3127,66.6398"/>
            <path d="M28.4543,66.4346 L28.396,66.5458"/>
            <path d="M28.4844,66.3127 L28.4543,66.4346"/>
            <path d="M28.4844,66.1871 L28.4844,66.3127"/>
            <path d="M28.4543,66.0652 L28.4844,66.1871"/>
            <path d="M28.396,65.9541 L28.4543,66.0652"/>
            <path d="M28.3127,65.8601 L28.396,65.9541"/>
            <path d="M28.2094,65.7887 L28.3127,65.8601"/>
            <path d="M28.092,65.7442 L28.2094,65.7887"/>
            <path d="M27.9673,65.7291 L28.092,65.7442"/>
            <path d="M27.9673,65.7291 L27.9673,65.7291"/>
            <path d="M28.092,65.7442 L28.092,65.7442"/>
            <path d="M28.2094,65.7887 L28.2094,65.7887"/>
            <path d="M27.622,66.6398 L27.622,66.6398"/>
            <path d="M27.5387,66.5458 L27.622,66.6398"/>
            <path d="M27.4804,66.4346 L27.5387,66.5458"/>
            <path d="M27.4503,66.3127 L27.4804,66.4346"/>
            <path d="M27.4503,66.1871 L27.4503,66.3127"/>
            <path d="M27.4804,66.0652 L27.4503,66.1871"/>
            <path d="M27.5387,65.9541 L27.4804,66.0652"/>
            <path d="M27.622,65.8601 L27.5387,65.9541"/>
            <path d="M27.7253,65.7887 L27.622,65.8601"/>
            <path d="M27.8427,65.7442 L27.7253,65.7887"/>
            <path d="M27.9673,65.7291 L27.8427,65.7442"/>
        </g>
        <g id="product-7411caf4-e909-464d-a28e-38de21ad4cb2" class="IfcFurniture material-null projection" ifc:name="Furniture" ifc:guid="1q4ShqwGb6JQAEEDuXhKoo">
            <path d="M32.4239,40.5844 L32.4239,42.4074"/>
            <path d="M50.6531,40.5844 L32.4239,40.5844"/>
            <path d="M50.6531,42.4074 L50.6531,40.5844"/>
            <path d="M32.4239,42.4074 L50.6531,42.4074"/>
            <path d="M44.5767,42.4074 L44.5767,49.9594"/>
            <path d="M50.6531,42.4074 L44.5767,42.4074"/>
            <path d="M50.6531,49.9594 L50.6531,42.4074"/>
            <path d="M44.5767,49.9594 L50.6531,49.9594"/>
            <path d="M38.5003,42.4074 L38.5003,49.9594"/>
            <path d="M44.5767,42.4074 L38.5003,42.4074"/>
            <path d="M44.5767,49.9594 L44.5767,42.4074"/>
            <path d="M38.5003,49.9594 L44.5767,49.9594"/>
            <path d="M32.4239,42.4074 L32.4239,49.9594"/>
            <path d="M38.5003,42.4074 L32.4239,42.4074"/>
            <path d="M38.5003,49.9594 L38.5003,42.4074"/>
            <path d="M32.4239,49.9594 L38.5003,49.9594"/>
            <path d="M50.6531,40.5844 L50.6531,49.9594"/>
            <path d="M52.476,40.5844 L50.6531,40.5844"/>
            <path d="M52.476,49.9594 L52.476,40.5844"/>
            <path d="M50.6531,49.9594 L52.476,49.9594"/>
            <path d="M30.601,40.5844 L30.601,49.9594"/>
            <path d="M32.4239,40.5844 L30.601,40.5844"/>
            <path d="M32.4239,49.9594 L32.4239,40.5844"/>
            <path d="M30.601,49.9594 L32.4239,49.9594"/>
        </g>
        <g id="product-3376cedb-0e83-423a-bc3e-9a6d5254bded" class="IfcElectricAppliance material-null projection" ifc:name="ElectricAppliance" ifc:guid="0pTixR3eD2Ehm_ccrILBtj">
            <path d="M35.3245,27.7711 L35.3472,27.5841"/>
            <path d="M35.2578,27.9472 L35.3245,27.7711"/>
            <path d="M35.1508,28.1022 L35.2578,27.9472"/>
            <path d="M35.0098,28.2271 L35.1508,28.1022"/>
            <path d="M34.843,28.3146 L35.0098,28.2271"/>
            <path d="M34.6602,28.3597 L34.843,28.3146"/>
            <path d="M34.4718,28.3597 L34.6602,28.3597"/>
            <path d="M34.289,28.3146 L34.4718,28.3597"/>
            <path d="M34.1222,28.2271 L34.289,28.3146"/>
            <path d="M33.9812,28.1022 L34.1222,28.2271"/>
            <path d="M33.8742,27.9472 L33.9812,28.1022"/>
            <path d="M33.8074,27.7711 L33.8742,27.9472"/>
            <path d="M33.7847,27.5841 L33.8074,27.7711"/>
            <path d="M33.8074,27.3971 L33.7847,27.5841"/>
            <path d="M33.8742,27.221 L33.8074,27.3971"/>
            <path d="M33.9812,27.0661 L33.8742,27.221"/>
            <path d="M34.1222,26.9412 L33.9812,27.0661"/>
            <path d="M34.289,26.8536 L34.1222,26.9412"/>
            <path d="M34.4718,26.8086 L34.289,26.8536"/>
            <path d="M34.6602,26.8086 L34.4718,26.8086"/>
            <path d="M34.843,26.8536 L34.6602,26.8086"/>
            <path d="M35.0098,26.9412 L34.843,26.8536"/>
            <path d="M35.1508,27.0661 L35.0098,26.9412"/>
            <path d="M35.2578,27.221 L35.1508,27.0661"/>
            <path d="M35.3245,27.3971 L35.2578,27.221"/>
            <path d="M35.3472,27.5841 L35.3245,27.3971"/>
            <path d="M30.637,27.7711 L30.6597,27.5841"/>
            <path d="M30.5703,27.9472 L30.637,27.7711"/>
            <path d="M30.4633,28.1022 L30.5703,27.9472"/>
            <path d="M30.3223,28.2271 L30.4633,28.1022"/>
            <path d="M30.1555,28.3146 L30.3223,28.2271"/>
            <path d="M29.9727,28.3597 L30.1555,28.3146"/>
            <path d="M29.7843,28.3597 L29.9727,28.3597"/>
            <path d="M29.6015,28.3146 L29.7843,28.3597"/>
            <path d="M29.4347,28.2271 L29.6015,28.3146"/>
            <path d="M29.2937,28.1022 L29.4347,28.2271"/>
            <path d="M29.1867,27.9472 L29.2937,28.1022"/>
            <path d="M29.1199,27.7711 L29.1867,27.9472"/>
            <path d="M29.0972,27.5841 L29.1199,27.7711"/>
            <path d="M29.1199,27.3971 L29.0972,27.5841"/>
            <path d="M29.1867,27.221 L29.1199,27.3971"/>
            <path d="M29.2937,27.0661 L29.1867,27.221"/>
            <path d="M29.4347,26.9412 L29.2937,27.0661"/>
            <path d="M29.6015,26.8536 L29.4347,26.9412"/>
            <path d="M29.7843,26.8086 L29.6015,26.8536"/>
            <path d="M29.9727,26.8086 L29.7843,26.8086"/>
            <path d="M30.1555,26.8536 L29.9727,26.8086"/>
            <path d="M30.3223,26.9412 L30.1555,26.8536"/>
            <path d="M30.4633,27.0661 L30.3223,26.9412"/>
            <path d="M30.5703,27.221 L30.4633,27.0661"/>
            <path d="M30.637,27.3971 L30.5703,27.221"/>
            <path d="M30.6597,27.5841 L30.637,27.3971"/>
            <path d="M35.3245,30.9586 L35.3472,30.7716"/>
            <path d="M35.2578,31.1347 L35.3245,30.9586"/>
            <path d="M35.1508,31.2897 L35.2578,31.1347"/>
            <path d="M35.0098,31.4146 L35.1508,31.2897"/>
            <path d="M34.843,31.5021 L35.0098,31.4146"/>
            <path d="M34.6602,31.5472 L34.843,31.5021"/>
            <path d="M34.4718,31.5472 L34.6602,31.5472"/>
            <path d="M34.289,31.5021 L34.4718,31.5472"/>
            <path d="M34.1222,31.4146 L34.289,31.5021"/>
            <path d="M33.9812,31.2897 L34.1222,31.4146"/>
            <path d="M33.8742,31.1347 L33.9812,31.2897"/>
            <path d="M33.8074,30.9586 L33.8742,31.1347"/>
            <path d="M33.7847,30.7716 L33.8074,30.9586"/>
            <path d="M33.8074,30.5846 L33.7847,30.7716"/>
            <path d="M33.8742,30.4085 L33.8074,30.5846"/>
            <path d="M33.9812,30.2536 L33.8742,30.4085"/>
            <path d="M34.1222,30.1287 L33.9812,30.2536"/>
            <path d="M34.289,30.0411 L34.1222,30.1287"/>
            <path d="M34.4718,29.9961 L34.289,30.0411"/>
            <path d="M34.6602,29.9961 L34.4718,29.9961"/>
            <path d="M34.843,30.0411 L34.6602,29.9961"/>
            <path d="M35.0098,30.1287 L34.843,30.0411"/>
            <path d="M35.1508,30.2536 L35.0098,30.1287"/>
            <path d="M35.2578,30.4085 L35.1508,30.2536"/>
            <path d="M35.3245,30.5846 L35.2578,30.4085"/>
            <path d="M35.3472,30.7716 L35.3245,30.5846"/>
            <path d="M30.637,30.9586 L30.6597,30.7716"/>
            <path d="M30.5703,31.1347 L30.637,30.9586"/>
            <path d="M30.4633,31.2897 L30.5703,31.1347"/>
            <path d="M30.3223,31.4146 L30.4633,31.2897"/>
            <path d="M30.1555,31.5021 L30.3223,31.4146"/>
            <path d="M29.9727,31.5472 L30.1555,31.5021"/>
            <path d="M29.7843,31.5472 L29.9727,31.5472"/>
            <path d="M29.6015,31.5021 L29.7843,31.5472"/>
            <path d="M29.4347,31.4146 L29.6015,31.5021"/>
            <path d="M29.2937,31.2897 L29.4347,31.4146"/>
            <path d="M29.1867,31.1347 L29.2937,31.2897"/>
            <path d="M29.1199,30.9586 L29.1867,31.1347"/>
            <path d="M29.0972,30.7716 L29.1199,30.9586"/>
            <path d="M29.1199,30.5846 L29.0972,30.7716"/>
            <path d="M29.1867,30.4085 L29.1199,30.5846"/>
            <path d="M29.2937,30.2536 L29.1867,30.4085"/>
            <path d="M29.4347,30.1287 L29.2937,30.2536"/>
            <path d="M29.6015,30.0411 L29.4347,30.1287"/>
            <path d="M29.7843,29.9961 L29.6015,30.0411"/>
            <path d="M29.9727,29.9961 L29.7843,29.9961"/>
            <path d="M30.1555,30.0411 L29.9727,29.9961"/>
            <path d="M30.3223,30.1287 L30.1555,30.0411"/>
            <path d="M30.4633,30.2536 L30.3223,30.1287"/>
            <path d="M30.5703,30.4085 L30.4633,30.2536"/>
            <path d="M30.637,30.5846 L30.5703,30.4085"/>
            <path d="M30.6597,30.7716 L30.637,30.5846"/>
            <path d="M28.316,26.5216 L28.316,31.8341"/>
            <path d="M36.1285,26.5216 L28.316,26.5216"/>
            <path d="M36.1285,31.8341 L36.1285,26.5216"/>
            <path d="M28.316,31.8341 L36.1285,31.8341"/>
        </g>
        <g id="product-7d2551c8-9712-45ee-baf8-d15594d75301" class="IfcSanitaryTerminal material-null projection" ifc:name="SanitaryTerminal" ifc:guid="1z9L78bn95xhhuqLMKrrC1">
            <path d="M44.7222,26.6518 L44.7222,27.9018"/>
            <path d="M44.9628,27.9234 L44.9827,27.8237"/>
            <path d="M44.9064,28.0078 L44.9628,27.9234"/>
            <path d="M44.8219,28.0643 L44.9064,28.0078"/>
            <path d="M44.7222,28.0841 L44.8219,28.0643"/>
            <path d="M44.6226,28.0643 L44.7222,28.0841"/>
            <path d="M44.5381,28.0078 L44.6226,28.0643"/>
            <path d="M44.4817,27.9234 L44.5381,28.0078"/>
            <path d="M44.4618,27.8237 L44.4817,27.9234"/>
            <path d="M44.4817,27.724 L44.4618,27.8237"/>
            <path d="M44.5381,27.6396 L44.4817,27.724"/>
            <path d="M44.6226,27.5831 L44.5381,27.6396"/>
            <path d="M44.7222,27.5633 L44.6226,27.5831"/>
            <path d="M44.8219,27.5831 L44.7222,27.5633"/>
            <path d="M44.9064,27.6396 L44.8219,27.5831"/>
            <path d="M44.9628,27.724 L44.9064,27.6396"/>
            <path d="M44.9827,27.8237 L44.9628,27.724"/>
            <path d="M42.1181,27.3029 L42.1181,30.8445"/>
            <path d="M42.1311,27.187 L42.1181,27.3029"/>
            <path d="M42.1697,27.0769 L42.1311,27.187"/>
            <path d="M42.2317,26.9781 L42.1697,27.0769"/>
            <path d="M42.3142,26.8957 L42.2317,26.9781"/>
            <path d="M42.4129,26.8336 L42.3142,26.8957"/>
            <path d="M42.523,26.7951 L42.4129,26.8336"/>
            <path d="M42.6389,26.782 L42.523,26.7951"/>
            <path d="M46.8056,26.782 L42.6389,26.782"/>
            <path d="M46.9215,26.7951 L46.8056,26.782"/>
            <path d="M47.0316,26.8336 L46.9215,26.7951"/>
            <path d="M47.1303,26.8957 L47.0316,26.8336"/>
            <path d="M47.2128,26.9781 L47.1303,26.8957"/>
            <path d="M47.2748,27.0769 L47.2128,26.9781"/>
            <path d="M47.3134,27.187 L47.2748,27.0769"/>
            <path d="M47.3264,27.3029 L47.3134,27.187"/>
            <path d="M47.3264,30.8445 L47.3264,27.3029"/>
            <path d="M47.3134,30.9604 L47.3264,30.8445"/>
            <path d="M47.2748,31.0705 L47.3134,30.9604"/>
            <path d="M47.2128,31.1693 L47.2748,31.0705"/>
            <path d="M47.1303,31.2517 L47.2128,31.1693"/>
            <path d="M47.0316,31.3138 L47.1303,31.2517"/>
            <path d="M46.9215,31.3523 L47.0316,31.3138"/>
            <path d="M46.8056,31.3654 L46.9215,31.3523"/>
            <path d="M42.6389,31.3654 L46.8056,31.3654"/>
            <path d="M42.523,31.3523 L42.6389,31.3654"/>
            <path d="M42.4129,31.3138 L42.523,31.3523"/>
            <path d="M42.3142,31.2517 L42.4129,31.3138"/>
            <path d="M42.2317,31.1693 L42.3142,31.2517"/>
            <path d="M42.1697,31.0705 L42.2317,31.1693"/>
            <path d="M42.1311,30.9604 L42.1697,31.0705"/>
            <path d="M42.1181,30.8445 L42.1311,30.9604"/>
            <path d="M42.1181,27.3029 L42.1181,30.8445"/>
            <path d="M36.1285,26.5216 L36.1285,31.6258"/>
            <path d="M47.5868,26.5216 L36.1285,26.5216"/>
            <path d="M47.5868,31.6258 L47.5868,26.5216"/>
            <path d="M36.1285,31.6258 L47.5868,31.6258"/>
        </g>
        <g id="product-71d1549c-9958-4911-92aa-944271e2e80a" class="IfcFurniture material-null projection" ifc:name="Furniture" ifc:guid="1nqLIScLX94PAgb49nukWA">
            <path d="M91.2744,66.0038 L90.904,65.7091"/>
            <path d="M91.4816,66.0494 L91.2744,66.0038"/>
            <path d="M91.9704,65.9689 L91.4816,66.0494"/>
            <path d="M92.139,65.8802 L91.9704,65.9689"/>
            <path d="M92.25,65.6903 L92.139,65.8802"/>
            <path d="M92.181,65.4094 L92.25,65.6903"/>
            <path d="M92.0975,65.282 L92.181,65.4094"/>
            <path d="M91.9002,65.0845 L91.5726,64.9044"/>
            <path d="M92.0975,65.282 L91.9002,65.0845"/>
            <path d="M92.103,64.9289 L92.0975,65.282"/>
            <path d="M92.1278,64.5239 L92.103,64.9289"/>
            <path d="M92.3918,64.2028 L92.1278,64.5239"/>
            <path d="M92.4453,63.7563 L92.3918,64.2028"/>
            <path d="M92.3089,63.2834 L92.4453,63.7563"/>
            <path d="M92.0586,62.9281 L92.3089,63.2834"/>
            <path d="M91.803,62.6751 L92.0586,62.9281"/>
            <path d="M91.1104,64.8168 L91.1795,65.0978"/>
            <path d="M90.8294,64.3469 L91.1104,64.8168"/>
            <path d="M90.4194,64.0889 L90.8294,64.3469"/>
            <path d="M90.2858,64.0152 L90.4194,64.0889"/>
            <path d="M90.2324,64.0455 L90.2858,64.0152"/>
            <path d="M90.3109,64.4512 L90.2324,64.0455"/>
            <path d="M90.5133,64.774 L90.3109,64.4512"/>
            <path d="M90.7845,65.0599 L90.5133,64.774"/>
            <path d="M90.9393,65.2358 L90.7845,65.0599"/>
            <path d="M90.834,64.7707 L90.9814,65.1577"/>
            <path d="M90.6451,64.5496 L90.834,64.7707"/>
            <path d="M90.5392,64.3147 L90.6451,64.5496"/>
            <path d="M90.3964,64.1673 L90.5392,64.3147"/>
            <path d="M90.9734,62.4454 L90.8193,62.6951"/>
            <path d="M91.1689,62.3322 L90.9734,62.4454"/>
            <path d="M91.478,62.2942 L91.1689,62.3322"/>
            <path d="M91.6928,62.3963 L91.478,62.2942"/>
            <path d="M91.803,62.6751 L91.6928,62.3963"/>
            <path d="M91.4603,62.5811 L91.803,62.6751"/>
            <path d="M91.1673,62.5645 L91.4603,62.5811"/>
            <path d="M90.8193,62.6951 L91.1673,62.5645"/>
            <path d="M90.5897,62.9357 L90.8193,62.6951"/>
            <path d="M90.3097,63.268 L90.5897,62.9357"/>
            <path d="M90.1372,63.7914 L90.3097,63.268"/>
            <path d="M90.0948,64.1253 L90.1372,63.7914"/>
            <path d="M90.2613,64.5118 L90.0948,64.1253"/>
            <path d="M90.4649,64.755 L90.2613,64.5118"/>
            <path d="M90.5286,65.0932 L90.4649,64.755"/>
            <path d="M90.638,65.4082 L90.5286,65.0932"/>
            <path d="M90.0129,65.3766 L89.7873,65.4562"/>
            <path d="M90.3844,65.4363 L90.0129,65.3766"/>
            <path d="M90.8156,65.5425 L90.3844,65.4363"/>
            <path d="M90.6148,65.6501 L91.0763,65.7443"/>
            <path d="M90.4517,65.6517 L90.6148,65.6501"/>
            <path d="M90.0835,65.6331 L90.4517,65.6517"/>
            <path d="M89.7936,65.6205 L90.0835,65.6331"/>
            <path d="M89.6691,65.4981 L89.7936,65.6205"/>
            <path d="M89.6462,65.3782 L89.6691,65.4981"/>
            <path d="M89.7172,65.3143 L89.6462,65.3782"/>
            <path d="M89.9644,65.2929 L89.7172,65.3143"/>
            <path d="M90.1987,65.2859 L89.9644,65.2929"/>
            <path d="M90.4274,65.3296 L90.1987,65.2859"/>
            <path d="M90.7084,65.4344 L90.4274,65.3296"/>
            <path d="M91.0235,65.4179 L90.7084,65.4344"/>
        </g>
        <g id="product-1f4ce272-d713-4dc8-9bc1-403da792ed95" class="IfcDoor material-null projection" ifc:name="Door" ifc:guid="0VJE9ornDDo9l1G3sdaksL">
            <path d="M64.625,36.7419 L64.625,37.3148"/>
            <path d="M64.0521,36.7419 L64.625,36.7419"/>
            <path d="M64.0521,36.8981 L64.0521,36.7419"/>
            <path d="M63.5833,36.8981 L64.0521,36.8981"/>
            <path d="M63.5833,37.3148 L63.5833,36.8981"/>
            <path d="M64.625,37.3148 L64.625,37.3148"/>
            <path d="M63.5833,27.2106 L64.0521,27.2106"/>
            <path d="M63.5833,26.794 L63.5833,27.2106"/>
            <path d="M64.625,26.794 L64.625,26.794"/>
            <path d="M64.625,27.3669 L64.625,26.794"/>
            <path d="M64.0521,27.3669 L64.625,27.3669"/>
            <path d="M64.0521,27.2106 L64.0521,27.3669"/>
            <path d="M62.3325,36.7641 L63.5833,36.8461"/>
            <path d="M61.103,36.5195 L62.3325,36.7641"/>
            <path d="M59.916,36.1166 L61.103,36.5195"/>
            <path d="M58.7917,35.5621 L59.916,36.1166"/>
            <path d="M57.7494,34.8657 L58.7917,35.5621"/>
            <path d="M56.8069,34.0392 L57.7494,34.8657"/>
            <path d="M55.9804,33.0967 L56.8069,34.0392"/>
            <path d="M55.2839,32.0544 L55.9804,33.0967"/>
            <path d="M54.7295,30.9301 L55.2839,32.0544"/>
            <path d="M54.3265,29.7431 L54.7295,30.9301"/>
            <path d="M54.082,28.5136 L54.3265,29.7431"/>
            <path d="M54,27.2627 L54.082,28.5136"/>
            <path d="M54,27.6794 L54,27.2627"/>
            <path d="M63.5833,27.6794 L54,27.6794"/>
            <path d="M63.5833,27.2627 L63.5833,27.6794"/>
            <path d="M54,27.2627 L63.5833,27.2627"/>
        </g>
        <g id="product-5b76a5fc-1070-4623-bb63-8911e8d92c46" class="IfcWindow material-null projection" ifc:name="Window" ifc:guid="1RTgNy47168xjZYH7esIn6">
            <path d="M64.625,46.4726 L64.625,39.181"/>
            <path d="M64.1042,46.4726 L64.1042,39.181"/>
            <path d="M64.625,47.5143 L64.625,47.5143"/>
            <path d="M64.1042,46.4726 L64.1042,47.5143"/>
            <path d="M64.625,46.4726 L64.1042,46.4726"/>
            <path d="M64.625,47.5143 L64.625,46.4726"/>
            <path d="M64.625,38.1393 L64.625,38.1393"/>
            <path d="M64.625,39.181 L64.625,38.1393"/>
            <path d="M64.1042,39.181 L64.625,39.181"/>
            <path d="M64.1042,38.1393 L64.1042,39.181"/>
            <path d="M64.3125,46.4726 L64.4167,46.4726"/>
            <path d="M64.3125,39.181 L64.3125,46.4726"/>
            <path d="M64.4167,39.181 L64.3125,39.181"/>
            <path d="M64.4167,46.4726 L64.4167,39.181"/>
        </g>
        <g id="product-8c354b7f-57ec-4351-843c-9ee3943f1208" class="IfcWindow material-null projection" ifc:name="Window" ifc:guid="2CDKj$L_n3KOGydkEKFn88">
            <path d="M64.625,56.8257 L64.625,49.5341"/>
            <path d="M64.1042,56.8257 L64.1042,49.5341"/>
            <path d="M64.625,57.8674 L64.625,57.8674"/>
            <path d="M64.1042,56.8257 L64.1042,57.8674"/>
            <path d="M64.625,56.8257 L64.1042,56.8257"/>
            <path d="M64.625,57.8674 L64.625,56.8257"/>
            <path d="M64.625,48.4924 L64.625,48.4924"/>
            <path d="M64.625,49.5341 L64.625,48.4924"/>
            <path d="M64.1042,49.5341 L64.625,49.5341"/>
            <path d="M64.1042,48.4924 L64.1042,49.5341"/>
            <path d="M64.3125,56.8257 L64.4167,56.8257"/>
            <path d="M64.3125,49.5341 L64.3125,56.8257"/>
            <path d="M64.4167,49.5341 L64.3125,49.5341"/>
            <path d="M64.4167,56.8257 L64.4167,49.5341"/>
        </g>
        <g id="product-e4db4d63-3dff-45c7-acea-af25076753ac" class="IfcWindow material-null projection" ifc:name="Window" ifc:guid="3asqrZFVz5nwpghoK7PrEi">
            <path d="M64.625,67.0507 L64.625,59.759"/>
            <path d="M64.1042,67.0507 L64.1042,59.759"/>
            <path d="M64.1042,67.0507 L64.1042,68.0923"/>
            <path d="M64.625,67.0507 L64.1042,67.0507"/>
            <path d="M64.625,68.0923 L64.625,67.0507"/>
            <path d="M64.625,58.7173 L64.625,58.7173"/>
            <path d="M64.625,59.759 L64.625,58.7173"/>
            <path d="M64.1042,59.759 L64.625,59.759"/>
            <path d="M64.1042,58.7173 L64.1042,59.759"/>
            <path d="M64.3125,67.0507 L64.4167,67.0507"/>
            <path d="M64.3125,59.759 L64.3125,67.0507"/>
            <path d="M64.4167,59.759 L64.3125,59.759"/>
            <path d="M64.4167,67.0507 L64.4167,59.759"/>
        </g>
        <g id="product-d28cc85b-18ac-4fd8-81ad-8d75afb17155" class="IfcWindow material-null projection" ifc:name="Window" ifc:guid="3IZCXR6AnFs86jZNMliN5L">
            <path d="M45.6188,24.8481 L38.3271,24.8481"/>
            <path d="M45.6188,25.3689 L38.3271,25.369"/>
            <path d="M45.6188,25.3689 L46.6605,25.3689"/>
            <path d="M45.6188,24.8481 L45.6188,25.3689"/>
            <path d="M46.6605,24.8481 L45.6188,24.8481"/>
            <path d="M38.3271,24.8481 L37.2855,24.8481"/>
            <path d="M38.3271,25.369 L38.3271,24.8481"/>
            <path d="M37.2855,25.369 L38.3271,25.369"/>
            <path d="M45.6188,25.1606 L45.6188,25.0564"/>
            <path d="M38.3271,25.1606 L45.6188,25.1606"/>
            <path d="M38.3271,25.0565 L38.3271,25.1606"/>
            <path d="M45.6188,25.0564 L38.3271,25.0565"/>
        </g>
        <g id="product-892923b1-60c1-4cee-82d3-e9835123ade5" class="IfcWindow material-null projection" ifc:name="Window" ifc:guid="29AIEnOC5CxeBJwODH8wtb">
            <path d="M20.175,43.026 L20.175,50.3177"/>
            <path d="M20.6958,43.026 L20.6958,50.3177"/>
            <path d="M20.6958,43.026 L20.6958,41.9843"/>
            <path d="M20.175,43.026 L20.6958,43.026"/>
            <path d="M20.175,41.9843 L20.175,43.026"/>
            <path d="M20.175,50.3177 L20.175,51.3593"/>
            <path d="M20.6958,50.3177 L20.175,50.3177"/>
            <path d="M20.6958,51.3593 L20.6958,50.3177"/>
            <path d="M20.4875,43.026 L20.3833,43.026"/>
            <path d="M20.4875,50.3177 L20.4875,43.026"/>
            <path d="M20.3833,50.3177 L20.4875,50.3177"/>
            <path d="M20.3833,43.026 L20.3833,50.3177"/>
        </g>
        <g id="product-e11f371d-f581-48c0-86c2-d304def52854" class="IfcWindow material-null projection" ifc:name="Window" ifc:guid="3X7pSTzO58m8R2qmJUzIXK">
            <path d="M55.067,69.2981 L62.3587,69.2981"/>
            <path d="M55.067,68.7773 L62.3587,68.7773"/>
            <path d="M55.067,68.7773 L54.0253,68.7773"/>
            <path d="M55.067,69.2981 L55.067,68.7773"/>
            <path d="M54.0253,69.2981 L55.067,69.2981"/>
            <path d="M62.3587,69.2981 L63.4003,69.2981"/>
            <path d="M62.3587,68.7773 L62.3587,69.2981"/>
            <path d="M63.4003,68.7773 L62.3587,68.7773"/>
            <path d="M55.067,68.9856 L55.067,69.0898"/>
            <path d="M62.3587,68.9856 L55.067,68.9856"/>
            <path d="M62.3587,69.0898 L62.3587,68.9856"/>
            <path d="M55.067,69.0898 L62.3587,69.0898"/>
        </g>
        <g id="product-259da587-cd59-41b9-89d2-c9c6b0ddc4b4-body" class="IfcPipeSegment material-null cut" ifc:name="PipeSegment" ifc:guid="0bdQM7pLb1kOdIoSQmtSIq">
            <path d="M27.9673,65.7291 L28.1667,65.7687 L28.3356,65.8816 L28.4485,66.0506 L28.4882,66.2499 L28.4485,66.4492 L28.3356,66.6182 L28.1667,66.7311 L27.9673,66.7708 L27.768,66.7311 L27.5991,66.6182 L27.4862,66.4492 L27.4465,66.2499 L27.4862,66.0506 L27.5991,65.8816 L27.768,65.7687 L27.9673,65.7291"/>
        </g>
        <g id="product-7a1221eb-ea40-46c3-9c6a-e12a5dce91a2-body" class="IfcDuctSegment material-null cut" ifc:name="DuctSegment" ifc:guid="1w4Y7hwa16mvnguIfTpf6Y">
            <path d="M26.129,65.172 L21.9623,65.172 L21.9623,67.2554 L26.129,67.2554 L26.129,65.172"/>
        </g>
        <g class="2iqPqAFCj3WAdGQN9pTZAg 1ElFYt1QLB39HkvFCT0Kvz IfcWall material-null 0cfsi6gpvDNQLbMBWRktCq 1Y3O2494P36QFX1uQASidv cut"><path d="M37.3,24.8 L20.2,24.8 L20.2,42.0 L21.2,42.0 L21.2,25.9 L37.3,25.9 Z"/></g><g class="2iqPqAFCj3WAdGQN9pTZAg 1ElFYt1QLB39HkvFCT0Kvz IfcWall material-null 0cfsi6gpvDNQLbMBWRktCq 1Y3O2494P36QFX1uQASidv cut"><path d="M46.7,24.8 L46.7,25.9 L63.6,25.9 L63.6,26.8 L64.6,26.8 L64.6,24.8 Z"/></g><g class="2iqPqAFCj3WAdGQN9pTZAg 1ElFYt1QLB39HkvFCT0Kvz IfcWall material-null 0cfsi6gpvDNQLbMBWRktCq 1Y3O2494P36QFX1uQASidv cut"><path d="M54.0,69.3 L54.0,68.3 L21.2,68.3 L21.2,51.4 L20.2,51.4 L20.2,69.3 Z"/></g><g class="2iqPqAFCj3WAdGQN9pTZAg 1ElFYt1QLB39HkvFCT0Kvz IfcWall material-null 0cfsi6gpvDNQLbMBWRktCq 1Y3O2494P36QFX1uQASidv cut"><path d="M63.4,69.3 L64.6,69.3 L64.6,68.1 L63.6,68.1 L63.6,68.3 L63.4,68.3 Z"/></g><g class="2iqPqAFCj3WAdGQN9pTZAg 1ElFYt1QLB39HkvFCT0Kvz IfcWall material-null 0cfsi6gpvDNQLbMBWRktCq 1Y3O2494P36QFX1uQASidv cut"><path d="M64.6,37.3 L63.6,37.3 L63.6,38.1 L64.6,38.1 Z"/></g><g class="2iqPqAFCj3WAdGQN9pTZAg 1ElFYt1QLB39HkvFCT0Kvz IfcWall material-null 0cfsi6gpvDNQLbMBWRktCq 1Y3O2494P36QFX1uQASidv cut"><path d="M64.6,48.5 L64.6,47.5 L63.6,47.5 L63.6,48.5 Z"/></g><g class="2iqPqAFCj3WAdGQN9pTZAg 1ElFYt1QLB39HkvFCT0Kvz IfcWall material-null 0cfsi6gpvDNQLbMBWRktCq 1Y3O2494P36QFX1uQASidv cut"><path d="M64.6,57.9 L63.6,57.9 L63.6,58.7 L64.6,58.7 Z"/></g></g>
</svg>