  0
SECTION
  2
HEADER
  9
$ACADVER
  1
AC1027
  9
$ACADMAINTVER
 70
105
  9
$DWGCODEPAGE
  3
ANSI_1252
  9
$LASTSAVEDBY
  1
ezdxf
  9
$REQUIREDVERSIONS
160
0
  9
$INSBASE
 10
0.0
 20
0.0
 30
0.0
  9
$EXTMIN
 10
1e+20
 20
1e+20
 30
1e+20
  9
$EXTMAX
 10
-1e+20
 20
-1e+20
 30
-1e+20
  9
$LIMMIN
 10
0.0
 20
0.0
  9
$LIMMAX
 10
420.0
 20
297.0
  9
$ORTHOMODE
 70
0
  9
$REGENMODE
 70
1
  9
$FILLMODE
 70
1
  9
$QTEXTMODE
 70
0
  9
$MIRRTEXT
 70
1
  9
$LTSCALE
 40
1.0
  9
$ATTMODE
 70
1
  9
$TEXTSIZE
 40
2.5
  9
$TRACEWID
 40
1.0
  9
$TEXTSTYLE
  7
OpenSans
  9
$CLAYER
  8
0
  9
$CELTYPE
  6
ByLayer
  9
$CECOLOR
 62
256
  9
$CELTSCALE
 40
1.0
  9
$DISPSILH
 70
0
  9
$DIMSCALE
 40
1.0
  9
$DIMASZ
 40
0.175
  9
$DIMEXO
 40
0.125
  9
$DIMDLI
 40
3.75
  9
$DIMRND
 40
0.0
  9
$DIMDLE
 40
0.0
  9
$DIMEXE
 40
0.375
  9
$DIMTP
 40
0.0
  9
$DIMTM
 40
0.0
  9
$DIMTXT
 40
0.25
  9
$DIMCEN
 40
2.5
  9
$DIMTSZ
 40
0.0
  9
$DIMTOL
 70
0
  9
$DIMLIM
 70
0
  9
$DIMTIH
 70
0
  9
$DIMTOH
 70
0
  9
$DIMSE1
 70
0
  9
$DIMSE2
 70
0
  9
$DIMTAD
 70
1
  9
$DIMZIN
 70
12
  9
$DIMBLK
  1
ARCHTICK
  9
$DIMASO
 70
1
  9
$DIMSHO
 70
1
  9
$DIMPOST
  1

  9
$DIMAPOST
  1

  9
$DIMALT
 70
0
  9
$DIMALTD
 70
3
  9
$DIMALTF
 40
0.03937007874
  9
$DIMLFAC
 40
100.0
  9
$DIMTOFL
 70
1
  9
$DIMTVP
 40
0.0
  9
$DIMTIX
 70
0
  9
$DIMSOXD
 70
0
  9
$DIMSAH
 70
0
  9
$DIMBLK1
  1

  9
$DIMBLK2
  1

  9
$DIMSTYLE
  2
EZDXF
  9
$DIMCLRD
 70
0
  9
$DIMCLRE
 70
0
  9
$DIMCLRT
 70
0
  9
$DIMTFAC
 40
0.5
  9
$DIMGAP
 40
0.1
  9
$DIMJUST
 70
0
  9
$DIMSD1
 70
0
  9
$DIMSD2
 70
0
  9
$DIMTOLJ
 70
0
  9
$DIMTZIN
 70
8
  9
$DIMALTZ
 70
0
  9
$DIMALTTZ
 70
0
  9
$DIMUPT
 70
1
  9
$DIMDEC
 70
2
  9
$DIMTDEC
 70
2
  9
$DIMALTU
 70
2
  9
$DIMALTTD
 70
3
  9
$DIMTXSTY
  7
OpenSansCondensed-Light
  9
$DIMAUNIT
 70
0
  9
$DIMADEC
 70
2
  9
$DIMALTRND
 40
0.0
  9
$DIMAZIN
 70
3
  9
$DIMDSEP
 70
46
  9
$DIMATFIT
 70
3
  9
$DIMFRAC
 70
0
  9
$DIMLDRBLK
  1

  9
$DIMLUNIT
 70
2
  9
$DIMLWD
 70
-2
  9
$DIMLWE
 70
-2
  9
$DIMTMOVE
 70
2
  9
$DIMFXL
 40
1.0
  9
$DIMFXLON
 70
0
  9
$DIMJOGANG
 40
0.785398163397
  9
$DIMTFILL
 70
0
  9
$DIMTFILLCLR
 70
0
  9
$DIMARCSYM
 70
0
  9
$DIMLTYPE
  6

  9
$DIMLTEX1
  6

  9
$DIMLTEX2
  6

  9
$DIMTXTDIRECTION
 70
0
  9
$LUNITS
 70
2
  9
$LUPREC
 70
4
  9
$SKETCHINC
 40
1.0
  9
$FILLETRAD
 40
10.0
  9
$AUNITS
 70
0
  9
$AUPREC
 70
2
  9
$MENU
  1
.
  9
$ELEVATION
 40
0.0
  9
$PELEVATION
 40
0.0
  9
$THICKNESS
 40
0.0
  9
$LIMCHECK
 70
0
  9
$CHAMFERA
 40
0.0
  9
$CHAMFERB
 40
0.0
  9
$CHAMFERC
 40
0.0
  9
$CHAMFERD
 40
0.0
  9
$SKPOLY
 70
0
  9
$TDCREATE
 40
2460358.5488541666
  9
$TDUCREATE
 40
2458532.153996898
  9
$TDUPDATE
 40
2460358.5488541666
  9
$TDUUPDATE
 40
2458532.1544311
  9
$TDINDWG
 40
0.0
  9
$TDUSRTIMER
 40
0.0
  9
$USRTIMER
 70
1
  9
$ANGBASE
 50
0.0
  9
$ANGDIR
 70
0
  9
$PDMODE
 70
0
  9
$PDSIZE
 40
0.0
  9
$PLINEWID
 40
0.0
  9
$SPLFRAME
 70
0
  9
$SPLINETYPE
 70
6
  9
$SPLINESEGS
 70
8
  9
$HANDSEED
  5
43A
  9
$SURFTAB1
 70
6
  9
$SURFTAB2
 70
6
  9
$SURFTYPE
 70
6
  9
$SURFU
 70
6
  9
$SURFV
 70
6
  9
$UCSBASE
  2

  9
$UCSNAME
  2

  9
$UCSORG
 10
0.0
 20
0.0
 30
0.0
  9
$UCSXDIR
 10
1.0
 20
0.0
 30
0.0
  9
$UCSYDIR
 10
0.0
 20
1.0
 30
0.0
  9
$UCSORTHOREF
  2

  9
$UCSORTHOVIEW
 70
0
  9
$UCSORGTOP
 10
0.0
 20
0.0
 30
0.0
  9
$UCSORGBOTTOM
 10
0.0
 20
0.0
 30
0.0
  9
$UCSORGLEFT
 10
0.0
 20
0.0
 30
0.0
  9
$UCSORGRIGHT
 10
0.0
 20
0.0
 30
0.0
  9
$UCSORGFRONT
 10
0.0
 20
0.0
 30
0.0
  9
$UCSORGBACK
 10
0.0
 20
0.0
 30
0.0
  9
$PUCSBASE
  2

  9
$PUCSNAME
  2

  9
$PUCSORG
 10
0.0
 20
0.0
 30
0.0
  9
$PUCSXDIR
 10
1.0
 20
0.0
 30
0.0
  9
$PUCSYDIR
 10
0.0
 20
1.0
 30
0.0
  9
$PUCSORTHOREF
  2

  9
$PUCSORTHOVIEW
 70
0
  9
$PUCSORGTOP
 10
0.0
 20
0.0
 30
0.0
  9
$PUCSORGBOTTOM
 10
0.0
 20
0.0
 30
0.0
  9
$PUCSORGLEFT
 10
0.0
 20
0.0
 30
0.0
  9
$PUCSORGRIGHT
 10
0.0
 20
0.0
 30
0.0
  9
$PUCSORGFRONT
 10
0.0
 20
0.0
 30
0.0
  9
$PUCSORGBACK
 10
0.0
 20
0.0
 30
0.0
  9
$USERI1
 70
0
  9
$USERI2
 70
0
  9
$USERI3
 70
0
  9
$USERI4
 70
0
  9
$USERI5
 70
0
  9
$USERR1
 40
0.0
  9
$USERR2
 40
0.0
  9
$USERR3
 40
0.0
  9
$USERR4
 40
0.0
  9
$USERR5
 40
0.0
  9
$WORLDVIEW
 70
1
  9
$SHADEDGE
 70
3
  9
$SHADEDIF
 70
70
  9
$TILEMODE
 70
1
  9
$MAXACTVP
 70
64
  9
$PINSBASE
 10
0.0
 20
0.0
 30
0.0
  9
$PLIMCHECK
 70
0
  9
$PEXTMIN
 10
1e+20
 20
1e+20
 30
1e+20
  9
$PEXTMAX
 10
-1e+20
 20
-1e+20
 30
-1e+20
  9
$PLIMMIN
 10
0.0
 20
0.0
  9
$PLIMMAX
 10
420.0
 20
297.0
  9
$UNITMODE
 70
0
  9
$VISRETAIN
 70
1
  9
$PLINEGEN
 70
0
  9
$PSLTSCALE
 70
1
  9
$TREEDEPTH
 70
3020
  9
$CMLSTYLE
  2
Standard
  9
$CMLJUST
 70
0
  9
$CMLSCALE
 40
20.0
  9
$PROXYGRAPHICS
 70
1
  9
$MEASUREMENT
 70
1
  9
$CELWEIGHT
370
-1
  9
$ENDCAPS
280
0
  9
$JOINSTYLE
280
0
  9
$LWDISPLAY
290
0
  9
$INSUNITS
 70
6
  9
$HYPERLINKBASE
  1

  9
$STYLESHEET
  1

  9
$XEDIT
290
1
  9
$CEPSNTYPE
380
0
  9
$PSTYLEMODE
290
1
  9
$FINGERPRINTGUID
  2
{2A4E131C-5804-4478-B561-C8A034F07495}
  9
$VERSIONGUID
  2
{F5294BC7-F8EF-4BE5-ADCB-6C24E701C62F}
  9
$EXTNAMES
290
1
  9
$PSVPSCALE
 40
0.0
  9
$OLESTARTUP
290
0
  9
$SORTENTS
280
127
  9
$INDEXCTL
280
0
  9
$HIDETEXT
280
1
  9
$XCLIPFRAME
280
0
  9
$HALOGAP
280
0
  9
$OBSCOLOR
 70
257
  9
$OBSLTYPE
280
0
  9
$INTERSECTIONDISPLAY
280
0
  9
$INTERSECTIONCOLOR
 70
257
  9
$DIMASSOC
280
2
  9
$PROJECTNAME
  1

  9
$CAMERADISPLAY
290
0
  9
$LENSLENGTH
 40
50.0
  9
$CAMERAHEIGHT
 40
0.0
  9
$STEPSPERSEC
 40
24.0
  9
$STEPSIZE
 40
100.0
  9
$3DDWFPREC
 40
2.0
  9
$PSOLWIDTH
 40
0.005
  9
$PSOLHEIGHT
 40
0.08
  9
$LOFTANG1
 40
1.570796326795
  9
$LOFTANG2
 40
1.570796326795
  9
$LOFTMAG1
 40
0.0
  9
$LOFTMAG2
 40
0.0
  9
$LOFTPARAM
 70
7
  9
$LOFTNORMALS
280
1
  9
$LATITUDE
 40
37.795
  9
$LONGITUDE
 40
-122.394
  9
$NORTHDIRECTION
 40
0.0
  9
$TIMEZONE
 70
-8000
  9
$LIGHTGLYPHDISPLAY
280
1
  9
$TILEMODELIGHTSYNCH
280
1
  9
$CMATERIAL
347
20
  9
$SOLIDHIST
280
0
  9
$SHOWHIST
280
1
  9
$DWFFRAME
280
2
  9
$DGNFRAME
280
2
  9
$REALWORLDSCALE
290
1
  9
$INTERFERECOLOR
 62
256
  9
$CSHADOW
280
0
  9
$SHADOWPLANELOCATION
 40
0.0
  0
ENDSEC
  0
SECTION
  2
CLASSES
  0
CLASS
  1
ACDBDICTIONARYWDFLT
  2
AcDbDictionaryWithDefault
  3
ObjectDBX Classes
 90
0
 91
0
280
0
281
0
  0
CLASS
  1
SUN
  2
AcDbSun
  3
SCENEOE
 90
1153
 91
0
280
0
281
0
  0
CLASS
  1
VISUALSTYLE
  2
AcDbVisualStyle
  3
ObjectDBX Classes
 90
4095
 91
0
280
0
281
0
  0
CLASS
  1
MATERIAL
  2
AcDbMaterial
  3
ObjectDBX Classes
 90
1153
 91
0
280
0
281
0
  0
CLASS
  1
SCALE
  2
AcDbScale
  3
ObjectDBX Classes
 90
1153
 91
0
280
0
281
0
  0
CLASS
  1
TABLESTYLE
  2
AcDbTableStyle
  3
ObjectDBX Classes
 90
4095
 91
0
280
0
281
0
  0
CLASS
  1
MLEADERSTYLE
  2
AcDbMLeaderStyle
  3
ACDB_MLEADERSTYLE_CLASS
 90
4095
 91
0
280
0
281
0
  0
CLASS
  1
DICTIONARYVAR
  2
AcDbDictionaryVar
  3
ObjectDBX Classes
 90
0
 91
0
280
0
281
0
  0
CLASS
  1
CELLSTYLEMAP
  2
AcDbCellStyleMap
  3
ObjectDBX Classes
 90
1152
 91
0
280
0
281
0
  0
CLASS
  1
MENTALRAYRENDERSETTINGS
  2
AcDbMentalRayRenderSettings
  3
SCENEOE
 90
1024
 91
0
280
0
281
0
  0
CLASS
  1
ACDBDETAILVIEWSTYLE
  2
AcDbDetailViewStyle
  3
ObjectDBX Classes
 90
1025
 91
0
280
0
281
0
  0
CLASS
  1
ACDBSECTIONVIEWSTYLE
  2
AcDbSectionViewStyle
  3
ObjectDBX Classes
 90
1025
 91
0
280
0
281
0
  0
CLASS
  1
RASTERVARIABLES
  2
AcDbRasterVariables
  3
ISM
 90
0
 91
0
280
0
281
0
  0
CLASS
  1
ACDBPLACEHOLDER
  2
AcDbPlaceHolder
  3
ObjectDBX Classes
 90
0
 91
0
280
0
281
0
  0
CLASS
  1
LAYOUT
  2
AcDbLayout
  3
ObjectDBX Classes
 90
0
 91
0
280
0
281
0
  0
ENDSEC
  0
SECTION
  2
TABLES
  0
TABLE
  2
VPORT
  5
8
330
0
100
AcDbSymbolTable
 70
1
  0
VPORT
  5
23
330
8
100
AcDbSymbolTableRecord
100
AcDbViewportTableRecord
  2
*Active
 70
0
 10
0.0
 20
0.0
 11
1.0
 21
1.0
 12
0.0
 22
0.0
 13
0.0
 23
0.0
 14
0.5
 24
0.5
 15
0.5
 25
0.5
 16
0.0
 26
0.0
 36
1.0
 17
0.0
 27
0.0
 37
0.0
 40
1000.0
 41
1.34
 42
50.0
 43
0.0
 44
0.0
 50
0.0
 51
0.0
 71
0
 72
1000
 73
1
 74
3
 75
0
 76
0
 77
0
 78
0
281
0
 65
0
146
0.0
  0
ENDTAB
  0
TABLE
  2
LTYPE
  5
2
330
0
100
AcDbSymbolTable
 70
21
  0
LTYPE
  5
24
330
2
100
AcDbSymbolTableRecord
100
AcDbLinetypeTableRecord
  2
ByBlock
 70
0
  3

 72
65
 73
0
 40
0.0
  0
LTYPE
  5
25
330
2
100
AcDbSymbolTableRecord
100
AcDbLinetypeTableRecord
  2
ByLayer
 70
0
  3

 72
65
 73
0
 40
0.0
  0
LTYPE
  5
26
330
2
100
AcDbSymbolTableRecord
100
AcDbLinetypeTableRecord
  2
Continuous
 70
0
  3

 72
65
 73
0
 40
0.0
  0
LTYPE
  5
2F
330
2
100
AcDbSymbolTableRecord
100
AcDbLinetypeTableRecord
  2
CENTER
 70
0
  3
Center ____ _ ____ _ ____ _ ____ _ ____ _ ____
 72
65
 73
4
 40
5.08
 49
3.175
 74
0
 49
-0.635
 74
0
 49
0.635
 74
0
 49
-0.635
 74
0
  0
LTYPE
  5
30
330
2
100
AcDbSymbolTableRecord
100
AcDbLinetypeTableRecord
  2
CENTERX2
 70
0
  3
Center (2x) ________  __  ________  __  ________
 72
65
 73
4
 40
8.89
 49
6.35
 74
0
 49
-0.635
 74
0
 49
1.27
 74
0
 49
-0.635
 74
0
  0
LTYPE
  5
31
330
2
100
AcDbSymbolTableRecord
100
AcDbLinetypeTableRecord
  2
CENTER2
 70
0
  3
Center (.5x) ____ _ ____ _ ____ _ ____ _ ____
 72
65
 73
4
 40
2.54
 49
1.587
 74
0
 49
-0.318
 74
0
 49
0.318
 74
0
 49
-0.318
 74
0
  0
LTYPE
  5
32
330
2
100
AcDbSymbolTableRecord
100
AcDbLinetypeTableRecord
  2
DASHED
 70
0
  3
Dashed __ __ __ __ __ __ __ __ __ __ __ __ __ _
 72
65
 73
2
 40
1.524
 49
1.27
 74
0
 49
-0.254
 74
0
  0
LTYPE
  5
33
330
2
100
AcDbSymbolTableRecord
100
AcDbLinetypeTableRecord
  2
DASHEDX2
 70
0
  3
Dashed (2x) ____  ____  ____  ____  ____  ____
 72
65
 73
2
 40
3.048
 49
2.54
 74
0
 49
-0.508
 74
0
  0
LTYPE
  5
34
330
2
100
AcDbSymbolTableRecord
100
AcDbLinetypeTableRecord
  2
DASHED2
 70
0
  3
Dashed (.5x) _ _ _ _ _ _ _ _ _ _ _ _ _ _
 72
65
 73
2
 40
0.762
 49
0.635
 74
0
 49
-0.127
 74
0
  0
LTYPE
  5
35
330
2
100
AcDbSymbolTableRecord
100
AcDbLinetypeTableRecord
  2
PHANTOM
 70
0
  3
Phantom ______  __  __  ______  __  __  ______
 72
65
 73
6
 40
6.35
 49
3.175
 74
0
 49
-0.635
 74
0
 49
0.635
 74
0
 49
-0.635
 74
0
 49
0.635
 74
0
 49
-0.635
 74
0
  0
LTYPE
  5
36
330
2
100
AcDbSymbolTableRecord
100
AcDbLinetypeTableRecord
  2
PHANTOMX2
 70
0
  3
Phantom (2x)____________    ____    ____    ____________
 72
65
 73
6
 40
10.795
 49
6.35
 74
0
 49
-0.635
 74
0
 49
1.27
 74
0
 49
-0.635
 74
0
 49
1.27
 74
0
 49
-0.635
 74
0
  0
LTYPE
  5
37
330
2
100
AcDbSymbolTableRecord
100
AcDbLinetypeTableRecord
  2
PHANTOM2
 70
0
  3
Phantom (.5x) ___ _ _ ___ _ _ ___ _ _ ___ _ _ ___
 72
65
 73
6
 40
3.175
 49
1.587
 74
0
 49
-0.318
 74
0
 49
0.318
 74
0
 49
-0.318
 74
0
 49
0.318
 74
0
 49
-0.318
 74
0
  0
LTYPE
  5
38
330
2
100
AcDbSymbolTableRecord
100
AcDbLinetypeTableRecord
  2
DASHDOT
 70
0
  3
Dash dot __ . __ . __ . __ . __ . __ . __ . __
 72
65
 73
4
 40
3.556
 49
2.54
 74
0
 49
-0.508
 74
0
 49
0.0
 74
0
 49
-0.508
 74
0
  0
LTYPE
  5
39
330
2
100
AcDbSymbolTableRecord
100
AcDbLinetypeTableRecord
  2
DASHDOTX2
 70
0
  3
Dash dot (2x) ____  .  ____  .  ____  .  ____
 72
65
 73
4
 40
6.096
 49
5.08
 74
0
 49
-0.508
 74
0
 49
0.0
 74
0
 49
-0.508
 74
0
  0
LTYPE
  5
3A
330
2
100
AcDbSymbolTableRecord
100
AcDbLinetypeTableRecord
  2
DASHDOT2
 70
0
  3
Dash dot (.5x) _ . _ . _ . _ . _ . _ . _ . _
 72
65
 73
4
 40
1.778
 49
1.27
 74
0
 49
-0.254
 74
0
 49
0.0
 74
0
 49
-0.254
 74
0
  0
LTYPE
  5
3B
330
2
100
AcDbSymbolTableRecord
100
AcDbLinetypeTableRecord
  2
DOT
 70
0
  3
Dot .  .  .  .  .  .  .  .  .  .  .  .  .  .  .  .
 72
65
 73
2
 40
0.508
 49
0.0
 74
0
 49
-0.508
 74
0
  0
LTYPE
  5
3C
330
2
100
AcDbSymbolTableRecord
100
AcDbLinetypeTableRecord
  2
DOTX2
 70
0
  3
Dot (2x) .    .    .    .    .    .    .    . 
 72
65
 73
2
 40
1.016
 49
0.0
 74
0
 49
-1.016
 74
0
  0
LTYPE
  5
3D
330
2
100
AcDbSymbolTableRecord
100
AcDbLinetypeTableRecord
  2
DOT2
 70
0
  3
Dot (.5) . . . . . . . . . . . . . . . . . . . 
 72
65
 73
2
 40
0.254
 49
0.0
 74
0
 49
-0.254
 74
0
  0
LTYPE
  5
3E
330
2
100
AcDbSymbolTableRecord
100
AcDbLinetypeTableRecord
  2
DIVIDE
 70
0
  3
Divide __ . . __ . . __ . . __ . . __ . . __
 72
65
 73
6
 40
4.064
 49
2.54
 74
0
 49
-0.508
 74
0
 49
0.0
 74
0
 49
-0.508
 74
0
 49
0.0
 74
0
 49
-0.508
 74
0
  0
LTYPE
  5
3F
330
2
100
AcDbSymbolTableRecord
100
AcDbLinetypeTableRecord
  2
DIVIDEX2
 70
0
  3
Divide (2x) ____  . .  ____  . .  ____  . .  ____
 72
65
 73
6
 40
6.604
 49
5.08
 74
0
 49
-0.508
 74
0
 49
0.0
 74
0
 49
-0.508
 74
0
 49
0.0
 74
0
 49
-0.508
 74
0
  0
LTYPE
  5
40
330
2
100
AcDbSymbolTableRecord
100
AcDbLinetypeTableRecord
  2
DIVIDE2
 70
0
  3
Divide(.5x) _ . _ . _ . _ . _ . _ . _ . _
 72
65
 73
6
 40
2.032
 49
1.27
 74
0
 49
-0.254
 74
0
 49
0.0
 74
0
 49
-0.254
 74
0
 49
0.0
 74
0
 49
-0.254
 74
0
  0
ENDTAB
  0
TABLE
  2
LAYER
  5
1
330
0
100
AcDbSymbolTable
 70
17
  0
LAYER
  5
27
330
1
100
AcDbSymbolTableRecord
100
AcDbLayerTableRecord
  2
0
 70
0
 62
7
  6
Continuous
370
-3
390
13
347
21
  0
LAYER
  5
28
330
1
100
AcDbSymbolTableRecord
100
AcDbLayerTableRecord
  2
Defpoints
 70
0
 62
7
  6
Continuous
290
0
370
-3
390
13
347
21
  0
LAYER
  5
8A
330
1
100
AcDbSymbolTableRecord
100
AcDbLayerTableRecord
  2
A-BEAM
 70
0
 62
17
  6
Continuous
370
0
390
13
347
21
  0
LAYER
  5
8B
330
1
100
AcDbSymbolTableRecord
100
AcDbLayerTableRecord
  2
A-RAILING
 70
0
 62
53
  6
Continuous
370
0
390
13
347
21
  0
LAYER
  5
8C
330
1
100
AcDbSymbolTableRecord
100
AcDbLayerTableRecord
  2
A-PILE
 70
0
 62
13
  6
Continuous
370
0
390
13
347
21
  0
LAYER
  5
8D
330
1
100
AcDbSymbolTableRecord
100
AcDbLayerTableRecord
  2
A-WALL
 70
0
 62
26
  6
Continuous
370
211
390
13
347
21
  0
LAYER
  5
8E
330
1
100
AcDbSymbolTableRecord
100
AcDbLayerTableRecord
  2
A-STAIRFLIGHT
 70
0
 62
2
  6
Continuous
370
0
390
13
347
21
  0
LAYER
  5
8F
330
1
100
AcDbSymbolTableRecord
100
AcDbLayerTableRecord
  2
A-SLAB
 70
0
 62
42
  6
Continuous
370
140
390
13
347
21
  0
LAYER
  5
90
330
1
100
AcDbSymbolTableRecord
100
AcDbLayerTableRecord
  2
A-COLUMN
 70
0
 62
33
  6
Continuous
370
0
390
13
347
21
  0
LAYER
  5
91
330
1
100
AcDbSymbolTableRecord
100
AcDbLayerTableRecord
  2
A-DUCTSEGMENT
 70
0
 62
120
  6
Continuous
370
0
390
13
347
21
  0
LAYER
  5
92
330
1
100
AcDbSymbolTableRecord
100
AcDbLayerTableRecord
  2
A-PIPESEGMENT
 70
0
 62
131
  6
Continuous
370
0
390
13
347
21
  0
LAYER
  5
93
330
1
100
AcDbSymbolTableRecord
100
AcDbLayerTableRecord
  2
A-FURNITURE
 70
0
 62
96
  6
Continuous
370
100
390
13
347
21
  0
LAYER
  5
94
330
1
100
AcDbSymbolTableRecord
100
AcDbLayerTableRecord
  2
A-ELECTRICAPPLIANCE
 70
0
 62
132
  6
Continuous
370
0
390
13
347
21
  0
LAYER
  5
95
330
1
100
AcDbSymbolTableRecord
100
AcDbLayerTableRecord
  2
A-SANITARYTERMINAL
 70
0
 62
136
  6
Continuous
370
0
390
13
347
21
  0
LAYER
  5
96
330
1
100
AcDbSymbolTableRecord
100
AcDbLayerTableRecord
  2
A-DOOR
 70
0
 62
140
  6
Continuous
370
0
390
13
347
21
  0
LAYER
  5
97
330
1
100
AcDbSymbolTableRecord
100
AcDbLayerTableRecord
  2
A-WINDOW
 70
0
 62
160
  6
Continuous
370
0
390
13
347
21
  0
LAYER
  5
98
330
1
100
AcDbSymbolTableRecord
100
AcDbLayerTableRecord
  2
A-ANNOTATION
 70
0
 62
253
  6
Dot
370
0
390
13
347
21
  0
ENDTAB
  0
TABLE
  2
STYLE
  5
5
330
0
100
AcDbSymbolTable
 70
26
  0
STYLE
  5
29
330
5
100
AcDbSymbolTableRecord
100
AcDbTextStyleTableRecord
  2
Standard
 70
0
 40
0.0
 41
1.0
 50
0.0
 71
0
 42
2.5
  3
txt
  4

  0
STYLE
  5
41
330
5
100
AcDbSymbolTableRecord
100
AcDbTextStyleTableRecord
  2
OpenSans-Light
 70
0
 40
0.0
 41
1.0
 50
0.0
 71
0
 42
2.5
  3
OpenSans-Light.ttf
  4

  0
STYLE
  5
42
330
5
100
AcDbSymbolTableRecord
100
AcDbTextStyleTableRecord
  2
OpenSans-Light-Italic
 70
0
 40
0.0
 41
1.0
 50
0.0
 71
0
 42
2.5
  3
OpenSans-LightItalic.ttf
  4

  0
STYLE
  5
43
330
5
100
AcDbSymbolTableRecord
100
AcDbTextStyleTableRecord
  2
OpenSans
 70
0
 40
0.0
 41
1.0
 50
0.0
 71
0
 42
2.5
  3
OpenSans-Regular.ttf
  4

  0
STYLE
  5
44
330
5
100
AcDbSymbolTableRecord
100
AcDbTextStyleTableRecord
  2
OpenSans-Italic
 70
0
 40
0.0
 41
1.0
 50
0.0
 71
0
 42
2.5
  3
OpenSans-Italic.ttf
  4

  0
STYLE
  5
45
330
5
100
AcDbSymbolTableRecord
100
AcDbTextStyleTableRecord
  2
OpenSans-SemiBold
 70
0
 40
0.0
 41
1.0
 50
0.0
 71
0
 42
2.5
  3
OpenSans-SemiBold.ttf
  4

  0
STYLE
  5
46
330
5
100
AcDbSymbolTableRecord
100
AcDbTextStyleTableRecord
  2
OpenSans-SemiBoldItalic
 70
0
 40
0.0
 41
1.0
 50
0.0
 71
0
 42
2.5
  3
OpenSans-SemiBoldItalic.ttf
  4

  0
STYLE
  5
47
330
5
100
AcDbSymbolTableRecord
100
AcDbTextStyleTableRecord
  2
OpenSans-Bold
 70
0
 40
0.0
 41
1.0
 50
0.0
 71
0
 42
2.5
  3
OpenSans-Bold.ttf
  4

  0
STYLE
  5
48
330
5
100
AcDbSymbolTableRecord
100
AcDbTextStyleTableRecord
  2
OpenSans-BoldItalic
 70
0
 40
0.0
 41
1.0
 50
0.0
 71
0
 42
2.5
  3
OpenSans-BoldItalic.ttf
  4

  0
STYLE
  5
49
330
5
100
AcDbSymbolTableRecord
100
AcDbTextStyleTableRecord
  2
OpenSans-ExtraBold
 70
0
 40
0.0
 41
1.0
 50
0.0
 71
0
 42
2.5
  3
OpenSans-ExtraBold.ttf
  4

  0
STYLE
  5
4A
330
5
100
AcDbSymbolTableRecord
100
AcDbTextStyleTableRecord
  2
OpenSans-ExtraBoldItalic
 70
0
 40
0.0
 41
1.0
 50
0.0
 71
0
 42
2.5
  3
OpenSans-ExtraBoldItalic.ttf
  4

  0
STYLE
  5
4B
330
5
100
AcDbSymbolTableRecord
100
AcDbTextStyleTableRecord
  2
OpenSansCondensed-Bold
 70
0
 40
0.0
 41
1.0
 50
0.0
 71
0
 42
2.5
  3
OpenSansCondensed-Bold.ttf
  4

  0
STYLE
  5
4C
330
5
100
AcDbSymbolTableRecord
100
AcDbTextStyleTableRecord
  2
OpenSansCondensed-Light
 70
0
 40
0.0
 41
1.0
 50
0.0
 71
0
 42
2.5
  3
OpenSansCondensed-Light.ttf
  4

  0
STYLE
  5
4D
330
5
100
AcDbSymbolTableRecord
100
AcDbTextStyleTableRecord
  2
OpenSansCondensed-Italic
 70
0
 40
0.0
 41
1.0
 50
0.0
 71
0
 42
2.5
  3
OpenSansCondensed-LightItalic.ttf
  4

  0
STYLE
  5
4E
330
5
100
AcDbSymbolTableRecord
100
AcDbTextStyleTableRecord
  2
LiberationSans
 70
0
 40
0.0
 41
1.0
 50
0.0
 71
0
 42
2.5
  3
LiberationSans-Regular.ttf
  4

  0
STYLE
  5
4F
330
5
100
AcDbSymbolTableRecord
100
AcDbTextStyleTableRecord
  2
LiberationSans-Bold
 70
0
 40
0.0
 41
1.0
 50
0.0
 71
0
 42
2.5
  3
LiberationSans-Bold.ttf
  4

  0
STYLE
  5
50
330
5
100
AcDbSymbolTableRecord
100
AcDbTextStyleTableRecord
  2
LiberationSans-BoldItalic
 70
0
 40
0.0
 41
1.0
 50
0.0
 71
0
 42
2.5
  3
LiberationSans-BoldItalic.ttf
  4

  0
STYLE
  5
51
330
5
100
AcDbSymbolTableRecord
100
AcDbTextStyleTableRecord
  2
LiberationSans-Italic
 70
0
 40
0.0
 41
1.0
 50
0.0
 71
0
 42
2.5
  3
LiberationSans-Italic.ttf
  4

  0
STYLE
  5
52
330
5
100
AcDbSymbolTableRecord
100
AcDbTextStyleTableRecord
  2
LiberationSerif
 70
0
 40
0.0
 41
1.0
 50
0.0
 71
0
 42
2.5
  3
LiberationSerif-Regular.ttf
  4

  0
STYLE
  5
53
330
5
100
AcDbSymbolTableRecord
100
AcDbTextStyleTableRecord
  2
LiberationSerif-Bold
 70
0
 40
0.0
 41
1.0
 50
0.0
 71
0
 42
2.5
  3
LiberationSerif-Bold.ttf
  4

  0
STYLE
  5
54
330
5
100
AcDbSymbolTableRecord
100
AcDbTextStyleTableRecord
  2
LiberationSerif-BoldItalic
 70
0
 40
0.0
 41
1.0
 50
0.0
 71
0
 42
2.5
  3
LiberationSerif-BoldItalic.ttf
  4

  0
STYLE
  5
55
330
5
100
AcDbSymbolTableRecord
100
AcDbTextStyleTableRecord
  2
LiberationSerif-Italic
 70
0
 40
0.0
 41
1.0
 50
0.0
 71
0
 42
2.5
  3
LiberationSerif-Italic.ttf
  4

  0
STYLE
  5
56
330
5
100
AcDbSymbolTableRecord
100
AcDbTextStyleTableRecord
  2
LiberationMono
 70
0
 40
0.0
 41
1.0
 50
0.0
 71
0
 42
2.5
  3
LiberationMono-Regular.ttf
  4

  0
STYLE
  5
57
330
5
100
AcDbSymbolTableRecord
100
AcDbTextStyleTableRecord
  2
LiberationMono-Bold
 70
0
 40
0.0
 41
1.0
 50
0.0
 71
0
 42
2.5
  3
LiberationMono-Bold.ttf
  4

  0
STYLE
  5
58
330
5
100
AcDbSymbolTableRecord
100
AcDbTextStyleTableRecord
  2
LiberationMono-BoldItalic
 70
0
 40
0.0
 41
1.0
 50
0.0
 71
0
 42
2.5
  3
LiberationMono-BoldItalic.ttf
  4

  0
STYLE
  5
59
330
5
100
AcDbSymbolTableRecord
100
AcDbTextStyleTableRecord
  2
LiberationMono-Italic
 70
0
 40
0.0
 41
1.0
 50
0.0
 71
0
 42
2.5
  3
LiberationMono-Italic.ttf
  4

  0
ENDTAB
  0
TABLE
  2
VIEW
  5
7
330
0
100
AcDbSymbolTable
 70
0
  0
ENDTAB
  0
TABLE
  2
UCS
  5
6
330
0
100
AcDbSymbolTable
 70
0
  0
ENDTAB
  0
TABLE
  2
APPID
  5
3
330
0
100
AcDbSymbolTable
 70
3
  0
APPID
  5
2A
330
3
100
AcDbSymbolTableRecord
100
AcDbRegAppTableRecord
  2
ACAD
 70
0
  0
APPID
  5
437
330
3
100
AcDbSymbolTableRecord
100
AcDbRegAppTableRecord
  2
HATCHBACKGROUNDCOLOR
 70
0
  0
APPID
  5
438
330
3
100
AcDbSymbolTableRecord
100
AcDbRegAppTableRecord
  2
EZDXF
 70
0
  0
ENDTAB
  0
TABLE
  2
DIMSTYLE
  5
4
330
0
100
AcDbSymbolTable
 70
12
100
AcDbDimStyleTable
  0
DIMSTYLE
105
2B
330
4
100
AcDbSymbolTableRecord
100
AcDbDimStyleTableRecord
  2
Standard
 70
0
 40
1.0
 41
2.5
 42
0.625
 43
3.75
 44
1.25
 45
0.0
 46
0.0
 47
0.0
 48
0.0
 49
2.5
140
2.5
141
2.5
142
0.0
143
0.03937007874
144
1.0
145
0.0
146
1.0
147
0.625
148
0.0
 69
0
 70
0
 71
0
 72
0
 73
0
 74
0
 75
0
 76
0
 77
1
 78
8
 79
3
170
0
171
3
172
1
173
0
174
0
175
0
176
0
177
0
178
0
179
2
271
2
272
2
273
2
274
3
275
0
276
0
277
2
278
44
279
0
280
0
281
0
282
0
283
0
284
8
285
0
286
0
288
0
289
3
290
0
371
-2
372
-2
  0
DIMSTYLE
105
73
330
4
100
AcDbSymbolTableRecord
100
AcDbDimStyleTableRecord
  2
EZDXF
 70
0
 40
1.0
 41
0.175
 42
0.125
 43
3.75
 44
0.375
 45
0.0
 46
0.0
 47
0.0
 48
0.0
 49
2.5
140
0.25
141
2.5
142
0.0
143
0.03937007874
144
100.0
145
0.0
146
0.5
147
0.1
148
0.0
 69
0
 70
0
 71
0
 72
0
 73
0
 74
0
 75
0
 76
0
 77
1
 78
12
 79
3
170
0
171
3
172
1
173
0
174
0
175
0
176
0
177
0
178
0
179
2
271
2
272
2
273
2
274
3
275
0
276
0
277
2
278
46
279
2
280
0
281
0
282
0
283
0
284
8
285
0
286
0
288
1
289
3
290
0
340
4C
342
74
371
-2
372
-2
  0
DIMSTYLE
105
7C
330
4
100
AcDbSymbolTableRecord
100
AcDbDimStyleTableRecord
  2
EZ_M_100_H25_CM
 70
0
 40
1.0
 41
0.25
 42
0.125
 43
3.75
 44
0.375
 45
0.0
 46
0.0
 47
0.0
 48
0.0
 49
2.5
140
0.25
141
2.5
142
0.125
143
0.03937007874
144
100.0
145
0.0
146
0.5
147
0.1
148
0.0
 69
0
 70
0
 71
0
 72
0
 73
0
 74
0
 75
0
 76
0
 77
1
 78
12
 79
3
170
0
171
3
172
1
173
0
174
0
175
0
176
0
177
0
178
0
179
2
271
2
272
2
273
2
274
3
275
0
276
0
277
2
278
46
279
2
280
0
281
0
282
0
283
0
284
8
285
0
286
0
288
1
289
3
290
0
340
4C
371
-2
372
-2
  0
DIMSTYLE
105
7D
330
4
100
AcDbSymbolTableRecord
100
AcDbDimStyleTableRecord
  2
EZ_M_50_H25_CM
 70
0
 40
1.0
 41
0.125
 42
0.0625
 43
3.75
 44
0.1875
 45
0.0
 46
0.0
 47
0.0
 48
0.0
 49
2.5
140
0.125
141
2.5
142
0.0625
143
0.03937007874
144
100.0
145
0.0
146
0.5
147
0.05
148
0.0
 69
0
 70
0
 71
0
 72
0
 73
0
 74
0
 75
0
 76
0
 77
1
 78
12
 79
3
170
0
171
3
172
1
173
0
174
0
175
0
176
0
177
0
178
0
179
2
271
2
272
2
273
2
274
3
275
0
276
0
277
2
278
46
279
2
280
0
281
0
282
0
283
0
284
8
285
0
286
0
288
1
289
3
290
0
340
4C
371
-2
372
-2
  0
DIMSTYLE
105
7E
330
4
100
AcDbSymbolTableRecord
100
AcDbDimStyleTableRecord
  2
EZ_M_25_H25_CM
 70
0
 40
1.0
 41
0.0625
 42
0.03125
 43
3.75
 44
0.09375
 45
0.0
 46
0.0
 47
0.0
 48
0.0
 49
2.5
140
0.0625
141
2.5
142
0.03125
143
0.03937007874
144
100.0
145
0.0
146
0.5
147
0.025
148
0.0
 69
0
 70
0
 71
0
 72
0
 73
0
 74
0
 75
0
 76
0
 77
1
 78
12
 79
3
170
0
171
3
172
1
173
0
174
0
175
0
176
0
177
0
178
0
179
2
271
2
272
2
273
2
274
3
275
0
276
0
277
2
278
46
279
2
280
0
281
0
282
0
283
0
284
8
285
0
286
0
288
1
289
3
290
0
340
4C
371
-2
372
-2
  0
DIMSTYLE
105
7F
330
4
100
AcDbSymbolTableRecord
100
AcDbDimStyleTableRecord
  2
EZ_M_20_H25_CM
 70
0
 40
1.0
 41
0.05
 42
0.025
 43
3.75
 44
0.07500000000000001
 45
0.0
 46
0.0
 47
0.0
 48
0.0
 49
2.5
140
0.05
141
2.5
142
0.025
143
0.03937007874
144
100.0
145
0.0
146
0.5
147
0.020000000000000004
148
0.0
 69
0
 70
0
 71
0
 72
0
 73
0
 74
0
 75
0
 76
0
 77
1
 78
12
 79
3
170
0
171
3
172
1
173
0
174
0
175
0
176
0
177
0
178
0
179
2
271
2
272
2
273
2
274
3
275
0
276
0
277
2
278
46
279
2
280
0
281
0
282
0
283
0
284
8
285
0
286
0
288
1
289
3
290
0
340
4C
371
-2
372
-2
  0
DIMSTYLE
105
80
330
4
100
AcDbSymbolTableRecord
100
AcDbDimStyleTableRecord
  2
EZ_M_10_H25_CM
 70
0
 40
1.0
 41
0.025
 42
0.0125
 43
3.75
 44
0.037500000000000006
 45
0.0
 46
0.0
 47
0.0
 48
0.0
 49
2.5
140
0.025
141
2.5
142
0.0125
143
0.03937007874
144
100.0
145
0.0
146
0.5
147
0.010000000000000002
148
0.0
 69
0
 70
0
 71
0
 72
0
 73
0
 74
0
 75
0
 76
0
 77
1
 78
12
 79
3
170
0
171
3
172
1
173
0
174
0
175
0
176
0
177
0
178
0
179
2
271
2
272
2
273
2
274
3
275
0
276
0
277
2
278
46
279
2
280
0
281
0
282
0
283
0
284
8
285
0
286
0
288
1
289
3
290
0
340
4C
371
-2
372
-2
  0
DIMSTYLE
105
81
330
4
100
AcDbSymbolTableRecord
100
AcDbDimStyleTableRecord
  2
EZ_M_5_H25_CM
 70
0
 40
1.0
 41
0.0125
 42
0.00625
 43
3.75
 44
0.018750000000000003
 45
0.0
 46
0.0
 47
0.0
 48
0.0
 49
2.5
140
0.0125
141
2.5
142
0.00625
143
0.03937007874
144
100.0
145
0.0
146
0.5
147
0.005000000000000001
148
0.0
 69
0
 70
0
 71
0
 72
0
 73
0
 74
0
 75
0
 76
0
 77
1
 78
12
 79
3
170
0
171
3
172
1
173
0
174
0
175
0
176
0
177
0
178
0
179
2
271
2
272
2
273
2
274
3
275
0
276
0
277
2
278
46
279
2
280
0
281
0
282
0
283
0
284
8
285
0
286
0
288
1
289
3
290
0
340
4C
371
-2
372
-2
  0
DIMSTYLE
105
82
330
4
100
AcDbSymbolTableRecord
100
AcDbDimStyleTableRecord
  2
EZ_M_1_H25_CM
 70
0
 40
1.0
 41
0.0025
 42
0.00125
 43
3.75
 44
0.00375
 45
0.0
 46
0.0
 47
0.0
 48
0.0
 49
2.5
140
0.0025
141
2.5
142
0.00125
143
0.03937007874
144
100.0
145
0.0
146
0.5
147
0.001
148
0.0
 69
0
 70
0
 71
0
 72
0
 73
0
 74
0
 75
0
 76
0
 77
1
 78
12
 79
3
170
0
171
3
172
1
173
0
174
0
175
0
176
0
177
0
178
0
179
2
271
2
272
2
273
2
274
3
275
0
276
0
277
2
278
46
279
2
280
0
281
0
282
0
283
0
284
8
285
0
286
0
288
1
289
3
290
0
340
4C
371
-2
372
-2
  0
DIMSTYLE
105
83
330
4
100
AcDbSymbolTableRecord
100
AcDbDimStyleTableRecord
  2
EZ_RADIUS
 70
0
 40
1.0
 41
0.25
 42
0.125
 43
3.75
 44
0.375
 45
0.0
 46
0.0
 47
0.0
 48
0.0
 49
2.5
140
0.25
141
0.0
142
0.0
143
0.03937007874
144
100.0
145
0.0
146
0.5
147
0.1
148
0.0
 69
0
 70
0
 71
0
 72
0
 73
0
 74
0
 75
0
 76
0
 77
1
 78
12
 79
3
170
0
171
3
172
0
173
0
174
0
175
0
176
0
177
0
178
0
179
2
271
2
272
2
273
2
274
3
275
0
276
0
277
2
278
46
279
1
280
0
281
0
282
0
283
0
284
8
285
0
286
0
288
1
289
3
290
0
340
4C
342
84
371
-2
372
-2
  0
DIMSTYLE
105
88
330
4
100
AcDbSymbolTableRecord
100
AcDbDimStyleTableRecord
  2
EZ_RADIUS_INSIDE
 70
0
 40
1.0
 41
0.25
 42
0.125
 43
3.75
 44
0.375
 45
0.0
 46
0.0
 47
0.0
 48
0.0
 49
2.5
140
0.25
141
0.0
142
0.0
143
0.03937007874
144
100.0
145
0.0
146
0.5
147
0.1
148
0.0
 69
0
 70
0
 71
0
 72
0
 73
0
 74
0
 75
0
 76
0
 77
0
 78
12
 79
3
170
0
171
3
172
0
173
0
174
1
175
0
176
0
177
0
178
0
179
2
271
2
272
2
273
2
274
3
275
0
276
0
277
2
278
46
279
0
280
0
281
0
282
0
283
0
284
8
285
0
286
0
288
1
289
0
290
0
340
4C
342
84
371
-2
372
-2
  0
DIMSTYLE
105
89
330
4
100
AcDbSymbolTableRecord
100
AcDbDimStyleTableRecord
  2
EZ_CURVED
 70
0
 40
1.0
 41
0.25
 42
0.125
 43
3.75
 44
0.375
 45
0.0
 46
0.0
 47
0.0
 48
0.0
 49
2.5
140
0.25
141
2.5
142
0.0
143
0.03937007874
144
100.0
145
0.0
146
0.5
147
0.1
148
0.0
 69
0
 70
0
 71
0
 72
0
 73
0
 74
0
 75
0
 76
0
 77
1
 78
12
 79
2
 90
2
170
0
171
3
172
1
173
0
174
0
175
0
176
0
177
0
178
0
179
2
271
2
272
2
273
2
274
3
275
0
276
0
277
2
278
46
279
2
280
0
281
0
282
0
283
0
284
8
285
0
286
0
288
1
289
3
290
0
340
4C
371
-2
372
-2
  0
ENDTAB
  0
TABLE
  2
BLOCK_RECORD
  5
9
330
0
100
AcDbSymbolTable
 70
60
  0
BLOCK_RECORD
  5
17
330
9
100
AcDbSymbolTableRecord
100
AcDbBlockTableRecord
  2
*Model_Space
340
1A
 70
0
280
1
281
0
  0
BLOCK_RECORD
  5
1B
330
9
100
AcDbSymbolTableRecord
100
AcDbBlockTableRecord
  2
*Paper_Space
340
1E
 70
0
280
1
281
0
  0
BLOCK_RECORD
  5
74
330
9
100
AcDbSymbolTableRecord
100
AcDbBlockTableRecord
  2
_ARCHTICK
340
0
 70
0
280
1
281
0
  0
BLOCK_RECORD
  5
78
330
9
100
AcDbSymbolTableRecord
100
AcDbBlockTableRecord
  2
_CLOSEDFILLED
340
0
 70
0
280
1
281
0
  0
BLOCK_RECORD
  5
84
330
9
100
AcDbSymbolTableRecord
100
AcDbBlockTableRecord
  2
_CLOSEDBLANK
340
0
 70
0
280
1
281
0
  0
BLOCK_RECORD
  5
99
330
9
100
AcDbSymbolTableRecord
100
AcDbBlockTableRecord
  2
99af57a4-334b-47f0-a2a1-470edcfc56ff
340
0
 70
0
280
1
281
0
  0
BLOCK_RECORD
  5
9C
330
9
100
AcDbSymbolTableRecord
100
AcDbBlockTableRecord
  2
51ee693e-eed9-435f-af2f-922c1c005f57
340
0
 70
0
280
1
281
0
  0
BLOCK_RECORD
  5
9F
330
9
100
AcDbSymbolTableRecord
100
AcDbBlockTableRecord
  2
8631f6ca-b095-447a-aa63-a8f72b3c402a
340
0
 70
0
280
1
281
0
  0
BLOCK_RECORD
  5
A2
330
9
100
AcDbSymbolTableRecord
100
AcDbBlockTableRecord
  2
9cb83e69-5680-44e3-b9d0-d055a4ae5d64
340
0
 70
0
280
1
281
0
  0
BLOCK_RECORD
  5
AF
330
9
100
AcDbSymbolTableRecord
100
AcDbBlockTableRecord
  2
0dc18129-ff1e-494f-b98f-881b8be7aeb6
340
0
 70
0
280
1
281
0
  0
BLOCK_RECORD
  5
BC
330
9
100
AcDbSymbolTableRecord
100
AcDbBlockTableRecord
  2
ae46c62d-858e-4429-969e-186acec22a47
340
0
 70
0
280
1
281
0
  0
BLOCK_RECORD
  5
C9
330
9
100
AcDbSymbolTableRecord
100
AcDbBlockTableRecord
  2
27bf1d17-8d78-4903-84b6-fc2ebd5499d4
340
0
 70
0
280
1
281
0
  0
BLOCK_RECORD
  5
CC
330
9
100
AcDbSymbolTableRecord
100
AcDbBlockTableRecord
  2
49a4ad3f-ec34-40af-91c2-93e5d28dec98
340
0
 70
0
280
1
281
0
  0
BLOCK_RECORD
  5
DD
330
9
100
AcDbSymbolTableRecord
100
AcDbBlockTableRecord
  2
19c67d47-aac5-4bad-8ff8-18917acd56c4
340
0
 70
0
280
1
281
0
  0
BLOCK_RECORD
  5
E0
330
9
100
AcDbSymbolTableRecord
100
AcDbBlockTableRecord
  2
248617d9-73f1-4639-8562-2f023354178c
340
0
 70
0
280
1
281
0
  0
BLOCK_RECORD
  5
FF
330
9
100
AcDbSymbolTableRecord
100
AcDbBlockTableRecord
  2
aad121a3-b16d-4ff3-a1cb-6bd92bec29d0
340
0
 70
0
280
1
281
0
  0
BLOCK_RECORD
  5
11E
330
9
100
AcDbSymbolTableRecord
100
AcDbBlockTableRecord
  2
13cfcc7f-9e85-49f3-bd7b-01d109bdc8c7
340
0
 70
0
280
1
281
0
  0
BLOCK_RECORD
  5
13D
330
9
100
AcDbSymbolTableRecord
100
AcDbBlockTableRecord
  2
fefe4a15-b227-45a4-aeb3-74e144038593
340
0
 70
0
280
1
281
0
  0
BLOCK_RECORD
  5
140
330
9
100
AcDbSymbolTableRecord
100
AcDbBlockTableRecord
  2
274f322f-9fb1-4c32-97c3-39addcbc481e
340
0
 70
0
280
1
281
0
  0
BLOCK_RECORD
  5
14F
330
9
100
AcDbSymbolTableRecord
100
AcDbBlockTableRecord
  2
4a65c3fe-8a52-4ed7-a9a7-09a0eeaffae1
340
0
 70
0
280
1
281
0
  0
BLOCK_RECORD
  5
15E
330
9
100
AcDbSymbolTableRecord
100
AcDbBlockTableRecord
  2
00193bbe-3a77-4e48-a25d-2eca3b470854
340
0
 70
0
280
1
281
0
  0
BLOCK_RECORD
  5
16D
330
9
100
AcDbSymbolTableRecord
100
AcDbBlockTableRecord
  2
ca594f99-9ff1-40ac-9a4a-2ee5fdf6b622
340
0
 70
0
280
1
281
0
  0
BLOCK_RECORD
  5
18C
330
9
100
AcDbSymbolTableRecord
100
AcDbBlockTableRecord
  2
cc1d79e6-1169-4137-90d2-511de14e4b6c
340
0
 70
0
280
1
281
0
  0
BLOCK_RECORD
  5
197
330
9
100
AcDbSymbolTableRecord
100
AcDbBlockTableRecord
  2
0c4308e9-2b30-4fdd-bd74-87084b7efbe9
340
0
 70
0
280
1
281
0
  0
BLOCK_RECORD
  5
1A2
330
9
100
AcDbSymbolTableRecord
100
AcDbBlockTableRecord
  2
7d6eabf1-1033-4892-bd5e-988fd258f127
340
0
 70
0
280
1
281
0
  0
BLOCK_RECORD
  5
1AD
330
9
100
AcDbSymbolTableRecord
100
AcDbBlockTableRecord
  2
93c8dd1d-7ab9-4ff6-8952-bcac47c11652
340
0
 70
0
280
1
281
0
  0
BLOCK_RECORD
  5
1B8
330
9
100
AcDbSymbolTableRecord
100
AcDbBlockTableRecord
  2
f16723d7-a5a3-4900-ada6-5274871bac99
340
0
 70
0
280
1
281
0
  0
BLOCK_RECORD
  5
1C1
330
9
100
AcDbSymbolTableRecord
100
AcDbBlockTableRecord
  2
e505abca-c788-4188-93b1-9244b2fe3d75
340
0
 70
0
280
1
281
0
  0
BLOCK_RECORD
  5
1CA
330
9
100
AcDbSymbolTableRecord
100
AcDbBlockTableRecord
  2
697cf209-8c73-4fc6-8cae-808481d145ae
340
0
 70
0
280
1
281
0
  0
BLOCK_RECORD
  5
1D3
330
9
100
AcDbSymbolTableRecord
100
AcDbBlockTableRecord
  2
4316dbc0-3bd5-4174-ae4a-5ac85f27e015
340
0
 70
0
280
1
281
0
  0
BLOCK_RECORD
  5
1D6
330
9
100
AcDbSymbolTableRecord
100
AcDbBlockTableRecord
  2
63f51dba-0e39-40c3-a0bb-a5823adb80e7
340
0
 70
0
280
1
281
0
  0
BLOCK_RECORD
  5
1FB
330
9
100
AcDbSymbolTableRecord
100
AcDbBlockTableRecord
  2
442f971d-5f5f-4807-a74d-5301ab587f16
340
0
 70
0
280
1
281
0
  0
BLOCK_RECORD
  5
1FE
330
9
100
AcDbSymbolTableRecord
100
AcDbBlockTableRecord
  2
9383ec21-2b81-4976-8df5-c43dfd17bf04
340
0
 70
0
280
1
281
0
  0
BLOCK_RECORD
  5
20B
330
9
100
AcDbSymbolTableRecord
100
AcDbBlockTableRecord
  2
669677e6-2d65-4532-a1ed-1cd5c1ab0e98
340
0
 70
0
280
1
281
0
  0
BLOCK_RECORD
  5
20E
330
9
100
AcDbSymbolTableRecord
100
AcDbBlockTableRecord
  2
0234c629-aa52-4f5c-883b-db329b489e7f
340
0
 70
0
280
1
281
0
  0
BLOCK_RECORD
  5
219
330
9
100
AcDbSymbolTableRecord
100
AcDbBlockTableRecord
  2
36bf6804-9504-488e-9fe0-b82f7c3fad75
340
0
 70
0
280
1
281
0
  0
BLOCK_RECORD
  5
224
330
9
100
AcDbSymbolTableRecord
100
AcDbBlockTableRecord
  2
dbb825a7-38fe-4f42-81a3-87af3608af28
340
0
 70
0
280
1
281
0
  0
BLOCK_RECORD
  5
22F
330
9
100
AcDbSymbolTableRecord
100
AcDbBlockTableRecord
  2
8b7448eb-cba8-4d47-b266-2a1a17d68051
340
0
 70
0
280
1
281
0
  0
BLOCK_RECORD
  5
232
330
9
100
AcDbSymbolTableRecord
100
AcDbBlockTableRecord
  2
02e58d74-b668-437e-b2f2-784e26eb48c1
340
0
 70
0
280
1
281
0
  0
BLOCK_RECORD
  5
23B
330
9
100
AcDbSymbolTableRecord
100
AcDbBlockTableRecord
  2
02a73541-1ea4-46f1-beac-9ba5473911eb
340
0
 70
0
280
1
281
0
  0
BLOCK_RECORD
  5
244
330
9
100
AcDbSymbolTableRecord
100
AcDbBlockTableRecord
  2
fc0acdeb-dfe5-41d6-9d7e-bcd2dc6865cb
340
0
 70
0
280
1
281
0
  0
BLOCK_RECORD
  5
247
330
9
100
AcDbSymbolTableRecord
100
AcDbBlockTableRecord
  2
ea964ee2-9b26-416b-8f53-053d9ea35ae2
340
0
 70
0
280
1
281
0
  0
BLOCK_RECORD
  5
274
330
9
100
AcDbSymbolTableRecord
100
AcDbBlockTableRecord
  2
907da1a8-b2c7-40dd-8487-1edb87196a80
340
0
 70
0
280
1
281
0
  0
BLOCK_RECORD
  5
289
330
9
100
AcDbSymbolTableRecord
100
AcDbBlockTableRecord
  2
cbcb917d-5dae-4dea-ac6d-a312f4dc59ef
340
0
 70
0
280
1
281
0
  0
BLOCK_RECORD
  5
28C
330
9
100
AcDbSymbolTableRecord
100
AcDbBlockTableRecord
  2
8a75022e-29b2-429e-ba7b-ae96ccdd1da1
340
0
 70
0
280
1
281
0
  0
BLOCK_RECORD
  5
2A9
330
9
100
AcDbSymbolTableRecord
100
AcDbBlockTableRecord
  2
529db8e1-bb70-45a8-9ff0-c432d7d183d7
340
0
 70
0
280
1
281
0
  0
BLOCK_RECORD
  5
2EA
330
9
100
AcDbSymbolTableRecord
100
AcDbBlockTableRecord
  2
c3066bbb-6260-44ba-9656-3002617db13f
340
0
 70
0
280
1
281
0
  0
BLOCK_RECORD
  5
2ED
330
9
100
AcDbSymbolTableRecord
100
AcDbBlockTableRecord
  2
d9e8bc0b-458d-4b3b-93f7-0da30d2f16ad
340
0
 70
0
280
1
281
0
  0
BLOCK_RECORD
  5
35E
330
9
100
AcDbSymbolTableRecord
100
AcDbBlockTableRecord
  2
77506019-842a-42a1-84ac-5383645208ed
340
0
 70
0
280
1
281
0
  0
BLOCK_RECORD
  5
361
330
9
100
AcDbSymbolTableRecord
100
AcDbBlockTableRecord
  2
9732ea8f-3ef2-46b2-b5ab-d397648848cc
340
0
 70
0
280
1
281
0
  0
BLOCK_RECORD
  5
39C
330
9
100
AcDbSymbolTableRecord
100
AcDbBlockTableRecord
  2
a5889bb1-ab94-4712-babf-a00ae1b3b239
340
0
 70
0
280
1
281
0
  0
BLOCK_RECORD
  5
39F
330
9
100
AcDbSymbolTableRecord
100
AcDbBlockTableRecord
  2
b0e19da4-fba5-434f-9bbf-69af6c6781ba
340
0
 70
0
280
1
281
0
  0
BLOCK_RECORD
  5
3C0
330
9
100
AcDbSymbolTableRecord
100
AcDbBlockTableRecord
  2
67d208c2-2a94-4946-9b0b-b9707064573e
340
0
 70
0
280
1
281
0
  0
BLOCK_RECORD
  5
3C3
330
9
100
AcDbSymbolTableRecord
100
AcDbBlockTableRecord
  2
a974758e-8918-454e-ab83-23a0ea03b284
340
0
 70
0
280
1
281
0
  0
BLOCK_RECORD
  5
3D6
330
9
100
AcDbSymbolTableRecord
100
AcDbBlockTableRecord
  2
cab018d3-188e-4e7a-8bad-cb4ede750325
340
0
 70
0
280
1
281
0
  0
BLOCK_RECORD
  5
3E9
330
9
100
AcDbSymbolTableRecord
100
AcDbBlockTableRecord
  2
09fa6e56-a6c4-48b4-800d-e5f69a6e13c8
340
0
 70
0
280
1
281
0
  0
BLOCK_RECORD
  5
3FB
330
9
100
AcDbSymbolTableRecord
100
AcDbBlockTableRecord
  2
a0ff0c8f-5aba-47f0-9c4c-786cbc0ecc2a
340
0
 70
0
280
1
281
0
  0
BLOCK_RECORD
  5
40C
330
9
100
AcDbSymbolTableRecord
100
AcDbBlockTableRecord
  2
5cd631d9-9183-486c-84ed-a191c6d01ef0
340
0
 70
0
280
1
281
0
  0
BLOCK_RECORD
  5
41D
330
9
100
AcDbSymbolTableRecord
100
AcDbBlockTableRecord
  2
067540d5-5830-4e2f-908d-df1ae56bb338
340
0
 70
0
280
1
281
0
  0
BLOCK_RECORD
  5
42E
330
9
100
AcDbSymbolTableRecord
100
AcDbBlockTableRecord
  2
33d70c45-2596-4e2d-b921-4a78eef4de14
340
0
 70
0
280
1
281
0
  0
ENDTAB
  0
ENDSEC
  0
SECTION
  2
BLOCKS
  0
BLOCK
  5
18
330
17
100
AcDbEntity
  8
0
100
AcDbBlockBegin
  2
*Model_Space
 70
0
 10
0.0
 20
0.0
 30
0.0
  3
*Model_Space
  1

  0
ENDBLK
  5
19
330
17
100
AcDbEntity
  8
0
100
AcDbBlockEnd
  0
BLOCK
  5
1C
330
1B
100
AcDbEntity
  8
0
100
AcDbBlockBegin
  2
*Paper_Space
 70
0
 10
0.0
 20
0.0
 30
0.0
  3
*Paper_Space
  1

  0
ENDBLK
  5
1D
330
1B
100
AcDbEntity
  8
0
100
AcDbBlockEnd
  0
BLOCK
  5
75
330
74
100
AcDbEntity
  8
0
100
AcDbBlockBegin
  2
_ARCHTICK
 70
0
 10
0.0
 20
0.0
 30
0.0
  3
_ARCHTICK
  1

  0
LWPOLYLINE
  5
77
330
74
100
AcDbEntity
  8
0
  6
BYBLOCK
 62
0
100
AcDbPolyline
 90
2
 70
0
 43
0.15
 10
-0.5
 20
-0.5000000000000001
 10
0.5000000000000001
 20
0.5
  0
ENDBLK
  5
76
330
74
100
AcDbEntity
  8
0
100
AcDbBlockEnd
  0
BLOCK
  5
79
330
78
100
AcDbEntity
  8
0
100
AcDbBlockBegin
  2
_CLOSEDFILLED
 70
0
 10
0.0
 20
0.0
 30
0.0
  3
_CLOSEDFILLED
  1

  0
SOLID
  5
7B
330
78
100
AcDbEntity
  8
0
  6
BYBLOCK
 62
0
100
AcDbTrace
 10
-0.9999999999999999
 20
0.16439898372402548
 30
0.0
 11
0.0
 21
0.0
 31
0.0
 12
-0.9999999999999999
 22
-0.16439898372402548
 32
0.0
 13
-0.9999999999999999
 23
-0.16439898372402548
 33
0.0
  0
ENDBLK
  5
7A
330
78
100
AcDbEntity
  8
0
100
AcDbBlockEnd
  0
BLOCK
  5
85
330
84
100
AcDbEntity
  8
0
100
AcDbBlockBegin
  2
_CLOSEDBLANK
 70
0
 10
0.0
 20
0.0
 30
0.0
  3
_CLOSEDBLANK
  1

  0
LWPOLYLINE
  5
87
330
84
100
AcDbEntity
  8
0
  6
BYBLOCK
 62
0
100
AcDbPolyline
 90
3
 70
1
 10
-0.9999999999999999
 20
0.16439898372402548
 10
0.0
 20
0.0
 10
-0.9999999999999999
 20
-0.16439898372402548
  0
ENDBLK
  5
86
330
84
100
AcDbEntity
  8
0
100
AcDbBlockEnd
  0
BLOCK
  5
9A
330
99
100
AcDbEntity
  8
0
100
AcDbBlockBegin
  2
99af57a4-334b-47f0-a2a1-470edcfc56ff
 70
0
 10
0.0
 20
0.0
 30
0.0
  3
99af57a4-334b-47f0-a2a1-470edcfc56ff
  1

  0
ENDBLK
  5
9B
330
99
100
AcDbEntity
  8
0
100
AcDbBlockEnd
  0
BLOCK
  5
9D
330
9C
100
AcDbEntity
  8
0
100
AcDbBlockBegin
  2
51ee693e-eed9-435f-af2f-922c1c005f57
 70
0
 10
0.0
 20
0.0
 30
0.0
  3
51ee693e-eed9-435f-af2f-922c1c005f57
  1

  0
ENDBLK
  5
9E
330
9C
100
AcDbEntity
  8
0
100
AcDbBlockEnd
  0
BLOCK
  5
A0
330
9F
100
AcDbEntity
  8
0
100
AcDbBlockBegin
  2
8631f6ca-b095-447a-aa63-a8f72b3c402a
 70
0
 10
0.0
 20
0.0
 30
0.0
  3
8631f6ca-b095-447a-aa63-a8f72b3c402a
  1

  0
ENDBLK
  5
A1
330
9F
100
AcDbEntity
  8
0
100
AcDbBlockEnd
  0
BLOCK
  5
A3
330
A2
100
AcDbEntity
  8
0
100
AcDbBlockBegin
  2
9cb83e69-5680-44e3-b9d0-d055a4ae5d64
 70
0
 10
0.0
 20
0.0
 30
0.0
  3
9cb83e69-5680-44e3-b9d0-d055a4ae5d64
  1

  0
LINE
  5
A5
330
A2
100
AcDbEntity
  8
0
100
AcDbLine
 10
0.0
 20
0.0
 30
0.0
 11
0.0
 21
-1.0415999999999954
 31
0.0
  0
LINE
  5
A6
330
A2
100
AcDbEntity
  8
0
100
AcDbLine
 10
-111.12490000000001
 20
0.0
 30
0.0
 11
-111.12490000000001
 21
-1.0415999999999954
 31
0.0
  0
LINE
  5
A7
330
A2
100
AcDbEntity
  8
0
100
AcDbLine
 10
-111.12490000000001
 20
-1.0415999999999954
 30
0.0
 11
-103.20400000000001
 21
-1.0415999999999954
 31
0.0
  0
LINE
  5
A8
330
A2
100
AcDbEntity
  8
0
100
AcDbLine
 10
-27.004000000000005
 20
-1.0415999999999954
 30
0.0
 11
-26.788200000000003
 21
-1.0415999999999954
 31
0.0
  0
LINE
  5
A9
330
A2
100
AcDbEntity
  8
0
100
AcDbLine
 10
-26.267300000000006
 20
-1.0415999999999954
 30
0.0
 11
0.0
 21
-1.0415999999999954
 31
0.0
  0
LINE
  5
AA
330
A2
100
AcDbEntity
  8
0
100
AcDbLine
 10
-111.12490000000001
 20
0.0
 30
0.0
 11
-103.20400000000001
 21
0.0
 31
0.0
  0
LINE
  5
AB
330
A2
100
AcDbEntity
  8
0
100
AcDbLine
 10
-27.004000000000005
 20
0.0
 30
0.0
 11
-26.788200000000003
 21
0.0
 31
0.0
  0
LINE
  5
AC
330
A2
100
AcDbEntity
  8
0
100
AcDbLine
 10
-26.267300000000006
 20
0.0
 30
0.0
 11
0.0
 21
0.0
 31
0.0
  0
ENDBLK
  5
A4
330
A2
100
AcDbEntity
  8
0
100
AcDbBlockEnd
  0
BLOCK
  5
B0
330
AF
100
AcDbEntity
  8
0
100
AcDbBlockBegin
  2
0dc18129-ff1e-494f-b98f-881b8be7aeb6
 70
0
 10
0.0
 20
0.0
 30
0.0
  3
0dc18129-ff1e-494f-b98f-881b8be7aeb6
  1

  0
LINE
  5
B2
330
AF
100
AcDbEntity
  8
0
100
AcDbLine
 10
0.0
 20
0.0
 30
0.0
 11
0.0
 21
-1.0417000000000058
 31
0.0
  0
LINE
  5
B3
330
AF
100
AcDbEntity
  8
0
100
AcDbLine
 10
-111.12490000000001
 20
0.0
 30
0.0
 11
-111.12490000000001
 21
-1.0417000000000058
 31
0.0
  0
LINE
  5
B4
330
AF
100
AcDbEntity
  8
0
100
AcDbLine
 10
-111.12490000000001
 20
-1.0417000000000058
 30
0.0
 11
-103.20400000000001
 21
-1.0417000000000058
 31
0.0
  0
LINE
  5
B5
330
AF
100
AcDbEntity
  8
0
100
AcDbLine
 10
-27.004000000000005
 20
-1.0417000000000058
 30
0.0
 11
-26.788200000000003
 21
-1.0417000000000058
 31
0.0
  0
LINE
  5
B6
330
AF
100
AcDbEntity
  8
0
100
AcDbLine
 10
-26.267300000000006
 20
-1.0417000000000058
 30
0.0
 11
0.0
 21
-1.0417000000000058
 31
0.0
  0
LINE
  5
B7
330
AF
100
AcDbEntity
  8
0
100
AcDbLine
 10
-111.12490000000001
 20
0.0
 30
0.0
 11
-103.20400000000001
 21
0.0
 31
0.0
  0
LINE
  5
B8
330
AF
100
AcDbEntity
  8
0
100
AcDbLine
 10
-27.004000000000005
 20
0.0
 30
0.0
 11
-26.788200000000003
 21
0.0
 31
0.0
  0
LINE
  5
B9
330
AF
100
AcDbEntity
  8
0
100
AcDbLine
 10
-26.267300000000006
 20
0.0
 30
0.0
 11
0.0
 21
0.0
 31
0.0
  0
ENDBLK
  5
B1
330
AF
100
AcDbEntity
  8
0
100
AcDbBlockEnd
  0
BLOCK
  5
BD
330
BC
100
AcDbEntity
  8
0
100
AcDbBlockBegin
  2
ae46c62d-858e-4429-969e-186acec22a47
 70
0
 10
0.0
 20
0.0
 30
0.0
  3
ae46c62d-858e-4429-969e-186acec22a47
  1

  0
LINE
  5
BF
330
BC
100
AcDbEntity
  8
0
100
AcDbLine
 10
0.0
 20
0.0
 30
0.0
 11
0.0
 21
-1.0416999999999987
 31
0.0
  0
LINE
  5
C0
330
BC
100
AcDbEntity
  8
0
100
AcDbLine
 10
-111.12490000000001
 20
0.0
 30
0.0
 11
-111.12490000000001
 21
-1.0416999999999987
 31
0.0
  0
LINE
  5
C1
330
BC
100
AcDbEntity
  8
0
100
AcDbLine
 10
-111.12490000000001
 20
-1.0416999999999987
 30
0.0
 11
-103.20400000000001
 21
-1.0416999999999987
 31
0.0
  0
LINE
  5
C2
330
BC
100
AcDbEntity
  8
0
100
AcDbLine
 10
-27.004000000000005
 20
-1.0416999999999987
 30
0.0
 11
-26.788200000000003
 21
-1.0416999999999987
 31
0.0
  0
LINE
  5
C3
330
BC
100
AcDbEntity
  8
0
100
AcDbLine
 10
-26.267300000000006
 20
-1.0416999999999987
 30
0.0
 11
0.0
 21
-1.0416999999999987
 31
0.0
  0
LINE
  5
C4
330
BC
100
AcDbEntity
  8
0
100
AcDbLine
 10
-111.12490000000001
 20
0.0
 30
0.0
 11
-103.20400000000001
 21
0.0
 31
0.0
  0
LINE
  5
C5
330
BC
100
AcDbEntity
  8
0
100
AcDbLine
 10
-27.004000000000005
 20
0.0
 30
0.0
 11
-26.788200000000003
 21
0.0
 31
0.0
  0
LINE
  5
C6
330
BC
100
AcDbEntity
  8
0
100
AcDbLine
 10
-26.267300000000006
 20
0.0
 30
0.0
 11
0.0
 21
0.0
 31
0.0
  0
ENDBLK
  5
BE
330
BC
100
AcDbEntity
  8
0
100
AcDbBlockEnd
  0
BLOCK
  5
CA
330
C9
100
AcDbEntity
  8
0
100
AcDbBlockBegin
  2
27bf1d17-8d78-4903-84b6-fc2ebd5499d4
 70
0
 10
0.0
 20
0.0
 30
0.0
  3
27bf1d17-8d78-4903-84b6-fc2ebd5499d4
  1

  0
ENDBLK
  5
CB
330
C9
100
AcDbEntity
  8
0
100
AcDbBlockEnd
  0
BLOCK
  5
CD
330
CC
100
AcDbEntity
  8
0
100
AcDbBlockBegin
  2
49a4ad3f-ec34-40af-91c2-93e5d28dec98
 70
0
 10
0.0
 20
0.0
 30
0.0
  3
49a4ad3f-ec34-40af-91c2-93e5d28dec98
  1

  0
LINE
  5
CF
330
CC
100
AcDbEntity
  8
0
100
AcDbLine
 10
0.0
 20
0.0
 30
0.0
 11
0.0
 21
-0.5208999999999975
 31
0.0
  0
LINE
  5
D0
330
CC
100
AcDbEntity
  8
0
100
AcDbLine
 10
0.0
 20
-0.5208999999999975
 30
0.0
 11
-23.7153
 21
-0.5208999999999975
 31
0.0
  0
LINE
  5
D1
330
CC
100
AcDbEntity
  8
0
100
AcDbLine
 10
-23.7153
 20
0.0
 30
0.0
 11
-23.7153
 21
-0.5208999999999975
 31
0.0
  0
LINE
  5
D2
330
CC
100
AcDbEntity
  8
0
100
AcDbLine
 10
-23.7153
 20
0.0
 30
0.0
 11
0.0
 21
0.0
 31
0.0
  0
LINE
  5
D3
330
CC
100
AcDbEntity
  8
0
100
AcDbLine
 10
0.2604000000000042
 20
-45.663
 30
0.0
 11
-0.2604999999999933
 21
-45.663
 31
0.0
  0
LINE
  5
D4
330
CC
100
AcDbEntity
  8
0
100
AcDbLine
 10
-0.2604999999999933
 20
-45.663
 30
0.0
 11
-0.2604999999999933
 21
-0.2603999999999971
 31
0.0
  0
LINE
  5
D5
330
CC
100
AcDbEntity
  8
0
100
AcDbLine
 10
0.2604000000000042
 20
-0.2603999999999971
 30
0.0
 11
-0.2604999999999933
 21
-0.2603999999999971
 31
0.0
  0
LINE
  5
D6
330
CC
100
AcDbEntity
  8
0
100
AcDbLine
 10
0.2604000000000042
 20
-0.2603999999999971
 30
0.0
 11
0.2604000000000042
 21
-45.663
 31
0.0
  0
LINE
  5
D7
330
CC
100
AcDbEntity
  8
0
100
AcDbLine
 10
-35.730799999999995
 20
-45.9234
 30
0.0
 11
-35.730799999999995
 21
-45.40259999999999
 31
0.0
  0
LINE
  5
D8
330
CC
100
AcDbEntity
  8
0
100
AcDbLine
 10
-35.730799999999995
 20
-45.40259999999999
 30
0.0
 11
-9.99999999891088e-05
 21
-45.40259999999999
 31
0.0
  0
LINE
  5
D9
330
CC
100
AcDbEntity
  8
0
100
AcDbLine
 10
-9.99999999891088e-05
 20
-45.9234
 30
0.0
 11
-9.99999999891088e-05
 21
-45.40259999999999
 31
0.0
  0
LINE
  5
DA
330
CC
100
AcDbEntity
  8
0
100
AcDbLine
 10
-9.99999999891088e-05
 20
-45.9234
 30
0.0
 11
-35.730799999999995
 21
-45.9234
 31
0.0
  0
ENDBLK
  5
CE
330
CC
100
AcDbEntity
  8
0
100
AcDbBlockEnd
  0
BLOCK
  5
DE
330
DD
100
AcDbEntity
  8
0
100
AcDbBlockBegin
  2
19c67d47-aac5-4bad-8ff8-18917acd56c4
 70
0
 10
0.0
 20
0.0
 30
0.0
  3
19c67d47-aac5-4bad-8ff8-18917acd56c4
  1

  0
ENDBLK
  5
DF
330
DD
100
AcDbEntity
  8
0
100
AcDbBlockEnd
  0
BLOCK
  5
E1
330
E0
100
AcDbEntity
  8
0
100
AcDbBlockBegin
  2
248617d9-73f1-4639-8562-2f023354178c
 70
0
 10
0.0
 20
0.0
 30
0.0
  3
248617d9-73f1-4639-8562-2f023354178c
  1

  0
LINE
  5
E3
330
E0
100
AcDbEntity
  8
0
100
AcDbLine
 10
0.0
 20
0.0
 30
0.0
 11
0.027599999999999625
 21
0.22700000000000387
 31
0.0
  0
LINE
  5
E4
330
E0
100
AcDbEntity
  8
0
100
AcDbLine
 10
-0.2670999999999992
 20
-0.7043999999999997
 30
0.0
 11
0.0
 21
0.0
 31
0.0
  0
LINE
  5
E5
330
E0
100
AcDbEntity
  8
0
100
AcDbLine
 10
-0.6951
 20
-1.3243999999999971
 30
0.0
 11
-0.2670999999999992
 21
-0.7043999999999997
 31
0.0
  0
LINE
  5
E6
330
E0
100
AcDbEntity
  8
0
100
AcDbLine
 10
-1.2590000000000003
 20
-1.823999999999998
 30
0.0
 11
-0.6951
 21
-1.3243999999999971
 31
0.0
  0
LINE
  5
E7
330
E0
100
AcDbEntity
  8
0
100
AcDbLine
 10
-1.9260000000000002
 20
-2.1740999999999957
 30
0.0
 11
-1.2590000000000003
 21
-1.823999999999998
 31
0.0
  0
LINE
  5
E8
330
E0
100
AcDbEntity
  8
0
100
AcDbLine
 10
-2.657499999999999
 20
-2.3543999999999983
 30
0.0
 11
-1.9260000000000002
 21
-2.1740999999999957
 31
0.0
  0
LINE
  5
E9
330
E0
100
AcDbEntity
  8
0
100
AcDbLine
 10
-3.4109
 20
-2.3543999999999983
 30
0.0
 11
-2.657499999999999
 21
-2.3543999999999983
 31
0.0
  0
LINE
  5
EA
330
E0
100
AcDbEntity
  8
0
100
AcDbLine
 10
-4.142299999999999
 20
-2.1740999999999957
 30
0.0
 11
-3.4109
 21
-2.3543999999999983
 31
0.0
  0
LINE
  5
EB
330
E0
100
AcDbEntity
  8
0
100
AcDbLine
 10
-4.8094
 20
-1.823999999999998
 30
0.0
 11
-4.142299999999999
 21
-2.1740999999999957
 31
0.0
  0
LINE
  5
EC
330
E0
100
AcDbEntity
  8
0
100
AcDbLine
 10
-5.373279999999999
 20
-1.3243999999999971
 30
0.0
 11
-4.8094
 21
-1.823999999999998
 31
0.0
  0
LINE
  5
ED
330
E0
100
AcDbEntity
  8
0
100
AcDbLine
 10
-5.80123
 20
-0.7043999999999997
 30
0.0
 11
-5.373279999999999
 21
-1.3243999999999971
 31
0.0
  0
LINE
  5
EE
330
E0
100
AcDbEntity
  8
0
100
AcDbLine
 10
-6.068379999999999
 20
0.0
 30
0.0
 11
-5.80123
 21
-0.7043999999999997
 31
0.0
  0
LINE
  5
EF
330
E0
100
AcDbEntity
  8
0
100
AcDbLine
 10
-6.159179999999999
 20
0.7479000000000013
 30
0.0
 11
-6.068379999999999
 21
0.0
 31
0.0
  0
LINE
  5
F0
330
E0
100
AcDbEntity
  8
0
100
AcDbLine
 10
-6.068379999999999
 20
1.4956999999999994
 30
0.0
 11
-6.159179999999999
 21
0.7479000000000013
 31
0.0
  0
LINE
  5
F1
330
E0
100
AcDbEntity
  8
0
100
AcDbLine
 10
-5.80123
 20
2.200099999999999
 30
0.0
 11
-6.068379999999999
 21
1.4956999999999994
 31
0.0
  0
LINE
  5
F2
330
E0
100
AcDbEntity
  8
0
100
AcDbLine
 10
-5.373279999999999
 20
2.8201000000000036
 30
0.0
 11
-5.80123
 21
2.200099999999999
 31
0.0
  0
LINE
  5
F3
330
E0
100
AcDbEntity
  8
0
100
AcDbLine
 10
-4.8094
 20
3.3196999999999974
 30
0.0
 11
-5.373279999999999
 21
2.8201000000000036
 31
0.0
  0
LINE
  5
F4
330
E0
100
AcDbEntity
  8
0
100
AcDbLine
 10
-4.142299999999999
 20
3.669800000000002
 30
0.0
 11
-4.8094
 21
3.3196999999999974
 31
0.0
  0
LINE
  5
F5
330
E0
100
AcDbEntity
  8
0
100
AcDbLine
 10
-3.4109
 20
3.8500999999999976
 30
0.0
 11
-4.142299999999999
 21
3.669800000000002
 31
0.0
  0
LINE
  5
F6
330
E0
100
AcDbEntity
  8
0
100
AcDbLine
 10
-2.657499999999999
 20
3.8500999999999976
 30
0.0
 11
-3.4109
 21
3.8500999999999976
 31
0.0
  0
LINE
  5
F7
330
E0
100
AcDbEntity
  8
0
100
AcDbLine
 10
-1.9260000000000002
 20
3.669800000000002
 30
0.0
 11
-2.657499999999999
 21
3.8500999999999976
 31
0.0
  0
LINE
  5
F8
330
E0
100
AcDbEntity
  8
0
100
AcDbLine
 10
-1.2590000000000003
 20
3.3196999999999974
 30
0.0
 11
-1.9260000000000002
 21
3.669800000000002
 31
0.0
  0
LINE
  5
F9
330
E0
100
AcDbEntity
  8
0
100
AcDbLine
 10
-0.6951
 20
2.8201000000000036
 30
0.0
 11
-1.2590000000000003
 21
3.3196999999999974
 31
0.0
  0
LINE
  5
FA
330
E0
100
AcDbEntity
  8
0
100
AcDbLine
 10
-0.2670999999999992
 20
2.200099999999999
 30
0.0
 11
-0.6951
 21
2.8201000000000036
 31
0.0
  0
LINE
  5
FB
330
E0
100
AcDbEntity
  8
0
100
AcDbLine
 10
0.0
 20
1.4956999999999994
 30
0.0
 11
-0.2670999999999992
 21
2.200099999999999
 31
0.0
  0
LINE
  5
FC
330
E0
100
AcDbEntity
  8
0
100
AcDbLine
 10
0.027599999999999625
 20
1.2687000000000026
 30
0.0
 11
0.0
 21
1.4956999999999994
 31
0.0
  0
ENDBLK
  5
E2
330
E0
100
AcDbEntity
  8
0
100
AcDbBlockEnd
  0
BLOCK
  5
100
330
FF
100
AcDbEntity
  8
0
100
AcDbBlockBegin
  2
aad121a3-b16d-4ff3-a1cb-6bd92bec29d0
 70
0
 10
0.0
 20
0.0
 30
0.0
  3
aad121a3-b16d-4ff3-a1cb-6bd92bec29d0
  1

  0
LINE
  5
102
330
FF
100
AcDbEntity
  8
0
100
AcDbLine
 10
0.0
 20
0.0
 30
0.0
 11
0.026900000000001256
 21
0.2213000000000065
 31
0.0
  0
LINE
  5
103
330
FF
100
AcDbEntity
  8
0
100
AcDbLine
 10
-0.2670999999999992
 20
-0.7043999999999926
 30
0.0
 11
0.0
 21
0.0
 31
0.0
  0
LINE
  5
104
330
FF
100
AcDbEntity
  8
0
100
AcDbLine
 10
-0.6951
 20
-1.3243999999999971
 30
0.0
 11
-0.2670999999999992
 21
-0.7043999999999926
 31
0.0
  0
LINE
  5
105
330
FF
100
AcDbEntity
  8
0
100
AcDbLine
 10
-1.2590000000000003
 20
-1.8238999999999947
 30
0.0
 11
-0.6951
 21
-1.3243999999999971
 31
0.0
  0
LINE
  5
106
330
FF
100
AcDbEntity
  8
0
100
AcDbLine
 10
-1.9260000000000002
 20
-2.1739999999999924
 30
0.0
 11
-1.2590000000000003
 21
-1.8238999999999947
 31
0.0
  0
LINE
  5
107
330
FF
100
AcDbEntity
  8
0
100
AcDbLine
 10
-2.657499999999999
 20
-2.354299999999995
 30
0.0
 11
-1.9260000000000002
 21
-2.1739999999999924
 31
0.0
  0
LINE
  5
108
330
FF
100
AcDbEntity
  8
0
100
AcDbLine
 10
-3.4109
 20
-2.354299999999995
 30
0.0
 11
-2.657499999999999
 21
-2.354299999999995
 31
0.0
  0
LINE
  5
109
330
FF
100
AcDbEntity
  8
0
100
AcDbLine
 10
-4.142299999999999
 20
-2.1739999999999924
 30
0.0
 11
-3.4109
 21
-2.354299999999995
 31
0.0
  0
LINE
  5
10A
330
FF
100
AcDbEntity
  8
0
100
AcDbLine
 10
-4.8094
 20
-1.8238999999999947
 30
0.0
 11
-4.142299999999999
 21
-2.1739999999999924
 31
0.0
  0
LINE
  5
10B
330
FF
100
AcDbEntity
  8
0
100
AcDbLine
 10
-5.373279999999999
 20
-1.3243999999999971
 30
0.0
 11
-4.8094
 21
-1.8238999999999947
 31
0.0
  0
LINE
  5
10C
330
FF
100
AcDbEntity
  8
0
100
AcDbLine
 10
-5.80123
 20
-0.7043999999999926
 30
0.0
 11
-5.373279999999999
 21
-1.3243999999999971
 31
0.0
  0
LINE
  5
10D
330
FF
100
AcDbEntity
  8
0
100
AcDbLine
 10
-6.068379999999999
 20
0.0
 30
0.0
 11
-5.80123
 21
-0.7043999999999926
 31
0.0
  0
LINE
  5
10E
330
FF
100
AcDbEntity
  8
0
100
AcDbLine
 10
-6.159179999999999
 20
0.7479000000000013
 30
0.0
 11
-6.068379999999999
 21
0.0
 31
0.0
  0
LINE
  5
10F
330
FF
100
AcDbEntity
  8
0
100
AcDbLine
 10
-6.068379999999999
 20
1.4958000000000027
 30
0.0
 11
-6.159179999999999
 21
0.7479000000000013
 31
0.0
  0
LINE
  5
110
330
FF
100
AcDbEntity
  8
0
100
AcDbLine
 10
-5.80123
 20
2.2002000000000095
 30
0.0
 11
-6.068379999999999
 21
1.4958000000000027
 31
0.0
  0
LINE
  5
111
330
FF
100
AcDbEntity
  8
0
100
AcDbLine
 10
-5.373279999999999
 20
2.820200000000007
 30
0.0
 11
-5.80123
 21
2.2002000000000095
 31
0.0
  0
LINE
  5
112
330
FF
100
AcDbEntity
  8
0
100
AcDbLine
 10
-4.8094
 20
3.3197000000000045
 30
0.0
 11
-5.373279999999999
 21
2.820200000000007
 31
0.0
  0
LINE
  5
113
330
FF
100
AcDbEntity
  8
0
100
AcDbLine
 10
-4.142299999999999
 20
3.6698000000000093
 30
0.0
 11
-4.8094
 21
3.3197000000000045
 31
0.0
  0
LINE
  5
114
330
FF
100
AcDbEntity
  8
0
100
AcDbLine
 10
-3.4109
 20
3.8501000000000047
 30
0.0
 11
-4.142299999999999
 21
3.6698000000000093
 31
0.0
  0
LINE
  5
115
330
FF
100
AcDbEntity
  8
0
100
AcDbLine
 10
-2.657499999999999
 20
3.8501000000000047
 30
0.0
 11
-3.4109
 21
3.8501000000000047
 31
0.0
  0
LINE
  5
116
330
FF
100
AcDbEntity
  8
0
100
AcDbLine
 10
-1.9260000000000002
 20
3.6698000000000093
 30
0.0
 11
-2.657499999999999
 21
3.8501000000000047
 31
0.0
  0
LINE
  5
117
330
FF
100
AcDbEntity
  8
0
100
AcDbLine
 10
-1.2590000000000003
 20
3.3197000000000045
 30
0.0
 11
-1.9260000000000002
 21
3.6698000000000093
 31
0.0
  0
LINE
  5
118
330
FF
100
AcDbEntity
  8
0
100
AcDbLine
 10
-0.6951
 20
2.820200000000007
 30
0.0
 11
-1.2590000000000003
 21
3.3197000000000045
 31
0.0
  0
LINE
  5
119
330
FF
100
AcDbEntity
  8
0
100
AcDbLine
 10
-0.2670999999999992
 20
2.2002000000000095
 30
0.0
 11
-0.6951
 21
2.820200000000007
 31
0.0
  0
LINE
  5
11A
330
FF
100
AcDbEntity
  8
0
100
AcDbLine
 10
0.0
 20
1.4958000000000027
 30
0.0
 11
-0.2670999999999992
 21
2.2002000000000095
 31
0.0
  0
LINE
  5
11B
330
FF
100
AcDbEntity
  8
0
100
AcDbLine
 10
0.02829999999999977
 20
1.262900000000002
 30
0.0
 11
0.0
 21
1.4958000000000027
 31
0.0
  0
ENDBLK
  5
101
330
FF
100
AcDbEntity
  8
0
100
AcDbBlockEnd
  0
BLOCK
  5
11F
330
11E
100
AcDbEntity
  8
0
100
AcDbBlockBegin
  2
13cfcc7f-9e85-49f3-bd7b-01d109bdc8c7
 70
0
 10
0.0
 20
0.0
 30
0.0
  3
13cfcc7f-9e85-49f3-bd7b-01d109bdc8c7
  1

  0
LINE
  5
121
330
11E
100
AcDbEntity
  8
0
100
AcDbLine
 10
0.0
 20
0.0
 30
0.0
 11
0.027599999999999625
 21
0.22700000000000387
 31
0.0
  0
LINE
  5
122
330
11E
100
AcDbEntity
  8
0
100
AcDbLine
 10
-0.2670999999999992
 20
-0.7043999999999926
 30
0.0
 11
0.0
 21
0.0
 31
0.0
  0
LINE
  5
123
330
11E
100
AcDbEntity
  8
0
100
AcDbLine
 10
-0.6951
 20
-1.3243999999999971
 30
0.0
 11
-0.2670999999999992
 21
-0.7043999999999926
 31
0.0
  0
LINE
  5
124
330
11E
100
AcDbEntity
  8
0
100
AcDbLine
 10
-1.2590000000000003
 20
-1.823999999999998
 30
0.0
 11
-0.6951
 21
-1.3243999999999971
 31
0.0
  0
LINE
  5
125
330
11E
100
AcDbEntity
  8
0
100
AcDbLine
 10
-1.9260000000000002
 20
-2.1740999999999957
 30
0.0
 11
-1.2590000000000003
 21
-1.823999999999998
 31
0.0
  0
LINE
  5
126
330
11E
100
AcDbEntity
  8
0
100
AcDbLine
 10
-2.657499999999999
 20
-2.3543999999999983
 30
0.0
 11
-1.9260000000000002
 21
-2.1740999999999957
 31
0.0
  0
LINE
  5
127
330
11E
100
AcDbEntity
  8
0
100
AcDbLine
 10
-3.4109
 20
-2.3543999999999983
 30
0.0
 11
-2.657499999999999
 21
-2.3543999999999983
 31
0.0
  0
LINE
  5
128
330
11E
100
AcDbEntity
  8
0
100
AcDbLine
 10
-4.142299999999999
 20
-2.1740999999999957
 30
0.0
 11
-3.4109
 21
-2.3543999999999983
 31
0.0
  0
LINE
  5
129
330
11E
100
AcDbEntity
  8
0
100
AcDbLine
 10
-4.8094
 20
-1.823999999999998
 30
0.0
 11
-4.142299999999999
 21
-2.1740999999999957
 31
0.0
  0
LINE
  5
12A
330
11E
100
AcDbEntity
  8
0
100
AcDbLine
 10
-5.373279999999999
 20
-1.3243999999999971
 30
0.0
 11
-4.8094
 21
-1.823999999999998
 31
0.0
  0
LINE
  5
12B
330
11E
100
AcDbEntity
  8
0
100
AcDbLine
 10
-5.80123
 20
-0.7043999999999926
 30
0.0
 11
-5.373279999999999
 21
-1.3243999999999971
 31
0.0
  0
LINE
  5
12C
330
11E
100
AcDbEntity
  8
0
100
AcDbLine
 10
-6.068379999999999
 20
0.0
 30
0.0
 11
-5.80123
 21
-0.7043999999999926
 31
0.0
  0
LINE
  5
12D
330
11E
100
AcDbEntity
  8
0
100
AcDbLine
 10
-6.159179999999999
 20
0.7479000000000084
 30
0.0
 11
-6.068379999999999
 21
0.0
 31
0.0
  0
LINE
  5
12E
330
11E
100
AcDbEntity
  8
0
100
AcDbLine
 10
-6.068379999999999
 20
1.4957000000000065
 30
0.0
 11
-6.159179999999999
 21
0.7479000000000084
 31
0.0
  0
LINE
  5
12F
330
11E
100
AcDbEntity
  8
0
100
AcDbLine
 10
-5.80123
 20
2.200100000000006
 30
0.0
 11
-6.068379999999999
 21
1.4957000000000065
 31
0.0
  0
LINE
  5
130
330
11E
100
AcDbEntity
  8
0
100
AcDbLine
 10
-5.373279999999999
 20
2.8201000000000036
 30
0.0
 11
-5.80123
 21
2.200100000000006
 31
0.0
  0
LINE
  5
131
330
11E
100
AcDbEntity
  8
0
100
AcDbLine
 10
-4.8094
 20
3.3197000000000045
 30
0.0
 11
-5.373279999999999
 21
2.8201000000000036
 31
0.0
  0
LINE
  5
132
330
11E
100
AcDbEntity
  8
0
100
AcDbLine
 10
-4.142299999999999
 20
3.6698000000000093
 30
0.0
 11
-4.8094
 21
3.3197000000000045
 31
0.0
  0
LINE
  5
133
330
11E
100
AcDbEntity
  8
0
100
AcDbLine
 10
-3.4109
 20
3.8501000000000047
 30
0.0
 11
-4.142299999999999
 21
3.6698000000000093
 31
0.0
  0
LINE
  5
134
330
11E
100
AcDbEntity
  8
0
100
AcDbLine
 10
-2.657499999999999
 20
3.8501000000000047
 30
0.0
 11
-3.4109
 21
3.8501000000000047
 31
0.0
  0
LINE
  5
135
330
11E
100
AcDbEntity
  8
0
100
AcDbLine
 10
-1.9260000000000002
 20
3.6698000000000093
 30
0.0
 11
-2.657499999999999
 21
3.8501000000000047
 31
0.0
  0
LINE
  5
136
330
11E
100
AcDbEntity
  8
0
100
AcDbLine
 10
-1.2590000000000003
 20
3.3197000000000045
 30
0.0
 11
-1.9260000000000002
 21
3.6698000000000093
 31
0.0
  0
LINE
  5
137
330
11E
100
AcDbEntity
  8
0
100
AcDbLine
 10
-0.6951
 20
2.8201000000000036
 30
0.0
 11
-1.2590000000000003
 21
3.3197000000000045
 31
0.0
  0
LINE
  5
138
330
11E
100
AcDbEntity
  8
0
100
AcDbLine
 10
-0.2670999999999992
 20
2.200100000000006
 30
0.0
 11
-0.6951
 21
2.8201000000000036
 31
0.0
  0
LINE
  5
139
330
11E
100
AcDbEntity
  8
0
100
AcDbLine
 10
0.0
 20
1.4957000000000065
 30
0.0
 11
-0.2670999999999992
 21
2.200100000000006
 31
0.0
  0
LINE
  5
13A
330
11E
100
AcDbEntity
  8
0
100
AcDbLine
 10
0.027599999999999625
 20
1.2687000000000097
 30
0.0
 11
0.0
 21
1.4957000000000065
 31
0.0
  0
ENDBLK
  5
120
330
11E
100
AcDbEntity
  8
0
100
AcDbBlockEnd
  0
BLOCK
  5
13E
330
13D
100
AcDbEntity
  8
0
100
AcDbBlockBegin
  2
fefe4a15-b227-45a4-aeb3-74e144038593
 70
0
 10
0.0
 20
0.0
 30
0.0
  3
fefe4a15-b227-45a4-aeb3-74e144038593
  1

  0
ENDBLK
  5
13F
330
13D
100
AcDbEntity
  8
0
100
AcDbBlockEnd
  0
BLOCK
  5
141
330
140
100
AcDbEntity
  8
0
100
AcDbBlockBegin
  2
274f322f-9fb1-4c32-97c3-39addcbc481e
 70
0
 10
0.0
 20
0.0
 30
0.0
  3
274f322f-9fb1-4c32-97c3-39addcbc481e
  1

  0
LINE
  5
143
330
140
100
AcDbEntity
  8
0
100
AcDbLine
 10
0.0
 20
0.0
 30
0.0
 11
-1.0416999999999987
 21
-1.0417000000000058
 31
0.0
  0
LINE
  5
144
330
140
100
AcDbEntity
  8
0
100
AcDbLine
 10
0.0
 20
16.897100000000002
 30
0.0
 11
0.0
 21
0.0
 31
0.0
  0
LINE
  5
145
330
140
100
AcDbEntity
  8
0
100
AcDbLine
 10
0.0
 20
16.897100000000002
 30
0.0
 11
-1.0416999999999987
 21
16.897100000000002
 31
0.0
  0
LINE
  5
146
330
140
100
AcDbEntity
  8
0
100
AcDbLine
 10
-1.0416999999999987
 20
-1.0417000000000058
 30
0.0
 11
-1.0416999999999987
 21
16.897100000000002
 31
0.0
  0
LINE
  5
147
330
140
100
AcDbEntity
  8
0
100
AcDbLine
 10
0.0
 20
16.897100000000002
 30
0.0
 11
0.0
 21
26.272100000000002
 31
0.0
  0
LINE
  5
148
330
140
100
AcDbEntity
  8
0
100
AcDbLine
 10
-1.0416999999999987
 20
26.272100000000002
 30
0.0
 11
-1.0416999999999987
 21
16.897100000000002
 31
0.0
  0
LINE
  5
149
330
140
100
AcDbEntity
  8
0
100
AcDbLine
 10
-1.0416999999999987
 20
26.272100000000002
 30
0.0
 11
0.0
 21
26.272100000000002
 31
0.0
  0
LINE
  5
14A
330
140
100
AcDbEntity
  8
0
100
AcDbLine
 10
0.0
 20
42.3666
 30
0.0
 11
0.0
 21
26.272100000000002
 31
0.0
  0
LINE
  5
14B
330
140
100
AcDbEntity
  8
0
100
AcDbLine
 10
-1.0416999999999987
 20
43.4083
 30
0.0
 11
0.0
 21
42.3666
 31
0.0
  0
LINE
  5
14C
330
140
100
AcDbEntity
  8
0
100
AcDbLine
 10
-1.0416999999999987
 20
26.272100000000002
 30
0.0
 11
-1.0416999999999987
 21
43.4083
 31
0.0
  0
ENDBLK
  5
142
330
140
100
AcDbEntity
  8
0
100
AcDbBlockEnd
  0
BLOCK
  5
150
330
14F
100
AcDbEntity
  8
0
100
AcDbBlockBegin
  2
4a65c3fe-8a52-4ed7-a9a7-09a0eeaffae1
 70
0
 10
0.0
 20
0.0
 30
0.0
  3
4a65c3fe-8a52-4ed7-a9a7-09a0eeaffae1
  1

  0
LINE
  5
152
330
14F
100
AcDbEntity
  8
0
100
AcDbLine
 10
0.0
 20
0.0
 30
0.0
 11
-1.041599999999999
 21
1.0416999999999987
 31
0.0
  0
LINE
  5
153
330
14F
100
AcDbEntity
  8
0
100
AcDbLine
 10
16.0689
 20
0.0
 30
0.0
 11
0.0
 21
0.0
 31
0.0
  0
LINE
  5
154
330
14F
100
AcDbEntity
  8
0
100
AcDbLine
 10
16.0689
 20
0.0
 30
0.0
 11
16.0689
 21
1.0416999999999987
 31
0.0
  0
LINE
  5
155
330
14F
100
AcDbEntity
  8
0
100
AcDbLine
 10
-1.041599999999999
 20
1.0416999999999987
 30
0.0
 11
16.0689
 21
1.0416999999999987
 31
0.0
  0
LINE
  5
156
330
14F
100
AcDbEntity
  8
0
100
AcDbLine
 10
16.0689
 20
0.0
 30
0.0
 11
25.4439
 21
0.0
 31
0.0
  0
LINE
  5
157
330
14F
100
AcDbEntity
  8
0
100
AcDbLine
 10
25.4439
 20
1.0416999999999987
 30
0.0
 11
16.0689
 21
1.0416999999999987
 31
0.0
  0
LINE
  5
158
330
14F
100
AcDbEntity
  8
0
100
AcDbLine
 10
25.4439
 20
1.0416999999999987
 30
0.0
 11
25.4439
 21
0.0
 31
0.0
  0
LINE
  5
159
330
14F
100
AcDbEntity
  8
0
100
AcDbLine
 10
42.3667
 20
0.0
 30
0.0
 11
25.4439
 21
0.0
 31
0.0
  0
LINE
  5
15A
330
14F
100
AcDbEntity
  8
0
100
AcDbLine
 10
43.4084
 20
1.0416999999999987
 30
0.0
 11
42.3667
 21
0.0
 31
0.0
  0
LINE
  5
15B
330
14F
100
AcDbEntity
  8
0
100
AcDbLine
 10
25.4439
 20
1.0416999999999987
 30
0.0
 11
43.4084
 21
1.0416999999999987
 31
0.0
  0
ENDBLK
  5
151
330
14F
100
AcDbEntity
  8
0
100
AcDbBlockEnd
  0
BLOCK
  5
15F
330
15E
100
AcDbEntity
  8
0
100
AcDbBlockBegin
  2
00193bbe-3a77-4e48-a25d-2eca3b470854
 70
0
 10
0.0
 20
0.0
 30
0.0
  3
00193bbe-3a77-4e48-a25d-2eca3b470854
  1

  0
LINE
  5
161
330
15E
100
AcDbEntity
  8
0
100
AcDbLine
 10
0.0
 20
0.0
 30
0.0
 11
1.0416999999999987
 21
-1.0416000000000025
 31
0.0
  0
LINE
  5
162
330
15E
100
AcDbEntity
  8
0
100
AcDbLine
 10
-0.18299999999999983
 20
0.0
 30
0.0
 11
0.0
 21
0.0
 31
0.0
  0
LINE
  5
163
330
15E
100
AcDbEntity
  8
0
100
AcDbLine
 10
-0.18299999999999983
 20
0.0
 30
0.0
 11
-0.18299999999999983
 21
-1.0416000000000025
 31
0.0
  0
LINE
  5
164
330
15E
100
AcDbEntity
  8
0
100
AcDbLine
 10
1.0416999999999987
 20
-1.0416000000000025
 30
0.0
 11
-0.18299999999999983
 21
-1.0416000000000025
 31
0.0
  0
LINE
  5
165
330
15E
100
AcDbEntity
  8
0
100
AcDbLine
 10
-0.18299999999999983
 20
0.0
 30
0.0
 11
-9.558
 21
0.0
 31
0.0
  0
LINE
  5
166
330
15E
100
AcDbEntity
  8
0
100
AcDbLine
 10
-9.558
 20
-1.0416000000000025
 30
0.0
 11
-0.18299999999999983
 21
-1.0416000000000025
 31
0.0
  0
LINE
  5
167
330
15E
100
AcDbEntity
  8
0
100
AcDbLine
 10
-9.558
 20
-1.0416000000000025
 30
0.0
 11
-9.558
 21
0.0
 31
0.0
  0
LINE
  5
168
330
15E
100
AcDbEntity
  8
0
100
AcDbLine
 10
-42.366600000000005
 20
0.0
 30
0.0
 11
-9.558
 21
0.0
 31
0.0
  0
LINE
  5
169
330
15E
100
AcDbEntity
  8
0
100
AcDbLine
 10
-43.4083
 20
-1.0416000000000025
 30
0.0
 11
-42.366600000000005
 21
0.0
 31
0.0
  0
LINE
  5
16A
330
15E
100
AcDbEntity
  8
0
100
AcDbLine
 10
-9.558
 20
-1.0416000000000025
 30
0.0
 11
-43.4083
 21
-1.0416000000000025
 31
0.0
  0
ENDBLK
  5
160
330
15E
100
AcDbEntity
  8
0
100
AcDbBlockEnd
  0
BLOCK
  5
16E
330
16D
100
AcDbEntity
  8
0
100
AcDbBlockBegin
  2
ca594f99-9ff1-40ac-9a4a-2ee5fdf6b622
 70
0
 10
0.0
 20
0.0
 30
0.0
  3
ca594f99-9ff1-40ac-9a4a-2ee5fdf6b622
  1

  0
LINE
  5
170
330
16D
100
AcDbEntity
  8
0
100
AcDbLine
 10
0.0
 20
0.0
 30
0.0
 11
-1.0416999999999987
 21
0.0
 31
0.0
  0
LINE
  5
171
330
16D
100
AcDbEntity
  8
0
100
AcDbLine
 10
-1.0416999999999987
 20
-0.8245000000000005
 30
0.0
 11
-1.0416999999999987
 21
0.0
 31
0.0
  0
LINE
  5
172
330
16D
100
AcDbEntity
  8
0
100
AcDbLine
 10
-1.0416999999999987
 20
-0.8245000000000005
 30
0.0
 11
0.0
 21
-0.8245000000000005
 31
0.0
  0
LINE
  5
173
330
16D
100
AcDbEntity
  8
0
100
AcDbLine
 10
0.0
 20
0.0
 30
0.0
 11
0.0
 21
-0.8245000000000005
 31
0.0
  0
LINE
  5
174
330
16D
100
AcDbEntity
  8
0
100
AcDbLine
 10
-1.0416999999999987
 20
-0.8245000000000005
 30
0.0
 11
-1.0416999999999987
 21
-10.1995
 31
0.0
  0
LINE
  5
175
330
16D
100
AcDbEntity
  8
0
100
AcDbLine
 10
0.0
 20
-10.1995
 30
0.0
 11
0.0
 21
-0.8245000000000005
 31
0.0
  0
LINE
  5
176
330
16D
100
AcDbEntity
  8
0
100
AcDbLine
 10
0.0
 20
-10.1995
 30
0.0
 11
-1.0416999999999987
 21
-10.1995
 31
0.0
  0
LINE
  5
177
330
16D
100
AcDbEntity
  8
0
100
AcDbLine
 10
-1.0416999999999987
 20
-11.177600000000005
 30
0.0
 11
-1.0416999999999987
 21
-10.1995
 31
0.0
  0
LINE
  5
178
330
16D
100
AcDbEntity
  8
0
100
AcDbLine
 10
-1.0416999999999987
 20
-11.177600000000005
 30
0.0
 11
0.0
 21
-11.177600000000005
 31
0.0
  0
LINE
  5
179
330
16D
100
AcDbEntity
  8
0
100
AcDbLine
 10
0.0
 20
-10.1995
 30
0.0
 11
0.0
 21
-11.177600000000005
 31
0.0
  0
LINE
  5
17A
330
16D
100
AcDbEntity
  8
0
100
AcDbLine
 10
-1.0416999999999987
 20
-11.177600000000005
 30
0.0
 11
-1.0416999999999987
 21
-20.552600000000005
 31
0.0
  0
LINE
  5
17B
330
16D
100
AcDbEntity
  8
0
100
AcDbLine
 10
0.0
 20
-20.552600000000005
 30
0.0
 11
0.0
 21
-11.177600000000005
 31
0.0
  0
LINE
  5
17C
330
16D
100
AcDbEntity
  8
0
100
AcDbLine
 10
0.0
 20
-20.552600000000005
 30
0.0
 11
-1.0416999999999987
 21
-20.552600000000005
 31
0.0
  0
LINE
  5
17D
330
16D
100
AcDbEntity
  8
0
100
AcDbLine
 10
-1.0416999999999987
 20
-21.402500000000003
 30
0.0
 11
-1.0416999999999987
 21
-20.552600000000005
 31
0.0
  0
LINE
  5
17E
330
16D
100
AcDbEntity
  8
0
100
AcDbLine
 10
-1.0416999999999987
 20
-21.402500000000003
 30
0.0
 11
0.0
 21
-21.402500000000003
 31
0.0
  0
LINE
  5
17F
330
16D
100
AcDbEntity
  8
0
100
AcDbLine
 10
0.0
 20
-20.552600000000005
 30
0.0
 11
0.0
 21
-21.402500000000003
 31
0.0
  0
LINE
  5
180
330
16D
100
AcDbEntity
  8
0
100
AcDbLine
 10
-1.0416999999999987
 20
-21.402500000000003
 30
0.0
 11
-1.0416999999999987
 21
-30.777499999999996
 31
0.0
  0
LINE
  5
181
330
16D
100
AcDbEntity
  8
0
100
AcDbLine
 10
0.0
 20
-30.777499999999996
 30
0.0
 11
0.0
 21
-21.402500000000003
 31
0.0
  0
LINE
  5
182
330
16D
100
AcDbEntity
  8
0
100
AcDbLine
 10
0.0
 20
-30.777499999999996
 30
0.0
 11
-1.0416999999999987
 21
-30.777499999999996
 31
0.0
  0
LINE
  5
183
330
16D
100
AcDbEntity
  8
0
100
AcDbLine
 10
-1.0416999999999987
 20
-30.9416
 30
0.0
 11
-1.0416999999999987
 21
-30.777499999999996
 31
0.0
  0
LINE
  5
184
330
16D
100
AcDbEntity
  8
0
100
AcDbLine
 10
0.0
 20
-31.983300000000007
 30
0.0
 11
-1.0416999999999987
 21
-30.9416
 31
0.0
  0
LINE
  5
185
330
16D
100
AcDbEntity
  8
0
100
AcDbLine
 10
0.0
 20
-30.777499999999996
 30
0.0
 11
0.0
 21
-31.983300000000007
 31
0.0
  0
LINE
  5
186
330
16D
100
AcDbEntity
  8
0
100
AcDbLine
 10
-1.0416999999999987
 20
11.424999999999997
 30
0.0
 11
0.0
 21
12.466699999999996
 31
0.0
  0
LINE
  5
187
330
16D
100
AcDbEntity
  8
0
100
AcDbLine
 10
-1.0416999999999987
 20
10.520800000000001
 30
0.0
 11
-1.0416999999999987
 21
11.424999999999997
 31
0.0
  0
LINE
  5
188
330
16D
100
AcDbEntity
  8
0
100
AcDbLine
 10
-1.0416999999999987
 20
10.520800000000001
 30
0.0
 11
0.0
 21
10.520800000000001
 31
0.0
  0
LINE
  5
189
330
16D
100
AcDbEntity
  8
0
100
AcDbLine
 10
0.0
 20
12.466699999999996
 30
0.0
 11
0.0
 21
10.520800000000001
 31
0.0
  0
ENDBLK
  5
16F
330
16D
100
AcDbEntity
  8
0
100
AcDbBlockEnd
  0
BLOCK
  5
18D
330
18C
100
AcDbEntity
  8
0
100
AcDbBlockBegin
  2
cc1d79e6-1169-4137-90d2-511de14e4b6c
 70
0
 10
0.0
 20
0.0
 30
0.0
  3
cc1d79e6-1169-4137-90d2-511de14e4b6c
  1

  0
LINE
  5
18F
330
18C
100
AcDbEntity
  8
0
100
AcDbLine
 10
0.0
 20
0.0
 30
0.0
 11
-17.099999999999998
 21
0.0
 31
0.0
  0
LINE
  5
190
330
18C
100
AcDbEntity
  8
0
100
AcDbLine
 10
-17.099999999999998
 20
0.0
 30
0.0
 11
-17.099999999999998
 21
-17.200000000000003
 31
0.0
  0
LINE
  5
191
330
18C
100
AcDbEntity
  8
0
100
AcDbLine
 10
-17.099999999999998
 20
-17.200000000000003
 30
0.0
 11
-16.099999999999998
 21
-17.200000000000003
 31
0.0
  0
LINE
  5
192
330
18C
100
AcDbEntity
  8
0
100
AcDbLine
 10
-16.099999999999998
 20
-17.200000000000003
 30
0.0
 11
-16.099999999999998
 21
-1.1000000000000014
 31
0.0
  0
LINE
  5
193
330
18C
100
AcDbEntity
  8
0
100
AcDbLine
 10
-16.099999999999998
 20
-1.1000000000000014
 30
0.0
 11
0.0
 21
-1.1000000000000014
 31
0.0
  0
LINE
  5
194
330
18C
100
AcDbEntity
  8
0
100
AcDbLine
 10
0.0
 20
-1.1000000000000014
 30
0.0
 11
0.0
 21
0.0
 31
0.0
  0
ENDBLK
  5
18E
330
18C
100
AcDbEntity
  8
0
100
AcDbBlockEnd
  0
BLOCK
  5
198
330
197
100
AcDbEntity
  8
0
100
AcDbBlockBegin
  2
0c4308e9-2b30-4fdd-bd74-87084b7efbe9
 70
0
 10
0.0
 20
0.0
 30
0.0
  3
0c4308e9-2b30-4fdd-bd74-87084b7efbe9
  1

  0
LINE
  5
19A
330
197
100
AcDbEntity
  8
0
100
AcDbLine
 10
0.0
 20
0.0
 30
0.0
 11
0.0
 21
-1.1000000000000014
 31
0.0
  0
LINE
  5
19B
330
197
100
AcDbEntity
  8
0
100
AcDbLine
 10
0.0
 20
-1.1000000000000014
 30
0.0
 11
16.9
 21
-1.1000000000000014
 31
0.0
  0
LINE
  5
19C
330
197
100
AcDbEntity
  8
0
100
AcDbLine
 10
16.9
 20
-1.1000000000000014
 30
0.0
 11
16.9
 21
-2.0
 31
0.0
  0
LINE
  5
19D
330
197
100
AcDbEntity
  8
0
100
AcDbLine
 10
16.9
 20
-2.0
 30
0.0
 11
17.89999999999999
 21
-2.0
 31
0.0
  0
LINE
  5
19E
330
197
100
AcDbEntity
  8
0
100
AcDbLine
 10
17.89999999999999
 20
-2.0
 30
0.0
 11
17.89999999999999
 21
0.0
 31
0.0
  0
LINE
  5
19F
330
197
100
AcDbEntity
  8
0
100
AcDbLine
 10
17.89999999999999
 20
0.0
 30
0.0
 11
0.0
 21
0.0
 31
0.0
  0
ENDBLK
  5
199
330
197
100
AcDbEntity
  8
0
100
AcDbBlockEnd
  0
BLOCK
  5
1A3
330
1A2
100
AcDbEntity
  8
0
100
AcDbBlockBegin
  2
7d6eabf1-1033-4892-bd5e-988fd258f127
 70
0
 10
0.0
 20
0.0
 30
0.0
  3
7d6eabf1-1033-4892-bd5e-988fd258f127
  1

  0
LINE
  5
1A5
330
1A2
100
AcDbEntity
  8
0
100
AcDbLine
 10
0.0
 20
0.0
 30
0.0
 11
0.0
 21
1.0
 31
0.0
  0
LINE
  5
1A6
330
1A2
100
AcDbEntity
  8
0
100
AcDbLine
 10
0.0
 20
1.0
 30
0.0
 11
-32.8
 21
1.0
 31
0.0
  0
LINE
  5
1A7
330
1A2
100
AcDbEntity
  8
0
100
AcDbLine
 10
-32.8
 20
1.0
 30
0.0
 11
-32.8
 21
17.9
 31
0.0
  0
LINE
  5
1A8
330
1A2
100
AcDbEntity
  8
0
100
AcDbLine
 10
-32.8
 20
17.9
 30
0.0
 11
-33.8
 21
17.9
 31
0.0
  0
LINE
  5
1A9
330
1A2
100
AcDbEntity
  8
0
100
AcDbLine
 10
-33.8
 20
17.9
 30
0.0
 11
-33.8
 21
0.0
 31
0.0
  0
LINE
  5
1AA
330
1A2
100
AcDbEntity
  8
0
100
AcDbLine
 10
-33.8
 20
0.0
 30
0.0
 11
0.0
 21
0.0
 31
0.0
  0
ENDBLK
  5
1A4
330
1A2
100
AcDbEntity
  8
0
100
AcDbBlockEnd
  0
BLOCK
  5
1AE
330
1AD
100
AcDbEntity
  8
0
100
AcDbBlockBegin
  2
93c8dd1d-7ab9-4ff6-8952-bcac47c11652
 70
0
 10
0.0
 20
0.0
 30
0.0
  3
93c8dd1d-7ab9-4ff6-8952-bcac47c11652
  1

  0
LINE
  5
1B0
330
1AD
100
AcDbEntity
  8
0
100
AcDbLine
 10
0.0
 20
0.0
 30
0.0
 11
1.1999999999999957
 21
0.0
 31
0.0
  0
LINE
  5
1B1
330
1AD
100
AcDbEntity
  8
0
100
AcDbLine
 10
1.1999999999999957
 20
0.0
 30
0.0
 11
1.1999999999999957
 21
1.2000000000000028
 31
0.0
  0
LINE
  5
1B2
330
1AD
100
AcDbEntity
  8
0
100
AcDbLine
 10
1.1999999999999957
 20
1.2000000000000028
 30
0.0
 11
0.20000000000000284
 21
1.2000000000000028
 31
0.0
  0
LINE
  5
1B3
330
1AD
100
AcDbEntity
  8
0
100
AcDbLine
 10
0.20000000000000284
 20
1.2000000000000028
 30
0.0
 11
0.20000000000000284
 21
1.0
 31
0.0
  0
LINE
  5
1B4
330
1AD
100
AcDbEntity
  8
0
100
AcDbLine
 10
0.20000000000000284
 20
1.0
 30
0.0
 11
0.0
 21
1.0
 31
0.0
  0
LINE
  5
1B5
330
1AD
100
AcDbEntity
  8
0
100
AcDbLine
 10
0.0
 20
1.0
 30
0.0
 11
0.0
 21
0.0
 31
0.0
  0
ENDBLK
  5
1AF
330
1AD
100
AcDbEntity
  8
0
100
AcDbBlockEnd
  0
BLOCK
  5
1B9
330
1B8
100
AcDbEntity
  8
0
100
AcDbBlockBegin
  2
f16723d7-a5a3-4900-ada6-5274871bac99
 70
0
 10
0.0
 20
0.0
 30
0.0
  3
f16723d7-a5a3-4900-ada6-5274871bac99
  1

  0
LINE
  5
1BB
330
1B8
100
AcDbEntity
  8
0
100
AcDbLine
 10
0.0
 20
0.0
 30
0.0
 11
-0.9999999999999929
 21
0.0
 31
0.0
  0
LINE
  5
1BC
330
1B8
100
AcDbEntity
  8
0
100
AcDbLine
 10
-0.9999999999999929
 20
0.0
 30
0.0
 11
-0.9999999999999929
 21
-0.8000000000000043
 31
0.0
  0
LINE
  5
1BD
330
1B8
100
AcDbEntity
  8
0
100
AcDbLine
 10
-0.9999999999999929
 20
-0.8000000000000043
 30
0.0
 11
0.0
 21
-0.8000000000000043
 31
0.0
  0
LINE
  5
1BE
330
1B8
100
AcDbEntity
  8
0
100
AcDbLine
 10
0.0
 20
-0.8000000000000043
 30
0.0
 11
0.0
 21
0.0
 31
0.0
  0
ENDBLK
  5
1BA
330
1B8
100
AcDbEntity
  8
0
100
AcDbBlockEnd
  0
BLOCK
  5
1C2
330
1C1
100
AcDbEntity
  8
0
100
AcDbBlockBegin
  2
e505abca-c788-4188-93b1-9244b2fe3d75
 70
0
 10
0.0
 20
0.0
 30
0.0
  3
e505abca-c788-4188-93b1-9244b2fe3d75
  1

  0
LINE
  5
1C4
330
1C1
100
AcDbEntity
  8
0
100
AcDbLine
 10
0.0
 20
0.0
 30
0.0
 11
0.0
 21
1.0
 31
0.0
  0
LINE
  5
1C5
330
1C1
100
AcDbEntity
  8
0
100
AcDbLine
 10
0.0
 20
1.0
 30
0.0
 11
-0.9999999999999929
 21
1.0
 31
0.0
  0
LINE
  5
1C6
330
1C1
100
AcDbEntity
  8
0
100
AcDbLine
 10
-0.9999999999999929
 20
1.0
 30
0.0
 11
-0.9999999999999929
 21
0.0
 31
0.0
  0
LINE
  5
1C7
330
1C1
100
AcDbEntity
  8
0
100
AcDbLine
 10
-0.9999999999999929
 20
0.0
 30
0.0
 11
0.0
 21
0.0
 31
0.0
  0
ENDBLK
  5
1C3
330
1C1
100
AcDbEntity
  8
0
100
AcDbBlockEnd
  0
BLOCK
  5
1CB
330
1CA
100
AcDbEntity
  8
0
100
AcDbBlockBegin
  2
697cf209-8c73-4fc6-8cae-808481d145ae
 70
0
 10
0.0
 20
0.0
 30
0.0
  3
697cf209-8c73-4fc6-8cae-808481d145ae
  1

  0
LINE
  5
1CD
330
1CA
100
AcDbEntity
  8
0
100
AcDbLine
 10
0.0
 20
0.0
 30
0.0
 11
-0.9999999999999929
 21
0.0
 31
0.0
  0
LINE
  5
1CE
330
1CA
100
AcDbEntity
  8
0
100
AcDbLine
 10
-0.9999999999999929
 20
0.0
 30
0.0
 11
-0.9999999999999929
 21
-0.8000000000000043
 31
0.0
  0
LINE
  5
1CF
330
1CA
100
AcDbEntity
  8
0
100
AcDbLine
 10
-0.9999999999999929
 20
-0.8000000000000043
 30
0.0
 11
0.0
 21
-0.8000000000000043
 31
0.0
  0
LINE
  5
1D0
330
1CA
100
AcDbEntity
  8
0
100
AcDbLine
 10
0.0
 20
-0.8000000000000043
 30
0.0
 11
0.0
 21
0.0
 31
0.0
  0
ENDBLK
  5
1CC
330
1CA
100
AcDbEntity
  8
0
100
AcDbBlockEnd
  0
BLOCK
  5
1D4
330
1D3
100
AcDbEntity
  8
0
100
AcDbBlockBegin
  2
4316dbc0-3bd5-4174-ae4a-5ac85f27e015
 70
0
 10
0.0
 20
0.0
 30
0.0
  3
4316dbc0-3bd5-4174-ae4a-5ac85f27e015
  1

  0
ENDBLK
  5
1D5
330
1D3
100
AcDbEntity
  8
0
100
AcDbBlockEnd
  0
BLOCK
  5
1D7
330
1D6
100
AcDbEntity
  8
0
100
AcDbBlockBegin
  2
63f51dba-0e39-40c3-a0bb-a5823adb80e7
 70
0
 10
0.0
 20
0.0
 30
0.0
  3
63f51dba-0e39-40c3-a0bb-a5823adb80e7
  1

  0
LINE
  5
1D9
330
1D6
100
AcDbEntity
  8
0
100
AcDbLine
 10
0.0
 20
0.0
 30
0.0
 11
0.0
 21
-15.138300000000001
 31
0.0
  0
LINE
  5
1DA
330
1D6
100
AcDbEntity
  8
0
100
AcDbLine
 10
0.0
 20
-15.659199999999998
 30
0.0
 11
0.0
 21
-15.875
 31
0.0
  0
LINE
  5
1DB
330
1D6
100
AcDbEntity
  8
0
100
AcDbLine
 10
-9.375
 20
-1.0000000003174137e-05
 30
0.0
 11
-9.375
 21
-15.138300000000001
 31
0.0
  0
LINE
  5
1DC
330
1D6
100
AcDbEntity
  8
0
100
AcDbLine
 10
-9.375
 20
-15.659199999999998
 30
0.0
 11
-9.375
 21
-15.875
 31
0.0
  0
LINE
  5
1DD
330
1D6
100
AcDbEntity
  8
0
100
AcDbLine
 10
3.125
 20
0.0
 30
0.0
 11
3.125
 21
-15.138300000000001
 31
0.0
  0
LINE
  5
1DE
330
1D6
100
AcDbEntity
  8
0
100
AcDbLine
 10
3.125
 20
-15.659199999999998
 30
0.0
 11
3.125
 21
-15.875
 31
0.0
  0
LINE
  5
1DF
330
1D6
100
AcDbEntity
  8
0
100
AcDbLine
 10
-6.25
 20
-1.0000000003174137e-05
 30
0.0
 11
-6.25
 21
-15.138300000000001
 31
0.0
  0
LINE
  5
1E0
330
1D6
100
AcDbEntity
  8
0
100
AcDbLine
 10
-6.25
 20
-15.659199999999998
 30
0.0
 11
-6.25
 21
-15.875
 31
0.0
  0
LINE
  5
1E1
330
1D6
100
AcDbEntity
  8
0
100
AcDbLine
 10
-18.75
 20
-1.0000000003174137e-05
 30
0.0
 11
-18.75
 21
-15.138300000000001
 31
0.0
  0
LINE
  5
1E2
330
1D6
100
AcDbEntity
  8
0
100
AcDbLine
 10
-18.75
 20
-15.659199999999998
 30
0.0
 11
-18.75
 21
-15.875
 31
0.0
  0
LINE
  5
1E3
330
1D6
100
AcDbEntity
  8
0
100
AcDbLine
 10
-15.625
 20
-1.0000000003174137e-05
 30
0.0
 11
-15.625
 21
-15.138300000000001
 31
0.0
  0
LINE
  5
1E4
330
1D6
100
AcDbEntity
  8
0
100
AcDbLine
 10
-15.625
 20
-15.659199999999998
 30
0.0
 11
-15.625
 21
-15.875
 31
0.0
  0
LINE
  5
1E5
330
1D6
100
AcDbEntity
  8
0
100
AcDbLine
 10
-3.125
 20
0.0
 30
0.0
 11
-3.125
 21
-15.138300000000001
 31
0.0
  0
LINE
  5
1E6
330
1D6
100
AcDbEntity
  8
0
100
AcDbLine
 10
-3.125
 20
-15.659199999999998
 30
0.0
 11
-3.125
 21
-15.875
 31
0.0
  0
LINE
  5
1E7
330
1D6
100
AcDbEntity
  8
0
100
AcDbLine
 10
-12.5
 20
-1.0000000003174137e-05
 30
0.0
 11
-12.5
 21
-15.138300000000001
 31
0.0
  0
LINE
  5
1E8
330
1D6
100
AcDbEntity
  8
0
100
AcDbLine
 10
-12.5
 20
-15.659199999999998
 30
0.0
 11
-12.5
 21
-15.875
 31
0.0
  0
LINE
  5
1E9
330
1D6
100
AcDbEntity
  8
0
100
AcDbLine
 10
-15.625
 20
-15.875
 30
0.0
 11
0.0
 21
-15.875
 31
0.0
  0
LINE
  5
1EA
330
1D6
100
AcDbEntity
  8
0
100
AcDbLine
 10
-15.625
 20
-15.875
 30
0.0
 11
-18.75
 21
-15.875
 31
0.0
  0
LINE
  5
1EB
330
1D6
100
AcDbEntity
  8
0
100
AcDbLine
 10
-12.5
 20
-15.875
 30
0.0
 11
-15.625
 21
-15.875
 31
0.0
  0
LINE
  5
1EC
330
1D6
100
AcDbEntity
  8
0
100
AcDbLine
 10
-9.375
 20
-15.875
 30
0.0
 11
-12.5
 21
-15.875
 31
0.0
  0
LINE
  5
1ED
330
1D6
100
AcDbEntity
  8
0
100
AcDbLine
 10
-6.25
 20
-15.875
 30
0.0
 11
-9.375
 21
-15.875
 31
0.0
  0
LINE
  5
1EE
330
1D6
100
AcDbEntity
  8
0
100
AcDbLine
 10
-3.125
 20
-15.875
 30
0.0
 11
-6.25
 21
-15.875
 31
0.0
  0
LINE
  5
1EF
330
1D6
100
AcDbEntity
  8
0
100
AcDbLine
 10
0.0
 20
-15.875
 30
0.0
 11
-3.125
 21
-15.875
 31
0.0
  0
LINE
  5
1F0
330
1D6
100
AcDbEntity
  8
0
100
AcDbLine
 10
3.125
 20
-15.875
 30
0.0
 11
0.0
 21
-15.875
 31
0.0
  0
LINE
  5
1F1
330
1D6
100
AcDbEntity
  8
0
100
AcDbLine
 10
0.0
 20
0.0
 30
0.0
 11
-3.125
 21
0.0
 31
0.0
  0
LINE
  5
1F2
330
1D6
100
AcDbEntity
  8
0
100
AcDbLine
 10
-3.125
 20
0.0
 30
0.0
 11
-6.25
 21
-1.0000000003174137e-05
 31
0.0
  0
LINE
  5
1F3
330
1D6
100
AcDbEntity
  8
0
100
AcDbLine
 10
-6.25
 20
-1.0000000003174137e-05
 30
0.0
 11
-9.375
 21
-1.0000000003174137e-05
 31
0.0
  0
LINE
  5
1F4
330
1D6
100
AcDbEntity
  8
0
100
AcDbLine
 10
-9.375
 20
-1.0000000003174137e-05
 30
0.0
 11
-12.5
 21
-1.0000000003174137e-05
 31
0.0
  0
LINE
  5
1F5
330
1D6
100
AcDbEntity
  8
0
100
AcDbLine
 10
-12.5
 20
-1.0000000003174137e-05
 30
0.0
 11
-15.625
 21
-1.0000000003174137e-05
 31
0.0
  0
LINE
  5
1F6
330
1D6
100
AcDbEntity
  8
0
100
AcDbLine
 10
-15.625
 20
-1.0000000003174137e-05
 30
0.0
 11
-18.75
 21
-1.0000000003174137e-05
 31
0.0
  0
LINE
  5
1F7
330
1D6
100
AcDbEntity
  8
0
100
AcDbLine
 10
-15.625
 20
-1.0000000003174137e-05
 30
0.0
 11
0.0
 21
0.0
 31
0.0
  0
LINE
  5
1F8
330
1D6
100
AcDbEntity
  8
0
100
AcDbLine
 10
3.125
 20
0.0
 30
0.0
 11
0.0
 21
0.0
 31
0.0
  0
ENDBLK
  5
1D8
330
1D6
100
AcDbEntity
  8
0
100
AcDbBlockEnd
  0
BLOCK
  5
1FC
330
1FB
100
AcDbEntity
  8
0
100
AcDbBlockBegin
  2
442f971d-5f5f-4807-a74d-5301ab587f16
 70
0
 10
0.0
 20
0.0
 30
0.0
  3
442f971d-5f5f-4807-a74d-5301ab587f16
  1

  0
ENDBLK
  5
1FD
330
1FB
100
AcDbEntity
  8
0
100
AcDbBlockEnd
  0
BLOCK
  5
1FF
330
1FE
100
AcDbEntity
  8
0
100
AcDbBlockBegin
  2
9383ec21-2b81-4976-8df5-c43dfd17bf04
 70
0
 10
0.0
 20
0.0
 30
0.0
  3
9383ec21-2b81-4976-8df5-c43dfd17bf04
  1

  0
LINE
  5
201
330
1FE
100
AcDbEntity
  8
0
100
AcDbLine
 10
0.0
 20
0.0
 30
0.0
 11
-42.3497
 21
0.0
 31
0.0
  0
LINE
  5
202
330
1FE
100
AcDbEntity
  8
0
100
AcDbLine
 10
0.0
 20
44.45
 30
0.0
 11
0.0
 21
0.0
 31
0.0
  0
LINE
  5
203
330
1FE
100
AcDbEntity
  8
0
100
AcDbLine
 10
-18.75
 20
44.45
 30
0.0
 11
0.0
 21
44.45
 31
0.0
  0
LINE
  5
204
330
1FE
100
AcDbEntity
  8
0
100
AcDbLine
 10
-18.75
 20
60.325
 30
0.0
 11
-18.75
 21
45.1867
 31
0.0
  0
LINE
  5
205
330
1FE
100
AcDbEntity
  8
0
100
AcDbLine
 10
-18.75
 20
44.665800000000004
 30
0.0
 11
-18.75
 21
44.45
 31
0.0
  0
LINE
  5
206
330
1FE
100
AcDbEntity
  8
0
100
AcDbLine
 10
-76.2
 20
60.325
 30
0.0
 11
-18.75
 21
60.325
 31
0.0
  0
LINE
  5
207
330
1FE
100
AcDbEntity
  8
0
100
AcDbLine
 10
-76.2
 20
0.0
 30
0.0
 11
-76.2
 21
0.0
 31
0.0
  0
LINE
  5
208
330
1FE
100
AcDbEntity
  8
0
100
AcDbLine
 10
-76.2
 20
44.45
 30
0.0
 11
-76.2
 21
60.325
 31
0.0
  0
ENDBLK
  5
200
330
1FE
100
AcDbEntity
  8
0
100
AcDbBlockEnd
  0
BLOCK
  5
20C
330
20B
100
AcDbEntity
  8
0
100
AcDbBlockBegin
  2
669677e6-2d65-4532-a1ed-1cd5c1ab0e98
 70
0
 10
0.0
 20
0.0
 30
0.0
  3
669677e6-2d65-4532-a1ed-1cd5c1ab0e98
  1

  0
ENDBLK
  5
20D
330
20B
100
AcDbEntity
  8
0
100
AcDbBlockEnd
  0
BLOCK
  5
20F
330
20E
100
AcDbEntity
  8
0
100
AcDbBlockBegin
  2
0234c629-aa52-4f5c-883b-db329b489e7f
 70
0
 10
0.0
 20
0.0
 30
0.0
  3
0234c629-aa52-4f5c-883b-db329b489e7f
  1

  0
LINE
  5
211
330
20E
100
AcDbEntity
  8
0
100
AcDbLine
 10
0.0
 20
0.0
 30
0.0
 11
0.0
 21
-2.604200000000006
 31
0.0
  0
LINE
  5
212
330
20E
100
AcDbEntity
  8
0
100
AcDbLine
 10
0.0
 20
-3.6458000000000013
 30
0.0
 11
0.0
 21
-6.25
 31
0.0
  0
LINE
  5
213
330
20E
100
AcDbEntity
  8
0
100
AcDbLine
 10
5.209000000000003
 20
0.0
 30
0.0
 11
0.0
 21
0.0
 31
0.0
  0
LINE
  5
214
330
20E
100
AcDbEntity
  8
0
100
AcDbLine
 10
5.209000000000003
 20
-6.25
 30
0.0
 11
5.209000000000003
 21
-3.6458000000000013
 31
0.0
  0
LINE
  5
215
330
20E
100
AcDbEntity
  8
0
100
AcDbLine
 10
5.209000000000003
 20
-2.604200000000006
 30
0.0
 11
5.209000000000003
 21
0.0
 31
0.0
  0
LINE
  5
216
330
20E
100
AcDbEntity
  8
0
100
AcDbLine
 10
0.0
 20
-6.25
 30
0.0
 11
5.209000000000003
 21
-6.25
 31
0.0
  0
ENDBLK
  5
210
330
20E
100
AcDbEntity
  8
0
100
AcDbBlockEnd
  0
BLOCK
  5
21A
330
219
100
AcDbEntity
  8
0
100
AcDbBlockBegin
  2
36bf6804-9504-488e-9fe0-b82f7c3fad75
 70
0
 10
0.0
 20
0.0
 30
0.0
  3
36bf6804-9504-488e-9fe0-b82f7c3fad75
  1

  0
LINE
  5
21C
330
219
100
AcDbEntity
  8
0
100
AcDbLine
 10
0.0
 20
0.0
 30
0.0
 11
0.0
 21
-2.6040999999999954
 31
0.0
  0
LINE
  5
21D
330
219
100
AcDbEntity
  8
0
100
AcDbLine
 10
0.0
 20
-3.645799999999994
 30
0.0
 11
0.0
 21
-6.25
 31
0.0
  0
LINE
  5
21E
330
219
100
AcDbEntity
  8
0
100
AcDbLine
 10
5.209000000000003
 20
0.0
 30
0.0
 11
0.0
 21
0.0
 31
0.0
  0
LINE
  5
21F
330
219
100
AcDbEntity
  8
0
100
AcDbLine
 10
5.209000000000003
 20
-6.25
 30
0.0
 11
5.209000000000003
 21
-3.645799999999994
 31
0.0
  0
LINE
  5
220
330
219
100
AcDbEntity
  8
0
100
AcDbLine
 10
5.209000000000003
 20
-2.6040999999999954
 30
0.0
 11
5.209000000000003
 21
0.0
 31
0.0
  0
LINE
  5
221
330
219
100
AcDbEntity
  8
0
100
AcDbLine
 10
0.0
 20
-6.25
 30
0.0
 11
5.209000000000003
 21
-6.25
 31
0.0
  0
ENDBLK
  5
21B
330
219
100
AcDbEntity
  8
0
100
AcDbBlockEnd
  0
BLOCK
  5
225
330
224
100
AcDbEntity
  8
0
100
AcDbBlockBegin
  2
dbb825a7-38fe-4f42-81a3-87af3608af28
 70
0
 10
0.0
 20
0.0
 30
0.0
  3
dbb825a7-38fe-4f42-81a3-87af3608af28
  1

  0
LINE
  5
227
330
224
100
AcDbEntity
  8
0
100
AcDbLine
 10
0.0
 20
0.0
 30
0.0
 11
0.0
 21
-2.6040999999999954
 31
0.0
  0
LINE
  5
228
330
224
100
AcDbEntity
  8
0
100
AcDbLine
 10
0.0
 20
-3.6458000000000013
 30
0.0
 11
0.0
 21
-6.249999999999993
 31
0.0
  0
LINE
  5
229
330
224
100
AcDbEntity
  8
0
100
AcDbLine
 10
5.209000000000003
 20
0.0
 30
0.0
 11
0.0
 21
0.0
 31
0.0
  0
LINE
  5
22A
330
224
100
AcDbEntity
  8
0
100
AcDbLine
 10
5.209000000000003
 20
-6.249999999999993
 30
0.0
 11
5.209000000000003
 21
-3.6458000000000013
 31
0.0
  0
LINE
  5
22B
330
224
100
AcDbEntity
  8
0
100
AcDbLine
 10
5.209000000000003
 20
-2.6040999999999954
 30
0.0
 11
5.209000000000003
 21
0.0
 31
0.0
  0
LINE
  5
22C
330
224
100
AcDbEntity
  8
0
100
AcDbLine
 10
0.0
 20
-6.249999999999993
 30
0.0
 11
5.209000000000003
 21
-6.249999999999993
 31
0.0
  0
ENDBLK
  5
226
330
224
100
AcDbEntity
  8
0
100
AcDbBlockEnd
  0
BLOCK
  5
230
330
22F
100
AcDbEntity
  8
0
100
AcDbBlockBegin
  2
8b7448eb-cba8-4d47-b266-2a1a17d68051
 70
0
 10
0.0
 20
0.0
 30
0.0
  3
8b7448eb-cba8-4d47-b266-2a1a17d68051
  1

  0
ENDBLK
  5
231
330
22F
100
AcDbEntity
  8
0
100
AcDbBlockEnd
  0
BLOCK
  5
233
330
232
100
AcDbEntity
  8
0
100
AcDbBlockBegin
  2
02e58d74-b668-437e-b2f2-784e26eb48c1
 70
0
 10
0.0
 20
0.0
 30
0.0
  3
02e58d74-b668-437e-b2f2-784e26eb48c1
  1

  0
LINE
  5
235
330
232
100
AcDbEntity
  8
0
100
AcDbLine
 10
0.0
 20
0.0
 30
0.0
 11
-4.166700000000002
 21
0.0
 31
0.0
  0
LINE
  5
236
330
232
100
AcDbEntity
  8
0
100
AcDbLine
 10
-4.166700000000002
 20
0.0
 30
0.0
 11
-4.166700000000002
 21
-2.0833999999999975
 31
0.0
  0
LINE
  5
237
330
232
100
AcDbEntity
  8
0
100
AcDbLine
 10
-4.166700000000002
 20
-2.0833999999999975
 30
0.0
 11
0.0
 21
-2.0833999999999975
 31
0.0
  0
LINE
  5
238
330
232
100
AcDbEntity
  8
0
100
AcDbLine
 10
0.0
 20
-2.0833999999999975
 30
0.0
 11
0.0
 21
0.0
 31
0.0
  0
ENDBLK
  5
234
330
232
100
AcDbEntity
  8
0
100
AcDbBlockEnd
  0
BLOCK
  5
23C
330
23B
100
AcDbEntity
  8
0
100
AcDbBlockBegin
  2
02a73541-1ea4-46f1-beac-9ba5473911eb
 70
0
 10
0.0
 20
0.0
 30
0.0
  3
02a73541-1ea4-46f1-beac-9ba5473911eb
  1

  0
LINE
  5
23E
330
23B
100
AcDbEntity
  8
0
100
AcDbLine
 10
0.0
 20
0.0
 30
0.0
 11
-4.166700000000002
 21
0.0
 31
0.0
  0
LINE
  5
23F
330
23B
100
AcDbEntity
  8
0
100
AcDbLine
 10
-4.166700000000002
 20
0.0
 30
0.0
 11
-4.166700000000002
 21
-2.0833999999999975
 31
0.0
  0
LINE
  5
240
330
23B
100
AcDbEntity
  8
0
100
AcDbLine
 10
-4.166700000000002
 20
-2.0833999999999975
 30
0.0
 11
0.0
 21
-2.0833999999999975
 31
0.0
  0
LINE
  5
241
330
23B
100
AcDbEntity
  8
0
100
AcDbLine
 10
0.0
 20
-2.0833999999999975
 30
0.0
 11
0.0
 21
0.0
 31
0.0
  0
ENDBLK
  5
23D
330
23B
100
AcDbEntity
  8
0
100
AcDbBlockEnd
  0
BLOCK
  5
245
330
244
100
AcDbEntity
  8
0
100
AcDbBlockBegin
  2
fc0acdeb-dfe5-41d6-9d7e-bcd2dc6865cb
 70
0
 10
0.0
 20
0.0
 30
0.0
  3
fc0acdeb-dfe5-41d6-9d7e-bcd2dc6865cb
  1

  0
ENDBLK
  5
246
330
244
100
AcDbEntity
  8
0
100
AcDbBlockEnd
  0
BLOCK
  5
248
330
247
100
AcDbEntity
  8
0
100
AcDbBlockBegin
  2
ea964ee2-9b26-416b-8f53-053d9ea35ae2
 70
0
 10
0.0
 20
0.0
 30
0.0
  3
ea964ee2-9b26-416b-8f53-053d9ea35ae2
  1

  0
LINE
  5
24A
330
247
100
AcDbEntity
  8
0
100
AcDbLine
 10
0.0
 20
0.0
 30
0.0
 11
0.12460000000000093
 21
0.015100000000003888
 31
0.0
  0
LINE
  5
24B
330
247
100
AcDbEntity
  8
0
100
AcDbLine
 10
-0.11739999999999995
 20
-0.04449999999999932
 30
0.0
 11
0.0
 21
0.0
 31
0.0
  0
LINE
  5
24C
330
247
100
AcDbEntity
  8
0
100
AcDbLine
 10
-0.22070000000000078
 20
-0.11589999999999634
 30
0.0
 11
-0.11739999999999995
 21
-0.04449999999999932
 31
0.0
  0
LINE
  5
24D
330
247
100
AcDbEntity
  8
0
100
AcDbLine
 10
-0.30400000000000205
 20
-0.20989999999999043
 30
0.0
 11
-0.22070000000000078
 21
-0.11589999999999634
 31
0.0
  0
LINE
  5
24E
330
247
100
AcDbEntity
  8
0
100
AcDbLine
 10
-0.3623000000000012
 20
-0.32099999999999795
 30
0.0
 11
-0.30400000000000205
 21
-0.20989999999999043
 31
0.0
  0
LINE
  5
24F
330
247
100
AcDbEntity
  8
0
100
AcDbLine
 10
-0.3924000000000021
 20
-0.4428999999999945
 30
0.0
 11
-0.3623000000000012
 21
-0.32099999999999795
 31
0.0
  0
LINE
  5
250
330
247
100
AcDbEntity
  8
0
100
AcDbLine
 10
-0.3924000000000021
 20
-0.5685000000000002
 30
0.0
 11
-0.3924000000000021
 21
-0.4428999999999945
 31
0.0
  0
LINE
  5
251
330
247
100
AcDbEntity
  8
0
100
AcDbLine
 10
-0.3623000000000012
 20
-0.6903999999999968
 30
0.0
 11
-0.3924000000000021
 21
-0.5685000000000002
 31
0.0
  0
LINE
  5
252
330
247
100
AcDbEntity
  8
0
100
AcDbLine
 10
-0.30400000000000205
 20
-0.8015999999999934
 30
0.0
 11
-0.3623000000000012
 21
-0.6903999999999968
 31
0.0
  0
LINE
  5
253
330
247
100
AcDbEntity
  8
0
100
AcDbLine
 10
-0.22070000000000078
 20
-0.8955999999999875
 30
0.0
 11
-0.30400000000000205
 21
-0.8015999999999934
 31
0.0
  0
LINE
  5
254
330
247
100
AcDbEntity
  8
0
100
AcDbLine
 10
-0.11739999999999995
 20
-0.9668999999999954
 30
0.0
 11
-0.22070000000000078
 21
-0.8955999999999875
 31
0.0
  0
LINE
  5
255
330
247
100
AcDbEntity
  8
0
100
AcDbLine
 10
0.0
 20
-1.0113999999999947
 30
0.0
 11
-0.11739999999999995
 21
-0.9668999999999954
 31
0.0
  0
LINE
  5
256
330
247
100
AcDbEntity
  8
0
100
AcDbLine
 10
0.12460000000000093
 20
-1.0265999999999877
 30
0.0
 11
0.0
 21
-1.0113999999999947
 31
0.0
  0
LINE
  5
257
330
247
100
AcDbEntity
  8
0
100
AcDbLine
 10
0.24929999999999808
 20
-1.0113999999999947
 30
0.0
 11
0.12460000000000093
 21
-1.0265999999999877
 31
0.0
  0
LINE
  5
258
330
247
100
AcDbEntity
  8
0
100
AcDbLine
 10
0.366699999999998
 20
-0.9668999999999954
 30
0.0
 11
0.24929999999999808
 21
-1.0113999999999947
 31
0.0
  0
LINE
  5
259
330
247
100
AcDbEntity
  8
0
100
AcDbLine
 10
0.46999999999999886
 20
-0.8955999999999875
 30
0.0
 11
0.366699999999998
 21
-0.9668999999999954
 31
0.0
  0
LINE
  5
25A
330
247
100
AcDbEntity
  8
0
100
AcDbLine
 10
0.5533000000000001
 20
-0.8015999999999934
 30
0.0
 11
0.46999999999999886
 21
-0.8955999999999875
 31
0.0
  0
LINE
  5
25B
330
247
100
AcDbEntity
  8
0
100
AcDbLine
 10
0.6115999999999993
 20
-0.6903999999999968
 30
0.0
 11
0.5533000000000001
 21
-0.8015999999999934
 31
0.0
  0
LINE
  5
25C
330
247
100
AcDbEntity
  8
0
100
AcDbLine
 10
0.6417000000000002
 20
-0.5685000000000002
 30
0.0
 11
0.6115999999999993
 21
-0.6903999999999968
 31
0.0
  0
LINE
  5
25D
330
247
100
AcDbEntity
  8
0
100
AcDbLine
 10
0.6417000000000002
 20
-0.4428999999999945
 30
0.0
 11
0.6417000000000002
 21
-0.5685000000000002
 31
0.0
  0
LINE
  5
25E
330
247
100
AcDbEntity
  8
0
100
AcDbLine
 10
0.6115999999999993
 20
-0.32099999999999795
 30
0.0
 11
0.6417000000000002
 21
-0.4428999999999945
 31
0.0
  0
LINE
  5
25F
330
247
100
AcDbEntity
  8
0
100
AcDbLine
 10
0.5533000000000001
 20
-0.20989999999999043
 30
0.0
 11
0.6115999999999993
 21
-0.32099999999999795
 31
0.0
  0
LINE
  5
260
330
247
100
AcDbEntity
  8
0
100
AcDbLine
 10
0.46999999999999886
 20
-0.11589999999999634
 30
0.0
 11
0.5533000000000001
 21
-0.20989999999999043
 31
0.0
  0
LINE
  5
261
330
247
100
AcDbEntity
  8
0
100
AcDbLine
 10
0.366699999999998
 20
-0.04449999999999932
 30
0.0
 11
0.46999999999999886
 21
-0.11589999999999634
 31
0.0
  0
LINE
  5
262
330
247
100
AcDbEntity
  8
0
100
AcDbLine
 10
0.24929999999999808
 20
0.0
 30
0.0
 11
0.366699999999998
 21
-0.04449999999999932
 31
0.0
  0
LINE
  5
263
330
247
100
AcDbEntity
  8
0
100
AcDbLine
 10
0.12460000000000093
 20
0.015100000000003888
 30
0.0
 11
0.24929999999999808
 21
0.0
 31
0.0
  0
LINE
  5
264
330
247
100
AcDbEntity
  8
0
100
AcDbLine
 10
0.12460000000000093
 20
0.015100000000003888
 30
0.0
 11
0.12460000000000093
 21
0.015100000000003888
 31
0.0
  0
LINE
  5
265
330
247
100
AcDbEntity
  8
0
100
AcDbLine
 10
0.24929999999999808
 20
0.0
 30
0.0
 11
0.24929999999999808
 21
0.0
 31
0.0
  0
LINE
  5
266
330
247
100
AcDbEntity
  8
0
100
AcDbLine
 10
0.366699999999998
 20
-0.04449999999999932
 30
0.0
 11
0.366699999999998
 21
-0.04449999999999932
 31
0.0
  0
LINE
  5
267
330
247
100
AcDbEntity
  8
0
100
AcDbLine
 10
-0.22070000000000078
 20
-0.8955999999999875
 30
0.0
 11
-0.22070000000000078
 21
-0.8955999999999875
 31
0.0
  0
LINE
  5
268
330
247
100
AcDbEntity
  8
0
100
AcDbLine
 10
-0.30400000000000205
 20
-0.8015999999999934
 30
0.0
 11
-0.22070000000000078
 21
-0.8955999999999875
 31
0.0
  0
LINE
  5
269
330
247
100
AcDbEntity
  8
0
100
AcDbLine
 10
-0.3623000000000012
 20
-0.6903999999999968
 30
0.0
 11
-0.30400000000000205
 21
-0.8015999999999934
 31
0.0
  0
LINE
  5
26A
330
247
100
AcDbEntity
  8
0
100
AcDbLine
 10
-0.3924000000000021
 20
-0.5685000000000002
 30
0.0
 11
-0.3623000000000012
 21
-0.6903999999999968
 31
0.0
  0
LINE
  5
26B
330
247
100
AcDbEntity
  8
0
100
AcDbLine
 10
-0.3924000000000021
 20
-0.4428999999999945
 30
0.0
 11
-0.3924000000000021
 21
-0.5685000000000002
 31
0.0
  0
LINE
  5
26C
330
247
100
AcDbEntity
  8
0
100
AcDbLine
 10
-0.3623000000000012
 20
-0.32099999999999795
 30
0.0
 11
-0.3924000000000021
 21
-0.4428999999999945
 31
0.0
  0
LINE
  5
26D
330
247
100
AcDbEntity
  8
0
100
AcDbLine
 10
-0.30400000000000205
 20
-0.20989999999999043
 30
0.0
 11
-0.3623000000000012
 21
-0.32099999999999795
 31
0.0
  0
LINE
  5
26E
330
247
100
AcDbEntity
  8
0
100
AcDbLine
 10
-0.22070000000000078
 20
-0.11589999999999634
 30
0.0
 11
-0.30400000000000205
 21
-0.20989999999999043
 31
0.0
  0
LINE
  5
26F
330
247
100
AcDbEntity
  8
0
100
AcDbLine
 10
-0.11739999999999995
 20
-0.04449999999999932
 30
0.0
 11
-0.22070000000000078
 21
-0.11589999999999634
 31
0.0
  0
LINE
  5
270
330
247
100
AcDbEntity
  8
0
100
AcDbLine
 10
0.0
 20
0.0
 30
0.0
 11
-0.11739999999999995
 21
-0.04449999999999932
 31
0.0
  0
LINE
  5
271
330
247
100
AcDbEntity
  8
0
100
AcDbLine
 10
0.12460000000000093
 20
0.015100000000003888
 30
0.0
 11
0.0
 21
0.0
 31
0.0
  0
ENDBLK
  5
249
330
247
100
AcDbEntity
  8
0
100
AcDbBlockEnd
  0
BLOCK
  5
275
330
274
100
AcDbEntity
  8
0
100
AcDbBlockBegin
  2
907da1a8-b2c7-40dd-8487-1edb87196a80
 70
0
 10
0.0
 20
0.0
 30
0.0
  3
907da1a8-b2c7-40dd-8487-1edb87196a80
  1

  0
LINE
  5
277
330
274
100
AcDbEntity
  8
0
100
AcDbLine
 10
0.0
 20
0.0
 30
0.0
 11
0.19939999999999714
 21
-0.039599999999992974
 31
0.0
  0
LINE
  5
278
330
274
100
AcDbEntity
  8
0
100
AcDbLine
 10
0.19939999999999714
 20
-0.039599999999992974
 30
0.0
 11
0.36829999999999785
 21
-0.1525000000000034
 31
0.0
  0
LINE
  5
279
330
274
100
AcDbEntity
  8
0
100
AcDbLine
 10
0.36829999999999785
 20
-0.1525000000000034
 30
0.0
 11
0.48119999999999763
 21
-0.32150000000000034
 31
0.0
  0
LINE
  5
27A
330
274
100
AcDbEntity
  8
0
100
AcDbLine
 10
0.48119999999999763
 20
-0.32150000000000034
 30
0.0
 11
0.5208999999999975
 21
-0.5207999999999942
 31
0.0
  0
LINE
  5
27B
330
274
100
AcDbEntity
  8
0
100
AcDbLine
 10
0.5208999999999975
 20
-0.5207999999999942
 30
0.0
 11
0.48119999999999763
 21
-0.7201000000000022
 31
0.0
  0
LINE
  5
27C
330
274
100
AcDbEntity
  8
0
100
AcDbLine
 10
0.48119999999999763
 20
-0.7201000000000022
 30
0.0
 11
0.36829999999999785
 21
-0.8890999999999991
 31
0.0
  0
LINE
  5
27D
330
274
100
AcDbEntity
  8
0
100
AcDbLine
 10
0.36829999999999785
 20
-0.8890999999999991
 30
0.0
 11
0.19939999999999714
 21
-1.0019999999999953
 31
0.0
  0
LINE
  5
27E
330
274
100
AcDbEntity
  8
0
100
AcDbLine
 10
0.19939999999999714
 20
-1.0019999999999953
 30
0.0
 11
0.0
 21
-1.0416999999999916
 31
0.0
  0
LINE
  5
27F
330
274
100
AcDbEntity
  8
0
100
AcDbLine
 10
0.0
 20
-1.0416999999999916
 30
0.0
 11
-0.19930000000000092
 21
-1.0019999999999953
 31
0.0
  0
LINE
  5
280
330
274
100
AcDbEntity
  8
0
100
AcDbLine
 10
-0.19930000000000092
 20
-1.0019999999999953
 30
0.0
 11
-0.36820000000000164
 21
-0.8890999999999991
 31
0.0
  0
LINE
  5
281
330
274
100
AcDbEntity
  8
0
100
AcDbLine
 10
-0.36820000000000164
 20
-0.8890999999999991
 30
0.0
 11
-0.4811000000000014
 21
-0.7201000000000022
 31
0.0
  0
LINE
  5
282
330
274
100
AcDbEntity
  8
0
100
AcDbLine
 10
-0.4811000000000014
 20
-0.7201000000000022
 30
0.0
 11
-0.5208000000000013
 21
-0.5207999999999942
 31
0.0
  0
LINE
  5
283
330
274
100
AcDbEntity
  8
0
100
AcDbLine
 10
-0.5208000000000013
 20
-0.5207999999999942
 30
0.0
 11
-0.4811000000000014
 21
-0.32150000000000034
 31
0.0
  0
LINE
  5
284
330
274
100
AcDbEntity
  8
0
100
AcDbLine
 10
-0.4811000000000014
 20
-0.32150000000000034
 30
0.0
 11
-0.36820000000000164
 21
-0.1525000000000034
 31
0.0
  0
LINE
  5
285
330
274
100
AcDbEntity
  8
0
100
AcDbLine
 10
-0.36820000000000164
 20
-0.1525000000000034
 30
0.0
 11
-0.19930000000000092
 21
-0.039599999999992974
 31
0.0
  0
LINE
  5
286
330
274
100
AcDbEntity
  8
0
100
AcDbLine
 10
-0.19930000000000092
 20
-0.039599999999992974
 30
0.0
 11
0.0
 21
0.0
 31
0.0
  0
ENDBLK
  5
276
330
274
100
AcDbEntity
  8
0
100
AcDbBlockEnd
  0
BLOCK
  5
28A
330
289
100
AcDbEntity
  8
0
100
AcDbBlockBegin
  2
cbcb917d-5dae-4dea-ac6d-a312f4dc59ef
 70
0
 10
0.0
 20
0.0
 30
0.0
  3
cbcb917d-5dae-4dea-ac6d-a312f4dc59ef
  1

  0
ENDBLK
  5
28B
330
289
100
AcDbEntity
  8
0
100
AcDbBlockEnd
  0
BLOCK
  5
28D
330
28C
100
AcDbEntity
  8
0
100
AcDbBlockBegin
  2
8a75022e-29b2-429e-ba7b-ae96ccdd1da1
 70
0
 10
0.0
 20
0.0
 30
0.0
  3
8a75022e-29b2-429e-ba7b-ae96ccdd1da1
  1

  0
LINE
  5
28F
330
28C
100
AcDbEntity
  8
0
100
AcDbLine
 10
0.0
 20
0.0
 30
0.0
 11
0.0
 21
-1.8230000000000004
 31
0.0
  0
LINE
  5
290
330
28C
100
AcDbEntity
  8
0
100
AcDbLine
 10
18.2292
 20
0.0
 30
0.0
 11
0.0
 21
0.0
 31
0.0
  0
LINE
  5
291
330
28C
100
AcDbEntity
  8
0
100
AcDbLine
 10
18.2292
 20
-1.8230000000000004
 30
0.0
 11
18.2292
 21
0.0
 31
0.0
  0
LINE
  5
292
330
28C
100
AcDbEntity
  8
0
100
AcDbLine
 10
0.0
 20
-1.8230000000000004
 30
0.0
 11
18.2292
 21
-1.8230000000000004
 31
0.0
  0
LINE
  5
293
330
28C
100
AcDbEntity
  8
0
100
AcDbLine
 10
12.1528
 20
-1.8230000000000004
 30
0.0
 11
12.1528
 21
-9.375
 31
0.0
  0
LINE
  5
294
330
28C
100
AcDbEntity
  8
0
100
AcDbLine
 10
18.2292
 20
-1.8230000000000004
 30
0.0
 11
12.1528
 21
-1.8230000000000004
 31
0.0
  0
LINE
  5
295
330
28C
100
AcDbEntity
  8
0
100
AcDbLine
 10
18.2292
 20
-9.375
 30
0.0
 11
18.2292
 21
-1.8230000000000004
 31
0.0
  0
LINE
  5
296
330
28C
100
AcDbEntity
  8
0
100
AcDbLine
 10
12.1528
 20
-9.375
 30
0.0
 11
18.2292
 21
-9.375
 31
0.0
  0
LINE
  5
297
330
28C
100
AcDbEntity
  8
0
100
AcDbLine
 10
6.0764
 20
-1.8230000000000004
 30
0.0
 11
6.0764
 21
-9.375
 31
0.0
  0
LINE
  5
298
330
28C
100
AcDbEntity
  8
0
100
AcDbLine
 10
12.1528
 20
-1.8230000000000004
 30
0.0
 11
6.0764
 21
-1.8230000000000004
 31
0.0
  0
LINE
  5
299
330
28C
100
AcDbEntity
  8
0
100
AcDbLine
 10
12.1528
 20
-9.375
 30
0.0
 11
12.1528
 21
-1.8230000000000004
 31
0.0
  0
LINE
  5
29A
330
28C
100
AcDbEntity
  8
0
100
AcDbLine
 10
6.0764
 20
-9.375
 30
0.0
 11
12.1528
 21
-9.375
 31
0.0
  0
LINE
  5
29B
330
28C
100
AcDbEntity
  8
0
100
AcDbLine
 10
0.0
 20
-1.8230000000000004
 30
0.0
 11
0.0
 21
-9.375
 31
0.0
  0
LINE
  5
29C
330
28C
100
AcDbEntity
  8
0
100
AcDbLine
 10
6.0764
 20
-1.8230000000000004
 30
0.0
 11
0.0
 21
-1.8230000000000004
 31
0.0
  0
LINE
  5
29D
330
28C
100
AcDbEntity
  8
0
100
AcDbLine
 10
6.0764
 20
-9.375
 30
0.0
 11
6.0764
 21
-1.8230000000000004
 31
0.0
  0
LINE
  5
29E
330
28C
100
AcDbEntity
  8
0
100
AcDbLine
 10
0.0
 20
-9.375
 30
0.0
 11
6.0764
 21
-9.375
 31
0.0
  0
LINE
  5
29F
330
28C
100
AcDbEntity
  8
0
100
AcDbLine
 10
18.2292
 20
0.0
 30
0.0
 11
18.2292
 21
-9.375
 31
0.0
  0
LINE
  5
2A0
330
28C
100
AcDbEntity
  8
0
100
AcDbLine
 10
20.052099999999996
 20
0.0
 30
0.0
 11
18.2292
 21
0.0
 31
0.0
  0
LINE
  5
2A1
330
28C
100
AcDbEntity
  8
0
100
AcDbLine
 10
20.052099999999996
 20
-9.375
 30
0.0
 11
20.052099999999996
 21
0.0
 31
0.0
  0
LINE
  5
2A2
330
28C
100
AcDbEntity
  8
0
100
AcDbLine
 10
18.2292
 20
-9.375
 30
0.0
 11
20.052099999999996
 21
-9.375
 31
0.0
  0
LINE
  5
2A3
330
28C
100
AcDbEntity
  8
0
100
AcDbLine
 10
-1.8229000000000042
 20
0.0
 30
0.0
 11
-1.8229000000000042
 21
-9.375
 31
0.0
  0
LINE
  5
2A4
330
28C
100
AcDbEntity
  8
0
100
AcDbLine
 10
0.0
 20
0.0
 30
0.0
 11
-1.8229000000000042
 21
0.0
 31
0.0
  0
LINE
  5
2A5
330
28C
100
AcDbEntity
  8
0
100
AcDbLine
 10
0.0
 20
-9.375
 30
0.0
 11
0.0
 21
0.0
 31
0.0
  0
LINE
  5
2A6
330
28C
100
AcDbEntity
  8
0
100
AcDbLine
 10
-1.8229000000000042
 20
-9.375
 30
0.0
 11
0.0
 21
-9.375
 31
0.0
  0
ENDBLK
  5
28E
330
28C
100
AcDbEntity
  8
0
100
AcDbBlockEnd
  0
BLOCK
  5
2AA
330
2A9
100
AcDbEntity
  8
0
100
AcDbBlockBegin
  2
529db8e1-bb70-45a8-9ff0-c432d7d183d7
 70
0
 10
0.0
 20
0.0
 30
0.0
  3
529db8e1-bb70-45a8-9ff0-c432d7d183d7
  1

  0
LINE
  5
2AC
330
2A9
100
AcDbEntity
  8
0
100
AcDbLine
 10
0.0
 20
0.0
 30
0.0
 11
-0.3704000000000036
 21
0.29469999999999175
 31
0.0
  0
LINE
  5
2AD
330
2A9
100
AcDbEntity
  8
0
100
AcDbLine
 10
0.20720000000000027
 20
-0.04560000000000741
 30
0.0
 11
0.0
 21
0.0
 31
0.0
  0
LINE
  5
2AE
330
2A9
100
AcDbEntity
  8
0
100
AcDbLine
 10
0.695999999999998
 20
0.03489999999999327
 30
0.0
 11
0.20720000000000027
 21
-0.04560000000000741
 31
0.0
  0
LINE
  5
2AF
330
2A9
100
AcDbEntity
  8
0
100
AcDbLine
 10
0.8645999999999958
 20
0.12359999999999616
 30
0.0
 11
0.695999999999998
 21
0.03489999999999327
 31
0.0
  0
LINE
  5
2B0
330
2A9
100
AcDbEntity
  8
0
100
AcDbLine
 10
0.9756
 20
0.3135000000000048
 30
0.0
 11
0.8645999999999958
 21
0.12359999999999616
 31
0.0
  0
LINE
  5
2B1
330
2A9
100
AcDbEntity
  8
0
100
AcDbLine
 10
0.9065999999999974
 20
0.5943999999999932
 30
0.0
 11
0.9756
 21
0.3135000000000048
 31
0.0
  0
LINE
  5
2B2
330
2A9
100
AcDbEntity
  8
0
100
AcDbLine
 10
0.8230999999999966
 20
0.7218000000000018
 30
0.0
 11
0.9065999999999974
 21
0.5943999999999932
 31
0.0
  0
LINE
  5
2B3
330
2A9
100
AcDbEntity
  8
0
100
AcDbLine
 10
0.6257999999999981
 20
0.9192999999999927
 30
0.0
 11
0.29819999999999425
 21
1.0994000000000028
 31
0.0
  0
LINE
  5
2B4
330
2A9
100
AcDbEntity
  8
0
100
AcDbLine
 10
0.8230999999999966
 20
0.7218000000000018
 30
0.0
 11
0.6257999999999981
 21
0.9192999999999927
 31
0.0
  0
LINE
  5
2B5
330
2A9
100
AcDbEntity
  8
0
100
AcDbLine
 10
0.8285999999999945
 20
1.0748999999999995
 30
0.0
 11
0.8230999999999966
 21
0.7218000000000018
 31
0.0
  0
LINE
  5
2B6
330
2A9
100
AcDbEntity
  8
0
100
AcDbLine
 10
0.8533999999999935
 20
1.4799000000000007
 30
0.0
 11
0.8285999999999945
 21
1.0748999999999995
 31
0.0
  0
LINE
  5
2B7
330
2A9
100
AcDbEntity
  8
0
100
AcDbLine
 10
1.1174000000000035
 20
1.801000000000002
 30
0.0
 11
0.8533999999999935
 21
1.4799000000000007
 31
0.0
  0
LINE
  5
2B8
330
2A9
100
AcDbEntity
  8
0
100
AcDbLine
 10
1.1709000000000032
 20
2.247499999999995
 30
0.0
 11
1.1174000000000035
 21
1.801000000000002
 31
0.0
  0
LINE
  5
2B9
330
2A9
100
AcDbEntity
  8
0
100
AcDbLine
 10
1.0344999999999942
 20
2.720399999999998
 30
0.0
 11
1.1709000000000032
 21
2.247499999999995
 31
0.0
  0
LINE
  5
2BA
330
2A9
100
AcDbEntity
  8
0
100
AcDbLine
 10
0.7841999999999985
 20
3.0756999999999977
 30
0.0
 11
1.0344999999999942
 21
2.720399999999998
 31
0.0
  0
LINE
  5
2BB
330
2A9
100
AcDbEntity
  8
0
100
AcDbLine
 10
0.5285999999999973
 20
3.3286999999999978
 30
0.0
 11
0.7841999999999985
 21
3.0756999999999977
 31
0.0
  0
LINE
  5
2BC
330
2A9
100
AcDbEntity
  8
0
100
AcDbLine
 10
-0.16400000000000148
 20
1.1869999999999976
 30
0.0
 11
-0.09489999999999554
 21
0.9059999999999917
 31
0.0
  0
LINE
  5
2BD
330
2A9
100
AcDbEntity
  8
0
100
AcDbLine
 10
-0.4449999999999932
 20
1.6568999999999932
 30
0.0
 11
-0.16400000000000148
 21
1.1869999999999976
 31
0.0
  0
LINE
  5
2BE
330
2A9
100
AcDbEntity
  8
0
100
AcDbLine
 10
-0.855000000000004
 20
1.914900000000003
 30
0.0
 11
-0.4449999999999932
 21
1.6568999999999932
 31
0.0
  0
LINE
  5
2BF
330
2A9
100
AcDbEntity
  8
0
100
AcDbLine
 10
-0.9886000000000053
 20
1.9886000000000053
 30
0.0
 11
-0.855000000000004
 21
1.914900000000003
 31
0.0
  0
LINE
  5
2C0
330
2A9
100
AcDbEntity
  8
0
100
AcDbLine
 10
-1.0420000000000016
 20
1.9582999999999942
 30
0.0
 11
-0.9886000000000053
 21
1.9886000000000053
 31
0.0
  0
LINE
  5
2C1
330
2A9
100
AcDbEntity
  8
0
100
AcDbLine
 10
-0.9634999999999962
 20
1.5525999999999982
 30
0.0
 11
-1.0420000000000016
 21
1.9582999999999942
 31
0.0
  0
LINE
  5
2C2
330
2A9
100
AcDbEntity
  8
0
100
AcDbLine
 10
-0.761099999999999
 20
1.2297999999999973
 30
0.0
 11
-0.9634999999999962
 21
1.5525999999999982
 31
0.0
  0
LINE
  5
2C3
330
2A9
100
AcDbEntity
  8
0
100
AcDbLine
 10
-0.4899000000000058
 20
0.9438999999999993
 30
0.0
 11
-0.761099999999999
 21
1.2297999999999973
 31
0.0
  0
LINE
  5
2C4
330
2A9
100
AcDbEntity
  8
0
100
AcDbLine
 10
-0.33509999999999707
 20
0.7680000000000007
 30
0.0
 11
-0.4899000000000058
 21
0.9438999999999993
 31
0.0
  0
LINE
  5
2C5
330
2A9
100
AcDbEntity
  8
0
100
AcDbLine
 10
-0.4403999999999968
 20
1.2330999999999932
 30
0.0
 11
-0.29300000000000637
 21
0.8460999999999927
 31
0.0
  0
LINE
  5
2C6
330
2A9
100
AcDbEntity
  8
0
100
AcDbLine
 10
-0.6293000000000006
 20
1.4542000000000002
 30
0.0
 11
-0.4403999999999968
 21
1.2330999999999932
 31
0.0
  0
LINE
  5
2C7
330
2A9
100
AcDbEntity
  8
0
100
AcDbLine
 10
-0.7352000000000061
 20
1.6890999999999963
 30
0.0
 11
-0.6293000000000006
 21
1.4542000000000002
 31
0.0
  0
LINE
  5
2C8
330
2A9
100
AcDbEntity
  8
0
100
AcDbLine
 10
-0.8780000000000001
 20
1.836500000000001
 30
0.0
 11
-0.7352000000000061
 21
1.6890999999999963
 31
0.0
  0
LINE
  5
2C9
330
2A9
100
AcDbEntity
  8
0
100
AcDbLine
 10
-0.30100000000000193
 20
3.558399999999999
 30
0.0
 11
-0.4551000000000016
 21
3.3087000000000018
 31
0.0
  0
LINE
  5
2CA
330
2A9
100
AcDbEntity
  8
0
100
AcDbLine
 10
-0.10550000000000637
 20
3.671599999999998
 30
0.0
 11
-0.30100000000000193
 21
3.558399999999999
 31
0.0
  0
LINE
  5
2CB
330
2A9
100
AcDbEntity
  8
0
100
AcDbLine
 10
0.20359999999999445
 20
3.709600000000002
 30
0.0
 11
-0.10550000000000637
 21
3.671599999999998
 31
0.0
  0
LINE
  5
2CC
330
2A9
100
AcDbEntity
  8
0
100
AcDbLine
 10
0.41840000000000543
 20
3.6075000000000017
 30
0.0
 11
0.20359999999999445
 21
3.709600000000002
 31
0.0
  0
LINE
  5
2CD
330
2A9
100
AcDbEntity
  8
0
100
AcDbLine
 10
0.5285999999999973
 20
3.3286999999999978
 30
0.0
 11
0.41840000000000543
 21
3.6075000000000017
 31
0.0
  0
LINE
  5
2CE
330
2A9
100
AcDbEntity
  8
0
100
AcDbLine
 10
0.18590000000000373
 20
3.422699999999999
 30
0.0
 11
0.5285999999999973
 21
3.3286999999999978
 31
0.0
  0
LINE
  5
2CF
330
2A9
100
AcDbEntity
  8
0
100
AcDbLine
 10
-0.10710000000000264
 20
3.439299999999996
 30
0.0
 11
0.18590000000000373
 21
3.422699999999999
 31
0.0
  0
LINE
  5
2D0
330
2A9
100
AcDbEntity
  8
0
100
AcDbLine
 10
-0.4551000000000016
 20
3.3087000000000018
 30
0.0
 11
-0.10710000000000264
 21
3.439299999999996
 31
0.0
  0
LINE
  5
2D1
330
2A9
100
AcDbEntity
  8
0
100
AcDbLine
 10
-0.6847000000000065
 20
3.068100000000001
 30
0.0
 11
-0.4551000000000016
 21
3.3087000000000018
 31
0.0
  0
LINE
  5
2D2
330
2A9
100
AcDbEntity
  8
0
100
AcDbLine
 10
-0.9646999999999935
 20
2.7357999999999976
 30
0.0
 11
-0.6847000000000065
 21
3.068100000000001
 31
0.0
  0
LINE
  5
2D3
330
2A9
100
AcDbEntity
  8
0
100
AcDbLine
 10
-1.1371999999999929
 20
2.2123999999999953
 30
0.0
 11
-0.9646999999999935
 21
2.7357999999999976
 31
0.0
  0
LINE
  5
2D4
330
2A9
100
AcDbEntity
  8
0
100
AcDbLine
 10
-1.1795999999999935
 20
1.8785000000000025
 30
0.0
 11
-1.1371999999999929
 21
2.2123999999999953
 31
0.0
  0
LINE
  5
2D5
330
2A9
100
AcDbEntity
  8
0
100
AcDbLine
 10
-1.0130999999999943
 20
1.4920000000000044
 30
0.0
 11
-1.1795999999999935
 21
1.8785000000000025
 31
0.0
  0
LINE
  5
2D6
330
2A9
100
AcDbEntity
  8
0
100
AcDbLine
 10
-0.8094999999999999
 20
1.2488000000000028
 30
0.0
 11
-1.0130999999999943
 21
1.4920000000000044
 31
0.0
  0
LINE
  5
2D7
330
2A9
100
AcDbEntity
  8
0
100
AcDbLine
 10
-0.7458000000000027
 20
0.9106000000000023
 30
0.0
 11
-0.8094999999999999
 21
1.2488000000000028
 31
0.0
  0
LINE
  5
2D8
330
2A9
100
AcDbEntity
  8
0
100
AcDbLine
 10
-0.6363999999999947
 20
0.5956000000000046
 30
0.0
 11
-0.7458000000000027
 21
0.9106000000000023
 31
0.0
  0
LINE
  5
2D9
330
2A9
100
AcDbEntity
  8
0
100
AcDbLine
 10
-1.261499999999998
 20
0.627200000000002
 30
0.0
 11
-1.487099999999998
 21
0.5476000000000028
 31
0.0
  0
LINE
  5
2DA
330
2A9
100
AcDbEntity
  8
0
100
AcDbLine
 10
-0.8900000000000006
 20
0.5674999999999955
 30
0.0
 11
-1.261499999999998
 21
0.627200000000002
 31
0.0
  0
LINE
  5
2DB
330
2A9
100
AcDbEntity
  8
0
100
AcDbLine
 10
-0.45879999999999654
 20
0.46129999999999427
 30
0.0
 11
-0.8900000000000006
 21
0.5674999999999955
 31
0.0
  0
LINE
  5
2DC
330
2A9
100
AcDbEntity
  8
0
100
AcDbLine
 10
-0.6595999999999975
 20
0.35370000000000346
 30
0.0
 11
-0.1980999999999966
 21
0.25950000000000273
 31
0.0
  0
LINE
  5
2DD
330
2A9
100
AcDbEntity
  8
0
100
AcDbLine
 10
-0.8226999999999975
 20
0.352099999999993
 30
0.0
 11
-0.6595999999999975
 21
0.35370000000000346
 31
0.0
  0
LINE
  5
2DE
330
2A9
100
AcDbEntity
  8
0
100
AcDbLine
 10
-1.1908999999999992
 20
0.37069999999999936
 30
0.0
 11
-0.8226999999999975
 21
0.352099999999993
 31
0.0
  0
LINE
  5
2DF
330
2A9
100
AcDbEntity
  8
0
100
AcDbLine
 10
-1.4808000000000021
 20
0.3832999999999913
 30
0.0
 11
-1.1908999999999992
 21
0.37069999999999936
 31
0.0
  0
LINE
  5
2E0
330
2A9
100
AcDbEntity
  8
0
100
AcDbLine
 10
-1.6052999999999997
 20
0.5057000000000045
 30
0.0
 11
-1.4808000000000021
 21
0.3832999999999913
 31
0.0
  0
LINE
  5
2E1
330
2A9
100
AcDbEntity
  8
0
100
AcDbLine
 10
-1.6282000000000068
 20
0.6255999999999915
 30
0.0
 11
-1.6052999999999997
 21
0.5057000000000045
 31
0.0
  0
LINE
  5
2E2
330
2A9
100
AcDbEntity
  8
0
100
AcDbLine
 10
-1.5571999999999946
 20
0.6894999999999953
 30
0.0
 11
-1.6282000000000068
 21
0.6255999999999915
 31
0.0
  0
LINE
  5
2E3
330
2A9
100
AcDbEntity
  8
0
100
AcDbLine
 10
-1.3100000000000023
 20
0.7108999999999952
 30
0.0
 11
-1.5571999999999946
 21
0.6894999999999953
 31
0.0
  0
LINE
  5
2E4
330
2A9
100
AcDbEntity
  8
0
100
AcDbLine
 10
-1.0756999999999977
 20
0.7179000000000002
 30
0.0
 11
-1.3100000000000023
 21
0.7108999999999952
 31
0.0
  0
LINE
  5
2E5
330
2A9
100
AcDbEntity
  8
0
100
AcDbLine
 10
-0.8469999999999942
 20
0.674199999999999
 30
0.0
 11
-1.0756999999999977
 21
0.7179000000000002
 31
0.0
  0
LINE
  5
2E6
330
2A9
100
AcDbEntity
  8
0
100
AcDbLine
 10
-0.5660000000000025
 20
0.5694000000000017
 30
0.0
 11
-0.8469999999999942
 21
0.674199999999999
 31
0.0
  0
LINE
  5
2E7
330
2A9
100
AcDbEntity
  8
0
100
AcDbLine
 10
-0.25090000000000146
 20
0.5858999999999952
 30
0.0
 11
-0.5660000000000025
 21
0.5694000000000017
 31
0.0
  0
ENDBLK
  5
2AB
330
2A9
100
AcDbEntity
  8
0
100
AcDbBlockEnd
  0
BLOCK
  5
2EB
330
2EA
100
AcDbEntity
  8
0
100
AcDbBlockBegin
  2
c3066bbb-6260-44ba-9656-3002617db13f
 70
0
 10
0.0
 20
0.0
 30
0.0
  3
c3066bbb-6260-44ba-9656-3002617db13f
  1

  0
ENDBLK
  5
2EC
330
2EA
100
AcDbEntity
  8
0
100
AcDbBlockEnd
  0
BLOCK
  5
2EE
330
2ED
100
AcDbEntity
  8
0
100
AcDbBlockBegin
  2
d9e8bc0b-458d-4b3b-93f7-0da30d2f16ad
 70
0
 10
0.0
 20
0.0
 30
0.0
  3
d9e8bc0b-458d-4b3b-93f7-0da30d2f16ad
  1

  0
LINE
  5
2F0
330
2ED
100
AcDbEntity
  8
0
100
AcDbLine
 10
0.0
 20
0.0
 30
0.0
 11
0.022700000000000387
 21
0.18700000000000472
 31
0.0
  0
LINE
  5
2F1
330
2ED
100
AcDbEntity
  8
0
100
AcDbLine
 10
-0.06669999999999732
 20
-0.17609999999999104
 30
0.0
 11
0.0
 21
0.0
 31
0.0
  0
LINE
  5
2F2
330
2ED
100
AcDbEntity
  8
0
100
AcDbLine
 10
-0.17370000000000374
 20
-0.3310999999999922
 30
0.0
 11
-0.06669999999999732
 21
-0.17609999999999104
 31
0.0
  0
LINE
  5
2F3
330
2ED
100
AcDbEntity
  8
0
100
AcDbLine
 10
-0.314700000000002
 20
-0.45599999999999596
 30
0.0
 11
-0.17370000000000374
 21
-0.3310999999999922
 31
0.0
  0
LINE
  5
2F4
330
2ED
100
AcDbEntity
  8
0
100
AcDbLine
 10
-0.48149999999999693
 20
-0.5434999999999945
 30
0.0
 11
-0.314700000000002
 21
-0.45599999999999596
 31
0.0
  0
LINE
  5
2F5
330
2ED
100
AcDbEntity
  8
0
100
AcDbLine
 10
-0.6642999999999972
 20
-0.5885999999999996
 30
0.0
 11
-0.48149999999999693
 21
-0.5434999999999945
 31
0.0
  0
LINE
  5
2F6
330
2ED
100
AcDbEntity
  8
0
100
AcDbLine
 10
-0.8526999999999987
 20
-0.5885999999999996
 30
0.0
 11
-0.6642999999999972
 21
-0.5885999999999996
 31
0.0
  0
LINE
  5
2F7
330
2ED
100
AcDbEntity
  8
0
100
AcDbLine
 10
-1.035499999999999
 20
-0.5434999999999945
 30
0.0
 11
-0.8526999999999987
 21
-0.5885999999999996
 31
0.0
  0
LINE
  5
2F8
330
2ED
100
AcDbEntity
  8
0
100
AcDbLine
 10
-1.202300000000001
 20
-0.45599999999999596
 30
0.0
 11
-1.035499999999999
 21
-0.5434999999999945
 31
0.0
  0
LINE
  5
2F9
330
2ED
100
AcDbEntity
  8
0
100
AcDbLine
 10
-1.3432999999999993
 20
-0.3310999999999922
 30
0.0
 11
-1.202300000000001
 21
-0.45599999999999596
 31
0.0
  0
LINE
  5
2FA
330
2ED
100
AcDbEntity
  8
0
100
AcDbLine
 10
-1.4502999999999986
 20
-0.17609999999999104
 30
0.0
 11
-1.3432999999999993
 21
-0.3310999999999922
 31
0.0
  0
LINE
  5
2FB
330
2ED
100
AcDbEntity
  8
0
100
AcDbLine
 10
-1.5170999999999992
 20
0.0
 30
0.0
 11
-1.4502999999999986
 21
-0.17609999999999104
 31
0.0
  0
LINE
  5
2FC
330
2ED
100
AcDbEntity
  8
0
100
AcDbLine
 10
-1.5397999999999996
 20
0.18700000000000472
 30
0.0
 11
-1.5170999999999992
 21
0.0
 31
0.0
  0
LINE
  5
2FD
330
2ED
100
AcDbEntity
  8
0
100
AcDbLine
 10
-1.5170999999999992
 20
0.37400000000000944
 30
0.0
 11
-1.5397999999999996
 21
0.18700000000000472
 31
0.0
  0
LINE
  5
2FE
330
2ED
100
AcDbEntity
  8
0
100
AcDbLine
 10
-1.4502999999999986
 20
0.5501000000000005
 30
0.0
 11
-1.5170999999999992
 21
0.37400000000000944
 31
0.0
  0
LINE
  5
2FF
330
2ED
100
AcDbEntity
  8
0
100
AcDbLine
 10
-1.3432999999999993
 20
0.7050000000000054
 30
0.0
 11
-1.4502999999999986
 21
0.5501000000000005
 31
0.0
  0
LINE
  5
300
330
2ED
100
AcDbEntity
  8
0
100
AcDbLine
 10
-1.202300000000001
 20
0.8299000000000092
 30
0.0
 11
-1.3432999999999993
 21
0.7050000000000054
 31
0.0
  0
LINE
  5
301
330
2ED
100
AcDbEntity
  8
0
100
AcDbLine
 10
-1.035499999999999
 20
0.917500000000004
 30
0.0
 11
-1.202300000000001
 21
0.8299000000000092
 31
0.0
  0
LINE
  5
302
330
2ED
100
AcDbEntity
  8
0
100
AcDbLine
 10
-0.8526999999999987
 20
0.9625000000000057
 30
0.0
 11
-1.035499999999999
 21
0.917500000000004
 31
0.0
  0
LINE
  5
303
330
2ED
100
AcDbEntity
  8
0
100
AcDbLine
 10
-0.6642999999999972
 20
0.9625000000000057
 30
0.0
 11
-0.8526999999999987
 21
0.9625000000000057
 31
0.0
  0
LINE
  5
304
330
2ED
100
AcDbEntity
  8
0
100
AcDbLine
 10
-0.48149999999999693
 20
0.917500000000004
 30
0.0
 11
-0.6642999999999972
 21
0.9625000000000057
 31
0.0
  0
LINE
  5
305
330
2ED
100
AcDbEntity
  8
0
100
AcDbLine
 10
-0.314700000000002
 20
0.8299000000000092
 30
0.0
 11
-0.48149999999999693
 21
0.917500000000004
 31
0.0
  0
LINE
  5
306
330
2ED
100
AcDbEntity
  8
0
100
AcDbLine
 10
-0.17370000000000374
 20
0.7050000000000054
 30
0.0
 11
-0.314700000000002
 21
0.8299000000000092
 31
0.0
  0
LINE
  5
307
330
2ED
100
AcDbEntity
  8
0
100
AcDbLine
 10
-0.06669999999999732
 20
0.5501000000000005
 30
0.0
 11
-0.17370000000000374
 21
0.7050000000000054
 31
0.0
  0
LINE
  5
308
330
2ED
100
AcDbEntity
  8
0
100
AcDbLine
 10
0.0
 20
0.37400000000000944
 30
0.0
 11
-0.06669999999999732
 21
0.5501000000000005
 31
0.0
  0
LINE
  5
309
330
2ED
100
AcDbEntity
  8
0
100
AcDbLine
 10
0.022700000000000387
 20
0.18700000000000472
 30
0.0
 11
0.0
 21
0.37400000000000944
 31
0.0
  0
LINE
  5
30A
330
2ED
100
AcDbEntity
  8
0
100
AcDbLine
 10
-4.6875
 20
0.0
 30
0.0
 11
-4.6648
 21
0.18700000000000472
 31
0.0
  0
LINE
  5
30B
330
2ED
100
AcDbEntity
  8
0
100
AcDbLine
 10
-4.754200000000001
 20
-0.17609999999999104
 30
0.0
 11
-4.6875
 21
0.0
 31
0.0
  0
LINE
  5
30C
330
2ED
100
AcDbEntity
  8
0
100
AcDbLine
 10
-4.8612
 20
-0.3310999999999922
 30
0.0
 11
-4.754200000000001
 21
-0.17609999999999104
 31
0.0
  0
LINE
  5
30D
330
2ED
100
AcDbEntity
  8
0
100
AcDbLine
 10
-5.002200000000002
 20
-0.45599999999999596
 30
0.0
 11
-4.8612
 21
-0.3310999999999922
 31
0.0
  0
LINE
  5
30E
330
2ED
100
AcDbEntity
  8
0
100
AcDbLine
 10
-5.1690000000000005
 20
-0.5434999999999945
 30
0.0
 11
-5.002200000000002
 21
-0.45599999999999596
 31
0.0
  0
LINE
  5
30F
330
2ED
100
AcDbEntity
  8
0
100
AcDbLine
 10
-5.351800000000001
 20
-0.5885999999999996
 30
0.0
 11
-5.1690000000000005
 21
-0.5434999999999945
 31
0.0
  0
LINE
  5
310
330
2ED
100
AcDbEntity
  8
0
100
AcDbLine
 10
-5.540199999999999
 20
-0.5885999999999996
 30
0.0
 11
-5.351800000000001
 21
-0.5885999999999996
 31
0.0
  0
LINE
  5
311
330
2ED
100
AcDbEntity
  8
0
100
AcDbLine
 10
-5.722999999999999
 20
-0.5434999999999945
 30
0.0
 11
-5.540199999999999
 21
-0.5885999999999996
 31
0.0
  0
LINE
  5
312
330
2ED
100
AcDbEntity
  8
0
100
AcDbLine
 10
-5.889800000000001
 20
-0.45599999999999596
 30
0.0
 11
-5.722999999999999
 21
-0.5434999999999945
 31
0.0
  0
LINE
  5
313
330
2ED
100
AcDbEntity
  8
0
100
AcDbLine
 10
-6.030799999999999
 20
-0.3310999999999922
 30
0.0
 11
-5.889800000000001
 21
-0.45599999999999596
 31
0.0
  0
LINE
  5
314
330
2ED
100
AcDbEntity
  8
0
100
AcDbLine
 10
-6.137800000000002
 20
-0.17609999999999104
 30
0.0
 11
-6.030799999999999
 21
-0.3310999999999922
 31
0.0
  0
LINE
  5
315
330
2ED
100
AcDbEntity
  8
0
100
AcDbLine
 10
-6.204599999999999
 20
0.0
 30
0.0
 11
-6.137800000000002
 21
-0.17609999999999104
 31
0.0
  0
LINE
  5
316
330
2ED
100
AcDbEntity
  8
0
100
AcDbLine
 10
-6.2273
 20
0.18700000000000472
 30
0.0
 11
-6.204599999999999
 21
0.0
 31
0.0
  0
LINE
  5
317
330
2ED
100
AcDbEntity
  8
0
100
AcDbLine
 10
-6.204599999999999
 20
0.37400000000000944
 30
0.0
 11
-6.2273
 21
0.18700000000000472
 31
0.0
  0
LINE
  5
318
330
2ED
100
AcDbEntity
  8
0
100
AcDbLine
 10
-6.137800000000002
 20
0.5501000000000005
 30
0.0
 11
-6.204599999999999
 21
0.37400000000000944
 31
0.0
  0
LINE
  5
319
330
2ED
100
AcDbEntity
  8
0
100
AcDbLine
 10
-6.030799999999999
 20
0.7050000000000054
 30
0.0
 11
-6.137800000000002
 21
0.5501000000000005
 31
0.0
  0
LINE
  5
31A
330
2ED
100
AcDbEntity
  8
0
100
AcDbLine
 10
-5.889800000000001
 20
0.8299000000000092
 30
0.0
 11
-6.030799999999999
 21
0.7050000000000054
 31
0.0
  0
LINE
  5
31B
330
2ED
100
AcDbEntity
  8
0
100
AcDbLine
 10
-5.722999999999999
 20
0.917500000000004
 30
0.0
 11
-5.889800000000001
 21
0.8299000000000092
 31
0.0
  0
LINE
  5
31C
330
2ED
100
AcDbEntity
  8
0
100
AcDbLine
 10
-5.540199999999999
 20
0.9625000000000057
 30
0.0
 11
-5.722999999999999
 21
0.917500000000004
 31
0.0
  0
LINE
  5
31D
330
2ED
100
AcDbEntity
  8
0
100
AcDbLine
 10
-5.351800000000001
 20
0.9625000000000057
 30
0.0
 11
-5.540199999999999
 21
0.9625000000000057
 31
0.0
  0
LINE
  5
31E
330
2ED
100
AcDbEntity
  8
0
100
AcDbLine
 10
-5.1690000000000005
 20
0.917500000000004
 30
0.0
 11
-5.351800000000001
 21
0.9625000000000057
 31
0.0
  0
LINE
  5
31F
330
2ED
100
AcDbEntity
  8
0
100
AcDbLine
 10
-5.002200000000002
 20
0.8299000000000092
 30
0.0
 11
-5.1690000000000005
 21
0.917500000000004
 31
0.0
  0
LINE
  5
320
330
2ED
100
AcDbEntity
  8
0
100
AcDbLine
 10
-4.8612
 20
0.7050000000000054
 30
0.0
 11
-5.002200000000002
 21
0.8299000000000092
 31
0.0
  0
LINE
  5
321
330
2ED
100
AcDbEntity
  8
0
100
AcDbLine
 10
-4.754200000000001
 20
0.5501000000000005
 30
0.0
 11
-4.8612
 21
0.7050000000000054
 31
0.0
  0
LINE
  5
322
330
2ED
100
AcDbEntity
  8
0
100
AcDbLine
 10
-4.6875
 20
0.37400000000000944
 30
0.0
 11
-4.754200000000001
 21
0.5501000000000005
 31
0.0
  0
LINE
  5
323
330
2ED
100
AcDbEntity
  8
0
100
AcDbLine
 10
-4.6648
 20
0.18700000000000472
 30
0.0
 11
-4.6875
 21
0.37400000000000944
 31
0.0
  0
LINE
  5
324
330
2ED
100
AcDbEntity
  8
0
100
AcDbLine
 10
0.0
 20
-3.1875
 30
0.0
 11
0.022700000000000387
 21
-3.0004999999999953
 31
0.0
  0
LINE
  5
325
330
2ED
100
AcDbEntity
  8
0
100
AcDbLine
 10
-0.06669999999999732
 20
-3.363599999999991
 30
0.0
 11
0.0
 21
-3.1875
 31
0.0
  0
LINE
  5
326
330
2ED
100
AcDbEntity
  8
0
100
AcDbLine
 10
-0.17370000000000374
 20
-3.518599999999992
 30
0.0
 11
-0.06669999999999732
 21
-3.363599999999991
 31
0.0
  0
LINE
  5
327
330
2ED
100
AcDbEntity
  8
0
100
AcDbLine
 10
-0.314700000000002
 20
-3.643499999999996
 30
0.0
 11
-0.17370000000000374
 21
-3.518599999999992
 31
0.0
  0
LINE
  5
328
330
2ED
100
AcDbEntity
  8
0
100
AcDbLine
 10
-0.48149999999999693
 20
-3.7309999999999945
 30
0.0
 11
-0.314700000000002
 21
-3.643499999999996
 31
0.0
  0
LINE
  5
329
330
2ED
100
AcDbEntity
  8
0
100
AcDbLine
 10
-0.6642999999999972
 20
-3.7760999999999996
 30
0.0
 11
-0.48149999999999693
 21
-3.7309999999999945
 31
0.0
  0
LINE
  5
32A
330
2ED
100
AcDbEntity
  8
0
100
AcDbLine
 10
-0.8526999999999987
 20
-3.7760999999999996
 30
0.0
 11
-0.6642999999999972
 21
-3.7760999999999996
 31
0.0
  0
LINE
  5
32B
330
2ED
100
AcDbEntity
  8
0
100
AcDbLine
 10
-1.035499999999999
 20
-3.7309999999999945
 30
0.0
 11
-0.8526999999999987
 21
-3.7760999999999996
 31
0.0
  0
LINE
  5
32C
330
2ED
100
AcDbEntity
  8
0
100
AcDbLine
 10
-1.202300000000001
 20
-3.643499999999996
 30
0.0
 11
-1.035499999999999
 21
-3.7309999999999945
 31
0.0
  0
LINE
  5
32D
330
2ED
100
AcDbEntity
  8
0
100
AcDbLine
 10
-1.3432999999999993
 20
-3.518599999999992
 30
0.0
 11
-1.202300000000001
 21
-3.643499999999996
 31
0.0
  0
LINE
  5
32E
330
2ED
100
AcDbEntity
  8
0
100
AcDbLine
 10
-1.4502999999999986
 20
-3.363599999999991
 30
0.0
 11
-1.3432999999999993
 21
-3.518599999999992
 31
0.0
  0
LINE
  5
32F
330
2ED
100
AcDbEntity
  8
0
100
AcDbLine
 10
-1.5170999999999992
 20
-3.1875
 30
0.0
 11
-1.4502999999999986
 21
-3.363599999999991
 31
0.0
  0
LINE
  5
330
330
2ED
100
AcDbEntity
  8
0
100
AcDbLine
 10
-1.5397999999999996
 20
-3.0004999999999953
 30
0.0
 11
-1.5170999999999992
 21
-3.1875
 31
0.0
  0
LINE
  5
331
330
2ED
100
AcDbEntity
  8
0
100
AcDbLine
 10
-1.5170999999999992
 20
-2.8134999999999906
 30
0.0
 11
-1.5397999999999996
 21
-3.0004999999999953
 31
0.0
  0
LINE
  5
332
330
2ED
100
AcDbEntity
  8
0
100
AcDbLine
 10
-1.4502999999999986
 20
-2.6373999999999995
 30
0.0
 11
-1.5170999999999992
 21
-2.8134999999999906
 31
0.0
  0
LINE
  5
333
330
2ED
100
AcDbEntity
  8
0
100
AcDbLine
 10
-1.3432999999999993
 20
-2.4824999999999946
 30
0.0
 11
-1.4502999999999986
 21
-2.6373999999999995
 31
0.0
  0
LINE
  5
334
330
2ED
100
AcDbEntity
  8
0
100
AcDbLine
 10
-1.202300000000001
 20
-2.357599999999991
 30
0.0
 11
-1.3432999999999993
 21
-2.4824999999999946
 31
0.0
  0
LINE
  5
335
330
2ED
100
AcDbEntity
  8
0
100
AcDbLine
 10
-1.035499999999999
 20
-2.269999999999996
 30
0.0
 11
-1.202300000000001
 21
-2.357599999999991
 31
0.0
  0
LINE
  5
336
330
2ED
100
AcDbEntity
  8
0
100
AcDbLine
 10
-0.8526999999999987
 20
-2.2249999999999943
 30
0.0
 11
-1.035499999999999
 21
-2.269999999999996
 31
0.0
  0
LINE
  5
337
330
2ED
100
AcDbEntity
  8
0
100
AcDbLine
 10
-0.6642999999999972
 20
-2.2249999999999943
 30
0.0
 11
-0.8526999999999987
 21
-2.2249999999999943
 31
0.0
  0
LINE
  5
338
330
2ED
100
AcDbEntity
  8
0
100
AcDbLine
 10
-0.48149999999999693
 20
-2.269999999999996
 30
0.0
 11
-0.6642999999999972
 21
-2.2249999999999943
 31
0.0
  0
LINE
  5
339
330
2ED
100
AcDbEntity
  8
0
100
AcDbLine
 10
-0.314700000000002
 20
-2.357599999999991
 30
0.0
 11
-0.48149999999999693
 21
-2.269999999999996
 31
0.0
  0
LINE
  5
33A
330
2ED
100
AcDbEntity
  8
0
100
AcDbLine
 10
-0.17370000000000374
 20
-2.4824999999999946
 30
0.0
 11
-0.314700000000002
 21
-2.357599999999991
 31
0.0
  0
LINE
  5
33B
330
2ED
100
AcDbEntity
  8
0
100
AcDbLine
 10
-0.06669999999999732
 20
-2.6373999999999995
 30
0.0
 11
-0.17370000000000374
 21
-2.4824999999999946
 31
0.0
  0
LINE
  5
33C
330
2ED
100
AcDbEntity
  8
0
100
AcDbLine
 10
0.0
 20
-2.8134999999999906
 30
0.0
 11
-0.06669999999999732
 21
-2.6373999999999995
 31
0.0
  0
LINE
  5
33D
330
2ED
100
AcDbEntity
  8
0
100
AcDbLine
 10
0.022700000000000387
 20
-3.0004999999999953
 30
0.0
 11
0.0
 21
-2.8134999999999906
 31
0.0
  0
LINE
  5
33E
330
2ED
100
AcDbEntity
  8
0
100
AcDbLine
 10
-4.6875
 20
-3.1875
 30
0.0
 11
-4.6648
 21
-3.0004999999999953
 31
0.0
  0
LINE
  5
33F
330
2ED
100
AcDbEntity
  8
0
100
AcDbLine
 10
-4.754200000000001
 20
-3.363599999999991
 30
0.0
 11
-4.6875
 21
-3.1875
 31
0.0
  0
LINE
  5
340
330
2ED
100
AcDbEntity
  8
0
100
AcDbLine
 10
-4.8612
 20
-3.518599999999992
 30
0.0
 11
-4.754200000000001
 21
-3.363599999999991
 31
0.0
  0
LINE
  5
341
330
2ED
100
AcDbEntity
  8
0
100
AcDbLine
 10
-5.002200000000002
 20
-3.643499999999996
 30
0.0
 11
-4.8612
 21
-3.518599999999992
 31
0.0
  0
LINE
  5
342
330
2ED
100
AcDbEntity
  8
0
100
AcDbLine
 10
-5.1690000000000005
 20
-3.7309999999999945
 30
0.0
 11
-5.002200000000002
 21
-3.643499999999996
 31
0.0
  0
LINE
  5
343
330
2ED
100
AcDbEntity
  8
0
100
AcDbLine
 10
-5.351800000000001
 20
-3.7760999999999996
 30
0.0
 11
-5.1690000000000005
 21
-3.7309999999999945
 31
0.0
  0
LINE
  5
344
330
2ED
100
AcDbEntity
  8
0
100
AcDbLine
 10
-5.540199999999999
 20
-3.7760999999999996
 30
0.0
 11
-5.351800000000001
 21
-3.7760999999999996
 31
0.0
  0
LINE
  5
345
330
2ED
100
AcDbEntity
  8
0
100
AcDbLine
 10
-5.722999999999999
 20
-3.7309999999999945
 30
0.0
 11
-5.540199999999999
 21
-3.7760999999999996
 31
0.0
  0
LINE
  5
346
330
2ED
100
AcDbEntity
  8
0
100
AcDbLine
 10
-5.889800000000001
 20
-3.643499999999996
 30
0.0
 11
-5.722999999999999
 21
-3.7309999999999945
 31
0.0
  0
LINE
  5
347
330
2ED
100
AcDbEntity
  8
0
100
AcDbLine
 10
-6.030799999999999
 20
-3.518599999999992
 30
0.0
 11
-5.889800000000001
 21
-3.643499999999996
 31
0.0
  0
LINE
  5
348
330
2ED
100
AcDbEntity
  8
0
100
AcDbLine
 10
-6.137800000000002
 20
-3.363599999999991
 30
0.0
 11
-6.030799999999999
 21
-3.518599999999992
 31
0.0
  0
LINE
  5
349
330
2ED
100
AcDbEntity
  8
0
100
AcDbLine
 10
-6.204599999999999
 20
-3.1875
 30
0.0
 11
-6.137800000000002
 21
-3.363599999999991
 31
0.0
  0
LINE
  5
34A
330
2ED
100
AcDbEntity
  8
0
100
AcDbLine
 10
-6.2273
 20
-3.0004999999999953
 30
0.0
 11
-6.204599999999999
 21
-3.1875
 31
0.0
  0
LINE
  5
34B
330
2ED
100
AcDbEntity
  8
0
100
AcDbLine
 10
-6.204599999999999
 20
-2.8134999999999906
 30
0.0
 11
-6.2273
 21
-3.0004999999999953
 31
0.0
  0
LINE
  5
34C
330
2ED
100
AcDbEntity
  8
0
100
AcDbLine
 10
-6.137800000000002
 20
-2.6373999999999995
 30
0.0
 11
-6.204599999999999
 21
-2.8134999999999906
 31
0.0
  0
LINE
  5
34D
330
2ED
100
AcDbEntity
  8
0
100
AcDbLine
 10
-6.030799999999999
 20
-2.4824999999999946
 30
0.0
 11
-6.137800000000002
 21
-2.6373999999999995
 31
0.0
  0
LINE
  5
34E
330
2ED
100
AcDbEntity
  8
0
100
AcDbLine
 10
-5.889800000000001
 20
-2.357599999999991
 30
0.0
 11
-6.030799999999999
 21
-2.4824999999999946
 31
0.0
  0
LINE
  5
34F
330
2ED
100
AcDbEntity
  8
0
100
AcDbLine
 10
-5.722999999999999
 20
-2.269999999999996
 30
0.0
 11
-5.889800000000001
 21
-2.357599999999991
 31
0.0
  0
LINE
  5
350
330
2ED
100
AcDbEntity
  8
0
100
AcDbLine
 10
-5.540199999999999
 20
-2.2249999999999943
 30
0.0
 11
-5.722999999999999
 21
-2.269999999999996
 31
0.0
  0
LINE
  5
351
330
2ED
100
AcDbEntity
  8
0
100
AcDbLine
 10
-5.351800000000001
 20
-2.2249999999999943
 30
0.0
 11
-5.540199999999999
 21
-2.2249999999999943
 31
0.0
  0
LINE
  5
352
330
2ED
100
AcDbEntity
  8
0
100
AcDbLine
 10
-5.1690000000000005
 20
-2.269999999999996
 30
0.0
 11
-5.351800000000001
 21
-2.2249999999999943
 31
0.0
  0
LINE
  5
353
330
2ED
100
AcDbEntity
  8
0
100
AcDbLine
 10
-5.002200000000002
 20
-2.357599999999991
 30
0.0
 11
-5.1690000000000005
 21
-2.269999999999996
 31
0.0
  0
LINE
  5
354
330
2ED
100
AcDbEntity
  8
0
100
AcDbLine
 10
-4.8612
 20
-2.4824999999999946
 30
0.0
 11
-5.002200000000002
 21
-2.357599999999991
 31
0.0
  0
LINE
  5
355
330
2ED
100
AcDbEntity
  8
0
100
AcDbLine
 10
-4.754200000000001
 20
-2.6373999999999995
 30
0.0
 11
-4.8612
 21
-2.4824999999999946
 31
0.0
  0
LINE
  5
356
330
2ED
100
AcDbEntity
  8
0
100
AcDbLine
 10
-4.6875
 20
-2.8134999999999906
 30
0.0
 11
-4.754200000000001
 21
-2.6373999999999995
 31
0.0
  0
LINE
  5
357
330
2ED
100
AcDbEntity
  8
0
100
AcDbLine
 10
-4.6648
 20
-3.0004999999999953
 30
0.0
 11
-4.6875
 21
-2.8134999999999906
 31
0.0
  0
LINE
  5
358
330
2ED
100
AcDbEntity
  8
0
100
AcDbLine
 10
-7.0085000000000015
 20
1.2495000000000047
 30
0.0
 11
-7.0085000000000015
 21
-4.062999999999995
 31
0.0
  0
LINE
  5
359
330
2ED
100
AcDbEntity
  8
0
100
AcDbLine
 10
0.804000000000002
 20
1.2495000000000047
 30
0.0
 11
-7.0085000000000015
 21
1.2495000000000047
 31
0.0
  0
LINE
  5
35A
330
2ED
100
AcDbEntity
  8
0
100
AcDbLine
 10
0.804000000000002
 20
-4.062999999999995
 30
0.0
 11
0.804000000000002
 21
1.2495000000000047
 31
0.0
  0
LINE
  5
35B
330
2ED
100
AcDbEntity
  8
0
100
AcDbLine
 10
-7.0085000000000015
 20
-4.062999999999995
 30
0.0
 11
0.804000000000002
 21
-4.062999999999995
 31
0.0
  0
ENDBLK
  5
2EF
330
2ED
100
AcDbEntity
  8
0
100
AcDbBlockEnd
  0
BLOCK
  5
35F
330
35E
100
AcDbEntity
  8
0
100
AcDbBlockBegin
  2
77506019-842a-42a1-84ac-5383645208ed
 70
0
 10
0.0
 20
0.0
 30
0.0
  3
77506019-842a-42a1-84ac-5383645208ed
  1

  0
ENDBLK
  5
360
330
35E
100
AcDbEntity
  8
0
100
AcDbBlockEnd
  0
BLOCK
  5
362
330
361
100
AcDbEntity
  8
0
100
AcDbBlockBegin
  2
9732ea8f-3ef2-46b2-b5ab-d397648848cc
 70
0
 10
0.0
 20
0.0
 30
0.0
  3
9732ea8f-3ef2-46b2-b5ab-d397648848cc
  1

  0
LINE
  5
364
330
361
100
AcDbEntity
  8
0
100
AcDbLine
 10
0.0
 20
0.0
 30
0.0
 11
0.0
 21
-1.25
 31
0.0
  0
LINE
  5
365
330
361
100
AcDbEntity
  8
0
100
AcDbLine
 10
0.2406000000000006
 20
-1.2715999999999994
 30
0.0
 11
0.2605000000000004
 21
-1.1719000000000008
 31
0.0
  0
LINE
  5
366
330
361
100
AcDbEntity
  8
0
100
AcDbLine
 10
0.18419999999999703
 20
-1.3560000000000016
 30
0.0
 11
0.2406000000000006
 21
-1.2715999999999994
 31
0.0
  0
LINE
  5
367
330
361
100
AcDbEntity
  8
0
100
AcDbLine
 10
0.09969999999999857
 20
-1.4125000000000014
 30
0.0
 11
0.18419999999999703
 21
-1.3560000000000016
 31
0.0
  0
LINE
  5
368
330
361
100
AcDbEntity
  8
0
100
AcDbLine
 10
0.0
 20
-1.432299999999998
 30
0.0
 11
0.09969999999999857
 21
-1.4125000000000014
 31
0.0
  0
LINE
  5
369
330
361
100
AcDbEntity
  8
0
100
AcDbLine
 10
-0.09960000000000235
 20
-1.4125000000000014
 30
0.0
 11
0.0
 21
-1.432299999999998
 31
0.0
  0
LINE
  5
36A
330
361
100
AcDbEntity
  8
0
100
AcDbLine
 10
-0.18410000000000082
 20
-1.3560000000000016
 30
0.0
 11
-0.09960000000000235
 21
-1.4125000000000014
 31
0.0
  0
LINE
  5
36B
330
361
100
AcDbEntity
  8
0
100
AcDbLine
 10
-0.24050000000000438
 20
-1.2715999999999994
 30
0.0
 11
-0.18410000000000082
 21
-1.3560000000000016
 31
0.0
  0
LINE
  5
36C
330
361
100
AcDbEntity
  8
0
100
AcDbLine
 10
-0.2604000000000042
 20
-1.1719000000000008
 30
0.0
 11
-0.24050000000000438
 21
-1.2715999999999994
 31
0.0
  0
LINE
  5
36D
330
361
100
AcDbEntity
  8
0
100
AcDbLine
 10
-0.24050000000000438
 20
-1.0722000000000023
 30
0.0
 11
-0.2604000000000042
 21
-1.1719000000000008
 31
0.0
  0
LINE
  5
36E
330
361
100
AcDbEntity
  8
0
100
AcDbLine
 10
-0.18410000000000082
 20
-0.9878
 30
0.0
 11
-0.24050000000000438
 21
-1.0722000000000023
 31
0.0
  0
LINE
  5
36F
330
361
100
AcDbEntity
  8
0
100
AcDbLine
 10
-0.09960000000000235
 20
-0.9313000000000002
 30
0.0
 11
-0.18410000000000082
 21
-0.9878
 31
0.0
  0
LINE
  5
370
330
361
100
AcDbEntity
  8
0
100
AcDbLine
 10
0.0
 20
-0.9114999999999966
 30
0.0
 11
-0.09960000000000235
 21
-0.9313000000000002
 31
0.0
  0
LINE
  5
371
330
361
100
AcDbEntity
  8
0
100
AcDbLine
 10
0.09969999999999857
 20
-0.9313000000000002
 30
0.0
 11
0.0
 21
-0.9114999999999966
 31
0.0
  0
LINE
  5
372
330
361
100
AcDbEntity
  8
0
100
AcDbLine
 10
0.18419999999999703
 20
-0.9878
 30
0.0
 11
0.09969999999999857
 21
-0.9313000000000002
 31
0.0
  0
LINE
  5
373
330
361
100
AcDbEntity
  8
0
100
AcDbLine
 10
0.2406000000000006
 20
-1.0722000000000023
 30
0.0
 11
0.18419999999999703
 21
-0.9878
 31
0.0
  0
LINE
  5
374
330
361
100
AcDbEntity
  8
0
100
AcDbLine
 10
0.2605000000000004
 20
-1.1719000000000008
 30
0.0
 11
0.2406000000000006
 21
-1.0722000000000023
 31
0.0
  0
LINE
  5
375
330
361
100
AcDbEntity
  8
0
100
AcDbLine
 10
-2.6041000000000025
 20
-0.6510999999999996
 30
0.0
 11
-2.6041000000000025
 21
-4.192699999999995
 31
0.0
  0
LINE
  5
376
330
361
100
AcDbEntity
  8
0
100
AcDbLine
 10
-2.5910999999999973
 20
-0.5351999999999961
 30
0.0
 11
-2.6041000000000025
 21
-0.6510999999999996
 31
0.0
  0
LINE
  5
377
330
361
100
AcDbEntity
  8
0
100
AcDbLine
 10
-2.552500000000002
 20
-0.42509999999999337
 30
0.0
 11
-2.5910999999999973
 21
-0.5351999999999961
 31
0.0
  0
LINE
  5
378
330
361
100
AcDbEntity
  8
0
100
AcDbLine
 10
-2.4905000000000044
 20
-0.32629999999999626
 30
0.0
 11
-2.552500000000002
 21
-0.42509999999999337
 31
0.0
  0
LINE
  5
379
330
361
100
AcDbEntity
  8
0
100
AcDbLine
 10
-2.4080000000000013
 20
-0.24390000000000356
 30
0.0
 11
-2.4905000000000044
 21
-0.32629999999999626
 31
0.0
  0
LINE
  5
37A
330
361
100
AcDbEntity
  8
0
100
AcDbLine
 10
-2.3093000000000004
 20
-0.18180000000000263
 30
0.0
 11
-2.4080000000000013
 21
-0.24390000000000356
 31
0.0
  0
LINE
  5
37B
330
361
100
AcDbEntity
  8
0
100
AcDbLine
 10
-2.1991999999999976
 20
-0.14330000000000354
 30
0.0
 11
-2.3093000000000004
 21
-0.18180000000000263
 31
0.0
  0
LINE
  5
37C
330
361
100
AcDbEntity
  8
0
100
AcDbLine
 10
-2.0833000000000013
 20
-0.130199999999995
 30
0.0
 11
-2.1991999999999976
 21
-0.14330000000000354
 31
0.0
  0
LINE
  5
37D
330
361
100
AcDbEntity
  8
0
100
AcDbLine
 10
2.0833999999999975
 20
-0.130199999999995
 30
0.0
 11
-2.0833000000000013
 21
-0.130199999999995
 31
0.0
  0
LINE
  5
37E
330
361
100
AcDbEntity
  8
0
100
AcDbLine
 10
2.199300000000001
 20
-0.14330000000000354
 30
0.0
 11
2.0833999999999975
 21
-0.130199999999995
 31
0.0
  0
LINE
  5
37F
330
361
100
AcDbEntity
  8
0
100
AcDbLine
 10
2.3093999999999966
 20
-0.18180000000000263
 30
0.0
 11
2.199300000000001
 21
-0.14330000000000354
 31
0.0
  0
LINE
  5
380
330
361
100
AcDbEntity
  8
0
100
AcDbLine
 10
2.4080999999999975
 20
-0.24390000000000356
 30
0.0
 11
2.3093999999999966
 21
-0.18180000000000263
 31
0.0
  0
LINE
  5
381
330
361
100
AcDbEntity
  8
0
100
AcDbLine
 10
2.4906000000000006
 20
-0.32629999999999626
 30
0.0
 11
2.4080999999999975
 21
-0.24390000000000356
 31
0.0
  0
LINE
  5
382
330
361
100
AcDbEntity
  8
0
100
AcDbLine
 10
2.552599999999998
 20
-0.42509999999999337
 30
0.0
 11
2.4906000000000006
 21
-0.32629999999999626
 31
0.0
  0
LINE
  5
383
330
361
100
AcDbEntity
  8
0
100
AcDbLine
 10
2.5912000000000006
 20
-0.5351999999999961
 30
0.0
 11
2.552599999999998
 21
-0.42509999999999337
 31
0.0
  0
LINE
  5
384
330
361
100
AcDbEntity
  8
0
100
AcDbLine
 10
2.6041999999999987
 20
-0.6510999999999996
 30
0.0
 11
2.5912000000000006
 21
-0.5351999999999961
 31
0.0
  0
LINE
  5
385
330
361
100
AcDbEntity
  8
0
100
AcDbLine
 10
2.6041999999999987
 20
-4.192699999999995
 30
0.0
 11
2.6041999999999987
 21
-0.6510999999999996
 31
0.0
  0
LINE
  5
386
330
361
100
AcDbEntity
  8
0
100
AcDbLine
 10
2.5912000000000006
 20
-4.308599999999998
 30
0.0
 11
2.6041999999999987
 21
-4.192699999999995
 31
0.0
  0
LINE
  5
387
330
361
100
AcDbEntity
  8
0
100
AcDbLine
 10
2.552599999999998
 20
-4.418699999999994
 30
0.0
 11
2.5912000000000006
 21
-4.308599999999998
 31
0.0
  0
LINE
  5
388
330
361
100
AcDbEntity
  8
0
100
AcDbLine
 10
2.4906000000000006
 20
-4.517499999999998
 30
0.0
 11
2.552599999999998
 21
-4.418699999999994
 31
0.0
  0
LINE
  5
389
330
361
100
AcDbEntity
  8
0
100
AcDbLine
 10
2.4080999999999975
 20
-4.599899999999998
 30
0.0
 11
2.4906000000000006
 21
-4.517499999999998
 31
0.0
  0
LINE
  5
38A
330
361
100
AcDbEntity
  8
0
100
AcDbLine
 10
2.3093999999999966
 20
-4.661999999999999
 30
0.0
 11
2.4080999999999975
 21
-4.599899999999998
 31
0.0
  0
LINE
  5
38B
330
361
100
AcDbEntity
  8
0
100
AcDbLine
 10
2.199300000000001
 20
-4.700499999999998
 30
0.0
 11
2.3093999999999966
 21
-4.661999999999999
 31
0.0
  0
LINE
  5
38C
330
361
100
AcDbEntity
  8
0
100
AcDbLine
 10
2.0833999999999975
 20
-4.7136
 30
0.0
 11
2.199300000000001
 21
-4.700499999999998
 31
0.0
  0
LINE
  5
38D
330
361
100
AcDbEntity
  8
0
100
AcDbLine
 10
-2.0833000000000013
 20
-4.7136
 30
0.0
 11
2.0833999999999975
 21
-4.7136
 31
0.0
  0
LINE
  5
38E
330
361
100
AcDbEntity
  8
0
100
AcDbLine
 10
-2.1991999999999976
 20
-4.700499999999998
 30
0.0
 11
-2.0833000000000013
 21
-4.7136
 31
0.0
  0
LINE
  5
38F
330
361
100
AcDbEntity
  8
0
100
AcDbLine
 10
-2.3093000000000004
 20
-4.661999999999999
 30
0.0
 11
-2.1991999999999976
 21
-4.700499999999998
 31
0.0
  0
LINE
  5
390
330
361
100
AcDbEntity
  8
0
100
AcDbLine
 10
-2.4080000000000013
 20
-4.599899999999998
 30
0.0
 11
-2.3093000000000004
 21
-4.661999999999999
 31
0.0
  0
LINE
  5
391
330
361
100
AcDbEntity
  8
0
100
AcDbLine
 10
-2.4905000000000044
 20
-4.517499999999998
 30
0.0
 11
-2.4080000000000013
 21
-4.599899999999998
 31
0.0
  0
LINE
  5
392
330
361
100
AcDbEntity
  8
0
100
AcDbLine
 10
-2.552500000000002
 20
-4.418699999999994
 30
0.0
 11
-2.4905000000000044
 21
-4.517499999999998
 31
0.0
  0
LINE
  5
393
330
361
100
AcDbEntity
  8
0
100
AcDbLine
 10
-2.5910999999999973
 20
-4.308599999999998
 30
0.0
 11
-2.552500000000002
 21
-4.418699999999994
 31
0.0
  0
LINE
  5
394
330
361
100
AcDbEntity
  8
0
100
AcDbLine
 10
-2.6041000000000025
 20
-4.192699999999995
 30
0.0
 11
-2.5910999999999973
 21
-4.308599999999998
 31
0.0
  0
LINE
  5
395
330
361
100
AcDbEntity
  8
0
100
AcDbLine
 10
-2.6041000000000025
 20
-0.6510999999999996
 30
0.0
 11
-2.6041000000000025
 21
-4.192699999999995
 31
0.0
  0
LINE
  5
396
330
361
100
AcDbEntity
  8
0
100
AcDbLine
 10
-8.593699999999998
 20
0.1302000000000021
 30
0.0
 11
-8.593699999999998
 21
-4.973999999999997
 31
0.0
  0
LINE
  5
397
330
361
100
AcDbEntity
  8
0
100
AcDbLine
 10
2.864599999999996
 20
0.1302000000000021
 30
0.0
 11
-8.593699999999998
 21
0.1302000000000021
 31
0.0
  0
LINE
  5
398
330
361
100
AcDbEntity
  8
0
100
AcDbLine
 10
2.864599999999996
 20
-4.973999999999997
 30
0.0
 11
2.864599999999996
 21
0.1302000000000021
 31
0.0
  0
LINE
  5
399
330
361
100
AcDbEntity
  8
0
100
AcDbLine
 10
-8.593699999999998
 20
-4.973999999999997
 30
0.0
 11
2.864599999999996
 21
-4.973999999999997
 31
0.0
  0
ENDBLK
  5
363
330
361
100
AcDbEntity
  8
0
100
AcDbBlockEnd
  0
BLOCK
  5
39D
330
39C
100
AcDbEntity
  8
0
100
AcDbBlockBegin
  2
a5889bb1-ab94-4712-babf-a00ae1b3b239
 70
0
 10
0.0
 20
0.0
 30
0.0
  3
a5889bb1-ab94-4712-babf-a00ae1b3b239
  1

  0
ENDBLK
  5
39E
330
39C
100
AcDbEntity
  8
0
100
AcDbBlockEnd
  0
BLOCK
  5
3A0
330
39F
100
AcDbEntity
  8
0
100
AcDbBlockBegin
  2
b0e19da4-fba5-434f-9bbf-69af6c6781ba
 70
0
 10
0.0
 20
0.0
 30
0.0
  3
b0e19da4-fba5-434f-9bbf-69af6c6781ba
  1

  0
LINE
  5
3A2
330
39F
100
AcDbEntity
  8
0
100
AcDbLine
 10
0.0
 20
0.0
 30
0.0
 11
0.0
 21
-0.5728999999999971
 31
0.0
  0
LINE
  5
3A3
330
39F
100
AcDbEntity
  8
0
100
AcDbLine
 10
-0.5729000000000042
 20
0.0
 30
0.0
 11
0.0
 21
0.0
 31
0.0
  0
LINE
  5
3A4
330
39F
100
AcDbEntity
  8
0
100
AcDbLine
 10
-0.5729000000000042
 20
-0.15619999999999834
 30
0.0
 11
-0.5729000000000042
 21
0.0
 31
0.0
  0
LINE
  5
3A5
330
39F
100
AcDbEntity
  8
0
100
AcDbLine
 10
-1.0416999999999987
 20
-0.15619999999999834
 30
0.0
 11
-0.5729000000000042
 21
-0.15619999999999834
 31
0.0
  0
LINE
  5
3A6
330
39F
100
AcDbEntity
  8
0
100
AcDbLine
 10
-1.0416999999999987
 20
-0.5728999999999971
 30
0.0
 11
-1.0416999999999987
 21
-0.15619999999999834
 31
0.0
  0
LINE
  5
3A7
330
39F
100
AcDbEntity
  8
0
100
AcDbLine
 10
0.0
 20
-0.5728999999999971
 30
0.0
 11
0.0
 21
-0.5728999999999971
 31
0.0
  0
LINE
  5
3A8
330
39F
100
AcDbEntity
  8
0
100
AcDbLine
 10
-1.0416999999999987
 20
9.531300000000002
 30
0.0
 11
-0.5729000000000042
 21
9.531300000000002
 31
0.0
  0
LINE
  5
3A9
330
39F
100
AcDbEntity
  8
0
100
AcDbLine
 10
-1.0416999999999987
 20
9.947900000000004
 30
0.0
 11
-1.0416999999999987
 21
9.531300000000002
 31
0.0
  0
LINE
  5
3AA
330
39F
100
AcDbEntity
  8
0
100
AcDbLine
 10
0.0
 20
9.947900000000004
 30
0.0
 11
0.0
 21
9.947900000000004
 31
0.0
  0
LINE
  5
3AB
330
39F
100
AcDbEntity
  8
0
100
AcDbLine
 10
0.0
 20
9.375
 30
0.0
 11
0.0
 21
9.947900000000004
 31
0.0
  0
LINE
  5
3AC
330
39F
100
AcDbEntity
  8
0
100
AcDbLine
 10
-0.5729000000000042
 20
9.375
 30
0.0
 11
0.0
 21
9.375
 31
0.0
  0
LINE
  5
3AD
330
39F
100
AcDbEntity
  8
0
100
AcDbLine
 10
-0.5729000000000042
 20
9.531300000000002
 30
0.0
 11
-0.5729000000000042
 21
9.375
 31
0.0
  0
LINE
  5
3AE
330
39F
100
AcDbEntity
  8
0
100
AcDbLine
 10
-2.292499999999997
 20
-0.022199999999998
 30
0.0
 11
-1.0416999999999987
 21
-0.10419999999999874
 31
0.0
  0
LINE
  5
3AF
330
39F
100
AcDbEntity
  8
0
100
AcDbLine
 10
-3.5219999999999985
 20
0.22240000000000038
 30
0.0
 11
-2.292499999999997
 21
-0.022199999999998
 31
0.0
  0
LINE
  5
3B0
330
39F
100
AcDbEntity
  8
0
100
AcDbLine
 10
-4.709000000000003
 20
0.6253000000000029
 30
0.0
 11
-3.5219999999999985
 21
0.22240000000000038
 31
0.0
  0
LINE
  5
3B1
330
39F
100
AcDbEntity
  8
0
100
AcDbLine
 10
-5.833300000000001
 20
1.1798000000000002
 30
0.0
 11
-4.709000000000003
 21
0.6253000000000029
 31
0.0
  0
LINE
  5
3B2
330
39F
100
AcDbEntity
  8
0
100
AcDbLine
 10
-6.875599999999999
 20
1.8762000000000043
 30
0.0
 11
-5.833300000000001
 21
1.1798000000000002
 31
0.0
  0
LINE
  5
3B3
330
39F
100
AcDbEntity
  8
0
100
AcDbLine
 10
-7.818100000000001
 20
2.7027
 30
0.0
 11
-6.875599999999999
 21
1.8762000000000043
 31
0.0
  0
LINE
  5
3B4
330
39F
100
AcDbEntity
  8
0
100
AcDbLine
 10
-8.644599999999997
 20
3.6452000000000027
 30
0.0
 11
-7.818100000000001
 21
2.7027
 31
0.0
  0
LINE
  5
3B5
330
39F
100
AcDbEntity
  8
0
100
AcDbLine
 10
-9.341099999999997
 20
4.6875
 30
0.0
 11
-8.644599999999997
 21
3.6452000000000027
 31
0.0
  0
LINE
  5
3B6
330
39F
100
AcDbEntity
  8
0
100
AcDbLine
 10
-9.895499999999998
 20
5.811800000000005
 30
0.0
 11
-9.341099999999997
 21
4.6875
 31
0.0
  0
LINE
  5
3B7
330
39F
100
AcDbEntity
  8
0
100
AcDbLine
 10
-10.298499999999997
 20
6.998800000000003
 30
0.0
 11
-9.895499999999998
 21
5.811800000000005
 31
0.0
  0
LINE
  5
3B8
330
39F
100
AcDbEntity
  8
0
100
AcDbLine
 10
-10.543
 20
8.228300000000004
 30
0.0
 11
-10.298499999999997
 21
6.998800000000003
 31
0.0
  0
LINE
  5
3B9
330
39F
100
AcDbEntity
  8
0
100
AcDbLine
 10
-10.625
 20
9.479200000000006
 30
0.0
 11
-10.543
 21
8.228300000000004
 31
0.0
  0
LINE
  5
3BA
330
39F
100
AcDbEntity
  8
0
100
AcDbLine
 10
-10.625
 20
9.0625
 30
0.0
 11
-10.625
 21
9.479200000000006
 31
0.0
  0
LINE
  5
3BB
330
39F
100
AcDbEntity
  8
0
100
AcDbLine
 10
-1.0416999999999987
 20
9.0625
 30
0.0
 11
-10.625
 21
9.0625
 31
0.0
  0
LINE
  5
3BC
330
39F
100
AcDbEntity
  8
0
100
AcDbLine
 10
-1.0416999999999987
 20
9.479200000000006
 30
0.0
 11
-1.0416999999999987
 21
9.0625
 31
0.0
  0
LINE
  5
3BD
330
39F
100
AcDbEntity
  8
0
100
AcDbLine
 10
-10.625
 20
9.479200000000006
 30
0.0
 11
-1.0416999999999987
 21
9.479200000000006
 31
0.0
  0
ENDBLK
  5
3A1
330
39F
100
AcDbEntity
  8
0
100
AcDbBlockEnd
  0
BLOCK
  5
3C1
330
3C0
100
AcDbEntity
  8
0
100
AcDbBlockBegin
  2
67d208c2-2a94-4946-9b0b-b9707064573e
 70
0
 10
0.0
 20
0.0
 30
0.0
  3
67d208c2-2a94-4946-9b0b-b9707064573e
  1

  0
ENDBLK
  5
3C2
330
3C0
100
AcDbEntity
  8
0
100
AcDbBlockEnd
  0
BLOCK
  5
3C4
330
3C3
100
AcDbEntity
  8
0
100
AcDbBlockBegin
  2
a974758e-8918-454e-ab83-23a0ea03b284
 70
0
 10
0.0
 20
0.0
 30
0.0
  3
a974758e-8918-454e-ab83-23a0ea03b284
  1

  0
LINE
  5
3C6
330
3C3
100
AcDbEntity
  8
0
100
AcDbLine
 10
0.0
 20
0.0
 30
0.0
 11
0.0
 21
7.2916000000000025
 31
0.0
  0
LINE
  5
3C7
330
3C3
100
AcDbEntity
  8
0
100
AcDbLine
 10
-0.5207999999999942
 20
0.0
 30
0.0
 11
-0.5207999999999942
 21
7.2916000000000025
 31
0.0
  0
LINE
  5
3C8
330
3C3
100
AcDbEntity
  8
0
100
AcDbLine
 10
0.0
 20
-1.0416999999999987
 30
0.0
 11
0.0
 21
-1.0416999999999987
 31
0.0
  0
LINE
  5
3C9
330
3C3
100
AcDbEntity
  8
0
100
AcDbLine
 10
-0.5207999999999942
 20
0.0
 30
0.0
 11
-0.5207999999999942
 21
-1.0416999999999987
 31
0.0
  0
LINE
  5
3CA
330
3C3
100
AcDbEntity
  8
0
100
AcDbLine
 10
0.0
 20
0.0
 30
0.0
 11
-0.5207999999999942
 21
0.0
 31
0.0
  0
LINE
  5
3CB
330
3C3
100
AcDbEntity
  8
0
100
AcDbLine
 10
0.0
 20
-1.0416999999999987
 30
0.0
 11
0.0
 21
0.0
 31
0.0
  0
LINE
  5
3CC
330
3C3
100
AcDbEntity
  8
0
100
AcDbLine
 10
0.0
 20
8.333300000000001
 30
0.0
 11
0.0
 21
8.333300000000001
 31
0.0
  0
LINE
  5
3CD
330
3C3
100
AcDbEntity
  8
0
100
AcDbLine
 10
0.0
 20
7.2916000000000025
 30
0.0
 11
0.0
 21
8.333300000000001
 31
0.0
  0
LINE
  5
3CE
330
3C3
100
AcDbEntity
  8
0
100
AcDbLine
 10
-0.5207999999999942
 20
7.2916000000000025
 30
0.0
 11
0.0
 21
7.2916000000000025
 31
0.0
  0
LINE
  5
3CF
330
3C3
100
AcDbEntity
  8
0
100
AcDbLine
 10
-0.5207999999999942
 20
8.333300000000001
 30
0.0
 11
-0.5207999999999942
 21
7.2916000000000025
 31
0.0
  0
LINE
  5
3D0
330
3C3
100
AcDbEntity
  8
0
100
AcDbLine
 10
-0.3125
 20
0.0
 30
0.0
 11
-0.20829999999999416
 21
0.0
 31
0.0
  0
LINE
  5
3D1
330
3C3
100
AcDbEntity
  8
0
100
AcDbLine
 10
-0.3125
 20
7.2916000000000025
 30
0.0
 11
-0.3125
 21
0.0
 31
0.0
  0
LINE
  5
3D2
330
3C3
100
AcDbEntity
  8
0
100
AcDbLine
 10
-0.20829999999999416
 20
7.2916000000000025
 30
0.0
 11
-0.3125
 21
7.2916000000000025
 31
0.0
  0
LINE
  5
3D3
330
3C3
100
AcDbEntity
  8
0
100
AcDbLine
 10
-0.20829999999999416
 20
0.0
 30
0.0
 11
-0.20829999999999416
 21
7.2916000000000025
 31
0.0
  0
ENDBLK
  5
3C5
330
3C3
100
AcDbEntity
  8
0
100
AcDbBlockEnd
  0
BLOCK
  5
3D7
330
3D6
100
AcDbEntity
  8
0
100
AcDbBlockBegin
  2
cab018d3-188e-4e7a-8bad-cb4ede750325
 70
0
 10
0.0
 20
0.0
 30
0.0
  3
cab018d3-188e-4e7a-8bad-cb4ede750325
  1

  0
LINE
  5
3D9
330
3D6
100
AcDbEntity
  8
0
100
AcDbLine
 10
0.0
 20
0.0
 30
0.0
 11
0.0
 21
7.291599999999995
 31
0.0
  0
LINE
  5
3DA
330
3D6
100
AcDbEntity
  8
0
100
AcDbLine
 10
-0.5207999999999942
 20
0.0
 30
0.0
 11
-0.5207999999999942
 21
7.291599999999995
 31
0.0
  0
LINE
  5
3DB
330
3D6
100
AcDbEntity
  8
0
100
AcDbLine
 10
0.0
 20
-1.0417000000000058
 30
0.0
 11
0.0
 21
-1.0417000000000058
 31
0.0
  0
LINE
  5
3DC
330
3D6
100
AcDbEntity
  8
0
100
AcDbLine
 10
-0.5207999999999942
 20
0.0
 30
0.0
 11
-0.5207999999999942
 21
-1.0417000000000058
 31
0.0
  0
LINE
  5
3DD
330
3D6
100
AcDbEntity
  8
0
100
AcDbLine
 10
0.0
 20
0.0
 30
0.0
 11
-0.5207999999999942
 21
0.0
 31
0.0
  0
LINE
  5
3DE
330
3D6
100
AcDbEntity
  8
0
100
AcDbLine
 10
0.0
 20
-1.0417000000000058
 30
0.0
 11
0.0
 21
0.0
 31
0.0
  0
LINE
  5
3DF
330
3D6
100
AcDbEntity
  8
0
100
AcDbLine
 10
0.0
 20
8.333299999999994
 30
0.0
 11
0.0
 21
8.333299999999994
 31
0.0
  0
LINE
  5
3E0
330
3D6
100
AcDbEntity
  8
0
100
AcDbLine
 10
0.0
 20
7.291599999999995
 30
0.0
 11
0.0
 21
8.333299999999994
 31
0.0
  0
LINE
  5
3E1
330
3D6
100
AcDbEntity
  8
0
100
AcDbLine
 10
-0.5207999999999942
 20
7.291599999999995
 30
0.0
 11
0.0
 21
7.291599999999995
 31
0.0
  0
LINE
  5
3E2
330
3D6
100
AcDbEntity
  8
0
100
AcDbLine
 10
-0.5207999999999942
 20
8.333299999999994
 30
0.0
 11
-0.5207999999999942
 21
7.291599999999995
 31
0.0
  0
LINE
  5
3E3
330
3D6
100
AcDbEntity
  8
0
100
AcDbLine
 10
-0.3125
 20
0.0
 30
0.0
 11
-0.20829999999999416
 21
0.0
 31
0.0
  0
LINE
  5
3E4
330
3D6
100
AcDbEntity
  8
0
100
AcDbLine
 10
-0.3125
 20
7.291599999999995
 30
0.0
 11
-0.3125
 21
0.0
 31
0.0
  0
LINE
  5
3E5
330
3D6
100
AcDbEntity
  8
0
100
AcDbLine
 10
-0.20829999999999416
 20
7.291599999999995
 30
0.0
 11
-0.3125
 21
7.291599999999995
 31
0.0
  0
LINE
  5
3E6
330
3D6
100
AcDbEntity
  8
0
100
AcDbLine
 10
-0.20829999999999416
 20
0.0
 30
0.0
 11
-0.20829999999999416
 21
7.291599999999995
 31
0.0
  0
ENDBLK
  5
3D8
330
3D6
100
AcDbEntity
  8
0
100
AcDbBlockEnd
  0
BLOCK
  5
3EA
330
3E9
100
AcDbEntity
  8
0
100
AcDbBlockBegin
  2
09fa6e56-a6c4-48b4-800d-e5f69a6e13c8
 70
0
 10
0.0
 20
0.0
 30
0.0
  3
09fa6e56-a6c4-48b4-800d-e5f69a6e13c8
  1

  0
LINE
  5
3EC
330
3E9
100
AcDbEntity
  8
0
100
AcDbLine
 10
0.0
 20
0.0
 30
0.0
 11
0.0
 21
7.291700000000006
 31
0.0
  0
LINE
  5
3ED
330
3E9
100
AcDbEntity
  8
0
100
AcDbLine
 10
-0.5207999999999942
 20
0.0
 30
0.0
 11
-0.5207999999999942
 21
7.291700000000006
 31
0.0
  0
LINE
  5
3EE
330
3E9
100
AcDbEntity
  8
0
100
AcDbLine
 10
-0.5207999999999942
 20
0.0
 30
0.0
 11
-0.5207999999999942
 21
-1.0415999999999883
 31
0.0
  0
LINE
  5
3EF
330
3E9
100
AcDbEntity
  8
0
100
AcDbLine
 10
0.0
 20
0.0
 30
0.0
 11
-0.5207999999999942
 21
0.0
 31
0.0
  0
LINE
  5
3F0
330
3E9
100
AcDbEntity
  8
0
100
AcDbLine
 10
0.0
 20
-1.0415999999999883
 30
0.0
 11
0.0
 21
0.0
 31
0.0
  0
LINE
  5
3F1
330
3E9
100
AcDbEntity
  8
0
100
AcDbLine
 10
0.0
 20
8.333400000000005
 30
0.0
 11
0.0
 21
8.333400000000005
 31
0.0
  0
LINE
  5
3F2
330
3E9
100
AcDbEntity
  8
0
100
AcDbLine
 10
0.0
 20
7.291700000000006
 30
0.0
 11
0.0
 21
8.333400000000005
 31
0.0
  0
LINE
  5
3F3
330
3E9
100
AcDbEntity
  8
0
100
AcDbLine
 10
-0.5207999999999942
 20
7.291700000000006
 30
0.0
 11
0.0
 21
7.291700000000006
 31
0.0
  0
LINE
  5
3F4
330
3E9
100
AcDbEntity
  8
0
100
AcDbLine
 10
-0.5207999999999942
 20
8.333400000000005
 30
0.0
 11
-0.5207999999999942
 21
7.291700000000006
 31
0.0
  0
LINE
  5
3F5
330
3E9
100
AcDbEntity
  8
0
100
AcDbLine
 10
-0.3125
 20
0.0
 30
0.0
 11
-0.20829999999999416
 21
0.0
 31
0.0
  0
LINE
  5
3F6
330
3E9
100
AcDbEntity
  8
0
100
AcDbLine
 10
-0.3125
 20
7.291700000000006
 30
0.0
 11
-0.3125
 21
0.0
 31
0.0
  0
LINE
  5
3F7
330
3E9
100
AcDbEntity
  8
0
100
AcDbLine
 10
-0.20829999999999416
 20
7.291700000000006
 30
0.0
 11
-0.3125
 21
7.291700000000006
 31
0.0
  0
LINE
  5
3F8
330
3E9
100
AcDbEntity
  8
0
100
AcDbLine
 10
-0.20829999999999416
 20
0.0
 30
0.0
 11
-0.20829999999999416
 21
7.291700000000006
 31
0.0
  0
ENDBLK
  5
3EB
330
3E9
100
AcDbEntity
  8
0
100
AcDbBlockEnd
  0
BLOCK
  5
3FC
330
3FB
100
AcDbEntity
  8
0
100
AcDbBlockBegin
  2
a0ff0c8f-5aba-47f0-9c4c-786cbc0ecc2a
 70
0
 10
0.0
 20
0.0
 30
0.0
  3
a0ff0c8f-5aba-47f0-9c4c-786cbc0ecc2a
  1

  0
LINE
  5
3FE
330
3FB
100
AcDbEntity
  8
0
100
AcDbLine
 10
0.0
 20
0.0
 30
0.0
 11
-7.291699999999999
 21
0.0
 31
0.0
  0
LINE
  5
3FF
330
3FB
100
AcDbEntity
  8
0
100
AcDbLine
 10
0.0
 20
-0.5207999999999942
 30
0.0
 11
-7.291699999999999
 21
-0.5208999999999975
 31
0.0
  0
LINE
  5
400
330
3FB
100
AcDbEntity
  8
0
100
AcDbLine
 10
0.0
 20
-0.5207999999999942
 30
0.0
 11
1.0416999999999987
 21
-0.5207999999999942
 31
0.0
  0
LINE
  5
401
330
3FB
100
AcDbEntity
  8
0
100
AcDbLine
 10
0.0
 20
0.0
 30
0.0
 11
0.0
 21
-0.5207999999999942
 31
0.0
  0
LINE
  5
402
330
3FB
100
AcDbEntity
  8
0
100
AcDbLine
 10
1.0416999999999987
 20
0.0
 30
0.0
 11
0.0
 21
0.0
 31
0.0
  0
LINE
  5
403
330
3FB
100
AcDbEntity
  8
0
100
AcDbLine
 10
-7.291699999999999
 20
0.0
 30
0.0
 11
-8.333300000000001
 21
0.0
 31
0.0
  0
LINE
  5
404
330
3FB
100
AcDbEntity
  8
0
100
AcDbLine
 10
-7.291699999999999
 20
-0.5208999999999975
 30
0.0
 11
-7.291699999999999
 21
0.0
 31
0.0
  0
LINE
  5
405
330
3FB
100
AcDbEntity
  8
0
100
AcDbLine
 10
-8.333300000000001
 20
-0.5208999999999975
 30
0.0
 11
-7.291699999999999
 21
-0.5208999999999975
 31
0.0
  0
LINE
  5
406
330
3FB
100
AcDbEntity
  8
0
100
AcDbLine
 10
0.0
 20
-0.3125
 30
0.0
 11
0.0
 21
-0.20829999999999416
 31
0.0
  0
LINE
  5
407
330
3FB
100
AcDbEntity
  8
0
100
AcDbLine
 10
-7.291699999999999
 20
-0.3125
 30
0.0
 11
0.0
 21
-0.3125
 31
0.0
  0
LINE
  5
408
330
3FB
100
AcDbEntity
  8
0
100
AcDbLine
 10
-7.291699999999999
 20
-0.20839999999999748
 30
0.0
 11
-7.291699999999999
 21
-0.3125
 31
0.0
  0
LINE
  5
409
330
3FB
100
AcDbEntity
  8
0
100
AcDbLine
 10
0.0
 20
-0.20829999999999416
 30
0.0
 11
-7.291699999999999
 21
-0.20839999999999748
 31
0.0
  0
ENDBLK
  5
3FD
330
3FB
100
AcDbEntity
  8
0
100
AcDbBlockEnd
  0
BLOCK
  5
40D
330
40C
100
AcDbEntity
  8
0
100
AcDbBlockBegin
  2
5cd631d9-9183-486c-84ed-a191c6d01ef0
 70
0
 10
0.0
 20
0.0
 30
0.0
  3
5cd631d9-9183-486c-84ed-a191c6d01ef0
  1

  0
LINE
  5
40F
330
40C
100
AcDbEntity
  8
0
100
AcDbLine
 10
0.0
 20
0.0
 30
0.0
 11
0.0
 21
-7.291699999999999
 31
0.0
  0
LINE
  5
410
330
40C
100
AcDbEntity
  8
0
100
AcDbLine
 10
0.5207999999999977
 20
0.0
 30
0.0
 11
0.5207999999999977
 21
-7.291699999999999
 31
0.0
  0
LINE
  5
411
330
40C
100
AcDbEntity
  8
0
100
AcDbLine
 10
0.5207999999999977
 20
0.0
 30
0.0
 11
0.5207999999999977
 21
1.0417000000000058
 31
0.0
  0
LINE
  5
412
330
40C
100
AcDbEntity
  8
0
100
AcDbLine
 10
0.0
 20
0.0
 30
0.0
 11
0.5207999999999977
 21
0.0
 31
0.0
  0
LINE
  5
413
330
40C
100
AcDbEntity
  8
0
100
AcDbLine
 10
0.0
 20
1.0417000000000058
 30
0.0
 11
0.0
 21
0.0
 31
0.0
  0
LINE
  5
414
330
40C
100
AcDbEntity
  8
0
100
AcDbLine
 10
0.0
 20
-7.291699999999999
 30
0.0
 11
0.0
 21
-8.333299999999994
 31
0.0
  0
LINE
  5
415
330
40C
100
AcDbEntity
  8
0
100
AcDbLine
 10
0.5207999999999977
 20
-7.291699999999999
 30
0.0
 11
0.0
 21
-7.291699999999999
 31
0.0
  0
LINE
  5
416
330
40C
100
AcDbEntity
  8
0
100
AcDbLine
 10
0.5207999999999977
 20
-8.333299999999994
 30
0.0
 11
0.5207999999999977
 21
-7.291699999999999
 31
0.0
  0
LINE
  5
417
330
40C
100
AcDbEntity
  8
0
100
AcDbLine
 10
0.3125
 20
0.0
 30
0.0
 11
0.2082999999999977
 21
0.0
 31
0.0
  0
LINE
  5
418
330
40C
100
AcDbEntity
  8
0
100
AcDbLine
 10
0.3125
 20
-7.291699999999999
 30
0.0
 11
0.3125
 21
0.0
 31
0.0
  0
LINE
  5
419
330
40C
100
AcDbEntity
  8
0
100
AcDbLine
 10
0.2082999999999977
 20
-7.291699999999999
 30
0.0
 11
0.3125
 21
-7.291699999999999
 31
0.0
  0
LINE
  5
41A
330
40C
100
AcDbEntity
  8
0
100
AcDbLine
 10
0.2082999999999977
 20
0.0
 30
0.0
 11
0.2082999999999977
 21
-7.291699999999999
 31
0.0
  0
ENDBLK
  5
40E
330
40C
100
AcDbEntity
  8
0
100
AcDbBlockEnd
  0
BLOCK
  5
41E
330
41D
100
AcDbEntity
  8
0
100
AcDbBlockBegin
  2
067540d5-5830-4e2f-908d-df1ae56bb338
 70
0
 10
0.0
 20
0.0
 30
0.0
  3
067540d5-5830-4e2f-908d-df1ae56bb338
  1

  0
LINE
  5
420
330
41D
100
AcDbEntity
  8
0
100
AcDbLine
 10
0.0
 20
0.0
 30
0.0
 11
7.291699999999999
 21
0.0
 31
0.0
  0
LINE
  5
421
330
41D
100
AcDbEntity
  8
0
100
AcDbLine
 10
0.0
 20
0.5208000000000084
 30
0.0
 11
7.291699999999999
 21
0.5208000000000084
 31
0.0
  0
LINE
  5
422
330
41D
100
AcDbEntity
  8
0
100
AcDbLine
 10
0.0
 20
0.5208000000000084
 30
0.0
 11
-1.0416999999999987
 21
0.5208000000000084
 31
0.0
  0
LINE
  5
423
330
41D
100
AcDbEntity
  8
0
100
AcDbLine
 10
0.0
 20
0.0
 30
0.0
 11
0.0
 21
0.5208000000000084
 31
0.0
  0
LINE
  5
424
330
41D
100
AcDbEntity
  8
0
100
AcDbLine
 10
-1.0416999999999987
 20
0.0
 30
0.0
 11
0.0
 21
0.0
 31
0.0
  0
LINE
  5
425
330
41D
100
AcDbEntity
  8
0
100
AcDbLine
 10
7.291699999999999
 20
0.0
 30
0.0
 11
8.333300000000001
 21
0.0
 31
0.0
  0
LINE
  5
426
330
41D
100
AcDbEntity
  8
0
100
AcDbLine
 10
7.291699999999999
 20
0.5208000000000084
 30
0.0
 11
7.291699999999999
 21
0.0
 31
0.0
  0
LINE
  5
427
330
41D
100
AcDbEntity
  8
0
100
AcDbLine
 10
8.333300000000001
 20
0.5208000000000084
 30
0.0
 11
7.291699999999999
 21
0.5208000000000084
 31
0.0
  0
LINE
  5
428
330
41D
100
AcDbEntity
  8
0
100
AcDbLine
 10
0.0
 20
0.3125
 30
0.0
 11
0.0
 21
0.20830000000000837
 31
0.0
  0
LINE
  5
429
330
41D
100
AcDbEntity
  8
0
100
AcDbLine
 10
7.291699999999999
 20
0.3125
 30
0.0
 11
0.0
 21
0.3125
 31
0.0
  0
LINE
  5
42A
330
41D
100
AcDbEntity
  8
0
100
AcDbLine
 10
7.291699999999999
 20
0.20830000000000837
 30
0.0
 11
7.291699999999999
 21
0.3125
 31
0.0
  0
LINE
  5
42B
330
41D
100
AcDbEntity
  8
0
100
AcDbLine
 10
0.0
 20
0.20830000000000837
 30
0.0
 11
7.291699999999999
 21
0.20830000000000837
 31
0.0
  0
ENDBLK
  5
41F
330
41D
100
AcDbEntity
  8
0
100
AcDbBlockEnd
  0
BLOCK
  5
42F
330
42E
100
AcDbEntity
  8
0
100
AcDbBlockBegin
  2
33d70c45-2596-4e2d-b921-4a78eef4de14
 70
0
 10
0.0
 20
0.0
 30
0.0
  3
33d70c45-2596-4e2d-b921-4a78eef4de14
  1

  0
LINE
  5
431
330
42E
100
AcDbEntity
  8
0
100
AcDbLine
 10
0.0
 20
0.0
 30
0.0
 11
-5.090395609537751
 21
0.0
 31
0.0
  0
LINE
  5
432
330
42E
100
AcDbEntity
  8
0
100
AcDbLine
 10
-5.090395609537751
 20
0.0
 30
0.0
 11
-17.866596579551697
 21
9.308079878489167
 31
0.0
  0
LINE
  5
433
330
42E
100
AcDbEntity
  8
0
100
AcDbLine
 10
-90.45001331965128
 20
0.25475729898492716
 30
0.0
 11
-46.00000874201456
 21
0.25475729898492716
 31
0.0
  0
LINE
  5
434
330
42E
100
AcDbEntity
  8
0
100
AcDbLine
 10
-104.72806278864542
 20
6.122074498691958
 30
0.0
 11
-104.72806278864542
 21
50.57207335428278
 31
0.0
  0
ENDBLK
  5
430
330
42E
100
AcDbEntity
  8
0
100
AcDbBlockEnd
  0
ENDSEC
  0
SECTION
  2
ENTITIES
  0
INSERT
  5
AD
330
17
100
AcDbEntity
  8
A-BEAM
100
AcDbBlockReference
  2
9cb83e69-5680-44e3-b9d0-d055a4ae5d64
 10
123.379
 20
50.981219909109285
 30
0.0
  0
INSERT
  5
BA
330
17
100
AcDbEntity
  8
A-BEAM
100
AcDbBlockReference
  2
0dc18129-ff1e-494f-b98f-881b8be7aeb6
 10
123.379
 20
18.688619909109292
 30
0.0
  0
INSERT
  5
C7
330
17
100
AcDbEntity
  8
A-BEAM
100
AcDbBlockReference
  2
ae46c62d-858e-4429-969e-186acec22a47
 10
123.379
 20
35.30521990910929
 30
0.0
  0
INSERT
  5
DB
330
17
100
AcDbEntity
  8
A-RAILING
100
AcDbBlockReference
  2
49a4ad3f-ec34-40af-91c2-93e5d28dec98
 10
96.8513
 20
57.334819909109285
 30
0.0
  0
INSERT
  5
FD
330
17
100
AcDbEntity
  8
A-PILE
100
AcDbBlockReference
  2
248617d9-73f1-4639-8562-2f023354178c
 10
15.2883
 20
34.03651990910929
 30
0.0
  0
INSERT
  5
11C
330
17
100
AcDbEntity
  8
A-PILE
100
AcDbBlockReference
  2
aad121a3-b16d-4ff3-a1cb-6bd92bec29d0
 10
15.2883
 20
49.71831990910928
 30
0.0
  0
INSERT
  5
13B
330
17
100
AcDbEntity
  8
A-PILE
100
AcDbBlockReference
  2
13cfcc7f-9e85-49f3-bd7b-01d109bdc8c7
 10
15.2883
 20
17.419919909109282
 30
0.0
  0
INSERT
  5
14D
330
17
100
AcDbEntity
  8
A-WALL
100
AcDbBlockReference
  2
274f322f-9fb1-4c32-97c3-39addcbc481e
 10
21.2167
 20
13.18981990910929
 30
0.0
  0
INSERT
  5
15C
330
17
100
AcDbEntity
  8
A-WALL
100
AcDbBlockReference
  2
4a65c3fe-8a52-4ed7-a9a7-09a0eeaffae1
 10
21.2166
 20
55.55641990910929
 30
0.0
  0
INSERT
  5
16B
330
17
100
AcDbEntity
  8
A-WALL
100
AcDbBlockReference
  2
00193bbe-3a77-4e48-a25d-2eca3b470854
 10
63.5833
 20
13.189719909109286
 30
0.0
  0
INSERT
  5
18A
330
17
100
AcDbEntity
  8
A-WALL
100
AcDbBlockReference
  2
ca594f99-9ff1-40ac-9a4a-2ee5fdf6b622
 10
64.625
 20
44.13141990910929
 30
0.0
  0
INSERT
  5
195
330
17
100
AcDbEntity
  8
A-WALL
100
AcDbBlockReference
  2
cc1d79e6-1169-4137-90d2-511de14e4b6c
 10
37.3
 20
56.64621990910929
 30
0.0
  0
INSERT
  5
1A0
330
17
100
AcDbEntity
  8
A-WALL
100
AcDbBlockReference
  2
0c4308e9-2b30-4fdd-bd74-87084b7efbe9
 10
46.7
 20
56.64621990910929
 30
0.0
  0
INSERT
  5
1AB
330
17
100
AcDbEntity
  8
A-WALL
100
AcDbBlockReference
  2
7d6eabf1-1033-4892-bd5e-988fd258f127
 10
54.0
 20
12.146219909109291
 30
0.0
  0
INSERT
  5
1B6
330
17
100
AcDbEntity
  8
A-WALL
100
AcDbBlockReference
  2
93c8dd1d-7ab9-4ff6-8952-bcac47c11652
 10
63.4
 20
12.146219909109291
 30
0.0
  0
INSERT
  5
1BF
330
17
100
AcDbEntity
  8
A-WALL
100
AcDbBlockReference
  2
f16723d7-a5a3-4900-ada6-5274871bac99
 10
64.6
 20
44.14621990910929
 30
0.0
  0
INSERT
  5
1C8
330
17
100
AcDbEntity
  8
A-WALL
100
AcDbBlockReference
  2
e505abca-c788-4188-93b1-9244b2fe3d75
 10
64.6
 20
32.94621990910929
 30
0.0
  0
INSERT
  5
1D1
330
17
100
AcDbEntity
  8
A-WALL
100
AcDbBlockReference
  2
697cf209-8c73-4fc6-8cae-808481d145ae
 10
64.6
 20
23.54621990910929
 30
0.0
  0
INSERT
  5
1F9
330
17
100
AcDbEntity
  8
A-STAIRFLIGHT
100
AcDbBlockReference
  2
63f51dba-0e39-40c3-a0bb-a5823adb80e7
 10
93.25
 20
72.47311990910929
 30
0.0
  0
INSERT
  5
209
330
17
100
AcDbEntity
  8
A-SLAB
100
AcDbBlockReference
  2
9383ec21-2b81-4976-8df5-c43dfd17bf04
 10
96.375
 20
12.148119909109283
 30
0.0
  0
INSERT
  5
217
330
17
100
AcDbEntity
  8
A-COLUMN
100
AcDbBlockReference
  2
0234c629-aa52-4f5c-883b-db329b489e7f
 10
100.59
 20
53.58541990910929
 30
0.0
  0
INSERT
  5
222
330
17
100
AcDbEntity
  8
A-COLUMN
100
AcDbBlockReference
  2
36bf6804-9504-488e-9fe0-b82f7c3fad75
 10
100.59
 20
37.909319909109286
 30
0.0
  0
INSERT
  5
22D
330
17
100
AcDbEntity
  8
A-COLUMN
100
AcDbBlockReference
  2
dbb825a7-38fe-4f42-81a3-87af3608af28
 10
100.59
 20
21.292719909109287
 30
0.0
  0
INSERT
  5
239
330
17
100
AcDbEntity
  8
A-DUCTSEGMENT
100
AcDbBlockReference
  2
02e58d74-b668-437e-b2f2-784e26eb48c1
 10
26.129
 20
16.27421990910929
 30
0.0
  0
INSERT
  5
242
330
17
100
AcDbEntity
  8
A-DUCTSEGMENT
100
AcDbBlockReference
  2
02a73541-1ea4-46f1-beac-9ba5473911eb
 10
26.129
 20
16.27421990910929
 30
0.0
  0
INSERT
  5
272
330
17
100
AcDbEntity
  8
A-PIPESEGMENT
100
AcDbBlockReference
  2
ea964ee2-9b26-416b-8f53-053d9ea35ae2
 10
27.8427
 20
15.702019909109282
 30
0.0
  0
INSERT
  5
287
330
17
100
AcDbEntity
  8
A-PIPESEGMENT
100
AcDbBlockReference
  2
907da1a8-b2c7-40dd-8487-1edb87196a80
 10
27.9673
 20
15.717119909109286
 30
0.0
  0
INSERT
  5
2A7
330
17
100
AcDbEntity
  8
A-FURNITURE
100
AcDbBlockReference
  2
8a75022e-29b2-429e-ba7b-ae96ccdd1da1
 10
32.4239
 20
40.861819909109286
 30
0.0
  0
INSERT
  5
2E8
330
17
100
AcDbEntity
  8
A-FURNITURE
100
AcDbBlockReference
  2
529db8e1-bb70-45a8-9ff0-c432d7d183d7
 10
91.2744
 20
15.44241990910929
 30
0.0
  0
INSERT
  5
35C
330
17
100
AcDbEntity
  8
A-ELECTRICAPPLIANCE
100
AcDbBlockReference
  2
d9e8bc0b-458d-4b3b-93f7-0da30d2f16ad
 10
35.3245
 20
53.675119909109284
 30
0.0
  0
INSERT
  5
39A
330
17
100
AcDbEntity
  8
A-SANITARYTERMINAL
100
AcDbBlockReference
  2
9732ea8f-3ef2-46b2-b5ab-d397648848cc
 10
44.7222
 20
54.79441990910929
 30
0.0
  0
INSERT
  5
3BE
330
17
100
AcDbEntity
  8
A-DOOR
100
AcDbBlockReference
  2
b0e19da4-fba5-434f-9bbf-69af6c6781ba
 10
64.625
 20
44.70431990910929
 30
0.0
  0
INSERT
  5
3D4
330
17
100
AcDbEntity
  8
A-WINDOW
100
AcDbBlockReference
  2
a974758e-8918-454e-ab83-23a0ea03b284
 10
64.625
 20
34.97361990910929
 30
0.0
  0
INSERT
  5
3E7
330
17
100
AcDbEntity
  8
A-WINDOW
100
AcDbBlockReference
  2
cab018d3-188e-4e7a-8bad-cb4ede750325
 10
64.625
 20
24.62051990910929
 30
0.0
  0
INSERT
  5
3F9
330
17
100
AcDbEntity
  8
A-WINDOW
100
AcDbBlockReference
  2
09fa6e56-a6c4-48b4-800d-e5f69a6e13c8
 10
64.625
 20
14.395519909109282
 30
0.0
  0
INSERT
  5
40A
330
17
100
AcDbEntity
  8
A-WINDOW
100
AcDbBlockReference
  2
a0ff0c8f-5aba-47f0-9c4c-786cbc0ecc2a
 10
45.6188
 20
56.598119909109286
 30
0.0
  0
INSERT
  5
41B
330
17
100
AcDbEntity
  8
A-WINDOW
100
AcDbBlockReference
  2
5cd631d9-9183-486c-84ed-a191c6d01ef0
 10
20.175
 20
38.420219909109285
 30
0.0
  0
INSERT
  5
42C
330
17
100
AcDbEntity
  8
A-WINDOW
100
AcDbBlockReference
  2
067540d5-5830-4e2f-908d-df1ae56bb338
 10
55.067
 20
12.148119909109283
 30
0.0
  0
INSERT
  5
435
330
17
100
AcDbEntity
  8
A-ANNOTATION
100
AcDbBlockReference
  2
33d70c45-2596-4e2d-b921-4a78eef4de14
 10
110.62500874201456
 20
6.026026819108736
 30
0.0
  0
ENDSEC
  0
SECTION
  2
OBJECTS
  0
DICTIONARY
  5
A
330
0
100
AcDbDictionary
280
0
281
1
  3
ACAD_COLOR
350
B
  3
ACAD_GROUP
350
C
  3
ACAD_LAYOUT
350
D
  3
ACAD_MATERIAL
350
E
  3
ACAD_MLEADERSTYLE
350
F
  3
ACAD_MLINESTYLE
350
10
  3
ACAD_PLOTSETTINGS
350
11
  3
ACAD_PLOTSTYLENAME
350
12
  3
ACAD_SCALELIST
350
14
  3
ACAD_TABLESTYLE
350
15
  3
ACAD_VISUALSTYLE
350
16
  3
EZDXF_META
350
2D
  0
DICTIONARY
  5
B
330
A
100
AcDbDictionary
280
0
281
1
  0
DICTIONARY
  5
C
330
A
100
AcDbDictionary
280
0
281
1
  0
DICTIONARY
  5
D
330
A
100
AcDbDictionary
280
0
281
1
  3
Model
350
1A
  3
Layout1
350
1E
  0
DICTIONARY
  5
E
330
A
100
AcDbDictionary
280
0
281
1
  3
ByBlock
350
1F
  3
ByLayer
350
20
  3
Global
350
21
  0
DICTIONARY
  5
F
330
A
100
AcDbDictionary
280
0
281
1
  3
Standard
350
2C
  0
DICTIONARY
  5
10
330
A
100
AcDbDictionary
280
0
281
1
  3
Standard
350
22
  0
DICTIONARY
  5
11
330
A
100
AcDbDictionary
280
0
281
1
  0
ACDBDICTIONARYWDFLT
  5
12
330
A
100
AcDbDictionary
280
0
281
1
  3
Normal
350
13
100
AcDbDictionaryWithDefault
340
13
  0
ACDBPLACEHOLDER
  5
13
330
12
  0
DICTIONARY
  5
14
330
A
100
AcDbDictionary
280
0
281
1
  0
DICTIONARY
  5
15
330
A
100
AcDbDictionary
280
0
281
1
  0
DICTIONARY
  5
16
330
A
100
AcDbDictionary
280
0
281
1
  3
2dWireframe
350
5A
  3
Basic
350
5B
  3
Brighten
350
5C
  3
ColorChange
350
5D
  3
Conceptual
350
5E
  3
Dim
350
5F
  3
EdgeColorOff
350
60
  3
Facepattern
350
61
  3
Flat
350
62
  3
FlatWithEdges
350
63
  3
Gouraud
350
64
  3
GouraudWithEdges
350
65
  3
Hidden
350
66
  3
JitterOff
350
67
  3
Linepattern
350
68
  3
Modeling
350
69
  3
OverhangOff
350
6A
  3
Realistic
350
6B
  3
Shaded
350
6C
  3
Shaded with edges
350
6D
  3
Shades of Gray
350
6E
  3
Sketchy
350
6F
  3
Thicken
350
70
  3
Wireframe
350
71
  3
X-Ray
350
72
  0
LAYOUT
  5
1A
330
D
100
AcDbPlotSettings
  1

  2
Adobe PDF
  4
A3
  6

 40
7.5
 41
20.0
 42
7.5
 43
20.0
 44
420.0
 45
297.0
 46
0.0
 47
0.0
 48
0.0
 49
0.0
140
0.0
141
0.0
142
1.0
143
1.0
 70
1024
 72
1
 73
0
 74
5
  7

 75
16
 76
0
 77
2
 78
300
147
1.0
148
0.0
149
0.0
100
AcDbLayout
  1
Model
 70
1
 71
0
 10
0.0
 20
0.0
 11
420.0
 21
297.0
 12
0.0
 22
0.0
 32
0.0
 14
1e+20
 24
1e+20
 34
1e+20
 15
-1e+20
 25
-1e+20
 35
-1e+20
146
0.0
 13
0.0
 23
0.0
 33
0.0
 16
1.0
 26
0.0
 36
0.0
 17
0.0
 27
1.0
 37
0.0
 76
1
330
17
  0
LAYOUT
  5
1E
330
D
100
AcDbPlotSettings
  1

  2
Adobe PDF
  4
A3
  6

 40
7.5
 41
20.0
 42
7.5
 43
20.0
 44
420.0
 45
297.0
 46
0.0
 47
0.0
 48
0.0
 49
0.0
140
0.0
141
0.0
142
1.0
143
1.0
 70
0
 72
1
 73
0
 74
5
  7

 75
16
 76
0
 77
2
 78
300
147
1.0
148
0.0
149
0.0
100
AcDbLayout
  1
Layout1
 70
1
 71
1
 10
0.0
 20
0.0
 11
420.0
 21
297.0
 12
0.0
 22
0.0
 32
0.0
 14
1e+20
 24
1e+20
 34
1e+20
 15
-1e+20
 25
-1e+20
 35
-1e+20
146
0.0
 13
0.0
 23
0.0
 33
0.0
 16
1.0
 26
0.0
 36
0.0
 17
0.0
 27
1.0
 37
0.0
 76
1
330
1B
  0
MATERIAL
  5
1F
102
{ACAD_REACTORS
330
E
102
}
330
E
100
AcDbMaterial
  1
ByBlock
  2

 70
0
 40
1.0
 71
1
 41
1.0
 91
-1023410177
 42
1.0
 72
1
  3

 73
1
 74
1
 75
1
 44
0.5
 73
0
 45
1.0
 46
1.0
 77
1
  4

 78
1
 79
1
170
1
 48
1.0
171
1
  6

172
1
173
1
174
1
140
1.0
141
1.0
175
1
  7

176
1
177
1
178
1
143
1.0
179
1
  8

270
1
271
1
272
1
145
1.0
146
1.0
273
1
  9

274
1
275
1
276
1
 42
1.0
 72
1
  3

 73
1
 74
1
 75
1
 94
63
  0
MATERIAL
  5
20
102
{ACAD_REACTORS
330
E
102
}
330
E
100
AcDbMaterial
  1
ByLayer
  2

 70
0
 40
1.0
 71
1
 41
1.0
 91
-1023410177
 42
1.0
 72
1
  3

 73
1
 74
1
 75
1
 44
0.5
 73
0
 45
1.0
 46
1.0
 77
1
  4

 78
1
 79
1
170
1
 48
1.0
171
1
  6

172
1
173
1
174
1
140
1.0
141
1.0
175
1
  7

176
1
177
1
178
1
143
1.0
179
1
  8

270
1
271
1
272
1
145
1.0
146
1.0
273
1
  9

274
1
275
1
276
1
 42
1.0
 72
1
  3

 73
1
 74
1
 75
1
 94
63
  0
MATERIAL
  5
21
102
{ACAD_REACTORS
330
E
102
}
330
E
100
AcDbMaterial
  1
Global
  2

 70
0
 40
1.0
 71
1
 41
1.0
 91
-1023410177
 42
1.0
 72
1
  3

 73
1
 74
1
 75
1
 44
0.5
 73
0
 45
1.0
 46
1.0
 77
1
  4

 78
1
 79
1
170
1
 48
1.0
171
1
  6

172
1
173
1
174
1
140
1.0
141
1.0
175
1
  7

176
1
177
1
178
1
143
1.0
179
1
  8

270
1
271
1
272
1
145
1.0
146
1.0
273
1
  9

274
1
275
1
276
1
 42
1.0
 72
1
  3

 73
1
 74
1
 75
1
 94
63
  0
MLINESTYLE
  5
22
102
{ACAD_REACTORS
330
10
102
}
330
10
100
AcDbMlineStyle
  2
Standard
 70
0
  3

 62
256
 51
90.0
 52
90.0
 71
2
 49
0.5
 62
256
  6
BYLAYER
 49
-0.5
 62
256
  6
BYLAYER
  0
MLEADERSTYLE
  5
2C
102
{ACAD_REACTORS
330
F
102
}
330
F
100
AcDbMLeaderStyle
179
2
170
2
171
1
172
0
 90
2
 40
0.0
 41
0.0
173
1
 91
-1056964608
 92
-2
290
1
 42
2.0
291
1
 43
8.0
  3
Standard
 44
4.0
300

342
29
174
1
175
1
176
0
178
1
 93
-1056964608
 45
4.0
292
0
297
0
 46
4.0
 94
-1056964608
 47
1.0
 49
1.0
140
1.0
294
1
141
0.0
177
0
142
1.0
295
0
296
0
143
3.75
271
0
272
9
273
9
  0
DICTIONARY
  5
2D
330
A
100
AcDbDictionary
281
1
  3
CREATED_BY_EZDXF
350
2E
  3
WRITTEN_BY_EZDXF
350
439
  0
DICTIONARYVAR
  5
2E
330
2D
100
DictionaryVariables
280
0
  1
1.1.4 @ 2024-02-17T16:10:21.325702+00:00
  0
VISUALSTYLE
  5
5A
102
{ACAD_REACTORS
330
16
102
}
330
16
100
AcDbVisualStyle
  2
2dWireframe
 70
4
177
3
291
0
 70
58
 90
2
176
1
 90
2
176
1
 90
0
176
1
 90
0
176
1
 40
0.6
176
1
 40
30.0
176
1
 62
7
420
16777215
176
1
 90
1
176
1
 90
4
176
1
 62
7
176
1
 62
257
176
1
 90
1
176
1
 90
1
176
1
 40
1.0
176
1
 90
8
176
1
 62
7
176
1
 40
1.0
176
1
 90
1
176
1
 90
6
176
1
 90
2
176
1
 62
7
176
1
 90
5
176
1
 90
0
176
1
 90
0
176
1
290
0
176
1
 90
1
176
1
 40
0.0
176
1
 90
0
176
1
290
1
176
1
290
1
176
1
290
0
176
1
290
0
176
1
290
0
176
1
290
0
176
1
290
0
176
1
290
0
176
1
290
0
176
1
 90
50
176
1
 40
0.0
176
1
 40
1.0
176
1
 90
0
176
1
 62
18
420
0
176
1
 90
50
176
1
 90
3
176
1
 62
5
420
255
176
1
290
0
176
1
 90
50
176
1
 90
50
176
1
 90
50
176
1
290
0
176
1
 90
50
176
1
 62
256
176
0
 40
1.0
176
0
 90
2
176
1
  1
strokes_ogs.tif
176
1
290
0
176
1
 40
1.0
176
1
 40
1.0
176
1
  0
VISUALSTYLE
  5
5B
102
{ACAD_REACTORS
330
16
102
}
330
16
100
AcDbVisualStyle
  2
Basic
 70
7
177
3
291
1
 70
58
 90
2
176
1
 90
2
176
1
 90
0
176
1
 90
1
176
1
 40
0.6
176
1
 40
30.0
176
1
 62
7
420
16777215
176
1
 90
1
176
1
 90
4
176
1
 62
7
176
1
 62
257
176
1
 90
1
176
1
 90
1
176
1
 40
1.0
176
1
 90
8
176
1
 62
7
176
1
 40
1.0
176
1
 90
1
176
1
 90
6
176
1
 90
2
176
1
 62
7
176
1
 90
5
176
1
 90
0
176
1
 90
0
176
1
290
0
176
1
 90
1
176
1
 40
0.0
176
1
 90
0
176
1
290
0
176
1
290
1
176
1
290
1
176
1
290
0
176
1
290
0
176
1
290
0
176
1
290
0
176
1
290
0
176
1
290
0
176
1
 90
50
176
1
 40
0.0
176
1
 40
1.0
176
1
 90
0
176
1
 62
18
420
0
176
1
 90
50
176
1
 90
3
176
1
 62
5
420
255
176
1
290
0
176
1
 90
50
176
1
 90
50
176
1
 90
50
176
1
290
0
176
1
 90
50
176
1
 62
256
176
0
 40
1.0
176
0
 90
2
176
1
  1
strokes_ogs.tif
176
1
290
0
176
1
 40
1.0
176
1
 40
1.0
176
1
  0
VISUALSTYLE
  5
5C
102
{ACAD_REACTORS
330
16
102
}
330
16
100
AcDbVisualStyle
  2
Brighten
 70
12
177
3
291
1
 70
58
 90
2
176
1
 90
2
176
1
 90
0
176
1
 90
2
176
1
 40
0.6
176
1
 40
30.0
176
1
 62
7
420
16777215
176
1
 90
1
176
1
 90
4
176
1
 62
7
176
1
 62
257
176
1
 90
1
176
1
 90
1
176
1
 40
1.0
176
1
 90
8
176
1
 62
7
176
1
 40
1.0
176
1
 90
1
176
1
 90
6
176
1
 90
2
176
1
 62
7
176
1
 90
5
176
1
 90
0
176
1
 90
0
176
1
290
0
176
1
 90
1
176
1
 40
0.0
176
1
 90
0
176
1
290
0
176
1
290
1
176
1
290
1
176
1
290
0
176
1
290
0
176
1
290
0
176
1
290
0
176
1
290
0
176
1
290
0
176
1
 90
50
176
1
 40
0.0
176
1
 40
1.0
176
1
 90
0
176
1
 62
18
420
0
176
1
 90
50
176
1
 90
3
176
1
 62
5
420
255
176
1
290
0
176
1
 90
50
176
1
 90
50
176
1
 90
50
176
1
290
0
176
1
 90
50
176
1
 62
256
176
0
 40
1.0
176
0
 90
2
176
1
  1
strokes_ogs.tif
176
1
290
0
176
1
 40
1.0
176
1
 40
1.0
176
1
  0
VISUALSTYLE
  5
5D
102
{ACAD_REACTORS
330
16
102
}
330
16
100
AcDbVisualStyle
  2
ColorChange
 70
16
177
3
291
1
 70
58
 90
2
176
1
 90
2
176
1
 90
0
176
1
 90
2
176
1
 40
0.6
176
1
 40
30.0
176
1
 62
7
420
16777215
176
1
 90
1
176
1
 90
4
176
1
 62
7
176
1
 62
257
176
1
 90
1
176
1
 90
1
176
1
 40
1.0
176
1
 90
8
176
1
 62
7
176
1
 40
1.0
176
1
 90
1
176
1
 90
6
176
1
 90
2
176
1
 62
7
176
1
 90
5
176
1
 90
0
176
1
 90
0
176
1
290
0
176
1
 90
1
176
1
 40
0.0
176
1
 90
0
176
1
290
0
176
1
290
1
176
1
290
1
176
1
290
0
176
1
290
0
176
1
290
0
176
1
290
0
176
1
290
0
176
1
290
0
176
1
 90
50
176
1
 40
0.0
176
1
 40
1.0
176
1
 90
0
176
1
 62
18
420
0
176
1
 90
50
176
1
 90
3
176
1
 62
5
420
255
176
1
290
0
176
1
 90
50
176
1
 90
50
176
1
 90
50
176
1
290
0
176
1
 90
50
176
1
 62
256
176
0
 40
1.0
176
0
 90
2
176
1
  1
strokes_ogs.tif
176
1
290
0
176
1
 40
1.0
176
1
 40
1.0
176
1
  0
VISUALSTYLE
  5
5E
102
{ACAD_REACTORS
330
16
102
}
330
16
100
AcDbVisualStyle
  2
Conceptual
 70
9
177
3
291
0
 70
58
 90
2
176
1
 90
2
176
1
 90
0
176
1
 90
3
176
1
 40
0.6
176
1
 40
30.0
176
1
 62
7
420
16777215
176
1
 90
1
176
1
 90
4
176
1
 62
7
176
1
 62
257
176
1
 90
1
176
1
 90
1
176
1
 40
1.0
176
1
 90
8
176
1
 62
7
176
1
 40
1.0
176
1
 90
1
176
1
 90
6
176
1
 90
2
176
1
 62
7
176
1
 90
5
176
1
 90
0
176
1
 90
0
176
1
290
0
176
1
 90
1
176
1
 40
0.0
176
1
 90
0
176
1
290
0
176
1
290
1
176
1
290
1
176
1
290
0
176
1
290
0
176
1
290
0
176
1
290
0
176
1
290
0
176
1
290
0
176
1
 90
50
176
1
 40
0.0
176
1
 40
1.0
176
1
 90
0
176
1
 62
18
420
0
176
1
 90
50
176
1
 90
3
176
1
 62
5
420
255
176
1
290
0
176
1
 90
50
176
1
 90
50
176
1
 90
50
176
1
290
0
176
1
 90
50
176
1
 62
256
176
0
 40
1.0
176
0
 90
2
176
1
  1
strokes_ogs.tif
176
1
290
0
176
1
 40
1.0
176
1
 40
1.0
176
1
  0
VISUALSTYLE
  5
5F
102
{ACAD_REACTORS
330
16
102
}
330
16
100
AcDbVisualStyle
  2
Dim
 70
11
177
3
291
1
 70
58
 90
2
176
1
 90
2
176
1
 90
0
176
1
 90
2
176
1
 40
0.6
176
1
 40
30.0
176
1
 62
7
420
16777215
176
1
 90
1
176
1
 90
4
176
1
 62
7
176
1
 62
257
176
1
 90
1
176
1
 90
1
176
1
 40
1.0
176
1
 90
8
176
1
 62
7
176
1
 40
1.0
176
1
 90
1
176
1
 90
6
176
1
 90
2
176
1
 62
7
176
1
 90
5
176
1
 90
0
176
1
 90
0
176
1
290
0
176
1
 90
1
176
1
 40
0.0
176
1
 90
0
176
1
290
0
176
1
290
1
176
1
290
1
176
1
290
0
176
1
290
0
176
1
290
0
176
1
290
0
176
1
290
0
176
1
290
0
176
1
 90
50
176
1
 40
0.0
176
1
 40
1.0
176
1
 90
0
176
1
 62
18
420
0
176
1
 90
50
176
1
 90
3
176
1
 62
5
420
255
176
1
290
0
176
1
 90
50
176
1
 90
50
176
1
 90
50
176
1
290
0
176
1
 90
50
176
1
 62
256
176
0
 40
1.0
176
0
 90
2
176
1
  1
strokes_ogs.tif
176
1
290
0
176
1
 40
1.0
176
1
 40
1.0
176
1
  0
VISUALSTYLE
  5
60
102
{ACAD_REACTORS
330
16
102
}
330
16
100
AcDbVisualStyle
  2
EdgeColorOff
 70
22
177
3
291
1
 70
58
 90
2
176
1
 90
2
176
1
 90
0
176
1
 90
2
176
1
 40
0.6
176
1
 40
30.0
176
1
 62
7
420
16777215
176
1
 90
1
176
1
 90
4
176
1
 62
7
176
1
 62
257
176
1
 90
1
176
1
 90
1
176
1
 40
1.0
176
1
 90
8
176
1
 62
7
176
1
 40
1.0
176
1
 90
1
176
1
 90
6
176
1
 90
2
176
1
 62
7
176
1
 90
5
176
1
 90
0
176
1
 90
0
176
1
290
0
176
1
 90
1
176
1
 40
0.0
176
1
 90
0
176
1
290
0
176
1
290
1
176
1
290
1
176
1
290
0
176
1
290
0
176
1
290
0
176
1
290
0
176
1
290
0
176
1
290
0
176
1
 90
50
176
1
 40
0.0
176
1
 40
1.0
176
1
 90
0
176
1
 62
18
420
0
176
1
 90
50
176
1
 90
3
176
1
 62
5
420
255
176
1
290
0
176
1
 90
50
176
1
 90
50
176
1
 90
50
176
1
290
0
176
1
 90
50
176
1
 62
256
176
0
 40
1.0
176
0
 90
2
176
1
  1
strokes_ogs.tif
176
1
290
0
176
1
 40
1.0
176
1
 40
1.0
176
1
  0
VISUALSTYLE
  5
61
102
{ACAD_REACTORS
330
16
102
}
330
16
100
AcDbVisualStyle
  2
Facepattern
 70
15
177
3
291
1
 70
58
 90
2
176
1
 90
2
176
1
 90
0
176
1
 90
2
176
1
 40
0.6
176
1
 40
30.0
176
1
 62
7
420
16777215
176
1
 90
1
176
1
 90
4
176
1
 62
7
176
1
 62
257
176
1
 90
1
176
1
 90
1
176
1
 40
1.0
176
1
 90
8
176
1
 62
7
176
1
 40
1.0
176
1
 90
1
176
1
 90
6
176
1
 90
2
176
1
 62
7
176
1
 90
5
176
1
 90
0
176
1
 90
0
176
1
290
0
176
1
 90
1
176
1
 40
0.0
176
1
 90
0
176
1
290
0
176
1
290
1
176
1
290
1
176
1
290
0
176
1
290
0
176
1
290
0
176
1
290
0
176
1
290
0
176
1
290
0
176
1
 90
50
176
1
 40
0.0
176
1
 40
1.0
176
1
 90
0
176
1
 62
18
420
0
176
1
 90
50
176
1
 90
3
176
1
 62
5
420
255
176
1
290
0
176
1
 90
50
176
1
 90
50
176
1
 90
50
176
1
290
0
176
1
 90
50
176
1
 62
256
176
0
 40
1.0
176
0
 90
2
176
1
  1
strokes_ogs.tif
176
1
290
0
176
1
 40
1.0
176
1
 40
1.0
176
1
  0
VISUALSTYLE
  5
62
102
{ACAD_REACTORS
330
16
102
}
330
16
100
AcDbVisualStyle
  2
Flat
 70
0
177
3
291
1
 70
58
 90
2
176
1
 90
2
176
1
 90
0
176
1
 90
2
176
1
 40
0.6
176
1
 40
30.0
176
1
 62
7
420
16777215
176
1
 90
1
176
1
 90
4
176
1
 62
7
176
1
 62
257
176
1
 90
1
176
1
 90
1
176
1
 40
1.0
176
1
 90
8
176
1
 62
7
176
1
 40
1.0
176
1
 90
1
176
1
 90
6
176
1
 90
2
176
1
 62
7
176
1
 90
5
176
1
 90
0
176
1
 90
0
176
1
290
0
176
1
 90
1
176
1
 40
0.0
176
1
 90
0
176
1
290
0
176
1
290
1
176
1
290
1
176
1
290
0
176
1
290
0
176
1
290
0
176
1
290
0
176
1
290
0
176
1
290
0
176
1
 90
50
176
1
 40
0.0
176
1
 40
1.0
176
1
 90
0
176
1
 62
18
420
0
176
1
 90
50
176
1
 90
3
176
1
 62
5
420
255
176
1
290
0
176
1
 90
50
176
1
 90
50
176
1
 90
50
176
1
290
0
176
1
 90
50
176
1
 62
256
176
0
 40
1.0
176
0
 90
2
176
1
  1
strokes_ogs.tif
176
1
290
0
176
1
 40
1.0
176
1
 40
1.0
176
1
  0
VISUALSTYLE
  5
63
102
{ACAD_REACTORS
330
16
102
}
330
16
100
AcDbVisualStyle
  2
FlatWithEdges
 70
1
177
3
291
1
 70
58
 90
2
176
1
 90
2
176
1
 90
0
176
1
 90
2
176
1
 40
0.6
176
1
 40
30.0
176
1
 62
7
420
16777215
176
1
 90
1
176
1
 90
4
176
1
 62
7
176
1
 62
257
176
1
 90
1
176
1
 90
1
176
1
 40
1.0
176
1
 90
8
176
1
 62
7
176
1
 40
1.0
176
1
 90
1
176
1
 90
6
176
1
 90
2
176
1
 62
7
176
1
 90
5
176
1
 90
0
176
1
 90
0
176
1
290
0
176
1
 90
1
176
1
 40
0.0
176
1
 90
0
176
1
290
0
176
1
290
1
176
1
290
1
176
1
290
0
176
1
290
0
176
1
290
0
176
1
290
0
176
1
290
0
176
1
290
0
176
1
 90
50
176
1
 40
0.0
176
1
 40
1.0
176
1
 90
0
176
1
 62
18
420
0
176
1
 90
50
176
1
 90
3
176
1
 62
5
420
255
176
1
290
0
176
1
 90
50
176
1
 90
50
176
1
 90
50
176
1
290
0
176
1
 90
50
176
1
 62
256
176
0
 40
1.0
176
0
 90
2
176
1
  1
strokes_ogs.tif
176
1
290
0
176
1
 40
1.0
176
1
 40
1.0
176
1
  0
VISUALSTYLE
  5
64
102
{ACAD_REACTORS
330
16
102
}
330
16
100
AcDbVisualStyle
  2
Gouraud
 70
2
177
3
291
1
 70
58
 90
2
176
1
 90
2
176
1
 90
0
176
1
 90
2
176
1
 40
0.6
176
1
 40
30.0
176
1
 62
7
420
16777215
176
1
 90
1
176
1
 90
4
176
1
 62
7
176
1
 62
257
176
1
 90
1
176
1
 90
1
176
1
 40
1.0
176
1
 90
8
176
1
 62
7
176
1
 40
1.0
176
1
 90
1
176
1
 90
6
176
1
 90
2
176
1
 62
7
176
1
 90
5
176
1
 90
0
176
1
 90
0
176
1
290
0
176
1
 90
1
176
1
 40
0.0
176
1
 90
0
176
1
290
0
176
1
290
1
176
1
290
1
176
1
290
0
176
1
290
0
176
1
290
0
176
1
290
0
176
1
290
0
176
1
290
0
176
1
 90
50
176
1
 40
0.0
176
1
 40
1.0
176
1
 90
0
176
1
 62
18
420
0
176
1
 90
50
176
1
 90
3
176
1
 62
5
420
255
176
1
290
0
176
1
 90
50
176
1
 90
50
176
1
 90
50
176
1
290
0
176
1
 90
50
176
1
 62
256
176
0
 40
1.0
176
0
 90
2
176
1
  1
strokes_ogs.tif
176
1
290
0
176
1
 40
1.0
176
1
 40
1.0
176
1
  0
VISUALSTYLE
  5
65
102
{ACAD_REACTORS
330
16
102
}
330
16
100
AcDbVisualStyle
  2
GouraudWithEdges
 70
3
177
3
291
1
 70
58
 90
2
176
1
 90
2
176
1
 90
0
176
1
 90
2
176
1
 40
0.6
176
1
 40
30.0
176
1
 62
7
420
16777215
176
1
 90
1
176
1
 90
4
176
1
 62
7
176
1
 62
257
176
1
 90
1
176
1
 90
1
176
1
 40
1.0
176
1
 90
8
176
1
 62
7
176
1
 40
1.0
176
1
 90
1
176
1
 90
6
176
1
 90
2
176
1
 62
7
176
1
 90
5
176
1
 90
0
176
1
 90
0
176
1
290
0
176
1
 90
1
176
1
 40
0.0
176
1
 90
0
176
1
290
0
176
1
290
1
176
1
290
1
176
1
290
0
176
1
290
0
176
1
290
0
176
1
290
0
176
1
290
0
176
1
290
0
176
1
 90
50
176
1
 40
0.0
176
1
 40
1.0
176
1
 90
0
176
1
 62
18
420
0
176
1
 90
50
176
1
 90
3
176
1
 62
5
420
255
176
1
290
0
176
1
 90
50
176
1
 90
50
176
1
 90
50
176
1
290
0
176
1
 90
50
176
1
 62
256
176
0
 40
1.0
176
0
 90
2
176
1
  1
strokes_ogs.tif
176
1
290
0
176
1
 40
1.0
176
1
 40
1.0
176
1
  0
VISUALSTYLE
  5
66
102
{ACAD_REACTORS
330
16
102
}
330
16
100
AcDbVisualStyle
  2
Hidden
 70
6
177
3
291
0
 70
58
 90
2
176
1
 90
2
176
1
 90
0
176
1
 90
1
176
1
 40
0.6
176
1
 40
30.0
176
1
 62
7
420
16777215
176
1
 90
1
176
1
 90
4
176
1
 62
7
176
1
 62
257
176
1
 90
1
176
1
 90
1
176
1
 40
1.0
176
1
 90
8
176
1
 62
7
176
1
 40
1.0
176
1
 90
1
176
1
 90
6
176
1
 90
2
176
1
 62
7
176
1
 90
5
176
1
 90
0
176
1
 90
0
176
1
290
0
176
1
 90
1
176
1
 40
0.0
176
1
 90
0
176
1
290
0
176
1
290
1
176
1
290
1
176
1
290
0
176
1
290
0
176
1
290
0
176
1
290
0
176
1
290
0
176
1
290
0
176
1
 90
50
176
1
 40
0.0
176
1
 40
1.0
176
1
 90
0
176
1
 62
18
420
0
176
1
 90
50
176
1
 90
3
176
1
 62
5
420
255
176
1
290
0
176
1
 90
50
176
1
 90
50
176
1
 90
50
176
1
290
0
176
1
 90
50
176
1
 62
256
176
0
 40
1.0
176
0
 90
2
176
1
  1
strokes_ogs.tif
176
1
290
0
176
1
 40
1.0
176
1
 40
1.0
176
1
  0
VISUALSTYLE
  5
67
102
{ACAD_REACTORS
330
16
102
}
330
16
100
AcDbVisualStyle
  2
JitterOff
 70
20
177
3
291
1
 70
58
 90
2
176
1
 90
2
176
1
 90
0
176
1
 90
2
176
1
 40
0.6
176
1
 40
30.0
176
1
 62
7
420
16777215
176
1
 90
1
176
1
 90
4
176
1
 62
7
176
1
 62
257
176
1
 90
1
176
1
 90
1
176
1
 40
1.0
176
1
 90
8
176
1
 62
7
176
1
 40
1.0
176
1
 90
1
176
1
 90
6
176
1
 90
2
176
1
 62
7
176
1
 90
5
176
1
 90
0
176
1
 90
0
176
1
290
0
176
1
 90
1
176
1
 40
0.0
176
1
 90
0
176
1
290
0
176
1
290
1
176
1
290
1
176
1
290
0
176
1
290
0
176
1
290
0
176
1
290
0
176
1
290
0
176
1
290
0
176
1
 90
50
176
1
 40
0.0
176
1
 40
1.0
176
1
 90
0
176
1
 62
18
420
0
176
1
 90
50
176
1
 90
3
176
1
 62
5
420
255
176
1
290
0
176
1
 90
50
176
1
 90
50
176
1
 90
50
176
1
290
0
176
1
 90
50
176
1
 62
256
176
0
 40
1.0
176
0
 90
2
176
1
  1
strokes_ogs.tif
176
1
290
0
176
1
 40
1.0
176
1
 40
1.0
176
1
  0
VISUALSTYLE
  5
68
102
{ACAD_REACTORS
330
16
102
}
330
16
100
AcDbVisualStyle
  2
Linepattern
 70
14
177
3
291
1
 70
58
 90
2
176
1
 90
2
176
1
 90
0
176
1
 90
2
176
1
 40
0.6
176
1
 40
30.0
176
1
 62
7
420
16777215
176
1
 90
1
176
1
 90
4
176
1
 62
7
176
1
 62
257
176
1
 90
1
176
1
 90
1
176
1
 40
1.0
176
1
 90
8
176
1
 62
7
176
1
 40
1.0
176
1
 90
1
176
1
 90
6
176
1
 90
2
176
1
 62
7
176
1
 90
5
176
1
 90
0
176
1
 90
0
176
1
290
0
176
1
 90
1
176
1
 40
0.0
176
1
 90
0
176
1
290
0
176
1
290
1
176
1
290
1
176
1
290
0
176
1
290
0
176
1
290
0
176
1
290
0
176
1
290
0
176
1
290
0
176
1
 90
50
176
1
 40
0.0
176
1
 40
1.0
176
1
 90
0
176
1
 62
18
420
0
176
1
 90
50
176
1
 90
3
176
1
 62
5
420
255
176
1
290
0
176
1
 90
50
176
1
 90
50
176
1
 90
50
176
1
290
0
176
1
 90
50
176
1
 62
256
176
0
 40
1.0
176
0
 90
2
176
1
  1
strokes_ogs.tif
176
1
290
0
176
1
 40
1.0
176
1
 40
1.0
176
1
  0
VISUALSTYLE
  5
69
102
{ACAD_REACTORS
330
16
102
}
330
16
100
AcDbVisualStyle
  2
Modeling
 70
10
177
3
291
0
 70
58
 90
2
176
1
 90
2
176
1
 90
0
176
1
 90
2
176
1
 40
0.6
176
1
 40
30.0
176
1
 62
7
420
16777215
176
1
 90
1
176
1
 90
4
176
1
 62
7
176
1
 62
257
176
1
 90
1
176
1
 90
1
176
1
 40
1.0
176
1
 90
8
176
1
 62
7
176
1
 40
1.0
176
1
 90
1
176
1
 90
6
176
1
 90
2
176
1
 62
7
176
1
 90
5
176
1
 90
0
176
1
 90
0
176
1
290
0
176
1
 90
1
176
1
 40
0.0
176
1
 90
0
176
1
290
0
176
1
290
1
176
1
290
1
176
1
290
0
176
1
290
0
176
1
290
0
176
1
290
0
176
1
290
0
176
1
290
0
176
1
 90
50
176
1
 40
0.0
176
1
 40
1.0
176
1
 90
0
176
1
 62
18
420
0
176
1
 90
50
176
1
 90
3
176
1
 62
5
420
255
176
1
290
0
176
1
 90
50
176
1
 90
50
176
1
 90
50
176
1
290
0
176
1
 90
50
176
1
 62
256
176
0
 40
1.0
176
0
 90
2
176
1
  1
strokes_ogs.tif
176
1
290
0
176
1
 40
1.0
176
1
 40
1.0
176
1
  0
VISUALSTYLE
  5
6A
102
{ACAD_REACTORS
330
16
102
}
330
16
100
AcDbVisualStyle
  2
OverhangOff
 70
21
177
3
291
1
 70
58
 90
2
176
1
 90
2
176
1
 90
0
176
1
 90
2
176
1
 40
0.6
176
1
 40
30.0
176
1
 62
7
420
16777215
176
1
 90
1
176
1
 90
4
176
1
 62
7
176
1
 62
257
176
1
 90
1
176
1
 90
1
176
1
 40
1.0
176
1
 90
8
176
1
 62
7
176
1
 40
1.0
176
1
 90
1
176
1
 90
6
176
1
 90
2
176
1
 62
7
176
1
 90
5
176
1
 90
0
176
1
 90
0
176
1
290
0
176
1
 90
1
176
1
 40
0.0
176
1
 90
0
176
1
290
0
176
1
290
1
176
1
290
1
176
1
290
0
176
1
290
0
176
1
290
0
176
1
290
0
176
1
290
0
176
1
290
0
176
1
 90
50
176
1
 40
0.0
176
1
 40
1.0
176
1
 90
0
176
1
 62
18
420
0
176
1
 90
50
176
1
 90
3
176
1
 62
5
420
255
176
1
290
0
176
1
 90
50
176
1
 90
50
176
1
 90
50
176
1
290
0
176
1
 90
50
176
1
 62
256
176
0
 40
1.0
176
0
 90
2
176
1
  1
strokes_ogs.tif
176
1
290
0
176
1
 40
1.0
176
1
 40
1.0
176
1
  0
VISUALSTYLE
  5
6B
102
{ACAD_REACTORS
330
16
102
}
330
16
100
AcDbVisualStyle
  2
Realistic
 70
8
177
3
291
0
 70
58
 90
2
176
1
 90
2
176
1
 90
0
176
1
 90
2
176
1
 40
0.6
176
1
 40
30.0
176
1
 62
7
420
16777215
176
1
 90
1
176
1
 90
4
176
1
 62
7
176
1
 62
257
176
1
 90
1
176
1
 90
1
176
1
 40
1.0
176
1
 90
8
176
1
 62
7
176
1
 40
1.0
176
1
 90
1
176
1
 90
6
176
1
 90
2
176
1
 62
7
176
1
 90
5
176
1
 90
0
176
1
 90
0
176
1
290
0
176
1
 90
1
176
1
 40
0.0
176
1
 90
0
176
1
290
0
176
1
290
1
176
1
290
1
176
1
290
0
176
1
290
0
176
1
290
0
176
1
290
0
176
1
290
0
176
1
290
0
176
1
 90
50
176
1
 40
0.0
176
1
 40
1.0
176
1
 90
0
176
1
 62
18
420
0
176
1
 90
50
176
1
 90
3
176
1
 62
5
420
255
176
1
290
0
176
1
 90
50
176
1
 90
50
176
1
 90
50
176
1
290
0
176
1
 90
50
176
1
 62
256
176
0
 40
1.0
176
0
 90
2
176
1
  1
strokes_ogs.tif
176
1
290
0
176
1
 40
1.0
176
1
 40
1.0
176
1
  0
VISUALSTYLE
  5
6C
102
{ACAD_REACTORS
330
16
102
}
330
16
100
AcDbVisualStyle
  2
Shaded
 70
27
177
3
291
0
 70
58
 90
2
176
1
 90
2
176
1
 90
0
176
1
 90
2
176
1
 40
0.6
176
1
 40
30.0
176
1
 62
7
420
16777215
176
1
 90
1
176
1
 90
4
176
1
 62
7
176
1
 62
257
176
1
 90
1
176
1
 90
1
176
1
 40
1.0
176
1
 90
8
176
1
 62
7
176
1
 40
1.0
176
1
 90
1
176
1
 90
6
176
1
 90
2
176
1
 62
7
176
1
 90
5
176
1
 90
0
176
1
 90
0
176
1
290
0
176
1
 90
1
176
1
 40
0.0
176
1
 90
0
176
1
290
0
176
1
290
1
176
1
290
1
176
1
290
0
176
1
290
0
176
1
290
0
176
1
290
0
176
1
290
0
176
1
290
0
176
1
 90
50
176
1
 40
0.0
176
1
 40
1.0
176
1
 90
0
176
1
 62
18
420
0
176
1
 90
50
176
1
 90
3
176
1
 62
5
420
255
176
1
290
0
176
1
 90
50
176
1
 90
50
176
1
 90
50
176
1
290
0
176
1
 90
50
176
1
 62
256
176
0
 40
1.0
176
0
 90
2
176
1
  1
strokes_ogs.tif
176
1
290
0
176
1
 40
1.0
176
1
 40
1.0
176
1
  0
VISUALSTYLE
  5
6D
102
{ACAD_REACTORS
330
16
102
}
330
16
100
AcDbVisualStyle
  2
Shaded with edges
 70
26
177
3
291
0
 70
58
 90
2
176
1
 90
2
176
1
 90
0
176
1
 90
2
176
1
 40
0.6
176
1
 40
30.0
176
1
 62
7
420
16777215
176
1
 90
1
176
1
 90
4
176
1
 62
7
176
1
 62
257
176
1
 90
1
176
1
 90
1
176
1
 40
1.0
176
1
 90
8
176
1
 62
7
176
1
 40
1.0
176
1
 90
1
176
1
 90
6
176
1
 90
2
176
1
 62
7
176
1
 90
5
176
1
 90
0
176
1
 90
0
176
1
290
0
176
1
 90
1
176
1
 40
0.0
176
1
 90
0
176
1
290
0
176
1
290
1
176
1
290
1
176
1
290
0
176
1
290
0
176
1
290
0
176
1
290
0
176
1
290
0
176
1
290
0
176
1
 90
50
176
1
 40
0.0
176
1
 40
1.0
176
1
 90
0
176
1
 62
18
420
0
176
1
 90
50
176
1
 90
3
176
1
 62
5
420
255
176
1
290
0
176
1
 90
50
176
1
 90
50
176
1
 90
50
176
1
290
0
176
1
 90
50
176
1
 62
256
176
0
 40
1.0
176
0
 90
2
176
1
  1
strokes_ogs.tif
176
1
290
0
176
1
 40
1.0
176
1
 40
1.0
176
1
  0
VISUALSTYLE
  5
6E
102
{ACAD_REACTORS
330
16
102
}
330
16
100
AcDbVisualStyle
  2
Shades of Gray
 70
23
177
3
291
0
 70
58
 90
2
176
1
 90
2
176
1
 90
0
176
1
 90
2
176
1
 40
0.6
176
1
 40
30.0
176
1
 62
7
420
16777215
176
1
 90
1
176
1
 90
4
176
1
 62
7
176
1
 62
257
176
1
 90
1
176
1
 90
1
176
1
 40
1.0
176
1
 90
8
176
1
 62
7
176
1
 40
1.0
176
1
 90
1
176
1
 90
6
176
1
 90
2
176
1
 62
7
176
1
 90
5
176
1
 90
0
176
1
 90
0
176
1
290
0
176
1
 90
1
176
1
 40
0.0
176
1
 90
0
176
1
290
0
176
1
290
1
176
1
290
1
176
1
290
0
176
1
290
0
176
1
290
0
176
1
290
0
176
1
290
0
176
1
290
0
176
1
 90
50
176
1
 40
0.0
176
1
 40
1.0
176
1
 90
0
176
1
 62
18
420
0
176
1
 90
50
176
1
 90
3
176
1
 62
5
420
255
176
1
290
0
176
1
 90
50
176
1
 90
50
176
1
 90
50
176
1
290
0
176
1
 90
50
176
1
 62
256
176
0
 40
1.0
176
0
 90
2
176
1
  1
strokes_ogs.tif
176
1
290
0
176
1
 40
1.0
176
1
 40
1.0
176
1
  0
VISUALSTYLE
  5
6F
102
{ACAD_REACTORS
330
16
102
}
330
16
100
AcDbVisualStyle
  2
Sketchy
 70
24
177
3
291
0
 70
58
 90
2
176
1
 90
2
176
1
 90
0
176
1
 90
1
176
1
 40
0.6
176
1
 40
30.0
176
1
 62
7
420
16777215
176
1
 90
1
176
1
 90
4
176
1
 62
7
176
1
 62
257
176
1
 90
1
176
1
 90
1
176
1
 40
1.0
176
1
 90
8
176
1
 62
7
176
1
 40
1.0
176
1
 90
1
176
1
 90
6
176
1
 90
2
176
1
 62
7
176
1
 90
5
176
1
 90
0
176
1
 90
0
176
1
290
0
176
1
 90
1
176
1
 40
0.0
176
1
 90
0
176
1
290
0
176
1
290
1
176
1
290
1
176
1
290
0
176
1
290
0
176
1
290
0
176
1
290
0
176
1
290
0
176
1
290
0
176
1
 90
50
176
1
 40
0.0
176
1
 40
1.0
176
1
 90
0
176
1
 62
18
420
0
176
1
 90
50
176
1
 90
3
176
1
 62
5
420
255
176
1
290
0
176
1
 90
50
176
1
 90
50
176
1
 90
50
176
1
290
0
176
1
 90
50
176
1
 62
256
176
0
 40
1.0
176
0
 90
2
176
1
  1
strokes_ogs.tif
176
1
290
0
176
1
 40
1.0
176
1
 40
1.0
176
1
  0
VISUALSTYLE
  5
70
102
{ACAD_REACTORS
330
16
102
}
330
16
100
AcDbVisualStyle
  2
Thicken
 70
13
177
3
291
1
 70
58
 90
2
176
1
 90
2
176
1
 90
0
176
1
 90
2
176
1
 40
0.6
176
1
 40
30.0
176
1
 62
7
420
16777215
176
1
 90
1
176
1
 90
4
176
1
 62
7
176
1
 62
257
176
1
 90
1
176
1
 90
1
176
1
 40
1.0
176
1
 90
8
176
1
 62
7
176
1
 40
1.0
176
1
 90
1
176
1
 90
6
176
1
 90
2
176
1
 62
7
176
1
 90
5
176
1
 90
0
176
1
 90
0
176
1
290
0
176
1
 90
1
176
1
 40
0.0
176
1
 90
0
176
1
290
0
176
1
290
1
176
1
290
1
176
1
290
0
176
1
290
0
176
1
290
0
176
1
290
0
176
1
290
0
176
1
290
0
176
1
 90
50
176
1
 40
0.0
176
1
 40
1.0
176
1
 90
0
176
1
 62
18
420
0
176
1
 90
50
176
1
 90
3
176
1
 62
5
420
255
176
1
290
0
176
1
 90
50
176
1
 90
50
176
1
 90
50
176
1
290
0
176
1
 90
50
176
1
 62
256
176
0
 40
1.0
176
0
 90
2
176
1
  1
strokes_ogs.tif
176
1
290
0
176
1
 40
1.0
176
1
 40
1.0
176
1
  0
VISUALSTYLE
  5
71
102
{ACAD_REACTORS
330
16
102
}
330
16
100
AcDbVisualStyle
  2
Wireframe
 70
5
177
3
291
0
 70
58
 90
2
176
1
 90
2
176
1
 90
0
176
1
 90
0
176
1
 40
0.6
176
1
 40
30.0
176
1
 62
7
420
16777215
176
1
 90
1
176
1
 90
4
176
1
 62
7
176
1
 62
257
176
1
 90
1
176
1
 90
1
176
1
 40
1.0
176
1
 90
8
176
1
 62
7
176
1
 40
1.0
176
1
 90
1
176
1
 90
6
176
1
 90
2
176
1
 62
7
176
1
 90
5
176
1
 90
0
176
1
 90
0
176
1
290
0
176
1
 90
1
176
1
 40
0.0
176
1
 90
0
176
1
290
0
176
1
290
1
176
1
290
1
176
1
290
0
176
1
290
0
176
1
290
0
176
1
290
0
176
1
290
0
176
1
290
0
176
1
 90
50
176
1
 40
0.0
176
1
 40
1.0
176
1
 90
0
176
1
 62
18
420
0
176
1
 90
50
176
1
 90
3
176
1
 62
5
420
255
176
1
290
0
176
1
 90
50
176
1
 90
50
176
1
 90
50
176
1
290
0
176
1
 90
50
176
1
 62
256
176
0
 40
1.0
176
0
 90
2
176
1
  1
strokes_ogs.tif
176
1
290
0
176
1
 40
1.0
176
1
 40
1.0
176
1
  0
VISUALSTYLE
  5
72
102
{ACAD_REACTORS
330
16
102
}
330
16
100
AcDbVisualStyle
  2
X-Ray
 70
25
177
3
291
0
 70
58
 90
2
176
1
 90
2
176
1
 90
0
176
1
 90
2
176
1
 40
0.5
176
1
 40
30.0
176
1
 62
7
420
16777215
176
1
 90
1
176
1
 90
4
176
1
 62
7
176
1
 62
257
176
1
 90
1
176
1
 90
1
176
1
 40
1.0
176
1
 90
8
176
1
 62
7
176
1
 40
1.0
176
1
 90
1
176
1
 90
6
176
1
 90
2
176
1
 62
7
176
1
 90
5
176
1
 90
0
176
1
 90
0
176
1
290
0
176
1
 90
1
176
1
 40
0.0
176
1
 90
0
176
1
290
0
176
1
290
1
176
1
290
1
176
1
290
0
176
1
290
0
176
1
290
0
176
1
290
0
176
1
290
0
176
1
290
0
176
1
 90
50
176
1
 40
0.0
176
1
 40
1.0
176
1
 90
0
176
1
 62
18
420
0
176
1
 90
50
176
1
 90
3
176
1
 62
5
420
255
176
1
290
0
176
1
 90
50
176
1
 90
50
176
1
 90
50
176
1
290
0
176
1
 90
50
176
1
 62
256
176
0
 40
1.0
176
0
 90
2
176
1
  1
strokes_ogs.tif
176
1
290
0
176
1
 40
1.0
176
1
 40
1.0
176
1
  0
DICTIONARYVAR
  5
439
330
2D
100
DictionaryVariables
280
0
  1
1.1.4 @ 2024-02-17T16:10:21.537585+00:00
  0
ENDSEC
  0
EOF
