  0
SECTION
  2
HEADER
  9
$ACADVER
  1
AC1014
  9
$HANDSEED
  5
FFFF
  9
$INSUNITS
 70
     4
  9
$MEASUREMENT
 70
     1
  0
ENDSEC
  0
SECTION
  2
TABLES
  0
TABLE
  2
VPORT
  5
8
330
0
100
AcDbSymbolTable
 70
     4
  0
VPORT
  5
2E
330
8
100
AcDbSymbolTableRecord
100
AcDbViewportTableRecord
  2
*ACTIVE
 70
     0
 10
0.0
 20
0.0
 11
1.0
 21
1.0
 12
210.0
 22
148.5
 13
0.0
 23
0.0
 14
10.0
 24
10.0
 15
10.0
 25
10.0
 16
0.0
 26
0.0
 36
1.0
 17
0.0
 27
0.0
 37
0.0
 40
341.0
 41
1.24
 42
50.0
 43
0.0
 44
0.0
 50
0.0
 51
0.0
 71
     0
 72
   100
 73
     1
 74
     3
 75
     0
 76
     0
 77
     0
 78
     0
  0
ENDTAB
  0
TABLE
  2
LTYPE
  5
5
330
0
100
AcDbSymbolTable
 70
     1
  0
LTYPE
  5
14
330
5
100
AcDbSymbolTableRecord
100
AcDbLinetypeTableRecord
  2
BYBLOCK
 70
     0
  3

 72
    65
 73
     0
 40
0.0
  0
LTYPE
  5
15
330
5
100
AcDbSymbolTableRecord
100
AcDbLinetypeTableRecord
  2
BYLAYER
 70
     0
  3

 72
    65
 73
     0
 40
0.0
  0
LTYPE
  5
16
330
5
100
AcDbSymbolTableRecord
100
AcDbLinetypeTableRecord
  2
CONTINUOUS
 70
     0
  3
Solid line
 72
    65
 73
     0
 40
0.0
  0
ENDTAB
  0
TABLE
  2
LAYER
  5
2
100
AcDbSymbolTable
 70
15
  0
LAYER
  5
50
100
AcDbSymbolTableRecord
100
AcDbLayerTableRecord
  2
0
 70
0
  6
CONTINUOUS
  0
LAYER
  5
51
100
AcDbSymbolTableRecord
100
AcDbLayerTableRecord
  2
IfcBeam
 70
0
  6
CONTINUOUS
  0
LAYER
  5
52
100
AcDbSymbolTableRecord
100
AcDbLayerTableRecord
  2
IfcRailing
 70
0
  6
CONTINUOUS
  0
LAYER
  5
53
100
AcDbSymbolTableRecord
100
AcDbLayerTableRecord
  2
IfcPile
 70
0
  6
CONTINUOUS
  0
LAYER
  5
54
100
AcDbSymbolTableRecord
100
AcDbLayerTableRecord
  2
IfcWall
 70
0
  6
CONTINUOUS
  0
LAYER
  5
55
100
AcDbSymbolTableRecord
100
AcDbLayerTableRecord
  2
IfcStairFlight
 70
0
  6
CONTINUOUS
  0
LAYER
  5
56
100
AcDbSymbolTableRecord
100
AcDbLayerTableRecord
  2
IfcSlab
 70
0
  6
CONTINUOUS
  0
LAYER
  5
57
100
AcDbSymbolTableRecord
100
AcDbLayerTableRecord
  2
IfcColumn
 70
0
  6
CONTINUOUS
  0
LAYER
  5
58
100
AcDbSymbolTableRecord
100
AcDbLayerTableRecord
  2
IfcDuctSegment
 70
0
  6
CONTINUOUS
  0
LAYER
  5
59
100
AcDbSymbolTableRecord
100
AcDbLayerTableRecord
  2
IfcPipeSegment
 70
0
  6
CONTINUOUS
  0
LAYER
  5
5a
100
AcDbSymbolTableRecord
100
AcDbLayerTableRecord
  2
IfcFurniture
 70
0
  6
CONTINUOUS
  0
LAYER
  5
5b
100
AcDbSymbolTableRecord
100
AcDbLayerTableRecord
  2
IfcElectricAppliance
 70
0
  6
CONTINUOUS
  0
LAYER
  5
5c
100
AcDbSymbolTableRecord
100
AcDbLayerTableRecord
  2
IfcSanitaryTerminal
 70
0
  6
CONTINUOUS
  0
LAYER
  5
5d
100
AcDbSymbolTableRecord
100
AcDbLayerTableRecord
  2
IfcDoor
 70
0
  6
CONTINUOUS
  0
LAYER
  5
5e
100
AcDbSymbolTableRecord
100
AcDbLayerTableRecord
  2
IfcWindow
 70
0
  6
CONTINUOUS
  0
ENDTAB
  0
TABLE
  2
STYLE
  5
3
330
0
100
AcDbSymbolTable
 70
     1
  0
STYLE
  5
11
330
3
100
AcDbSymbolTableRecord
100
AcDbTextStyleTableRecord
  2
STANDARD
 70
     0
 40
0.0
 41
1.0
 50
0.0
 71
     0
 42
2.5
  3
txt
  4

  0
ENDTAB
  0
TABLE
  2
VIEW
  5
6
330
0
100
AcDbSymbolTable
 70
     0
  0
ENDTAB
  0
TABLE
  2
UCS
  5
7
330
0
100
AcDbSymbolTable
 70
     0
  0
ENDTAB
  0
TABLE
  2
APPID
  5
9
330
0
100
AcDbSymbolTable
 70
     2
  0
APPID
  5
12
330
9
100
AcDbSymbolTableRecord
100
AcDbRegAppTableRecord
  2
ACAD
 70
     0
  0
ENDTAB
  0
TABLE
  2
DIMSTYLE
  5
A
330
0
100
AcDbSymbolTable
 70
     1
  0
DIMSTYLE
105
27
330
A
100
AcDbSymbolTableRecord
100
AcDbDimStyleTableRecord
  2
ISO-25
 70
     0
  3

  4

  5

  6

  7

 40
1.0
 41
2.5
 42
0.625
 43
3.75
 44
1.25
 45
0.0
 46
0.0
 47
0.0
 48
0.0
140
2.5
141
2.5
142
0.0
143
0.03937007874016
144
1.0
145
0.0
146
1.0
147
0.625
 71
     0
 72
     0
 73
     0
 74
     0
 75
     0
 76
     0
 77
     1
 78
     8
170
     0
171
     3
172
     1
173
     0
174
     0
175
     0
176
     0
177
     0
178
     0
270
     2
271
     2
272
     2
273
     2
274
     3
340
11
275
     0
280
     0
281
     0
282
     0
283
     0
284
     8
285
     0
286
     0
287
     3
288
     0
  0
ENDTAB
  0
TABLE
  2
BLOCK_RECORD
  5
1
330
0
100
AcDbSymbolTable
 70
     1
  0
BLOCK_RECORD
  5
1F
330
1
100
AcDbSymbolTableRecord
100
AcDbBlockTableRecord
  2
*MODEL_SPACE
  0
BLOCK_RECORD
  5
1B
330
1
100
AcDbSymbolTableRecord
100
AcDbBlockTableRecord
  2
*PAPER_SPACE
  0
ENDTAB
  0
ENDSEC
  0
SECTION
  2
BLOCKS
  0
BLOCK
  5
20
330
1F
100
AcDbEntity
  8
0
100
AcDbBlockBegin
  2
*MODEL_SPACE
 70
     0
 10
0.0
 20
0.0
 30
0.0
  3
*MODEL_SPACE
  1

  0
ENDBLK
  5
21
330
1F
100
AcDbEntity
  8
0
100
AcDbBlockEnd
  0
BLOCK
  5
1C
330
1B
100
AcDbEntity
 67
     1
  8
0
100
AcDbBlockBegin
  2
*PAPER_SPACE
  1

  0
ENDBLK
  5
1D
330
1B
100
AcDbEntity
 67
     1
  8
0
100
AcDbBlockEnd
  0
ENDSEC
  0
SECTION
  2
ENTITIES
  0
LINE
  5
100
100
AcDbEntity
  8
0
 62
7
100
AcDbLine
 10
110.625009
 20
6.026027
 30
0.0
 11
105.534613
 21
6.026027
 31
0.0
  0
LINE
  5
101
100
AcDbEntity
  8
0
 62
7
100
AcDbLine
 10
105.534613
 20
6.026027
 30
0.0
 11
92.758412
 21
15.334107
 31
0.0
  0
LINE
  5
102
100
AcDbEntity
  8
0
 62
7
100
AcDbLine
 10
110.989427
 20
7.605141
 30
0.0
 11
111.596780
 21
7.605141
 31
0.0
  0
SPLINE
  5
103
100
AcDbEntity
  8
0
 62
7
100
AcDbSpline
 70
8
 71
3
 72
8
 73
4
 74
0
 40
0
 40
0
 40
0
 40
0
 40
1
 40
1
 40
1
 40
1
 10
111.596780
 20
7.605141
 30
0.0
 10
111.765219
 20
7.605141
 30
0.0
 10
111.908555
 20
7.546025
 30
0.0
 10
112.026786
 20
7.427794
 30
0.0
  0
SPLINE
  5
104
100
AcDbEntity
  8
0
 62
7
100
AcDbSpline
 70
8
 71
3
 72
8
 73
4
 74
0
 40
0
 40
0
 40
0
 40
0
 40
1
 40
1
 40
1
 40
1
 10
112.026786
 20
7.427794
 30
0.0
 10
112.145017
 20
7.309563
 30
0.0
 10
112.204133
 20
7.166227
 30
0.0
 10
112.204133
 20
6.997788
 30
0.0
  0
SPLINE
  5
105
100
AcDbEntity
  8
0
 62
7
100
AcDbSpline
 70
8
 71
3
 72
8
 73
4
 74
0
 40
0
 40
0
 40
0
 40
0
 40
1
 40
1
 40
1
 40
1
 10
112.204133
 20
6.997788
 30
0.0
 10
112.204133
 20
6.805055
 30
0.0
 10
112.128821
 20
6.647953
 30
0.0
 10
111.978198
 20
6.526482
 30
0.0
  0
SPLINE
  5
106
100
AcDbEntity
  8
0
 62
7
100
AcDbSpline
 70
8
 71
3
 72
8
 73
4
 74
0
 40
0
 40
0
 40
0
 40
0
 40
1
 40
1
 40
1
 40
1
 10
111.978198
 20
6.526482
 30
0.0
 10
112.085092
 20
6.461698
 30
0.0
 10
112.169311
 20
6.374239
 30
0.0
 10
112.230856
 20
6.264106
 30
0.0
  0
SPLINE
  5
107
100
AcDbEntity
  8
0
 62
7
100
AcDbSpline
 70
8
 71
3
 72
8
 73
4
 74
0
 40
0
 40
0
 40
0
 40
0
 40
1
 40
1
 40
1
 40
1
 10
112.230856
 20
6.264106
 30
0.0
 10
112.294021
 20
6.153972
 30
0.0
 10
112.325603
 20
6.034121
 30
0.0
 10
112.325603
 20
5.904553
 30
0.0
  0
SPLINE
  5
108
100
AcDbEntity
  8
0
 62
7
100
AcDbSpline
 70
8
 71
3
 72
8
 73
4
 74
0
 40
0
 40
0
 40
0
 40
0
 40
1
 40
1
 40
1
 40
1
 10
112.325603
 20
5.904553
 30
0.0
 10
112.325603
 20
5.703721
 30
0.0
 10
112.254341
 20
5.532043
 30
0.0
 10
112.111815
 20
5.389518
 30
0.0
  0
SPLINE
  5
109
100
AcDbEntity
  8
0
 62
7
100
AcDbSpline
 70
8
 71
3
 72
8
 73
4
 74
0
 40
0
 40
0
 40
0
 40
0
 40
1
 40
1
 40
1
 40
1
 10
112.111815
 20
5.389518
 30
0.0
 10
111.969290
 20
5.246992
 30
0.0
 10
111.797611
 20
5.175729
 30
0.0
 10
111.596780
 20
5.175729
 30
0.0
  0
LINE
  5
10a
100
AcDbEntity
  8
0
 62
7
100
AcDbLine
 10
111.596780
 20
5.175729
 30
0.0
 11
110.989427
 21
5.175729
 31
0.0
  0
SPLINE
  5
10b
100
AcDbEntity
  8
0
 62
7
100
AcDbSpline
 70
8
 71
3
 72
8
 73
4
 74
0
 40
0
 40
0
 40
0
 40
0
 40
1
 40
1
 40
1
 40
1
 10
110.989427
 20
5.175729
 30
0.0
 10
110.955415
 20
5.175729
 30
0.0
 10
110.926262
 20
5.187067
 30
0.0
 10
110.901968
 20
5.209741
 30
0.0
  0
SPLINE
  5
10c
100
AcDbEntity
  8
0
 62
7
100
AcDbSpline
 70
8
 71
3
 72
8
 73
4
 74
0
 40
0
 40
0
 40
0
 40
0
 40
1
 40
1
 40
1
 40
1
 10
110.901968
 20
5.209741
 30
0.0
 10
110.879294
 20
5.234035
 30
0.0
 10
110.867956
 20
5.263188
 30
0.0
 10
110.867956
 20
5.297200
 30
0.0
  0
LINE
  5
10d
100
AcDbEntity
  8
0
 62
7
100
AcDbLine
 10
110.867956
 20
5.297200
 30
0.0
 11
110.867956
 21
7.483670
 31
0.0
  0
SPLINE
  5
10e
100
AcDbEntity
  8
0
 62
7
100
AcDbSpline
 70
8
 71
3
 72
8
 73
4
 74
0
 40
0
 40
0
 40
0
 40
0
 40
1
 40
1
 40
1
 40
1
 10
110.867956
 20
7.483670
 30
0.0
 10
110.867956
 20
7.517682
 30
0.0
 10
110.879294
 20
7.546025
 30
0.0
 10
110.901968
 20
7.568699
 30
0.0
  0
SPLINE
  5
10f
100
AcDbEntity
  8
0
 62
7
100
AcDbSpline
 70
8
 71
3
 72
8
 73
4
 74
0
 40
0
 40
0
 40
0
 40
0
 40
1
 40
1
 40
1
 40
1
 10
110.901968
 20
7.568699
 30
0.0
 10
110.926262
 20
7.592993
 30
0.0
 10
110.955415
 20
7.605140
 30
0.0
 10
110.989427
 20
7.605140
 30
0.0
  0
LINE
  5
110
100
AcDbEntity
  8
0
 62
7
100
AcDbLine
 10
110.989427
 20
7.605140
 30
0.0
 11
110.989427
 21
7.605141
 31
0.0
  0
LINE
  5
111
100
AcDbEntity
  8
0
 62
7
100
AcDbLine
 10
111.110898
 20
7.362200
 30
0.0
 11
111.110898
 21
6.633376
 31
0.0
  0
LINE
  5
112
100
AcDbEntity
  8
0
 62
7
100
AcDbLine
 10
111.110898
 20
6.633376
 30
0.0
 11
111.596780
 21
6.633376
 31
0.0
  0
SPLINE
  5
113
100
AcDbEntity
  8
0
 62
7
100
AcDbSpline
 70
8
 71
3
 72
8
 73
4
 74
0
 40
0
 40
0
 40
0
 40
0
 40
1
 40
1
 40
1
 40
1
 10
111.596780
 20
6.633376
 30
0.0
 10
111.697196
 20
6.633376
 30
0.0
 10
111.783035
 20
6.669008
 30
0.0
 10
111.854298
 20
6.740270
 30
0.0
  0
SPLINE
  5
114
100
AcDbEntity
  8
0
 62
7
100
AcDbSpline
 70
8
 71
3
 72
8
 73
4
 74
0
 40
0
 40
0
 40
0
 40
0
 40
1
 40
1
 40
1
 40
1
 10
111.854298
 20
6.740270
 30
0.0
 10
111.925560
 20
6.811533
 30
0.0
 10
111.961192
 20
6.897372
 30
0.0
 10
111.961192
 20
6.997788
 30
0.0
  0
SPLINE
  5
115
100
AcDbEntity
  8
0
 62
7
100
AcDbSpline
 70
8
 71
3
 72
8
 73
4
 74
0
 40
0
 40
0
 40
0
 40
0
 40
1
 40
1
 40
1
 40
1
 10
111.961192
 20
6.997788
 30
0.0
 10
111.961192
 20
7.098204
 30
0.0
 10
111.925560
 20
7.184043
 30
0.0
 10
111.854298
 20
7.255306
 30
0.0
  0
SPLINE
  5
116
100
AcDbEntity
  8
0
 62
7
100
AcDbSpline
 70
8
 71
3
 72
8
 73
4
 74
0
 40
0
 40
0
 40
0
 40
0
 40
1
 40
1
 40
1
 40
1
 10
111.854298
 20
7.255306
 30
0.0
 10
111.783035
 20
7.326569
 30
0.0
 10
111.697196
 20
7.362200
 30
0.0
 10
111.596780
 20
7.362200
 30
0.0
  0
LINE
  5
117
100
AcDbEntity
  8
0
 62
7
100
AcDbLine
 10
111.596780
 20
7.362200
 30
0.0
 11
111.110898
 21
7.362200
 31
0.0
  0
LINE
  5
118
100
AcDbEntity
  8
0
 62
7
100
AcDbLine
 10
111.110898
 20
6.390435
 30
0.0
 11
111.110898
 21
5.418670
 31
0.0
  0
LINE
  5
119
100
AcDbEntity
  8
0
 62
7
100
AcDbLine
 10
111.110898
 20
5.418670
 30
0.0
 11
111.596780
 21
5.418670
 31
0.0
  0
SPLINE
  5
11a
100
AcDbEntity
  8
0
 62
7
100
AcDbSpline
 70
8
 71
3
 72
8
 73
4
 74
0
 40
0
 40
0
 40
0
 40
0
 40
1
 40
1
 40
1
 40
1
 10
111.596780
 20
5.418670
 30
0.0
 10
111.729588
 20
5.418670
 30
0.0
 10
111.843770
 20
5.466449
 30
0.0
 10
111.939327
 20
5.562006
 30
0.0
  0
SPLINE
  5
11b
100
AcDbEntity
  8
0
 62
7
100
AcDbSpline
 70
8
 71
3
 72
8
 73
4
 74
0
 40
0
 40
0
 40
0
 40
0
 40
1
 40
1
 40
1
 40
1
 10
111.939327
 20
5.562006
 30
0.0
 10
112.034884
 20
5.657563
 30
0.0
 10
112.082662
 20
5.771745
 30
0.0
 10
112.082662
 20
5.904553
 30
0.0
  0
SPLINE
  5
11c
100
AcDbEntity
  8
0
 62
7
100
AcDbSpline
 70
8
 71
3
 72
8
 73
4
 74
0
 40
0
 40
0
 40
0
 40
0
 40
1
 40
1
 40
1
 40
1
 10
112.082662
 20
5.904553
 30
0.0
 10
112.082662
 20
6.037361
 30
0.0
 10
112.034884
 20
6.151543
 30
0.0
 10
111.939327
 20
6.247100
 30
0.0
  0
SPLINE
  5
11d
100
AcDbEntity
  8
0
 62
7
100
AcDbSpline
 70
8
 71
3
 72
8
 73
4
 74
0
 40
0
 40
0
 40
0
 40
0
 40
1
 40
1
 40
1
 40
1
 10
111.939327
 20
6.247100
 30
0.0
 10
111.843770
 20
6.342657
 30
0.0
 10
111.729588
 20
6.390435
 30
0.0
 10
111.596780
 20
6.390435
 30
0.0
  0
LINE
  5
11e
100
AcDbEntity
  8
0
 62
7
100
AcDbLine
 10
111.596780
 20
6.390435
 30
0.0
 11
111.110898
 21
6.390435
 31
0.0
  0
SPLINE
  5
11f
100
AcDbEntity
  8
0
 62
7
100
AcDbSpline
 70
8
 71
3
 72
8
 73
4
 74
0
 40
0
 40
0
 40
0
 40
0
 40
1
 40
1
 40
1
 40
1
 10
112.952394
 20
7.464235
 30
0.0
 10
113.094920
 20
7.606761
 30
0.0
 10
113.266598
 20
7.678023
 30
0.0
 10
113.467430
 20
7.678023
 30
0.0
  0
SPLINE
  5
120
100
AcDbEntity
  8
0
 62
7
100
AcDbSpline
 70
8
 71
3
 72
8
 73
4
 74
0
 40
0
 40
0
 40
0
 40
0
 40
1
 40
1
 40
1
 40
1
 10
113.467430
 20
7.678023
 30
0.0
 10
113.668261
 20
7.678023
 30
0.0
 10
113.839940
 20
7.606761
 30
0.0
 10
113.982465
 20
7.464235
 30
0.0
  0
SPLINE
  5
121
100
AcDbEntity
  8
0
 62
7
100
AcDbSpline
 70
8
 71
3
 72
8
 73
4
 74
0
 40
0
 40
0
 40
0
 40
0
 40
1
 40
1
 40
1
 40
1
 10
113.982465
 20
7.464235
 30
0.0
 10
114.124991
 20
7.321710
 30
0.0
 10
114.196253
 20
7.150031
 30
0.0
 10
114.196253
 20
6.949200
 30
0.0
  0
LINE
  5
122
100
AcDbEntity
  8
0
 62
7
100
AcDbLine
 10
114.196253
 20
6.949200
 30
0.0
 11
114.196253
 21
5.831670
 31
0.0
  0
SPLINE
  5
123
100
AcDbEntity
  8
0
 62
7
100
AcDbSpline
 70
8
 71
3
 72
8
 73
4
 74
0
 40
0
 40
0
 40
0
 40
0
 40
1
 40
1
 40
1
 40
1
 10
114.196253
 20
5.831670
 30
0.0
 10
114.196253
 20
5.630839
 30
0.0
 10
114.124991
 20
5.459161
 30
0.0
 10
113.982465
 20
5.316635
 30
0.0
  0
SPLINE
  5
124
100
AcDbEntity
  8
0
 62
7
100
AcDbSpline
 70
8
 71
3
 72
8
 73
4
 74
0
 40
0
 40
0
 40
0
 40
0
 40
1
 40
1
 40
1
 40
1
 10
113.982465
 20
5.316635
 30
0.0
 10
113.839940
 20
5.174110
 30
0.0
 10
113.668261
 20
5.102847
 30
0.0
 10
113.467430
 20
5.102847
 30
0.0
  0
SPLINE
  5
125
100
AcDbEntity
  8
0
 62
7
100
AcDbSpline
 70
8
 71
3
 72
8
 73
4
 74
0
 40
0
 40
0
 40
0
 40
0
 40
1
 40
1
 40
1
 40
1
 10
113.467430
 20
5.102847
 30
0.0
 10
113.266598
 20
5.102847
 30
0.0
 10
113.094920
 20
5.174110
 30
0.0
 10
112.952394
 20
5.316635
 30
0.0
  0
SPLINE
  5
126
100
AcDbEntity
  8
0
 62
7
100
AcDbSpline
 70
8
 71
3
 72
8
 73
4
 74
0
 40
0
 40
0
 40
0
 40
0
 40
1
 40
1
 40
1
 40
1
 10
112.952394
 20
5.316635
 30
0.0
 10
112.809869
 20
5.459161
 30
0.0
 10
112.738606
 20
5.630839
 30
0.0
 10
112.738606
 20
5.831670
 30
0.0
  0
LINE
  5
127
100
AcDbEntity
  8
0
 62
7
100
AcDbLine
 10
112.738606
 20
5.831670
 30
0.0
 11
112.738606
 21
6.949200
 31
0.0
  0
SPLINE
  5
128
100
AcDbEntity
  8
0
 62
7
100
AcDbSpline
 70
8
 71
3
 72
8
 73
4
 74
0
 40
0
 40
0
 40
0
 40
0
 40
1
 40
1
 40
1
 40
1
 10
112.738606
 20
6.949200
 30
0.0
 10
112.738606
 20
7.150031
 30
0.0
 10
112.809869
 20
7.321710
 30
0.0
 10
112.952394
 20
7.464235
 30
0.0
  0
LINE
  5
129
100
AcDbEntity
  8
0
 62
7
100
AcDbLine
 10
112.952394
 20
7.464235
 30
0.0
 11
112.952394
 21
7.464235
 31
0.0
  0
SPLINE
  5
12a
100
AcDbEntity
  8
0
 62
7
100
AcDbSpline
 70
8
 71
3
 72
8
 73
4
 74
0
 40
0
 40
0
 40
0
 40
0
 40
1
 40
1
 40
1
 40
1
 10
113.809977
 20
7.291747
 30
0.0
 10
113.714420
 20
7.387304
 30
0.0
 10
113.600238
 20
7.435082
 30
0.0
 10
113.467430
 20
7.435082
 30
0.0
  0
SPLINE
  5
12b
100
AcDbEntity
  8
0
 62
7
100
AcDbSpline
 70
8
 71
3
 72
8
 73
4
 74
0
 40
0
 40
0
 40
0
 40
0
 40
1
 40
1
 40
1
 40
1
 10
113.467430
 20
7.435082
 30
0.0
 10
113.334622
 20
7.435082
 30
0.0
 10
113.220440
 20
7.387304
 30
0.0
 10
113.124883
 20
7.291747
 30
0.0
  0
SPLINE
  5
12c
100
AcDbEntity
  8
0
 62
7
100
AcDbSpline
 70
8
 71
3
 72
8
 73
4
 74
0
 40
0
 40
0
 40
0
 40
0
 40
1
 40
1
 40
1
 40
1
 10
113.124883
 20
7.291747
 30
0.0
 10
113.029326
 20
7.196190
 30
0.0
 10
112.981547
 20
7.082008
 30
0.0
 10
112.981547
 20
6.949200
 30
0.0
  0
LINE
  5
12d
100
AcDbEntity
  8
0
 62
7
100
AcDbLine
 10
112.981547
 20
6.949200
 30
0.0
 11
112.981547
 21
5.831670
 31
0.0
  0
SPLINE
  5
12e
100
AcDbEntity
  8
0
 62
7
100
AcDbSpline
 70
8
 71
3
 72
8
 73
4
 74
0
 40
0
 40
0
 40
0
 40
0
 40
1
 40
1
 40
1
 40
1
 10
112.981547
 20
5.831670
 30
0.0
 10
112.981547
 20
5.698863
 30
0.0
 10
113.029326
 20
5.584680
 30
0.0
 10
113.124883
 20
5.489123
 30
0.0
  0
SPLINE
  5
12f
100
AcDbEntity
  8
0
 62
7
100
AcDbSpline
 70
8
 71
3
 72
8
 73
4
 74
0
 40
0
 40
0
 40
0
 40
0
 40
1
 40
1
 40
1
 40
1
 10
113.124883
 20
5.489123
 30
0.0
 10
113.220440
 20
5.393567
 30
0.0
 10
113.334622
 20
5.345788
 30
0.0
 10
113.467430
 20
5.345788
 30
0.0
  0
SPLINE
  5
130
100
AcDbEntity
  8
0
 62
7
100
AcDbSpline
 70
8
 71
3
 72
8
 73
4
 74
0
 40
0
 40
0
 40
0
 40
0
 40
1
 40
1
 40
1
 40
1
 10
113.467430
 20
5.345788
 30
0.0
 10
113.600238
 20
5.345788
 30
0.0
 10
113.714420
 20
5.393567
 30
0.0
 10
113.809977
 20
5.489123
 30
0.0
  0
SPLINE
  5
131
100
AcDbEntity
  8
0
 62
7
100
AcDbSpline
 70
8
 71
3
 72
8
 73
4
 74
0
 40
0
 40
0
 40
0
 40
0
 40
1
 40
1
 40
1
 40
1
 10
113.809977
 20
5.489123
 30
0.0
 10
113.905534
 20
5.584680
 30
0.0
 10
113.953312
 20
5.698863
 30
0.0
 10
113.953312
 20
5.831670
 30
0.0
  0
LINE
  5
132
100
AcDbEntity
  8
0
 62
7
100
AcDbLine
 10
113.953312
 20
5.831670
 30
0.0
 11
113.953312
 21
6.949200
 31
0.0
  0
SPLINE
  5
133
100
AcDbEntity
  8
0
 62
7
100
AcDbSpline
 70
8
 71
3
 72
8
 73
4
 74
0
 40
0
 40
0
 40
0
 40
0
 40
1
 40
1
 40
1
 40
1
 10
113.953312
 20
6.949200
 30
0.0
 10
113.953312
 20
7.082008
 30
0.0
 10
113.905534
 20
7.196190
 30
0.0
 10
113.809977
 20
7.291747
 30
0.0
  0
LINE
  5
134
100
AcDbEntity
  8
0
 62
7
100
AcDbLine
 10
113.809977
 20
7.291747
 30
0.0
 11
113.809977
 21
7.291747
 31
0.0
  0
SPLINE
  5
135
100
AcDbEntity
  8
0
 62
7
100
AcDbSpline
 70
8
 71
3
 72
8
 73
4
 74
0
 40
0
 40
0
 40
0
 40
0
 40
1
 40
1
 40
1
 40
1
 10
114.779315
 20
7.605141
 30
0.0
 10
114.821425
 20
7.605141
 30
0.0
 10
114.857056
 20
7.583276
 30
0.0
 10
114.886209
 20
7.539547
 30
0.0
  0
LINE
  5
136
100
AcDbEntity
  8
0
 62
7
100
AcDbLine
 10
114.886209
 20
7.539547
 30
0.0
 11
115.872550
 21
5.766076
 31
0.0
  0
LINE
  5
137
100
AcDbEntity
  8
0
 62
7
100
AcDbLine
 10
115.872550
 20
5.766076
 30
0.0
 11
115.872550
 21
7.483670
 31
0.0
  0
SPLINE
  5
138
100
AcDbEntity
  8
0
 62
7
100
AcDbSpline
 70
8
 71
3
 72
8
 73
4
 74
0
 40
0
 40
0
 40
0
 40
0
 40
1
 40
1
 40
1
 40
1
 10
115.872550
 20
7.483670
 30
0.0
 10
115.872550
 20
7.517682
 30
0.0
 10
115.883887
 20
7.546025
 30
0.0
 10
115.906562
 20
7.568699
 30
0.0
  0
SPLINE
  5
139
100
AcDbEntity
  8
0
 62
7
100
AcDbSpline
 70
8
 71
3
 72
8
 73
4
 74
0
 40
0
 40
0
 40
0
 40
0
 40
1
 40
1
 40
1
 40
1
 10
115.906562
 20
7.568699
 30
0.0
 10
115.930856
 20
7.592993
 30
0.0
 10
115.960009
 20
7.605140
 30
0.0
 10
115.994021
 20
7.605140
 30
0.0
  0
SPLINE
  5
13a
100
AcDbEntity
  8
0
 62
7
100
AcDbSpline
 70
8
 71
3
 72
8
 73
4
 74
0
 40
0
 40
0
 40
0
 40
0
 40
1
 40
1
 40
1
 40
1
 10
115.994021
 20
7.605140
 30
0.0
 10
116.028033
 20
7.605140
 30
0.0
 10
116.056376
 20
7.592993
 30
0.0
 10
116.079050
 20
7.568699
 30
0.0
  0
SPLINE
  5
13b
100
AcDbEntity
  8
0
 62
7
100
AcDbSpline
 70
8
 71
3
 72
8
 73
4
 74
0
 40
0
 40
0
 40
0
 40
0
 40
1
 40
1
 40
1
 40
1
 10
116.079050
 20
7.568699
 30
0.0
 10
116.103344
 20
7.546025
 30
0.0
 10
116.115491
 20
7.517682
 30
0.0
 10
116.115491
 20
7.483670
 30
0.0
  0
LINE
  5
13c
100
AcDbEntity
  8
0
 62
7
100
AcDbLine
 10
116.115491
 20
7.483670
 30
0.0
 11
116.115491
 21
5.297200
 31
0.0
  0
SPLINE
  5
13d
100
AcDbEntity
  8
0
 62
7
100
AcDbSpline
 70
8
 71
3
 72
8
 73
4
 74
0
 40
0
 40
0
 40
0
 40
0
 40
1
 40
1
 40
1
 40
1
 10
116.115491
 20
5.297200
 30
0.0
 10
116.115491
 20
5.263188
 30
0.0
 10
116.103344
 20
5.234035
 30
0.0
 10
116.079050
 20
5.209741
 30
0.0
  0
SPLINE
  5
13e
100
AcDbEntity
  8
0
 62
7
100
AcDbSpline
 70
8
 71
3
 72
8
 73
4
 74
0
 40
0
 40
0
 40
0
 40
0
 40
1
 40
1
 40
1
 40
1
 10
116.079050
 20
5.209741
 30
0.0
 10
116.056375
 20
5.187067
 30
0.0
 10
116.028032
 20
5.175729
 30
0.0
 10
115.994021
 20
5.175729
 30
0.0
  0
SPLINE
  5
13f
100
AcDbEntity
  8
0
 62
7
100
AcDbSpline
 70
8
 71
3
 72
8
 73
4
 74
0
 40
0
 40
0
 40
0
 40
0
 40
1
 40
1
 40
1
 40
1
 10
115.994021
 20
5.175729
 30
0.0
 10
115.945433
 20
5.175729
 30
0.0
 10
115.908182
 20
5.200023
 30
0.0
 10
115.882268
 20
5.248612
 30
0.0
  0
LINE
  5
140
100
AcDbEntity
  8
0
 62
7
100
AcDbLine
 10
115.882268
 20
5.248612
 30
0.0
 11
114.900785
 21
7.014794
 31
0.0
  0
LINE
  5
141
100
AcDbEntity
  8
0
 62
7
100
AcDbLine
 10
114.900785
 20
7.014794
 30
0.0
 11
114.900785
 21
5.297200
 31
0.0
  0
SPLINE
  5
142
100
AcDbEntity
  8
0
 62
7
100
AcDbSpline
 70
8
 71
3
 72
8
 73
4
 74
0
 40
0
 40
0
 40
0
 40
0
 40
1
 40
1
 40
1
 40
1
 10
114.900785
 20
5.297200
 30
0.0
 10
114.900785
 20
5.263188
 30
0.0
 10
114.888638
 20
5.234035
 30
0.0
 10
114.864344
 20
5.209741
 30
0.0
  0
SPLINE
  5
143
100
AcDbEntity
  8
0
 62
7
100
AcDbSpline
 70
8
 71
3
 72
8
 73
4
 74
0
 40
0
 40
0
 40
0
 40
0
 40
1
 40
1
 40
1
 40
1
 10
114.864344
 20
5.209741
 30
0.0
 10
114.841670
 20
5.187067
 30
0.0
 10
114.813326
 20
5.175729
 30
0.0
 10
114.779314
 20
5.175729
 30
0.0
  0
SPLINE
  5
144
100
AcDbEntity
  8
0
 62
7
100
AcDbSpline
 70
8
 71
3
 72
8
 73
4
 74
0
 40
0
 40
0
 40
0
 40
0
 40
1
 40
1
 40
1
 40
1
 10
114.779314
 20
5.175729
 30
0.0
 10
114.745302
 20
5.175729
 30
0.0
 10
114.716149
 20
5.187067
 30
0.0
 10
114.691855
 20
5.209741
 30
0.0
  0
SPLINE
  5
145
100
AcDbEntity
  8
0
 62
7
100
AcDbSpline
 70
8
 71
3
 72
8
 73
4
 74
0
 40
0
 40
0
 40
0
 40
0
 40
1
 40
1
 40
1
 40
1
 10
114.691855
 20
5.209741
 30
0.0
 10
114.669181
 20
5.234035
 30
0.0
 10
114.657843
 20
5.263188
 30
0.0
 10
114.657843
 20
5.297200
 30
0.0
  0
LINE
  5
146
100
AcDbEntity
  8
0
 62
7
100
AcDbLine
 10
114.657843
 20
5.297200
 30
0.0
 11
114.657843
 21
7.483670
 31
0.0
  0
SPLINE
  5
147
100
AcDbEntity
  8
0
 62
7
100
AcDbSpline
 70
8
 71
3
 72
8
 73
4
 74
0
 40
0
 40
0
 40
0
 40
0
 40
1
 40
1
 40
1
 40
1
 10
114.657843
 20
7.483670
 30
0.0
 10
114.657843
 20
7.517682
 30
0.0
 10
114.669181
 20
7.546025
 30
0.0
 10
114.691855
 20
7.568699
 30
0.0
  0
SPLINE
  5
148
100
AcDbEntity
  8
0
 62
7
100
AcDbSpline
 70
8
 71
3
 72
8
 73
4
 74
0
 40
0
 40
0
 40
0
 40
0
 40
1
 40
1
 40
1
 40
1
 10
114.691855
 20
7.568699
 30
0.0
 10
114.716149
 20
7.592993
 30
0.0
 10
114.745302
 20
7.605140
 30
0.0
 10
114.779314
 20
7.605140
 30
0.0
  0
LINE
  5
149
100
AcDbEntity
  8
0
 62
7
100
AcDbLine
 10
114.779314
 20
7.605140
 30
0.0
 11
114.779315
 21
7.605141
 31
0.0
  0
SPLINE
  5
14a
100
AcDbEntity
  8
0
 62
7
100
AcDbSpline
 70
8
 71
3
 72
8
 73
4
 74
0
 40
0
 40
0
 40
0
 40
0
 40
1
 40
1
 40
1
 40
1
 10
116.722846
 20
7.605141
 30
0.0
 10
116.764956
 20
7.605141
 30
0.0
 10
116.800587
 20
7.583276
 30
0.0
 10
116.829740
 20
7.539547
 30
0.0
  0
LINE
  5
14b
100
AcDbEntity
  8
0
 62
7
100
AcDbLine
 10
116.829740
 20
7.539547
 30
0.0
 11
117.816081
 21
5.766076
 31
0.0
  0
LINE
  5
14c
100
AcDbEntity
  8
0
 62
7
100
AcDbLine
 10
117.816081
 20
5.766076
 30
0.0
 11
117.816081
 21
7.483670
 31
0.0
  0
SPLINE
  5
14d
100
AcDbEntity
  8
0
 62
7
100
AcDbSpline
 70
8
 71
3
 72
8
 73
4
 74
0
 40
0
 40
0
 40
0
 40
0
 40
1
 40
1
 40
1
 40
1
 10
117.816081
 20
7.483670
 30
0.0
 10
117.816081
 20
7.517682
 30
0.0
 10
117.827419
 20
7.546025
 30
0.0
 10
117.850093
 20
7.568699
 30
0.0
  0
SPLINE
  5
14e
100
AcDbEntity
  8
0
 62
7
100
AcDbSpline
 70
8
 71
3
 72
8
 73
4
 74
0
 40
0
 40
0
 40
0
 40
0
 40
1
 40
1
 40
1
 40
1
 10
117.850093
 20
7.568699
 30
0.0
 10
117.874387
 20
7.592993
 30
0.0
 10
117.903540
 20
7.605140
 30
0.0
 10
117.937552
 20
7.605140
 30
0.0
  0
SPLINE
  5
14f
100
AcDbEntity
  8
0
 62
7
100
AcDbSpline
 70
8
 71
3
 72
8
 73
4
 74
0
 40
0
 40
0
 40
0
 40
0
 40
1
 40
1
 40
1
 40
1
 10
117.937552
 20
7.605140
 30
0.0
 10
117.971564
 20
7.605140
 30
0.0
 10
117.999907
 20
7.592993
 30
0.0
 10
118.022581
 20
7.568699
 30
0.0
  0
SPLINE
  5
150
100
AcDbEntity
  8
0
 62
7
100
AcDbSpline
 70
8
 71
3
 72
8
 73
4
 74
0
 40
0
 40
0
 40
0
 40
0
 40
1
 40
1
 40
1
 40
1
 10
118.022581
 20
7.568699
 30
0.0
 10
118.046875
 20
7.546025
 30
0.0
 10
118.059022
 20
7.517682
 30
0.0
 10
118.059022
 20
7.483670
 30
0.0
  0
LINE
  5
151
100
AcDbEntity
  8
0
 62
7
100
AcDbLine
 10
118.059022
 20
7.483670
 30
0.0
 11
118.059022
 21
5.297200
 31
0.0
  0
SPLINE
  5
152
100
AcDbEntity
  8
0
 62
7
100
AcDbSpline
 70
8
 71
3
 72
8
 73
4
 74
0
 40
0
 40
0
 40
0
 40
0
 40
1
 40
1
 40
1
 40
1
 10
118.059022
 20
5.297200
 30
0.0
 10
118.059022
 20
5.263188
 30
0.0
 10
118.046875
 20
5.234035
 30
0.0
 10
118.022581
 20
5.209741
 30
0.0
  0
SPLINE
  5
153
100
AcDbEntity
  8
0
 62
7
100
AcDbSpline
 70
8
 71
3
 72
8
 73
4
 74
0
 40
0
 40
0
 40
0
 40
0
 40
1
 40
1
 40
1
 40
1
 10
118.022581
 20
5.209741
 30
0.0
 10
117.999907
 20
5.187067
 30
0.0
 10
117.971564
 20
5.175729
 30
0.0
 10
117.937552
 20
5.175729
 30
0.0
  0
SPLINE
  5
154
100
AcDbEntity
  8
0
 62
7
100
AcDbSpline
 70
8
 71
3
 72
8
 73
4
 74
0
 40
0
 40
0
 40
0
 40
0
 40
1
 40
1
 40
1
 40
1
 10
117.937552
 20
5.175729
 30
0.0
 10
117.888964
 20
5.175729
 30
0.0
 10
117.851713
 20
5.200023
 30
0.0
 10
117.825799
 20
5.248612
 30
0.0
  0
LINE
  5
155
100
AcDbEntity
  8
0
 62
7
100
AcDbLine
 10
117.825799
 20
5.248612
 30
0.0
 11
116.844317
 21
7.014794
 31
0.0
  0
LINE
  5
156
100
AcDbEntity
  8
0
 62
7
100
AcDbLine
 10
116.844317
 20
7.014794
 30
0.0
 11
116.844317
 21
5.297200
 31
0.0
  0
SPLINE
  5
157
100
AcDbEntity
  8
0
 62
7
100
AcDbSpline
 70
8
 71
3
 72
8
 73
4
 74
0
 40
0
 40
0
 40
0
 40
0
 40
1
 40
1
 40
1
 40
1
 10
116.844317
 20
5.297200
 30
0.0
 10
116.844317
 20
5.263188
 30
0.0
 10
116.832170
 20
5.234035
 30
0.0
 10
116.807876
 20
5.209741
 30
0.0
  0
SPLINE
  5
158
100
AcDbEntity
  8
0
 62
7
100
AcDbSpline
 70
8
 71
3
 72
8
 73
4
 74
0
 40
0
 40
0
 40
0
 40
0
 40
1
 40
1
 40
1
 40
1
 10
116.807876
 20
5.209741
 30
0.0
 10
116.785201
 20
5.187066
 30
0.0
 10
116.756858
 20
5.175729
 30
0.0
 10
116.722847
 20
5.175729
 30
0.0
  0
SPLINE
  5
159
100
AcDbEntity
  8
0
 62
7
100
AcDbSpline
 70
8
 71
3
 72
8
 73
4
 74
0
 40
0
 40
0
 40
0
 40
0
 40
1
 40
1
 40
1
 40
1
 10
116.722847
 20
5.175729
 30
0.0
 10
116.688835
 20
5.175729
 30
0.0
 10
116.659682
 20
5.187066
 30
0.0
 10
116.635388
 20
5.209741
 30
0.0
  0
SPLINE
  5
15a
100
AcDbEntity
  8
0
 62
7
100
AcDbSpline
 70
8
 71
3
 72
8
 73
4
 74
0
 40
0
 40
0
 40
0
 40
0
 40
1
 40
1
 40
1
 40
1
 10
116.635388
 20
5.209741
 30
0.0
 10
116.612713
 20
5.234035
 30
0.0
 10
116.601376
 20
5.263188
 30
0.0
 10
116.601376
 20
5.297200
 30
0.0
  0
LINE
  5
15b
100
AcDbEntity
  8
0
 62
7
100
AcDbLine
 10
116.601376
 20
5.297200
 30
0.0
 11
116.601376
 21
7.483670
 31
0.0
  0
SPLINE
  5
15c
100
AcDbEntity
  8
0
 62
7
100
AcDbSpline
 70
8
 71
3
 72
8
 73
4
 74
0
 40
0
 40
0
 40
0
 40
0
 40
1
 40
1
 40
1
 40
1
 10
116.601376
 20
7.483670
 30
0.0
 10
116.601376
 20
7.517682
 30
0.0
 10
116.612713
 20
7.546025
 30
0.0
 10
116.635388
 20
7.568699
 30
0.0
  0
SPLINE
  5
15d
100
AcDbEntity
  8
0
 62
7
100
AcDbSpline
 70
8
 71
3
 72
8
 73
4
 74
0
 40
0
 40
0
 40
0
 40
0
 40
1
 40
1
 40
1
 40
1
 10
116.635388
 20
7.568699
 30
0.0
 10
116.659682
 20
7.592993
 30
0.0
 10
116.688835
 20
7.605140
 30
0.0
 10
116.722847
 20
7.605140
 30
0.0
  0
LINE
  5
15e
100
AcDbEntity
  8
0
 62
7
100
AcDbLine
 10
116.722847
 20
7.605140
 30
0.0
 11
116.722846
 21
7.605141
 31
0.0
  0
SPLINE
  5
15f
100
AcDbEntity
  8
0
 62
7
100
AcDbSpline
 70
8
 71
3
 72
8
 73
4
 74
0
 40
0
 40
0
 40
0
 40
0
 40
1
 40
1
 40
1
 40
1
 10
118.544907
 20
7.605141
 30
0.0
 10
118.585397
 20
7.605141
 30
0.0
 10
118.617789
 20
7.588945
 30
0.0
 10
118.642083
 20
7.556553
 30
0.0
  0
LINE
  5
160
100
AcDbEntity
  8
0
 62
7
100
AcDbLine
 10
118.642083
 20
7.556553
 30
0.0
 11
119.273730
 21
6.713547
 31
0.0
  0
LINE
  5
161
100
AcDbEntity
  8
0
 62
7
100
AcDbLine
 10
119.273730
 20
6.713547
 30
0.0
 11
119.905377
 21
7.556553
 31
0.0
  0
SPLINE
  5
162
100
AcDbEntity
  8
0
 62
7
100
AcDbSpline
 70
8
 71
3
 72
8
 73
4
 74
0
 40
0
 40
0
 40
0
 40
0
 40
1
 40
1
 40
1
 40
1
 10
119.905377
 20
7.556553
 30
0.0
 10
119.929671
 20
7.588945
 30
0.0
 10
119.962063
 20
7.605141
 30
0.0
 10
120.002553
 20
7.605141
 30
0.0
  0
SPLINE
  5
163
100
AcDbEntity
  8
0
 62
7
100
AcDbSpline
 70
8
 71
3
 72
8
 73
4
 74
0
 40
0
 40
0
 40
0
 40
0
 40
1
 40
1
 40
1
 40
1
 10
120.002553
 20
7.605141
 30
0.0
 10
120.036565
 20
7.605141
 30
0.0
 10
120.064908
 20
7.592994
 30
0.0
 10
120.087582
 20
7.568700
 30
0.0
  0
SPLINE
  5
164
100
AcDbEntity
  8
0
 62
7
100
AcDbSpline
 70
8
 71
3
 72
8
 73
4
 74
0
 40
0
 40
0
 40
0
 40
0
 40
1
 40
1
 40
1
 40
1
 10
120.087582
 20
7.568700
 30
0.0
 10
120.111876
 20
7.546025
 30
0.0
 10
120.124023
 20
7.517682
 30
0.0
 10
120.124023
 20
7.483671
 30
0.0
  0
SPLINE
  5
165
100
AcDbEntity
  8
0
 62
7
100
AcDbSpline
 70
8
 71
3
 72
8
 73
4
 74
0
 40
0
 40
0
 40
0
 40
0
 40
1
 40
1
 40
1
 40
1
 10
120.124023
 20
7.483671
 30
0.0
 10
120.124023
 20
7.456138
 30
0.0
 10
120.115925
 20
7.431844
 30
0.0
 10
120.099729
 20
7.410789
 30
0.0
  0
LINE
  5
166
100
AcDbEntity
  8
0
 62
7
100
AcDbLine
 10
120.099729
 20
7.410789
 30
0.0
 11
119.395200
 21
6.470607
 31
0.0
  0
LINE
  5
167
100
AcDbEntity
  8
0
 62
7
100
AcDbLine
 10
119.395200
 20
6.470607
 30
0.0
 11
119.395200
 21
5.297201
 31
0.0
  0
SPLINE
  5
168
100
AcDbEntity
  8
0
 62
7
100
AcDbSpline
 70
8
 71
3
 72
8
 73
4
 74
0
 40
0
 40
0
 40
0
 40
0
 40
1
 40
1
 40
1
 40
1
 10
119.395200
 20
5.297201
 30
0.0
 10
119.395200
 20
5.263189
 30
0.0
 10
119.383053
 20
5.234036
 30
0.0
 10
119.358759
 20
5.209742
 30
0.0
  0
SPLINE
  5
169
100
AcDbEntity
  8
0
 62
7
100
AcDbSpline
 70
8
 71
3
 72
8
 73
4
 74
0
 40
0
 40
0
 40
0
 40
0
 40
1
 40
1
 40
1
 40
1
 10
119.358759
 20
5.209742
 30
0.0
 10
119.336084
 20
5.187067
 30
0.0
 10
119.307741
 20
5.175730
 30
0.0
 10
119.273730
 20
5.175730
 30
0.0
  0
SPLINE
  5
16a
100
AcDbEntity
  8
0
 62
7
100
AcDbSpline
 70
8
 71
3
 72
8
 73
4
 74
0
 40
0
 40
0
 40
0
 40
0
 40
1
 40
1
 40
1
 40
1
 10
119.273730
 20
5.175730
 30
0.0
 10
119.239718
 20
5.175730
 30
0.0
 10
119.210565
 20
5.187067
 30
0.0
 10
119.186271
 20
5.209742
 30
0.0
  0
SPLINE
  5
16b
100
AcDbEntity
  8
0
 62
7
100
AcDbSpline
 70
8
 71
3
 72
8
 73
4
 74
0
 40
0
 40
0
 40
0
 40
0
 40
1
 40
1
 40
1
 40
1
 10
119.186271
 20
5.209742
 30
0.0
 10
119.163596
 20
5.234036
 30
0.0
 10
119.152259
 20
5.263189
 30
0.0
 10
119.152259
 20
5.297201
 30
0.0
  0
LINE
  5
16c
100
AcDbEntity
  8
0
 62
7
100
AcDbLine
 10
119.152259
 20
5.297201
 30
0.0
 11
119.152259
 21
6.470606
 31
0.0
  0
LINE
  5
16d
100
AcDbEntity
  8
0
 62
7
100
AcDbLine
 10
119.152259
 20
6.470606
 30
0.0
 11
118.447730
 21
7.410788
 31
0.0
  0
SPLINE
  5
16e
100
AcDbEntity
  8
0
 62
7
100
AcDbSpline
 70
8
 71
3
 72
8
 73
4
 74
0
 40
0
 40
0
 40
0
 40
0
 40
1
 40
1
 40
1
 40
1
 10
118.447730
 20
7.410788
 30
0.0
 10
118.431534
 20
7.431843
 30
0.0
 10
118.423436
 20
7.456137
 30
0.0
 10
118.423436
 20
7.483670
 30
0.0
  0
SPLINE
  5
16f
100
AcDbEntity
  8
0
 62
7
100
AcDbSpline
 70
8
 71
3
 72
8
 73
4
 74
0
 40
0
 40
0
 40
0
 40
0
 40
1
 40
1
 40
1
 40
1
 10
118.423436
 20
7.483670
 30
0.0
 10
118.423436
 20
7.517682
 30
0.0
 10
118.434774
 20
7.546025
 30
0.0
 10
118.457448
 20
7.568699
 30
0.0
  0
SPLINE
  5
170
100
AcDbEntity
  8
0
 62
7
100
AcDbSpline
 70
8
 71
3
 72
8
 73
4
 74
0
 40
0
 40
0
 40
0
 40
0
 40
1
 40
1
 40
1
 40
1
 10
118.457448
 20
7.568699
 30
0.0
 10
118.481742
 20
7.592993
 30
0.0
 10
118.510895
 20
7.605140
 30
0.0
 10
118.544907
 20
7.605140
 30
0.0
  0
LINE
  5
171
100
AcDbEntity
  8
0
 62
7
100
AcDbLine
 10
118.544907
 20
7.605140
 30
0.0
 11
118.544907
 21
7.605141
 31
0.0
  0
LINE
  5
172
100
AcDbEntity
  8
0
 62
7
100
AcDbLine
 10
20.174995
 20
6.280784
 30
0.0
 11
64.625000
 21
6.280784
 31
0.0
  0
SPLINE
  5
173
100
AcDbEntity
  8
0
 62
7
100
AcDbSpline
 70
8
 71
3
 72
8
 73
4
 74
0
 40
0
 40
0
 40
0
 40
0
 40
1
 40
1
 40
1
 40
1
 10
37.723384
 20
9.710196
 30
0.0
 10
37.757396
 20
9.710196
 30
0.0
 10
37.785739
 20
9.698049
 30
0.0
 10
37.808413
 20
9.673755
 30
0.0
  0
SPLINE
  5
174
100
AcDbEntity
  8
0
 62
7
100
AcDbSpline
 70
8
 71
3
 72
8
 73
4
 74
0
 40
0
 40
0
 40
0
 40
0
 40
1
 40
1
 40
1
 40
1
 10
37.808413
 20
9.673755
 30
0.0
 10
37.832707
 20
9.651080
 30
0.0
 10
37.844854
 20
9.622737
 30
0.0
 10
37.844854
 20
9.588726
 30
0.0
  0
LINE
  5
175
100
AcDbEntity
  8
0
 62
7
100
AcDbLine
 10
37.844854
 20
9.588726
 30
0.0
 11
37.844854
 21
7.402255
 31
0.0
  0
SPLINE
  5
176
100
AcDbEntity
  8
0
 62
7
100
AcDbSpline
 70
8
 71
3
 72
8
 73
4
 74
0
 40
0
 40
0
 40
0
 40
0
 40
1
 40
1
 40
1
 40
1
 10
37.844854
 20
7.402255
 30
0.0
 10
37.844854
 20
7.368244
 30
0.0
 10
37.832707
 20
7.339091
 30
0.0
 10
37.808413
 20
7.314796
 30
0.0
  0
SPLINE
  5
177
100
AcDbEntity
  8
0
 62
7
100
AcDbSpline
 70
8
 71
3
 72
8
 73
4
 74
0
 40
0
 40
0
 40
0
 40
0
 40
1
 40
1
 40
1
 40
1
 10
37.808413
 20
7.314796
 30
0.0
 10
37.785738
 20
7.292122
 30
0.0
 10
37.757395
 20
7.280784
 30
0.0
 10
37.723384
 20
7.280784
 30
0.0
  0
SPLINE
  5
178
100
AcDbEntity
  8
0
 62
7
100
AcDbSpline
 70
8
 71
3
 72
8
 73
4
 74
0
 40
0
 40
0
 40
0
 40
0
 40
1
 40
1
 40
1
 40
1
 10
37.723384
 20
7.280784
 30
0.0
 10
37.689372
 20
7.280784
 30
0.0
 10
37.660219
 20
7.292121
 30
0.0
 10
37.635925
 20
7.314796
 30
0.0
  0
SPLINE
  5
179
100
AcDbEntity
  8
0
 62
7
100
AcDbSpline
 70
8
 71
3
 72
8
 73
4
 74
0
 40
0
 40
0
 40
0
 40
0
 40
1
 40
1
 40
1
 40
1
 10
37.635925
 20
7.314796
 30
0.0
 10
37.613250
 20
7.339090
 30
0.0
 10
37.601913
 20
7.368243
 30
0.0
 10
37.601913
 20
7.402255
 30
0.0
  0
LINE
  5
17a
100
AcDbEntity
  8
0
 62
7
100
AcDbLine
 10
37.601913
 20
7.402255
 30
0.0
 11
37.601913
 21
9.294767
 31
0.0
  0
LINE
  5
17b
100
AcDbEntity
  8
0
 62
7
100
AcDbLine
 10
37.601913
 20
9.294767
 30
0.0
 11
37.322530
 21
9.017814
 31
0.0
  0
SPLINE
  5
17c
100
AcDbEntity
  8
0
 62
7
100
AcDbSpline
 70
8
 71
3
 72
8
 73
4
 74
0
 40
0
 40
0
 40
0
 40
0
 40
1
 40
1
 40
1
 40
1
 10
37.322530
 20
9.017814
 30
0.0
 10
37.298236
 20
8.993520
 30
0.0
 10
37.269893
 20
8.981373
 30
0.0
 10
37.237501
 20
8.981373
 30
0.0
  0
SPLINE
  5
17d
100
AcDbEntity
  8
0
 62
7
100
AcDbSpline
 70
8
 71
3
 72
8
 73
4
 74
0
 40
0
 40
0
 40
0
 40
0
 40
1
 40
1
 40
1
 40
1
 10
37.237501
 20
8.981373
 30
0.0
 10
37.203489
 20
8.981373
 30
0.0
 10
37.174336
 20
8.992710
 30
0.0
 10
37.150042
 20
9.015385
 30
0.0
  0
SPLINE
  5
17e
100
AcDbEntity
  8
0
 62
7
100
AcDbSpline
 70
8
 71
3
 72
8
 73
4
 74
0
 40
0
 40
0
 40
0
 40
0
 40
1
 40
1
 40
1
 40
1
 10
37.150042
 20
9.015385
 30
0.0
 10
37.127368
 20
9.039679
 30
0.0
 10
37.116030
 20
9.068832
 30
0.0
 10
37.116030
 20
9.102844
 30
0.0
  0
SPLINE
  5
17f
100
AcDbEntity
  8
0
 62
7
100
AcDbSpline
 70
8
 71
3
 72
8
 73
4
 74
0
 40
0
 40
0
 40
0
 40
0
 40
1
 40
1
 40
1
 40
1
 10
37.116030
 20
9.102844
 30
0.0
 10
37.116030
 20
9.135236
 30
0.0
 10
37.128177
 20
9.163579
 30
0.0
 10
37.152471
 20
9.187873
 30
0.0
  0
LINE
  5
180
100
AcDbEntity
  8
0
 62
7
100
AcDbLine
 10
37.152471
 20
9.187873
 30
0.0
 11
37.638354
 21
9.673755
 31
0.0
  0
SPLINE
  5
181
100
AcDbEntity
  8
0
 62
7
100
AcDbSpline
 70
8
 71
3
 72
8
 73
4
 74
0
 40
0
 40
0
 40
0
 40
0
 40
1
 40
1
 40
1
 40
1
 10
37.638354
 20
9.673755
 30
0.0
 10
37.662648
 20
9.698049
 30
0.0
 10
37.690991
 20
9.710196
 30
0.0
 10
37.723383
 20
9.710196
 30
0.0
  0
LINE
  5
182
100
AcDbEntity
  8
0
 62
7
100
AcDbLine
 10
37.723383
 20
9.710196
 30
0.0
 11
37.723384
 21
9.710196
 31
0.0
  0
SPLINE
  5
183
100
AcDbEntity
  8
0
 62
7
100
AcDbSpline
 70
8
 71
3
 72
8
 73
4
 74
0
 40
0
 40
0
 40
0
 40
0
 40
1
 40
1
 40
1
 40
1
 10
38.865206
 20
9.710196
 30
0.0
 10
38.899218
 20
9.710196
 30
0.0
 10
38.927561
 20
9.698049
 30
0.0
 10
38.950235
 20
9.673755
 30
0.0
  0
SPLINE
  5
184
100
AcDbEntity
  8
0
 62
7
100
AcDbSpline
 70
8
 71
3
 72
8
 73
4
 74
0
 40
0
 40
0
 40
0
 40
0
 40
1
 40
1
 40
1
 40
1
 10
38.950235
 20
9.673755
 30
0.0
 10
38.974529
 20
9.651080
 30
0.0
 10
38.986676
 20
9.622737
 30
0.0
 10
38.986676
 20
9.588726
 30
0.0
  0
SPLINE
  5
185
100
AcDbEntity
  8
0
 62
7
100
AcDbSpline
 70
8
 71
3
 72
8
 73
4
 74
0
 40
0
 40
0
 40
0
 40
0
 40
1
 40
1
 40
1
 40
1
 10
38.986676
 20
9.588726
 30
0.0
 10
38.986676
 20
9.579009
 30
0.0
 10
38.985056
 20
9.567671
 30
0.0
 10
38.981816
 20
9.554714
 30
0.0
  0
LINE
  5
186
100
AcDbEntity
  8
0
 62
7
100
AcDbLine
 10
38.981816
 20
9.554714
 30
0.0
 11
38.539663
 21
8.009608
 31
0.0
  0
LINE
  5
187
100
AcDbEntity
  8
0
 62
7
100
AcDbLine
 10
38.539663
 20
8.009608
 30
0.0
 11
39.108146
 21
8.009608
 31
0.0
  0
LINE
  5
188
100
AcDbEntity
  8
0
 62
7
100
AcDbLine
 10
39.108146
 20
8.009608
 30
0.0
 11
39.108146
 21
8.374019
 31
0.0
  0
SPLINE
  5
189
100
AcDbEntity
  8
0
 62
7
100
AcDbSpline
 70
8
 71
3
 72
8
 73
4
 74
0
 40
0
 40
0
 40
0
 40
0
 40
1
 40
1
 40
1
 40
1
 10
39.108146
 20
8.374019
 30
0.0
 10
39.108146
 20
8.408031
 30
0.0
 10
39.119483
 20
8.436374
 30
0.0
 10
39.142158
 20
8.459048
 30
0.0
  0
SPLINE
  5
18a
100
AcDbEntity
  8
0
 62
7
100
AcDbSpline
 70
8
 71
3
 72
8
 73
4
 74
0
 40
0
 40
0
 40
0
 40
0
 40
1
 40
1
 40
1
 40
1
 10
39.142158
 20
8.459048
 30
0.0
 10
39.166452
 20
8.483342
 30
0.0
 10
39.195605
 20
8.495489
 30
0.0
 10
39.229617
 20
8.495489
 30
0.0
  0
SPLINE
  5
18b
100
AcDbEntity
  8
0
 62
7
100
AcDbSpline
 70
8
 71
3
 72
8
 73
4
 74
0
 40
0
 40
0
 40
0
 40
0
 40
1
 40
1
 40
1
 40
1
 10
39.229617
 20
8.495489
 30
0.0
 10
39.263629
 20
8.495489
 30
0.0
 10
39.291972
 20
8.483342
 30
0.0
 10
39.314646
 20
8.459048
 30
0.0
  0
SPLINE
  5
18c
100
AcDbEntity
  8
0
 62
7
100
AcDbSpline
 70
8
 71
3
 72
8
 73
4
 74
0
 40
0
 40
0
 40
0
 40
0
 40
1
 40
1
 40
1
 40
1
 10
39.314646
 20
8.459048
 30
0.0
 10
39.338940
 20
8.436374
 30
0.0
 10
39.351087
 20
8.408031
 30
0.0
 10
39.351087
 20
8.374019
 30
0.0
  0
LINE
  5
18d
100
AcDbEntity
  8
0
 62
7
100
AcDbLine
 10
39.351087
 20
8.374019
 30
0.0
 11
39.351087
 21
8.009608
 31
0.0
  0
LINE
  5
18e
100
AcDbEntity
  8
0
 62
7
100
AcDbLine
 10
39.351087
 20
8.009608
 30
0.0
 11
39.594028
 21
8.009608
 31
0.0
  0
SPLINE
  5
18f
100
AcDbEntity
  8
0
 62
7
100
AcDbSpline
 70
8
 71
3
 72
8
 73
4
 74
0
 40
0
 40
0
 40
0
 40
0
 40
1
 40
1
 40
1
 40
1
 10
39.594028
 20
8.009608
 30
0.0
 10
39.628040
 20
8.009608
 30
0.0
 10
39.656383
 20
7.997461
 30
0.0
 10
39.679058
 20
7.973166
 30
0.0
  0
SPLINE
  5
190
100
AcDbEntity
  8
0
 62
7
100
AcDbSpline
 70
8
 71
3
 72
8
 73
4
 74
0
 40
0
 40
0
 40
0
 40
0
 40
1
 40
1
 40
1
 40
1
 10
39.679058
 20
7.973166
 30
0.0
 10
39.703352
 20
7.950492
 30
0.0
 10
39.715499
 20
7.922149
 30
0.0
 10
39.715499
 20
7.888137
 30
0.0
  0
SPLINE
  5
191
100
AcDbEntity
  8
0
 62
7
100
AcDbSpline
 70
8
 71
3
 72
8
 73
4
 74
0
 40
0
 40
0
 40
0
 40
0
 40
1
 40
1
 40
1
 40
1
 10
39.715499
 20
7.888137
 30
0.0
 10
39.715499
 20
7.854125
 30
0.0
 10
39.703352
 20
7.824972
 30
0.0
 10
39.679058
 20
7.800678
 30
0.0
  0
SPLINE
  5
192
100
AcDbEntity
  8
0
 62
7
100
AcDbSpline
 70
8
 71
3
 72
8
 73
4
 74
0
 40
0
 40
0
 40
0
 40
0
 40
1
 40
1
 40
1
 40
1
 10
39.679058
 20
7.800678
 30
0.0
 10
39.656383
 20
7.778004
 30
0.0
 10
39.628040
 20
7.766666
 30
0.0
 10
39.594028
 20
7.766666
 30
0.0
  0
LINE
  5
193
100
AcDbEntity
  8
0
 62
7
100
AcDbLine
 10
39.594028
 20
7.766666
 30
0.0
 11
39.351089
 21
7.766666
 31
0.0
  0
LINE
  5
194
100
AcDbEntity
  8
0
 62
7
100
AcDbLine
 10
39.351089
 20
7.766666
 30
0.0
 11
39.351089
 21
7.402255
 31
0.0
  0
SPLINE
  5
195
100
AcDbEntity
  8
0
 62
7
100
AcDbSpline
 70
8
 71
3
 72
8
 73
4
 74
0
 40
0
 40
0
 40
0
 40
0
 40
1
 40
1
 40
1
 40
1
 10
39.351089
 20
7.402255
 30
0.0
 10
39.351089
 20
7.368243
 30
0.0
 10
39.338942
 20
7.339090
 30
0.0
 10
39.314648
 20
7.314796
 30
0.0
  0
SPLINE
  5
196
100
AcDbEntity
  8
0
 62
7
100
AcDbSpline
 70
8
 71
3
 72
8
 73
4
 74
0
 40
0
 40
0
 40
0
 40
0
 40
1
 40
1
 40
1
 40
1
 10
39.314648
 20
7.314796
 30
0.0
 10
39.291973
 20
7.292121
 30
0.0
 10
39.263630
 20
7.280784
 30
0.0
 10
39.229618
 20
7.280784
 30
0.0
  0
SPLINE
  5
197
100
AcDbEntity
  8
0
 62
7
100
AcDbSpline
 70
8
 71
3
 72
8
 73
4
 74
0
 40
0
 40
0
 40
0
 40
0
 40
1
 40
1
 40
1
 40
1
 10
39.229618
 20
7.280784
 30
0.0
 10
39.195606
 20
7.280784
 30
0.0
 10
39.166453
 20
7.292121
 30
0.0
 10
39.142159
 20
7.314796
 30
0.0
  0
SPLINE
  5
198
100
AcDbEntity
  8
0
 62
7
100
AcDbSpline
 70
8
 71
3
 72
8
 73
4
 74
0
 40
0
 40
0
 40
0
 40
0
 40
1
 40
1
 40
1
 40
1
 10
39.142159
 20
7.314796
 30
0.0
 10
39.119484
 20
7.339090
 30
0.0
 10
39.108147
 20
7.368243
 30
0.0
 10
39.108147
 20
7.402255
 30
0.0
  0
LINE
  5
199
100
AcDbEntity
  8
0
 62
7
100
AcDbLine
 10
39.108147
 20
7.402255
 30
0.0
 11
39.108147
 21
7.766666
 31
0.0
  0
LINE
  5
19a
100
AcDbEntity
  8
0
 62
7
100
AcDbLine
 10
39.108147
 20
7.766666
 30
0.0
 11
38.379324
 21
7.766666
 31
0.0
  0
SPLINE
  5
19b
100
AcDbEntity
  8
0
 62
7
100
AcDbSpline
 70
8
 71
3
 72
8
 73
4
 74
0
 40
0
 40
0
 40
0
 40
0
 40
1
 40
1
 40
1
 40
1
 10
38.379324
 20
7.766666
 30
0.0
 10
38.345312
 20
7.766666
 30
0.0
 10
38.316159
 20
7.778004
 30
0.0
 10
38.291865
 20
7.800678
 30
0.0
  0
SPLINE
  5
19c
100
AcDbEntity
  8
0
 62
7
100
AcDbSpline
 70
8
 71
3
 72
8
 73
4
 74
0
 40
0
 40
0
 40
0
 40
0
 40
1
 40
1
 40
1
 40
1
 10
38.291865
 20
7.800678
 30
0.0
 10
38.269190
 20
7.824972
 30
0.0
 10
38.257853
 20
7.854125
 30
0.0
 10
38.257853
 20
7.888137
 30
0.0
  0
SPLINE
  5
19d
100
AcDbEntity
  8
0
 62
7
100
AcDbSpline
 70
8
 71
3
 72
8
 73
4
 74
0
 40
0
 40
0
 40
0
 40
0
 40
1
 40
1
 40
1
 40
1
 10
38.257853
 20
7.888137
 30
0.0
 10
38.257853
 20
7.897855
 30
0.0
 10
38.259473
 20
7.909192
 30
0.0
 10
38.262713
 20
7.922149
 30
0.0
  0
LINE
  5
19e
100
AcDbEntity
  8
0
 62
7
100
AcDbLine
 10
38.262713
 20
7.922149
 30
0.0
 11
38.748595
 21
9.622737
 31
0.0
  0
SPLINE
  5
19f
100
AcDbEntity
  8
0
 62
7
100
AcDbSpline
 70
8
 71
3
 72
8
 73
4
 74
0
 40
0
 40
0
 40
0
 40
0
 40
1
 40
1
 40
1
 40
1
 10
38.748595
 20
9.622737
 30
0.0
 10
38.756693
 20
9.648651
 30
0.0
 10
38.771269
 20
9.669706
 30
0.0
 10
38.792324
 20
9.685902
 30
0.0
  0
SPLINE
  5
1a0
100
AcDbEntity
  8
0
 62
7
100
AcDbSpline
 70
8
 71
3
 72
8
 73
4
 74
0
 40
0
 40
0
 40
0
 40
0
 40
1
 40
1
 40
1
 40
1
 10
38.792324
 20
9.685902
 30
0.0
 10
38.813378
 20
9.702098
 30
0.0
 10
38.837672
 20
9.710196
 30
0.0
 10
38.865206
 20
9.710196
 30
0.0
  0
LINE
  5
1a1
100
AcDbEntity
  8
0
 62
7
100
AcDbLine
 10
38.865206
 20
9.710196
 30
0.0
 11
38.865206
 21
9.710196
 31
0.0
  0
SPLINE
  5
1a2
100
AcDbEntity
  8
0
 62
7
100
AcDbSpline
 70
8
 71
3
 72
8
 73
4
 74
0
 40
0
 40
0
 40
0
 40
0
 40
1
 40
1
 40
1
 40
1
 10
40.152792
 20
9.710196
 30
0.0
 10
40.186804
 20
9.710196
 30
0.0
 10
40.215148
 20
9.698049
 30
0.0
 10
40.237822
 20
9.673755
 30
0.0
  0
SPLINE
  5
1a3
100
AcDbEntity
  8
0
 62
7
100
AcDbSpline
 70
8
 71
3
 72
8
 73
4
 74
0
 40
0
 40
0
 40
0
 40
0
 40
1
 40
1
 40
1
 40
1
 10
40.237822
 20
9.673755
 30
0.0
 10
40.262116
 20
9.651080
 30
0.0
 10
40.274263
 20
9.622737
 30
0.0
 10
40.274263
 20
9.588726
 30
0.0
  0
SPLINE
  5
1a4
100
AcDbEntity
  8
0
 62
7
100
AcDbSpline
 70
8
 71
3
 72
8
 73
4
 74
0
 40
0
 40
0
 40
0
 40
0
 40
1
 40
1
 40
1
 40
1
 10
40.274263
 20
9.588726
 30
0.0
 10
40.274263
 20
9.575769
 30
0.0
 10
40.273453
 20
9.566052
 30
0.0
 10
40.271833
 20
9.559573
 30
0.0
  0
LINE
  5
1a5
100
AcDbEntity
  8
0
 62
7
100
AcDbLine
 10
40.271833
 20
9.559573
 30
0.0
 11
40.150363
 21
9.073691
 31
0.0
  0
SPLINE
  5
1a6
100
AcDbEntity
  8
0
 62
7
100
AcDbSpline
 70
8
 71
3
 72
8
 73
4
 74
0
 40
0
 40
0
 40
0
 40
0
 40
1
 40
1
 40
1
 40
1
 10
40.150363
 20
9.073691
 30
0.0
 10
40.143883
 20
9.047777
 30
0.0
 10
40.129306
 20
9.025912
 30
0.0
 10
40.106634
 20
9.008097
 30
0.0
  0
SPLINE
  5
1a7
100
AcDbEntity
  8
0
 62
7
100
AcDbSpline
 70
8
 71
3
 72
8
 73
4
 74
0
 40
0
 40
0
 40
0
 40
0
 40
1
 40
1
 40
1
 40
1
 10
40.106634
 20
9.008097
 30
0.0
 10
40.083959
 20
8.990281
 30
0.0
 10
40.058855
 20
8.981373
 30
0.0
 10
40.031322
 20
8.981373
 30
0.0
  0
SPLINE
  5
1a8
100
AcDbEntity
  8
0
 62
7
100
AcDbSpline
 70
8
 71
3
 72
8
 73
4
 74
0
 40
0
 40
0
 40
0
 40
0
 40
1
 40
1
 40
1
 40
1
 10
40.031322
 20
8.981373
 30
0.0
 10
39.997310
 20
8.981373
 30
0.0
 10
39.968157
 20
8.992710
 30
0.0
 10
39.943863
 20
9.015385
 30
0.0
  0
SPLINE
  5
1a9
100
AcDbEntity
  8
0
 62
7
100
AcDbSpline
 70
8
 71
3
 72
8
 73
4
 74
0
 40
0
 40
0
 40
0
 40
0
 40
1
 40
1
 40
1
 40
1
 10
39.943863
 20
9.015385
 30
0.0
 10
39.921188
 20
9.039679
 30
0.0
 10
39.909851
 20
9.068832
 30
0.0
 10
39.909851
 20
9.102844
 30
0.0
  0
SPLINE
  5
1aa
100
AcDbEntity
  8
0
 62
7
100
AcDbSpline
 70
8
 71
3
 72
8
 73
4
 74
0
 40
0
 40
0
 40
0
 40
0
 40
1
 40
1
 40
1
 40
1
 10
39.909851
 20
9.102844
 30
0.0
 10
39.909851
 20
9.115800
 30
0.0
 10
39.910661
 20
9.125518
 30
0.0
 10
39.912281
 20
9.131997
 30
0.0
  0
LINE
  5
1ab
100
AcDbEntity
  8
0
 62
7
100
AcDbLine
 10
39.912281
 20
9.131997
 30
0.0
 11
40.033751
 21
9.617879
 31
0.0
  0
SPLINE
  5
1ac
100
AcDbEntity
  8
0
 62
7
100
AcDbSpline
 70
8
 71
3
 72
8
 73
4
 74
0
 40
0
 40
0
 40
0
 40
0
 40
1
 40
1
 40
1
 40
1
 10
40.033751
 20
9.617879
 30
0.0
 10
40.040231
 20
9.643793
 30
0.0
 10
40.054808
 20
9.665658
 30
0.0
 10
40.077480
 20
9.683473
 30
0.0
  0
SPLINE
  5
1ad
100
AcDbEntity
  8
0
 62
7
100
AcDbSpline
 70
8
 71
3
 72
8
 73
4
 74
0
 40
0
 40
0
 40
0
 40
0
 40
1
 40
1
 40
1
 40
1
 10
40.077480
 20
9.683473
 30
0.0
 10
40.100155
 20
9.701289
 30
0.0
 10
40.125259
 20
9.710197
 30
0.0
 10
40.152792
 20
9.710197
 30
0.0
  0
LINE
  5
1ae
100
AcDbEntity
  8
0
 62
7
100
AcDbLine
 10
40.152792
 20
9.710197
 30
0.0
 11
40.152792
 21
9.710196
 31
0.0
  0
LINE
  5
1af
100
AcDbEntity
  8
0
 62
7
100
AcDbLine
 10
42.217792
 20
8.252549
 30
0.0
 11
43.189557
 21
8.252549
 31
0.0
  0
SPLINE
  5
1b0
100
AcDbEntity
  8
0
 62
7
100
AcDbSpline
 70
8
 71
3
 72
8
 73
4
 74
0
 40
0
 40
0
 40
0
 40
0
 40
1
 40
1
 40
1
 40
1
 10
43.189557
 20
8.252549
 30
0.0
 10
43.223569
 20
8.252549
 30
0.0
 10
43.251912
 20
8.240402
 30
0.0
 10
43.274586
 20
8.216108
 30
0.0
  0
SPLINE
  5
1b1
100
AcDbEntity
  8
0
 62
7
100
AcDbSpline
 70
8
 71
3
 72
8
 73
4
 74
0
 40
0
 40
0
 40
0
 40
0
 40
1
 40
1
 40
1
 40
1
 10
43.274586
 20
8.216108
 30
0.0
 10
43.298881
 20
8.193433
 30
0.0
 10
43.311028
 20
8.165090
 30
0.0
 10
43.311028
 20
8.131078
 30
0.0
  0
SPLINE
  5
1b2
100
AcDbEntity
  8
0
 62
7
100
AcDbSpline
 70
8
 71
3
 72
8
 73
4
 74
0
 40
0
 40
0
 40
0
 40
0
 40
1
 40
1
 40
1
 40
1
 10
43.311028
 20
8.131078
 30
0.0
 10
43.311028
 20
8.097066
 30
0.0
 10
43.298881
 20
8.067914
 30
0.0
 10
43.274586
 20
8.043619
 30
0.0
  0
SPLINE
  5
1b3
100
AcDbEntity
  8
0
 62
7
100
AcDbSpline
 70
8
 71
3
 72
8
 73
4
 74
0
 40
0
 40
0
 40
0
 40
0
 40
1
 40
1
 40
1
 40
1
 10
43.274586
 20
8.043619
 30
0.0
 10
43.251912
 20
8.020945
 30
0.0
 10
43.223569
 20
8.009608
 30
0.0
 10
43.189557
 20
8.009608
 30
0.0
  0
LINE
  5
1b4
100
AcDbEntity
  8
0
 62
7
100
AcDbLine
 10
43.189557
 20
8.009608
 30
0.0
 11
42.217792
 21
8.009608
 31
0.0
  0
SPLINE
  5
1b5
100
AcDbEntity
  8
0
 62
7
100
AcDbSpline
 70
8
 71
3
 72
8
 73
4
 74
0
 40
0
 40
0
 40
0
 40
0
 40
1
 40
1
 40
1
 40
1
 10
42.217792
 20
8.009608
 30
0.0
 10
42.183781
 20
8.009608
 30
0.0
 10
42.154628
 20
8.020945
 30
0.0
 10
42.130334
 20
8.043619
 30
0.0
  0
SPLINE
  5
1b6
100
AcDbEntity
  8
0
 62
7
100
AcDbSpline
 70
8
 71
3
 72
8
 73
4
 74
0
 40
0
 40
0
 40
0
 40
0
 40
1
 40
1
 40
1
 40
1
 10
42.130334
 20
8.043619
 30
0.0
 10
42.107659
 20
8.067914
 30
0.0
 10
42.096322
 20
8.097067
 30
0.0
 10
42.096322
 20
8.131078
 30
0.0
  0
SPLINE
  5
1b7
100
AcDbEntity
  8
0
 62
7
100
AcDbSpline
 70
8
 71
3
 72
8
 73
4
 74
0
 40
0
 40
0
 40
0
 40
0
 40
1
 40
1
 40
1
 40
1
 10
42.096322
 20
8.131078
 30
0.0
 10
42.096322
 20
8.165090
 30
0.0
 10
42.107659
 20
8.193433
 30
0.0
 10
42.130334
 20
8.216108
 30
0.0
  0
SPLINE
  5
1b8
100
AcDbEntity
  8
0
 62
7
100
AcDbSpline
 70
8
 71
3
 72
8
 73
4
 74
0
 40
0
 40
0
 40
0
 40
0
 40
1
 40
1
 40
1
 40
1
 10
42.130334
 20
8.216108
 30
0.0
 10
42.154628
 20
8.240402
 30
0.0
 10
42.183781
 20
8.252549
 30
0.0
 10
42.217792
 20
8.252549
 30
0.0
  0
LINE
  5
1b9
100
AcDbEntity
  8
0
 62
7
100
AcDbLine
 10
42.217792
 20
8.252549
 30
0.0
 11
42.217792
 21
8.252549
 31
0.0
  0
SPLINE
  5
1ba
100
AcDbEntity
  8
0
 62
7
100
AcDbSpline
 70
8
 71
3
 72
8
 73
4
 74
0
 40
0
 40
0
 40
0
 40
0
 40
1
 40
1
 40
1
 40
1
 10
45.431903
 20
9.605731
 30
0.0
 10
45.550134
 20
9.723963
 30
0.0
 10
45.693470
 20
9.783078
 30
0.0
 10
45.861909
 20
9.783078
 30
0.0
  0
SPLINE
  5
1bb
100
AcDbEntity
  8
0
 62
7
100
AcDbSpline
 70
8
 71
3
 72
8
 73
4
 74
0
 40
0
 40
0
 40
0
 40
0
 40
1
 40
1
 40
1
 40
1
 10
45.861909
 20
9.783078
 30
0.0
 10
46.030348
 20
9.783078
 30
0.0
 10
46.173683
 20
9.723963
 30
0.0
 10
46.291915
 20
9.605731
 30
0.0
  0
SPLINE
  5
1bc
100
AcDbEntity
  8
0
 62
7
100
AcDbSpline
 70
8
 71
3
 72
8
 73
4
 74
0
 40
0
 40
0
 40
0
 40
0
 40
1
 40
1
 40
1
 40
1
 10
46.291915
 20
9.605731
 30
0.0
 10
46.410146
 20
9.487500
 30
0.0
 10
46.469262
 20
9.344165
 30
0.0
 10
46.469262
 20
9.175725
 30
0.0
  0
LINE
  5
1bd
100
AcDbEntity
  8
0
 62
7
100
AcDbLine
 10
46.469262
 20
9.175725
 30
0.0
 11
46.469262
 21
7.815255
 31
0.0
  0
SPLINE
  5
1be
100
AcDbEntity
  8
0
 62
7
100
AcDbSpline
 70
8
 71
3
 72
8
 73
4
 74
0
 40
0
 40
0
 40
0
 40
0
 40
1
 40
1
 40
1
 40
1
 10
46.469262
 20
7.815255
 30
0.0
 10
46.469262
 20
7.646815
 30
0.0
 10
46.410146
 20
7.503480
 30
0.0
 10
46.291915
 20
7.385249
 30
0.0
  0
SPLINE
  5
1bf
100
AcDbEntity
  8
0
 62
7
100
AcDbSpline
 70
8
 71
3
 72
8
 73
4
 74
0
 40
0
 40
0
 40
0
 40
0
 40
1
 40
1
 40
1
 40
1
 10
46.291915
 20
7.385249
 30
0.0
 10
46.173683
 20
7.267017
 30
0.0
 10
46.030348
 20
7.207902
 30
0.0
 10
45.861909
 20
7.207902
 30
0.0
  0
SPLINE
  5
1c0
100
AcDbEntity
  8
0
 62
7
100
AcDbSpline
 70
8
 71
3
 72
8
 73
4
 74
0
 40
0
 40
0
 40
0
 40
0
 40
1
 40
1
 40
1
 40
1
 10
45.861909
 20
7.207902
 30
0.0
 10
45.693470
 20
7.207902
 30
0.0
 10
45.550134
 20
7.267017
 30
0.0
 10
45.431903
 20
7.385249
 30
0.0
  0
SPLINE
  5
1c1
100
AcDbEntity
  8
0
 62
7
100
AcDbSpline
 70
8
 71
3
 72
8
 73
4
 74
0
 40
0
 40
0
 40
0
 40
0
 40
1
 40
1
 40
1
 40
1
 10
45.431903
 20
7.385249
 30
0.0
 10
45.313672
 20
7.503480
 30
0.0
 10
45.254556
 20
7.646815
 30
0.0
 10
45.254556
 20
7.815255
 30
0.0
  0
LINE
  5
1c2
100
AcDbEntity
  8
0
 62
7
100
AcDbLine
 10
45.254556
 20
7.815255
 30
0.0
 11
45.254556
 21
9.175725
 31
0.0
  0
SPLINE
  5
1c3
100
AcDbEntity
  8
0
 62
7
100
AcDbSpline
 70
8
 71
3
 72
8
 73
4
 74
0
 40
0
 40
0
 40
0
 40
0
 40
1
 40
1
 40
1
 40
1
 10
45.254556
 20
9.175725
 30
0.0
 10
45.254556
 20
9.344165
 30
0.0
 10
45.313672
 20
9.487500
 30
0.0
 10
45.431903
 20
9.605731
 30
0.0
  0
LINE
  5
1c4
100
AcDbEntity
  8
0
 62
7
100
AcDbLine
 10
45.431903
 20
9.605731
 30
0.0
 11
45.431903
 21
9.605731
 31
0.0
  0
SPLINE
  5
1c5
100
AcDbEntity
  8
0
 62
7
100
AcDbSpline
 70
8
 71
3
 72
8
 73
4
 74
0
 40
0
 40
0
 40
0
 40
0
 40
1
 40
1
 40
1
 40
1
 10
46.119426
 20
9.433243
 30
0.0
 10
46.048164
 20
9.504506
 30
0.0
 10
45.962324
 20
9.540137
 30
0.0
 10
45.861909
 20
9.540137
 30
0.0
  0
SPLINE
  5
1c6
100
AcDbEntity
  8
0
 62
7
100
AcDbSpline
 70
8
 71
3
 72
8
 73
4
 74
0
 40
0
 40
0
 40
0
 40
0
 40
1
 40
1
 40
1
 40
1
 10
45.861909
 20
9.540137
 30
0.0
 10
45.761493
 20
9.540137
 30
0.0
 10
45.675654
 20
9.504506
 30
0.0
 10
45.604391
 20
9.433243
 30
0.0
  0
SPLINE
  5
1c7
100
AcDbEntity
  8
0
 62
7
100
AcDbSpline
 70
8
 71
3
 72
8
 73
4
 74
0
 40
0
 40
0
 40
0
 40
0
 40
1
 40
1
 40
1
 40
1
 10
45.604391
 20
9.433243
 30
0.0
 10
45.533128
 20
9.361980
 30
0.0
 10
45.497497
 20
9.276141
 30
0.0
 10
45.497497
 20
9.175725
 30
0.0
  0
LINE
  5
1c8
100
AcDbEntity
  8
0
 62
7
100
AcDbLine
 10
45.497497
 20
9.175725
 30
0.0
 11
45.497497
 21
7.815255
 31
0.0
  0
SPLINE
  5
1c9
100
AcDbEntity
  8
0
 62
7
100
AcDbSpline
 70
8
 71
3
 72
8
 73
4
 74
0
 40
0
 40
0
 40
0
 40
0
 40
1
 40
1
 40
1
 40
1
 10
45.497497
 20
7.815255
 30
0.0
 10
45.497497
 20
7.714839
 30
0.0
 10
45.533128
 20
7.629000
 30
0.0
 10
45.604391
 20
7.557737
 30
0.0
  0
SPLINE
  5
1ca
100
AcDbEntity
  8
0
 62
7
100
AcDbSpline
 70
8
 71
3
 72
8
 73
4
 74
0
 40
0
 40
0
 40
0
 40
0
 40
1
 40
1
 40
1
 40
1
 10
45.604391
 20
7.557737
 30
0.0
 10
45.675654
 20
7.486474
 30
0.0
 10
45.761493
 20
7.450843
 30
0.0
 10
45.861909
 20
7.450843
 30
0.0
  0
SPLINE
  5
1cb
100
AcDbEntity
  8
0
 62
7
100
AcDbSpline
 70
8
 71
3
 72
8
 73
4
 74
0
 40
0
 40
0
 40
0
 40
0
 40
1
 40
1
 40
1
 40
1
 10
45.861909
 20
7.450843
 30
0.0
 10
45.962324
 20
7.450843
 30
0.0
 10
46.048164
 20
7.486474
 30
0.0
 10
46.119426
 20
7.557737
 30
0.0
  0
SPLINE
  5
1cc
100
AcDbEntity
  8
0
 62
7
100
AcDbSpline
 70
8
 71
3
 72
8
 73
4
 74
0
 40
0
 40
0
 40
0
 40
0
 40
1
 40
1
 40
1
 40
1
 10
46.119426
 20
7.557737
 30
0.0
 10
46.190689
 20
7.629000
 30
0.0
 10
46.226321
 20
7.714839
 30
0.0
 10
46.226321
 20
7.815255
 30
0.0
  0
LINE
  5
1cd
100
AcDbEntity
  8
0
 62
7
100
AcDbLine
 10
46.226321
 20
7.815255
 30
0.0
 11
46.226321
 21
9.175725
 31
0.0
  0
SPLINE
  5
1ce
100
AcDbEntity
  8
0
 62
7
100
AcDbSpline
 70
8
 71
3
 72
8
 73
4
 74
0
 40
0
 40
0
 40
0
 40
0
 40
1
 40
1
 40
1
 40
1
 10
46.226321
 20
9.175725
 30
0.0
 10
46.226321
 20
9.276141
 30
0.0
 10
46.190689
 20
9.361980
 30
0.0
 10
46.119426
 20
9.433243
 30
0.0
  0
LINE
  5
1cf
100
AcDbEntity
  8
0
 62
7
100
AcDbLine
 10
46.119426
 20
9.433243
 30
0.0
 11
46.119426
 21
9.433243
 31
0.0
  0
SPLINE
  5
1d0
100
AcDbEntity
  8
0
 62
7
100
AcDbSpline
 70
8
 71
3
 72
8
 73
4
 74
0
 40
0
 40
0
 40
0
 40
0
 40
1
 40
1
 40
1
 40
1
 10
47.562495
 20
9.710196
 30
0.0
 10
47.596507
 20
9.710196
 30
0.0
 10
47.624850
 20
9.698049
 30
0.0
 10
47.647524
 20
9.673755
 30
0.0
  0
SPLINE
  5
1d1
100
AcDbEntity
  8
0
 62
7
100
AcDbSpline
 70
8
 71
3
 72
8
 73
4
 74
0
 40
0
 40
0
 40
0
 40
0
 40
1
 40
1
 40
1
 40
1
 10
47.647524
 20
9.673755
 30
0.0
 10
47.671818
 20
9.651080
 30
0.0
 10
47.683965
 20
9.622737
 30
0.0
 10
47.683965
 20
9.588726
 30
0.0
  0
SPLINE
  5
1d2
100
AcDbEntity
  8
0
 62
7
100
AcDbSpline
 70
8
 71
3
 72
8
 73
4
 74
0
 40
0
 40
0
 40
0
 40
0
 40
1
 40
1
 40
1
 40
1
 10
47.683965
 20
9.588726
 30
0.0
 10
47.683965
 20
9.575769
 30
0.0
 10
47.683155
 20
9.566052
 30
0.0
 10
47.681535
 20
9.559573
 30
0.0
  0
LINE
  5
1d3
100
AcDbEntity
  8
0
 62
7
100
AcDbLine
 10
47.681535
 20
9.559573
 30
0.0
 11
47.560066
 21
9.073690
 31
0.0
  0
SPLINE
  5
1d4
100
AcDbEntity
  8
0
 62
7
100
AcDbSpline
 70
8
 71
3
 72
8
 73
4
 74
0
 40
0
 40
0
 40
0
 40
0
 40
1
 40
1
 40
1
 40
1
 10
47.560066
 20
9.073690
 30
0.0
 10
47.553586
 20
9.047776
 30
0.0
 10
47.539009
 20
9.025911
 30
0.0
 10
47.516337
 20
9.008096
 30
0.0
  0
SPLINE
  5
1d5
100
AcDbEntity
  8
0
 62
7
100
AcDbSpline
 70
8
 71
3
 72
8
 73
4
 74
0
 40
0
 40
0
 40
0
 40
0
 40
1
 40
1
 40
1
 40
1
 10
47.516337
 20
9.008096
 30
0.0
 10
47.493662
 20
8.990280
 30
0.0
 10
47.468558
 20
8.981372
 30
0.0
 10
47.441025
 20
8.981372
 30
0.0
  0
SPLINE
  5
1d6
100
AcDbEntity
  8
0
 62
7
100
AcDbSpline
 70
8
 71
3
 72
8
 73
4
 74
0
 40
0
 40
0
 40
0
 40
0
 40
1
 40
1
 40
1
 40
1
 10
47.441025
 20
8.981372
 30
0.0
 10
47.407013
 20
8.981372
 30
0.0
 10
47.377860
 20
8.992709
 30
0.0
 10
47.353566
 20
9.015384
 30
0.0
  0
SPLINE
  5
1d7
100
AcDbEntity
  8
0
 62
7
100
AcDbSpline
 70
8
 71
3
 72
8
 73
4
 74
0
 40
0
 40
0
 40
0
 40
0
 40
1
 40
1
 40
1
 40
1
 10
47.353566
 20
9.015384
 30
0.0
 10
47.330891
 20
9.039678
 30
0.0
 10
47.319554
 20
9.068831
 30
0.0
 10
47.319554
 20
9.102843
 30
0.0
  0
SPLINE
  5
1d8
100
AcDbEntity
  8
0
 62
7
100
AcDbSpline
 70
8
 71
3
 72
8
 73
4
 74
0
 40
0
 40
0
 40
0
 40
0
 40
1
 40
1
 40
1
 40
1
 10
47.319554
 20
9.102843
 30
0.0
 10
47.319554
 20
9.115800
 30
0.0
 10
47.320364
 20
9.125517
 30
0.0
 10
47.321984
 20
9.131996
 30
0.0
  0
LINE
  5
1d9
100
AcDbEntity
  8
0
 62
7
100
AcDbLine
 10
47.321984
 20
9.131996
 30
0.0
 11
47.443454
 21
9.617878
 31
0.0
  0
SPLINE
  5
1da
100
AcDbEntity
  8
0
 62
7
100
AcDbSpline
 70
8
 71
3
 72
8
 73
4
 74
0
 40
0
 40
0
 40
0
 40
0
 40
1
 40
1
 40
1
 40
1
 10
47.443454
 20
9.617878
 30
0.0
 10
47.449934
 20
9.643792
 30
0.0
 10
47.464511
 20
9.665657
 30
0.0
 10
47.487183
 20
9.683472
 30
0.0
  0
SPLINE
  5
1db
100
AcDbEntity
  8
0
 62
7
100
AcDbSpline
 70
8
 71
3
 72
8
 73
4
 74
0
 40
0
 40
0
 40
0
 40
0
 40
1
 40
1
 40
1
 40
1
 10
47.487183
 20
9.683472
 30
0.0
 10
47.509858
 20
9.701288
 30
0.0
 10
47.534962
 20
9.710196
 30
0.0
 10
47.562495
 20
9.710196
 30
0.0
  0
LINE
  5
1dc
100
AcDbEntity
  8
0
 62
7
100
AcDbLine
 10
47.562495
 20
9.710196
 30
0.0
 11
47.562495
 21
9.710196
 31
0.0
  0
SPLINE
  5
1dd
100
AcDbEntity
  8
0
 62
7
100
AcDbSpline
 70
8
 71
3
 72
8
 73
4
 74
0
 40
0
 40
0
 40
0
 40
0
 40
1
 40
1
 40
1
 40
1
 10
47.076613
 20
9.710196
 30
0.0
 10
47.110625
 20
9.710196
 30
0.0
 10
47.138968
 20
9.698049
 30
0.0
 10
47.161642
 20
9.673755
 30
0.0
  0
SPLINE
  5
1de
100
AcDbEntity
  8
0
 62
7
100
AcDbSpline
 70
8
 71
3
 72
8
 73
4
 74
0
 40
0
 40
0
 40
0
 40
0
 40
1
 40
1
 40
1
 40
1
 10
47.161642
 20
9.673755
 30
0.0
 10
47.185936
 20
9.651080
 30
0.0
 10
47.198083
 20
9.622737
 30
0.0
 10
47.198083
 20
9.588726
 30
0.0
  0
SPLINE
  5
1df
100
AcDbEntity
  8
0
 62
7
100
AcDbSpline
 70
8
 71
3
 72
8
 73
4
 74
0
 40
0
 40
0
 40
0
 40
0
 40
1
 40
1
 40
1
 40
1
 10
47.198083
 20
9.588726
 30
0.0
 10
47.198083
 20
9.575769
 30
0.0
 10
47.197273
 20
9.566052
 30
0.0
 10
47.195653
 20
9.559573
 30
0.0
  0
LINE
  5
1e0
100
AcDbEntity
  8
0
 62
7
100
AcDbLine
 10
47.195653
 20
9.559573
 30
0.0
 11
47.074182
 21
9.073691
 31
0.0
  0
SPLINE
  5
1e1
100
AcDbEntity
  8
0
 62
7
100
AcDbSpline
 70
8
 71
3
 72
8
 73
4
 74
0
 40
0
 40
0
 40
0
 40
0
 40
1
 40
1
 40
1
 40
1
 10
47.074182
 20
9.073691
 30
0.0
 10
47.067702
 20
9.047777
 30
0.0
 10
47.053126
 20
9.025912
 30
0.0
 10
47.030453
 20
9.008097
 30
0.0
  0
SPLINE
  5
1e2
100
AcDbEntity
  8
0
 62
7
100
AcDbSpline
 70
8
 71
3
 72
8
 73
4
 74
0
 40
0
 40
0
 40
0
 40
0
 40
1
 40
1
 40
1
 40
1
 10
47.030453
 20
9.008097
 30
0.0
 10
47.007778
 20
8.990281
 30
0.0
 10
46.982674
 20
8.981373
 30
0.0
 10
46.955141
 20
8.981373
 30
0.0
  0
SPLINE
  5
1e3
100
AcDbEntity
  8
0
 62
7
100
AcDbSpline
 70
8
 71
3
 72
8
 73
4
 74
0
 40
0
 40
0
 40
0
 40
0
 40
1
 40
1
 40
1
 40
1
 10
46.955141
 20
8.981373
 30
0.0
 10
46.921129
 20
8.981373
 30
0.0
 10
46.891976
 20
8.992710
 30
0.0
 10
46.867682
 20
9.015385
 30
0.0
  0
SPLINE
  5
1e4
100
AcDbEntity
  8
0
 62
7
100
AcDbSpline
 70
8
 71
3
 72
8
 73
4
 74
0
 40
0
 40
0
 40
0
 40
0
 40
1
 40
1
 40
1
 40
1
 10
46.867682
 20
9.015385
 30
0.0
 10
46.845007
 20
9.039679
 30
0.0
 10
46.833670
 20
9.068832
 30
0.0
 10
46.833670
 20
9.102844
 30
0.0
  0
SPLINE
  5
1e5
100
AcDbEntity
  8
0
 62
7
100
AcDbSpline
 70
8
 71
3
 72
8
 73
4
 74
0
 40
0
 40
0
 40
0
 40
0
 40
1
 40
1
 40
1
 40
1
 10
46.833670
 20
9.102844
 30
0.0
 10
46.833670
 20
9.115800
 30
0.0
 10
46.834480
 20
9.125518
 30
0.0
 10
46.836100
 20
9.131997
 30
0.0
  0
LINE
  5
1e6
100
AcDbEntity
  8
0
 62
7
100
AcDbLine
 10
46.836100
 20
9.131997
 30
0.0
 11
46.957571
 21
9.617879
 31
0.0
  0
SPLINE
  5
1e7
100
AcDbEntity
  8
0
 62
7
100
AcDbSpline
 70
8
 71
3
 72
8
 73
4
 74
0
 40
0
 40
0
 40
0
 40
0
 40
1
 40
1
 40
1
 40
1
 10
46.957571
 20
9.617879
 30
0.0
 10
46.964051
 20
9.643793
 30
0.0
 10
46.978627
 20
9.665658
 30
0.0
 10
47.001300
 20
9.683473
 30
0.0
  0
SPLINE
  5
1e8
100
AcDbEntity
  8
0
 62
7
100
AcDbSpline
 70
8
 71
3
 72
8
 73
4
 74
0
 40
0
 40
0
 40
0
 40
0
 40
1
 40
1
 40
1
 40
1
 10
47.001300
 20
9.683473
 30
0.0
 10
47.023974
 20
9.701289
 30
0.0
 10
47.049078
 20
9.710197
 30
0.0
 10
47.076612
 20
9.710197
 30
0.0
  0
LINE
  5
1e9
100
AcDbEntity
  8
0
 62
7
100
AcDbLine
 10
47.076612
 20
9.710197
 30
0.0
 11
47.076613
 21
9.710196
 31
0.0
  0
LINE
  5
1ea
100
AcDbEntity
  8
0
 62
7
100
AcDbLine
 10
5.896946
 20
12.148101
 30
0.0
 11
5.896946
 21
56.598100
 31
0.0
  0
SPLINE
  5
1eb
100
AcDbEntity
  8
0
 62
7
100
AcDbSpline
 70
8
 71
3
 72
8
 73
4
 74
0
 40
0
 40
0
 40
0
 40
0
 40
1
 40
1
 40
1
 40
1
 10
2.467534
 20
29.696486
 30
0.0
 10
2.467534
 20
29.730498
 30
0.0
 10
2.479681
 20
29.758841
 30
0.0
 10
2.503975
 20
29.781515
 30
0.0
  0
SPLINE
  5
1ec
100
AcDbEntity
  8
0
 62
7
100
AcDbSpline
 70
8
 71
3
 72
8
 73
4
 74
0
 40
0
 40
0
 40
0
 40
0
 40
1
 40
1
 40
1
 40
1
 10
2.503975
 20
29.781515
 30
0.0
 10
2.526650
 20
29.805809
 30
0.0
 10
2.554993
 20
29.817956
 30
0.0
 10
2.589004
 20
29.817956
 30
0.0
  0
LINE
  5
1ed
100
AcDbEntity
  8
0
 62
7
100
AcDbLine
 10
2.589004
 20
29.817956
 30
0.0
 11
4.775475
 21
29.817956
 31
0.0
  0
SPLINE
  5
1ee
100
AcDbEntity
  8
0
 62
7
100
AcDbSpline
 70
8
 71
3
 72
8
 73
4
 74
0
 40
0
 40
0
 40
0
 40
0
 40
1
 40
1
 40
1
 40
1
 10
4.775475
 20
29.817956
 30
0.0
 10
4.809487
 20
29.817956
 30
0.0
 10
4.838640
 20
29.805809
 30
0.0
 10
4.862934
 20
29.781515
 30
0.0
  0
SPLINE
  5
1ef
100
AcDbEntity
  8
0
 62
7
100
AcDbSpline
 70
8
 71
3
 72
8
 73
4
 74
0
 40
0
 40
0
 40
0
 40
0
 40
1
 40
1
 40
1
 40
1
 10
4.862934
 20
29.781515
 30
0.0
 10
4.885609
 20
29.758840
 30
0.0
 10
4.896946
 20
29.730497
 30
0.0
 10
4.896946
 20
29.696486
 30
0.0
  0
SPLINE
  5
1f0
100
AcDbEntity
  8
0
 62
7
100
AcDbSpline
 70
8
 71
3
 72
8
 73
4
 74
0
 40
0
 40
0
 40
0
 40
0
 40
1
 40
1
 40
1
 40
1
 10
4.896946
 20
29.696486
 30
0.0
 10
4.896946
 20
29.662474
 30
0.0
 10
4.885609
 20
29.633321
 30
0.0
 10
4.862934
 20
29.609027
 30
0.0
  0
SPLINE
  5
1f1
100
AcDbEntity
  8
0
 62
7
100
AcDbSpline
 70
8
 71
3
 72
8
 73
4
 74
0
 40
0
 40
0
 40
0
 40
0
 40
1
 40
1
 40
1
 40
1
 10
4.862934
 20
29.609027
 30
0.0
 10
4.838640
 20
29.586352
 30
0.0
 10
4.809487
 20
29.575015
 30
0.0
 10
4.775476
 20
29.575015
 30
0.0
  0
LINE
  5
1f2
100
AcDbEntity
  8
0
 62
7
100
AcDbLine
 10
4.775476
 20
29.575015
 30
0.0
 11
2.882964
 21
29.575015
 31
0.0
  0
LINE
  5
1f3
100
AcDbEntity
  8
0
 62
7
100
AcDbLine
 10
2.882964
 20
29.575015
 30
0.0
 11
3.159917
 21
29.295632
 31
0.0
  0
SPLINE
  5
1f4
100
AcDbEntity
  8
0
 62
7
100
AcDbSpline
 70
8
 71
3
 72
8
 73
4
 74
0
 40
0
 40
0
 40
0
 40
0
 40
1
 40
1
 40
1
 40
1
 10
3.159917
 20
29.295632
 30
0.0
 10
3.184211
 20
29.271338
 30
0.0
 10
3.196358
 20
29.242995
 30
0.0
 10
3.196358
 20
29.210603
 30
0.0
  0
SPLINE
  5
1f5
100
AcDbEntity
  8
0
 62
7
100
AcDbSpline
 70
8
 71
3
 72
8
 73
4
 74
0
 40
0
 40
0
 40
0
 40
0
 40
1
 40
1
 40
1
 40
1
 10
3.196358
 20
29.210603
 30
0.0
 10
3.196358
 20
29.176591
 30
0.0
 10
3.185020
 20
29.147438
 30
0.0
 10
3.162346
 20
29.123144
 30
0.0
  0
SPLINE
  5
1f6
100
AcDbEntity
  8
0
 62
7
100
AcDbSpline
 70
8
 71
3
 72
8
 73
4
 74
0
 40
0
 40
0
 40
0
 40
0
 40
1
 40
1
 40
1
 40
1
 10
3.162346
 20
29.123144
 30
0.0
 10
3.138052
 20
29.100470
 30
0.0
 10
3.108899
 20
29.089132
 30
0.0
 10
3.074887
 20
29.089132
 30
0.0
  0
SPLINE
  5
1f7
100
AcDbEntity
  8
0
 62
7
100
AcDbSpline
 70
8
 71
3
 72
8
 73
4
 74
0
 40
0
 40
0
 40
0
 40
0
 40
1
 40
1
 40
1
 40
1
 10
3.074887
 20
29.089132
 30
0.0
 10
3.042495
 20
29.089132
 30
0.0
 10
3.014152
 20
29.101279
 30
0.0
 10
2.989858
 20
29.125573
 30
0.0
  0
LINE
  5
1f8
100
AcDbEntity
  8
0
 62
7
100
AcDbLine
 10
2.989858
 20
29.125573
 30
0.0
 11
2.503975
 21
29.611456
 31
0.0
  0
SPLINE
  5
1f9
100
AcDbEntity
  8
0
 62
7
100
AcDbSpline
 70
8
 71
3
 72
8
 73
4
 74
0
 40
0
 40
0
 40
0
 40
0
 40
1
 40
1
 40
1
 40
1
 10
2.503975
 20
29.611456
 30
0.0
 10
2.479681
 20
29.635750
 30
0.0
 10
2.467534
 20
29.664093
 30
0.0
 10
2.467534
 20
29.696485
 30
0.0
  0
LINE
  5
1fa
100
AcDbEntity
  8
0
 62
7
100
AcDbLine
 10
2.467534
 20
29.696485
 30
0.0
 11
2.467534
 21
29.696486
 31
0.0
  0
SPLINE
  5
1fb
100
AcDbEntity
  8
0
 62
7
100
AcDbSpline
 70
8
 71
3
 72
8
 73
4
 74
0
 40
0
 40
0
 40
0
 40
0
 40
1
 40
1
 40
1
 40
1
 10
2.467534
 20
30.838308
 30
0.0
 10
2.467534
 20
30.872320
 30
0.0
 10
2.479681
 20
30.900663
 30
0.0
 10
2.503975
 20
30.923337
 30
0.0
  0
SPLINE
  5
1fc
100
AcDbEntity
  8
0
 62
7
100
AcDbSpline
 70
8
 71
3
 72
8
 73
4
 74
0
 40
0
 40
0
 40
0
 40
0
 40
1
 40
1
 40
1
 40
1
 10
2.503975
 20
30.923337
 30
0.0
 10
2.526650
 20
30.947631
 30
0.0
 10
2.554993
 20
30.959778
 30
0.0
 10
2.589004
 20
30.959778
 30
0.0
  0
SPLINE
  5
1fd
100
AcDbEntity
  8
0
 62
7
100
AcDbSpline
 70
8
 71
3
 72
8
 73
4
 74
0
 40
0
 40
0
 40
0
 40
0
 40
1
 40
1
 40
1
 40
1
 10
2.589004
 20
30.959778
 30
0.0
 10
2.598722
 20
30.959778
 30
0.0
 10
2.610059
 20
30.958158
 30
0.0
 10
2.623016
 20
30.954918
 30
0.0
  0
LINE
  5
1fe
100
AcDbEntity
  8
0
 62
7
100
AcDbLine
 10
2.623016
 20
30.954918
 30
0.0
 11
4.168122
 21
30.512765
 31
0.0
  0
LINE
  5
1ff
100
AcDbEntity
  8
0
 62
7
100
AcDbLine
 10
4.168122
 20
30.512765
 30
0.0
 11
4.168122
 21
31.081248
 31
0.0
  0
LINE
  5
200
100
AcDbEntity
  8
0
 62
7
100
AcDbLine
 10
4.168122
 20
31.081248
 30
0.0
 11
3.803711
 21
31.081248
 31
0.0
  0
SPLINE
  5
201
100
AcDbEntity
  8
0
 62
7
100
AcDbSpline
 70
8
 71
3
 72
8
 73
4
 74
0
 40
0
 40
0
 40
0
 40
0
 40
1
 40
1
 40
1
 40
1
 10
3.803711
 20
31.081248
 30
0.0
 10
3.769699
 20
31.081248
 30
0.0
 10
3.741356
 20
31.092585
 30
0.0
 10
3.718682
 20
31.115260
 30
0.0
  0
SPLINE
  5
202
100
AcDbEntity
  8
0
 62
7
100
AcDbSpline
 70
8
 71
3
 72
8
 73
4
 74
0
 40
0
 40
0
 40
0
 40
0
 40
1
 40
1
 40
1
 40
1
 10
3.718682
 20
31.115260
 30
0.0
 10
3.694388
 20
31.139554
 30
0.0
 10
3.682241
 20
31.168707
 30
0.0
 10
3.682241
 20
31.202719
 30
0.0
  0
SPLINE
  5
203
100
AcDbEntity
  8
0
 62
7
100
AcDbSpline
 70
8
 71
3
 72
8
 73
4
 74
0
 40
0
 40
0
 40
0
 40
0
 40
1
 40
1
 40
1
 40
1
 10
3.682241
 20
31.202719
 30
0.0
 10
3.682241
 20
31.236731
 30
0.0
 10
3.694388
 20
31.265074
 30
0.0
 10
3.718682
 20
31.287748
 30
0.0
  0
SPLINE
  5
204
100
AcDbEntity
  8
0
 62
7
100
AcDbSpline
 70
8
 71
3
 72
8
 73
4
 74
0
 40
0
 40
0
 40
0
 40
0
 40
1
 40
1
 40
1
 40
1
 10
3.718682
 20
31.287748
 30
0.0
 10
3.741356
 20
31.312042
 30
0.0
 10
3.769699
 20
31.324189
 30
0.0
 10
3.803711
 20
31.324189
 30
0.0
  0
LINE
  5
205
100
AcDbEntity
  8
0
 62
7
100
AcDbLine
 10
3.803711
 20
31.324189
 30
0.0
 11
4.168123
 21
31.324189
 31
0.0
  0
LINE
  5
206
100
AcDbEntity
  8
0
 62
7
100
AcDbLine
 10
4.168123
 20
31.324189
 30
0.0
 11
4.168123
 21
31.567130
 31
0.0
  0
SPLINE
  5
207
100
AcDbEntity
  8
0
 62
7
100
AcDbSpline
 70
8
 71
3
 72
8
 73
4
 74
0
 40
0
 40
0
 40
0
 40
0
 40
1
 40
1
 40
1
 40
1
 10
4.168123
 20
31.567130
 30
0.0
 10
4.168123
 20
31.601142
 30
0.0
 10
4.180270
 20
31.629485
 30
0.0
 10
4.204564
 20
31.652160
 30
0.0
  0
SPLINE
  5
208
100
AcDbEntity
  8
0
 62
7
100
AcDbSpline
 70
8
 71
3
 72
8
 73
4
 74
0
 40
0
 40
0
 40
0
 40
0
 40
1
 40
1
 40
1
 40
1
 10
4.204564
 20
31.652160
 30
0.0
 10
4.227238
 20
31.676454
 30
0.0
 10
4.255581
 20
31.688601
 30
0.0
 10
4.289593
 20
31.688601
 30
0.0
  0
SPLINE
  5
209
100
AcDbEntity
  8
0
 62
7
100
AcDbSpline
 70
8
 71
3
 72
8
 73
4
 74
0
 40
0
 40
0
 40
0
 40
0
 40
1
 40
1
 40
1
 40
1
 10
4.289593
 20
31.688601
 30
0.0
 10
4.323605
 20
31.688601
 30
0.0
 10
4.352758
 20
31.676454
 30
0.0
 10
4.377052
 20
31.652160
 30
0.0
  0
SPLINE
  5
20a
100
AcDbEntity
  8
0
 62
7
100
AcDbSpline
 70
8
 71
3
 72
8
 73
4
 74
0
 40
0
 40
0
 40
0
 40
0
 40
1
 40
1
 40
1
 40
1
 10
4.377052
 20
31.652160
 30
0.0
 10
4.399726
 20
31.629485
 30
0.0
 10
4.411064
 20
31.601142
 30
0.0
 10
4.411064
 20
31.567130
 30
0.0
  0
LINE
  5
20b
100
AcDbEntity
  8
0
 62
7
100
AcDbLine
 10
4.411064
 20
31.567130
 30
0.0
 11
4.411064
 21
31.324191
 31
0.0
  0
LINE
  5
20c
100
AcDbEntity
  8
0
 62
7
100
AcDbLine
 10
4.411064
 20
31.324191
 30
0.0
 11
4.775476
 21
31.324191
 31
0.0
  0
SPLINE
  5
20d
100
AcDbEntity
  8
0
 62
7
100
AcDbSpline
 70
8
 71
3
 72
8
 73
4
 74
0
 40
0
 40
0
 40
0
 40
0
 40
1
 40
1
 40
1
 40
1
 10
4.775476
 20
31.324191
 30
0.0
 10
4.809487
 20
31.324191
 30
0.0
 10
4.838640
 20
31.312044
 30
0.0
 10
4.862934
 20
31.287750
 30
0.0
  0
SPLINE
  5
20e
100
AcDbEntity
  8
0
 62
7
100
AcDbSpline
 70
8
 71
3
 72
8
 73
4
 74
0
 40
0
 40
0
 40
0
 40
0
 40
1
 40
1
 40
1
 40
1
 10
4.862934
 20
31.287750
 30
0.0
 10
4.885609
 20
31.265075
 30
0.0
 10
4.896946
 20
31.236732
 30
0.0
 10
4.896946
 20
31.202720
 30
0.0
  0
SPLINE
  5
20f
100
AcDbEntity
  8
0
 62
7
100
AcDbSpline
 70
8
 71
3
 72
8
 73
4
 74
0
 40
0
 40
0
 40
0
 40
0
 40
1
 40
1
 40
1
 40
1
 10
4.896946
 20
31.202720
 30
0.0
 10
4.896946
 20
31.168708
 30
0.0
 10
4.885609
 20
31.139555
 30
0.0
 10
4.862934
 20
31.115261
 30
0.0
  0
SPLINE
  5
210
100
AcDbEntity
  8
0
 62
7
100
AcDbSpline
 70
8
 71
3
 72
8
 73
4
 74
0
 40
0
 40
0
 40
0
 40
0
 40
1
 40
1
 40
1
 40
1
 10
4.862934
 20
31.115261
 30
0.0
 10
4.838640
 20
31.092587
 30
0.0
 10
4.809487
 20
31.081249
 30
0.0
 10
4.775476
 20
31.081249
 30
0.0
  0
LINE
  5
211
100
AcDbEntity
  8
0
 62
7
100
AcDbLine
 10
4.775476
 20
31.081249
 30
0.0
 11
4.411064
 21
31.081249
 31
0.0
  0
LINE
  5
212
100
AcDbEntity
  8
0
 62
7
100
AcDbLine
 10
4.411064
 20
31.081249
 30
0.0
 11
4.411064
 21
30.352426
 31
0.0
  0
SPLINE
  5
213
100
AcDbEntity
  8
0
 62
7
100
AcDbSpline
 70
8
 71
3
 72
8
 73
4
 74
0
 40
0
 40
0
 40
0
 40
0
 40
1
 40
1
 40
1
 40
1
 10
4.411064
 20
30.352426
 30
0.0
 10
4.411064
 20
30.318414
 30
0.0
 10
4.399726
 20
30.289261
 30
0.0
 10
4.377052
 20
30.264967
 30
0.0
  0
SPLINE
  5
214
100
AcDbEntity
  8
0
 62
7
100
AcDbSpline
 70
8
 71
3
 72
8
 73
4
 74
0
 40
0
 40
0
 40
0
 40
0
 40
1
 40
1
 40
1
 40
1
 10
4.377052
 20
30.264967
 30
0.0
 10
4.352758
 20
30.242292
 30
0.0
 10
4.323605
 20
30.230955
 30
0.0
 10
4.289593
 20
30.230955
 30
0.0
  0
SPLINE
  5
215
100
AcDbEntity
  8
0
 62
7
100
AcDbSpline
 70
8
 71
3
 72
8
 73
4
 74
0
 40
0
 40
0
 40
0
 40
0
 40
1
 40
1
 40
1
 40
1
 10
4.289593
 20
30.230955
 30
0.0
 10
4.279875
 20
30.230955
 30
0.0
 10
4.268538
 20
30.232575
 30
0.0
 10
4.255581
 20
30.235815
 30
0.0
  0
LINE
  5
216
100
AcDbEntity
  8
0
 62
7
100
AcDbLine
 10
4.255581
 20
30.235815
 30
0.0
 11
2.554993
 21
30.721696
 31
0.0
  0
SPLINE
  5
217
100
AcDbEntity
  8
0
 62
7
100
AcDbSpline
 70
8
 71
3
 72
8
 73
4
 74
0
 40
0
 40
0
 40
0
 40
0
 40
1
 40
1
 40
1
 40
1
 10
2.554993
 20
30.721696
 30
0.0
 10
2.529079
 20
30.729794
 30
0.0
 10
2.508024
 20
30.744371
 30
0.0
 10
2.491828
 20
30.765425
 30
0.0
  0
SPLINE
  5
218
100
AcDbEntity
  8
0
 62
7
100
AcDbSpline
 70
8
 71
3
 72
8
 73
4
 74
0
 40
0
 40
0
 40
0
 40
0
 40
1
 40
1
 40
1
 40
1
 10
2.491828
 20
30.765425
 30
0.0
 10
2.475632
 20
30.786480
 30
0.0
 10
2.467534
 20
30.810774
 30
0.0
 10
2.467534
 20
30.838307
 30
0.0
  0
LINE
  5
219
100
AcDbEntity
  8
0
 62
7
100
AcDbLine
 10
2.467534
 20
30.838307
 30
0.0
 11
2.467534
 21
30.838308
 31
0.0
  0
SPLINE
  5
21a
100
AcDbEntity
  8
0
 62
7
100
AcDbSpline
 70
8
 71
3
 72
8
 73
4
 74
0
 40
0
 40
0
 40
0
 40
0
 40
1
 40
1
 40
1
 40
1
 10
2.467534
 20
32.125894
 30
0.0
 10
2.467534
 20
32.159906
 30
0.0
 10
2.479681
 20
32.188250
 30
0.0
 10
2.503975
 20
32.210924
 30
0.0
  0
SPLINE
  5
21b
100
AcDbEntity
  8
0
 62
7
100
AcDbSpline
 70
8
 71
3
 72
8
 73
4
 74
0
 40
0
 40
0
 40
0
 40
0
 40
1
 40
1
 40
1
 40
1
 10
2.503975
 20
32.210924
 30
0.0
 10
2.526650
 20
32.235218
 30
0.0
 10
2.554993
 20
32.247365
 30
0.0
 10
2.589004
 20
32.247365
 30
0.0
  0
SPLINE
  5
21c
100
AcDbEntity
  8
0
 62
7
100
AcDbSpline
 70
8
 71
3
 72
8
 73
4
 74
0
 40
0
 40
0
 40
0
 40
0
 40
1
 40
1
 40
1
 40
1
 10
2.589004
 20
32.247365
 30
0.0
 10
2.601961
 20
32.247365
 30
0.0
 10
2.611679
 20
32.246555
 30
0.0
 10
2.618157
 20
32.244935
 30
0.0
  0
LINE
  5
21d
100
AcDbEntity
  8
0
 62
7
100
AcDbLine
 10
2.618157
 20
32.244935
 30
0.0
 11
3.104040
 21
32.123465
 31
0.0
  0
SPLINE
  5
21e
100
AcDbEntity
  8
0
 62
7
100
AcDbSpline
 70
8
 71
3
 72
8
 73
4
 74
0
 40
0
 40
0
 40
0
 40
0
 40
1
 40
1
 40
1
 40
1
 10
3.104040
 20
32.123465
 30
0.0
 10
3.129954
 20
32.116985
 30
0.0
 10
3.151818
 20
32.102408
 30
0.0
 10
3.169634
 20
32.079736
 30
0.0
  0
SPLINE
  5
21f
100
AcDbEntity
  8
0
 62
7
100
AcDbSpline
 70
8
 71
3
 72
8
 73
4
 74
0
 40
0
 40
0
 40
0
 40
0
 40
1
 40
1
 40
1
 40
1
 10
3.169634
 20
32.079736
 30
0.0
 10
3.187450
 20
32.057061
 30
0.0
 10
3.196358
 20
32.031957
 30
0.0
 10
3.196358
 20
32.004424
 30
0.0
  0
SPLINE
  5
220
100
AcDbEntity
  8
0
 62
7
100
AcDbSpline
 70
8
 71
3
 72
8
 73
4
 74
0
 40
0
 40
0
 40
0
 40
0
 40
1
 40
1
 40
1
 40
1
 10
3.196358
 20
32.004424
 30
0.0
 10
3.196358
 20
31.970412
 30
0.0
 10
3.185020
 20
31.941259
 30
0.0
 10
3.162346
 20
31.916965
 30
0.0
  0
SPLINE
  5
221
100
AcDbEntity
  8
0
 62
7
100
AcDbSpline
 70
8
 71
3
 72
8
 73
4
 74
0
 40
0
 40
0
 40
0
 40
0
 40
1
 40
1
 40
1
 40
1
 10
3.162346
 20
31.916965
 30
0.0
 10
3.138052
 20
31.894290
 30
0.0
 10
3.108899
 20
31.882953
 30
0.0
 10
3.074887
 20
31.882953
 30
0.0
  0
SPLINE
  5
222
100
AcDbEntity
  8
0
 62
7
100
AcDbSpline
 70
8
 71
3
 72
8
 73
4
 74
0
 40
0
 40
0
 40
0
 40
0
 40
1
 40
1
 40
1
 40
1
 10
3.074887
 20
31.882953
 30
0.0
 10
3.061930
 20
31.882953
 30
0.0
 10
3.052212
 20
31.883763
 30
0.0
 10
3.045734
 20
31.885383
 30
0.0
  0
LINE
  5
223
100
AcDbEntity
  8
0
 62
7
100
AcDbLine
 10
3.045734
 20
31.885383
 30
0.0
 11
2.559851
 21
32.006853
 31
0.0
  0
SPLINE
  5
224
100
AcDbEntity
  8
0
 62
7
100
AcDbSpline
 70
8
 71
3
 72
8
 73
4
 74
0
 40
0
 40
0
 40
0
 40
0
 40
1
 40
1
 40
1
 40
1
 10
2.559851
 20
32.006853
 30
0.0
 10
2.533937
 20
32.013333
 30
0.0
 10
2.512073
 20
32.027910
 30
0.0
 10
2.494257
 20
32.050582
 30
0.0
  0
SPLINE
  5
225
100
AcDbEntity
  8
0
 62
7
100
AcDbSpline
 70
8
 71
3
 72
8
 73
4
 74
0
 40
0
 40
0
 40
0
 40
0
 40
1
 40
1
 40
1
 40
1
 10
2.494257
 20
32.050582
 30
0.0
 10
2.476441
 20
32.073257
 30
0.0
 10
2.467533
 20
32.098361
 30
0.0
 10
2.467533
 20
32.125894
 30
0.0
  0
LINE
  5
226
100
AcDbEntity
  8
0
 62
7
100
AcDbLine
 10
2.467533
 20
32.125894
 30
0.0
 11
2.467534
 21
32.125894
 31
0.0
  0
LINE
  5
227
100
AcDbEntity
  8
0
 62
7
100
AcDbLine
 10
3.925181
 20
34.190894
 30
0.0
 11
3.925181
 21
35.162659
 31
0.0
  0
SPLINE
  5
228
100
AcDbEntity
  8
0
 62
7
100
AcDbSpline
 70
8
 71
3
 72
8
 73
4
 74
0
 40
0
 40
0
 40
0
 40
0
 40
1
 40
1
 40
1
 40
1
 10
3.925181
 20
35.162659
 30
0.0
 10
3.925181
 20
35.196671
 30
0.0
 10
3.937328
 20
35.225014
 30
0.0
 10
3.961622
 20
35.247688
 30
0.0
  0
SPLINE
  5
229
100
AcDbEntity
  8
0
 62
7
100
AcDbSpline
 70
8
 71
3
 72
8
 73
4
 74
0
 40
0
 40
0
 40
0
 40
0
 40
1
 40
1
 40
1
 40
1
 10
3.961622
 20
35.247688
 30
0.0
 10
3.984297
 20
35.271983
 30
0.0
 10
4.012640
 20
35.284130
 30
0.0
 10
4.046652
 20
35.284130
 30
0.0
  0
SPLINE
  5
22a
100
AcDbEntity
  8
0
 62
7
100
AcDbSpline
 70
8
 71
3
 72
8
 73
4
 74
0
 40
0
 40
0
 40
0
 40
0
 40
1
 40
1
 40
1
 40
1
 10
4.046652
 20
35.284130
 30
0.0
 10
4.080664
 20
35.284130
 30
0.0
 10
4.109817
 20
35.271983
 30
0.0
 10
4.134111
 20
35.247688
 30
0.0
  0
SPLINE
  5
22b
100
AcDbEntity
  8
0
 62
7
100
AcDbSpline
 70
8
 71
3
 72
8
 73
4
 74
0
 40
0
 40
0
 40
0
 40
0
 40
1
 40
1
 40
1
 40
1
 10
4.134111
 20
35.247688
 30
0.0
 10
4.156785
 20
35.225014
 30
0.0
 10
4.168122
 20
35.196671
 30
0.0
 10
4.168122
 20
35.162659
 30
0.0
  0
LINE
  5
22c
100
AcDbEntity
  8
0
 62
7
100
AcDbLine
 10
4.168122
 20
35.162659
 30
0.0
 11
4.168122
 21
34.190894
 31
0.0
  0
SPLINE
  5
22d
100
AcDbEntity
  8
0
 62
7
100
AcDbSpline
 70
8
 71
3
 72
8
 73
4
 74
0
 40
0
 40
0
 40
0
 40
0
 40
1
 40
1
 40
1
 40
1
 10
4.168122
 20
34.190894
 30
0.0
 10
4.168122
 20
34.156883
 30
0.0
 10
4.156785
 20
34.127730
 30
0.0
 10
4.134111
 20
34.103436
 30
0.0
  0
SPLINE
  5
22e
100
AcDbEntity
  8
0
 62
7
100
AcDbSpline
 70
8
 71
3
 72
8
 73
4
 74
0
 40
0
 40
0
 40
0
 40
0
 40
1
 40
1
 40
1
 40
1
 10
4.134111
 20
34.103436
 30
0.0
 10
4.109817
 20
34.080761
 30
0.0
 10
4.080664
 20
34.069424
 30
0.0
 10
4.046652
 20
34.069424
 30
0.0
  0
SPLINE
  5
22f
100
AcDbEntity
  8
0
 62
7
100
AcDbSpline
 70
8
 71
3
 72
8
 73
4
 74
0
 40
0
 40
0
 40
0
 40
0
 40
1
 40
1
 40
1
 40
1
 10
4.046652
 20
34.069424
 30
0.0
 10
4.012640
 20
34.069424
 30
0.0
 10
3.984297
 20
34.080761
 30
0.0
 10
3.961622
 20
34.103436
 30
0.0
  0
SPLINE
  5
230
100
AcDbEntity
  8
0
 62
7
100
AcDbSpline
 70
8
 71
3
 72
8
 73
4
 74
0
 40
0
 40
0
 40
0
 40
0
 40
1
 40
1
 40
1
 40
1
 10
3.961622
 20
34.103436
 30
0.0
 10
3.937328
 20
34.127730
 30
0.0
 10
3.925181
 20
34.156883
 30
0.0
 10
3.925181
 20
34.190894
 30
0.0
  0
LINE
  5
231
100
AcDbEntity
  8
0
 62
7
100
AcDbLine
 10
3.925181
 20
34.190894
 30
0.0
 11
3.925181
 21
34.190894
 31
0.0
  0
SPLINE
  5
232
100
AcDbEntity
  8
0
 62
7
100
AcDbSpline
 70
8
 71
3
 72
8
 73
4
 74
0
 40
0
 40
0
 40
0
 40
0
 40
1
 40
1
 40
1
 40
1
 10
2.571999
 20
37.405005
 30
0.0
 10
2.453767
 20
37.523236
 30
0.0
 10
2.394652
 20
37.666572
 30
0.0
 10
2.394652
 20
37.835011
 30
0.0
  0
SPLINE
  5
233
100
AcDbEntity
  8
0
 62
7
100
AcDbSpline
 70
8
 71
3
 72
8
 73
4
 74
0
 40
0
 40
0
 40
0
 40
0
 40
1
 40
1
 40
1
 40
1
 10
2.394652
 20
37.835011
 30
0.0
 10
2.394652
 20
38.003450
 30
0.0
 10
2.453767
 20
38.146785
 30
0.0
 10
2.571999
 20
38.265017
 30
0.0
  0
SPLINE
  5
234
100
AcDbEntity
  8
0
 62
7
100
AcDbSpline
 70
8
 71
3
 72
8
 73
4
 74
0
 40
0
 40
0
 40
0
 40
0
 40
1
 40
1
 40
1
 40
1
 10
2.571999
 20
38.265017
 30
0.0
 10
2.690230
 20
38.383248
 30
0.0
 10
2.833565
 20
38.442364
 30
0.0
 10
3.002005
 20
38.442364
 30
0.0
  0
LINE
  5
235
100
AcDbEntity
  8
0
 62
7
100
AcDbLine
 10
3.002005
 20
38.442364
 30
0.0
 11
4.362475
 21
38.442364
 31
0.0
  0
SPLINE
  5
236
100
AcDbEntity
  8
0
 62
7
100
AcDbSpline
 70
8
 71
3
 72
8
 73
4
 74
0
 40
0
 40
0
 40
0
 40
0
 40
1
 40
1
 40
1
 40
1
 10
4.362475
 20
38.442364
 30
0.0
 10
4.530914
 20
38.442364
 30
0.0
 10
4.674250
 20
38.383248
 30
0.0
 10
4.792481
 20
38.265017
 30
0.0
  0
SPLINE
  5
237
100
AcDbEntity
  8
0
 62
7
100
AcDbSpline
 70
8
 71
3
 72
8
 73
4
 74
0
 40
0
 40
0
 40
0
 40
0
 40
1
 40
1
 40
1
 40
1
 10
4.792481
 20
38.265017
 30
0.0
 10
4.910712
 20
38.146785
 30
0.0
 10
4.969828
 20
38.003450
 30
0.0
 10
4.969828
 20
37.835011
 30
0.0
  0
SPLINE
  5
238
100
AcDbEntity
  8
0
 62
7
100
AcDbSpline
 70
8
 71
3
 72
8
 73
4
 74
0
 40
0
 40
0
 40
0
 40
0
 40
1
 40
1
 40
1
 40
1
 10
4.969828
 20
37.835011
 30
0.0
 10
4.969828
 20
37.666572
 30
0.0
 10
4.910712
 20
37.523236
 30
0.0
 10
4.792481
 20
37.405005
 30
0.0
  0
SPLINE
  5
239
100
AcDbEntity
  8
0
 62
7
100
AcDbSpline
 70
8
 71
3
 72
8
 73
4
 74
0
 40
0
 40
0
 40
0
 40
0
 40
1
 40
1
 40
1
 40
1
 10
4.792481
 20
37.405005
 30
0.0
 10
4.674250
 20
37.286774
 30
0.0
 10
4.530914
 20
37.227658
 30
0.0
 10
4.362475
 20
37.227658
 30
0.0
  0
LINE
  5
23a
100
AcDbEntity
  8
0
 62
7
100
AcDbLine
 10
4.362475
 20
37.227658
 30
0.0
 11
3.002005
 21
37.227658
 31
0.0
  0
SPLINE
  5
23b
100
AcDbEntity
  8
0
 62
7
100
AcDbSpline
 70
8
 71
3
 72
8
 73
4
 74
0
 40
0
 40
0
 40
0
 40
0
 40
1
 40
1
 40
1
 40
1
 10
3.002005
 20
37.227658
 30
0.0
 10
2.833565
 20
37.227658
 30
0.0
 10
2.690230
 20
37.286773
 30
0.0
 10
2.571999
 20
37.405005
 30
0.0
  0
LINE
  5
23c
100
AcDbEntity
  8
0
 62
7
100
AcDbLine
 10
2.571999
 20
37.405005
 30
0.0
 11
2.571999
 21
37.405005
 31
0.0
  0
SPLINE
  5
23d
100
AcDbEntity
  8
0
 62
7
100
AcDbSpline
 70
8
 71
3
 72
8
 73
4
 74
0
 40
0
 40
0
 40
0
 40
0
 40
1
 40
1
 40
1
 40
1
 10
2.744487
 20
38.092528
 30
0.0
 10
2.673224
 20
38.021266
 30
0.0
 10
2.637593
 20
37.935426
 30
0.0
 10
2.637593
 20
37.835011
 30
0.0
  0
SPLINE
  5
23e
100
AcDbEntity
  8
0
 62
7
100
AcDbSpline
 70
8
 71
3
 72
8
 73
4
 74
0
 40
0
 40
0
 40
0
 40
0
 40
1
 40
1
 40
1
 40
1
 10
2.637593
 20
37.835011
 30
0.0
 10
2.637593
 20
37.734595
 30
0.0
 10
2.673224
 20
37.648756
 30
0.0
 10
2.744487
 20
37.577493
 30
0.0
  0
SPLINE
  5
23f
100
AcDbEntity
  8
0
 62
7
100
AcDbSpline
 70
8
 71
3
 72
8
 73
4
 74
0
 40
0
 40
0
 40
0
 40
0
 40
1
 40
1
 40
1
 40
1
 10
2.744487
 20
37.577493
 30
0.0
 10
2.815750
 20
37.506230
 30
0.0
 10
2.901589
 20
37.470599
 30
0.0
 10
3.002005
 20
37.470599
 30
0.0
  0
LINE
  5
240
100
AcDbEntity
  8
0
 62
7
100
AcDbLine
 10
3.002005
 20
37.470599
 30
0.0
 11
4.362475
 21
37.470599
 31
0.0
  0
SPLINE
  5
241
100
AcDbEntity
  8
0
 62
7
100
AcDbSpline
 70
8
 71
3
 72
8
 73
4
 74
0
 40
0
 40
0
 40
0
 40
0
 40
1
 40
1
 40
1
 40
1
 10
4.362475
 20
37.470599
 30
0.0
 10
4.462891
 20
37.470599
 30
0.0
 10
4.548730
 20
37.506230
 30
0.0
 10
4.619993
 20
37.577493
 30
0.0
  0
SPLINE
  5
242
100
AcDbEntity
  8
0
 62
7
100
AcDbSpline
 70
8
 71
3
 72
8
 73
4
 74
0
 40
0
 40
0
 40
0
 40
0
 40
1
 40
1
 40
1
 40
1
 10
4.619993
 20
37.577493
 30
0.0
 10
4.691256
 20
37.648756
 30
0.0
 10
4.726887
 20
37.734595
 30
0.0
 10
4.726887
 20
37.835011
 30
0.0
  0
SPLINE
  5
243
100
AcDbEntity
  8
0
 62
7
100
AcDbSpline
 70
8
 71
3
 72
8
 73
4
 74
0
 40
0
 40
0
 40
0
 40
0
 40
1
 40
1
 40
1
 40
1
 10
4.726887
 20
37.835011
 30
0.0
 10
4.726887
 20
37.935427
 30
0.0
 10
4.691256
 20
38.021266
 30
0.0
 10
4.619993
 20
38.092528
 30
0.0
  0
SPLINE
  5
244
100
AcDbEntity
  8
0
 62
7
100
AcDbSpline
 70
8
 71
3
 72
8
 73
4
 74
0
 40
0
 40
0
 40
0
 40
0
 40
1
 40
1
 40
1
 40
1
 10
4.619993
 20
38.092528
 30
0.0
 10
4.548730
 20
38.163791
 30
0.0
 10
4.462891
 20
38.199423
 30
0.0
 10
4.362475
 20
38.199423
 30
0.0
  0
LINE
  5
245
100
AcDbEntity
  8
0
 62
7
100
AcDbLine
 10
4.362475
 20
38.199423
 30
0.0
 11
3.002005
 21
38.199423
 31
0.0
  0
SPLINE
  5
246
100
AcDbEntity
  8
0
 62
7
100
AcDbSpline
 70
8
 71
3
 72
8
 73
4
 74
0
 40
0
 40
0
 40
0
 40
0
 40
1
 40
1
 40
1
 40
1
 10
3.002005
 20
38.199423
 30
0.0
 10
2.901589
 20
38.199423
 30
0.0
 10
2.815750
 20
38.163791
 30
0.0
 10
2.744487
 20
38.092528
 30
0.0
  0
LINE
  5
247
100
AcDbEntity
  8
0
 62
7
100
AcDbLine
 10
2.744487
 20
38.092528
 30
0.0
 11
2.744487
 21
38.092528
 31
0.0
  0
SPLINE
  5
248
100
AcDbEntity
  8
0
 62
7
100
AcDbSpline
 70
8
 71
3
 72
8
 73
4
 74
0
 40
0
 40
0
 40
0
 40
0
 40
1
 40
1
 40
1
 40
1
 10
2.467534
 20
39.535597
 30
0.0
 10
2.467534
 20
39.569609
 30
0.0
 10
2.479681
 20
39.597952
 30
0.0
 10
2.503975
 20
39.620626
 30
0.0
  0
SPLINE
  5
249
100
AcDbEntity
  8
0
 62
7
100
AcDbSpline
 70
8
 71
3
 72
8
 73
4
 74
0
 40
0
 40
0
 40
0
 40
0
 40
1
 40
1
 40
1
 40
1
 10
2.503975
 20
39.620626
 30
0.0
 10
2.526650
 20
39.644920
 30
0.0
 10
2.554993
 20
39.657067
 30
0.0
 10
2.589004
 20
39.657067
 30
0.0
  0
SPLINE
  5
24a
100
AcDbEntity
  8
0
 62
7
100
AcDbSpline
 70
8
 71
3
 72
8
 73
4
 74
0
 40
0
 40
0
 40
0
 40
0
 40
1
 40
1
 40
1
 40
1
 10
2.589004
 20
39.657067
 30
0.0
 10
2.601961
 20
39.657067
 30
0.0
 10
2.611678
 20
39.656257
 30
0.0
 10
2.618157
 20
39.654637
 30
0.0
  0
LINE
  5
24b
100
AcDbEntity
  8
0
 62
7
100
AcDbLine
 10
2.618157
 20
39.654637
 30
0.0
 11
3.104040
 21
39.533168
 31
0.0
  0
SPLINE
  5
24c
100
AcDbEntity
  8
0
 62
7
100
AcDbSpline
 70
8
 71
3
 72
8
 73
4
 74
0
 40
0
 40
0
 40
0
 40
0
 40
1
 40
1
 40
1
 40
1
 10
3.104040
 20
39.533168
 30
0.0
 10
3.129954
 20
39.526688
 30
0.0
 10
3.151818
 20
39.512111
 30
0.0
 10
3.169634
 20
39.489439
 30
0.0
  0
SPLINE
  5
24d
100
AcDbEntity
  8
0
 62
7
100
AcDbSpline
 70
8
 71
3
 72
8
 73
4
 74
0
 40
0
 40
0
 40
0
 40
0
 40
1
 40
1
 40
1
 40
1
 10
3.169634
 20
39.489439
 30
0.0
 10
3.187450
 20
39.466764
 30
0.0
 10
3.196358
 20
39.441660
 30
0.0
 10
3.196358
 20
39.414127
 30
0.0
  0
SPLINE
  5
24e
100
AcDbEntity
  8
0
 62
7
100
AcDbSpline
 70
8
 71
3
 72
8
 73
4
 74
0
 40
0
 40
0
 40
0
 40
0
 40
1
 40
1
 40
1
 40
1
 10
3.196358
 20
39.414127
 30
0.0
 10
3.196358
 20
39.380115
 30
0.0
 10
3.185021
 20
39.350962
 30
0.0
 10
3.162346
 20
39.326668
 30
0.0
  0
SPLINE
  5
24f
100
AcDbEntity
  8
0
 62
7
100
AcDbSpline
 70
8
 71
3
 72
8
 73
4
 74
0
 40
0
 40
0
 40
0
 40
0
 40
1
 40
1
 40
1
 40
1
 10
3.162346
 20
39.326668
 30
0.0
 10
3.138052
 20
39.303993
 30
0.0
 10
3.108899
 20
39.292656
 30
0.0
 10
3.074887
 20
39.292656
 30
0.0
  0
SPLINE
  5
250
100
AcDbEntity
  8
0
 62
7
100
AcDbSpline
 70
8
 71
3
 72
8
 73
4
 74
0
 40
0
 40
0
 40
0
 40
0
 40
1
 40
1
 40
1
 40
1
 10
3.074887
 20
39.292656
 30
0.0
 10
3.061930
 20
39.292656
 30
0.0
 10
3.052213
 20
39.293466
 30
0.0
 10
3.045734
 20
39.295086
 30
0.0
  0
LINE
  5
251
100
AcDbEntity
  8
0
 62
7
100
AcDbLine
 10
3.045734
 20
39.295086
 30
0.0
 11
2.559851
 21
39.416556
 31
0.0
  0
SPLINE
  5
252
100
AcDbEntity
  8
0
 62
7
100
AcDbSpline
 70
8
 71
3
 72
8
 73
4
 74
0
 40
0
 40
0
 40
0
 40
0
 40
1
 40
1
 40
1
 40
1
 10
2.559851
 20
39.416556
 30
0.0
 10
2.533937
 20
39.423036
 30
0.0
 10
2.512073
 20
39.437613
 30
0.0
 10
2.494257
 20
39.460285
 30
0.0
  0
SPLINE
  5
253
100
AcDbEntity
  8
0
 62
7
100
AcDbSpline
 70
8
 71
3
 72
8
 73
4
 74
0
 40
0
 40
0
 40
0
 40
0
 40
1
 40
1
 40
1
 40
1
 10
2.494257
 20
39.460285
 30
0.0
 10
2.476441
 20
39.482960
 30
0.0
 10
2.467533
 20
39.508064
 30
0.0
 10
2.467533
 20
39.535597
 30
0.0
  0
LINE
  5
254
100
AcDbEntity
  8
0
 62
7
100
AcDbLine
 10
2.467533
 20
39.535597
 30
0.0
 11
2.467534
 21
39.535597
 31
0.0
  0
SPLINE
  5
255
100
AcDbEntity
  8
0
 62
7
100
AcDbSpline
 70
8
 71
3
 72
8
 73
4
 74
0
 40
0
 40
0
 40
0
 40
0
 40
1
 40
1
 40
1
 40
1
 10
2.467534
 20
39.049715
 30
0.0
 10
2.467534
 20
39.083727
 30
0.0
 10
2.479681
 20
39.112070
 30
0.0
 10
2.503975
 20
39.134744
 30
0.0
  0
SPLINE
  5
256
100
AcDbEntity
  8
0
 62
7
100
AcDbSpline
 70
8
 71
3
 72
8
 73
4
 74
0
 40
0
 40
0
 40
0
 40
0
 40
1
 40
1
 40
1
 40
1
 10
2.503975
 20
39.134744
 30
0.0
 10
2.526650
 20
39.159038
 30
0.0
 10
2.554993
 20
39.171185
 30
0.0
 10
2.589004
 20
39.171185
 30
0.0
  0
SPLINE
  5
257
100
AcDbEntity
  8
0
 62
7
100
AcDbSpline
 70
8
 71
3
 72
8
 73
4
 74
0
 40
0
 40
0
 40
0
 40
0
 40
1
 40
1
 40
1
 40
1
 10
2.589004
 20
39.171185
 30
0.0
 10
2.601961
 20
39.171185
 30
0.0
 10
2.611678
 20
39.170375
 30
0.0
 10
2.618157
 20
39.168755
 30
0.0
  0
LINE
  5
258
100
AcDbEntity
  8
0
 62
7
100
AcDbLine
 10
2.618157
 20
39.168755
 30
0.0
 11
3.104039
 21
39.047284
 31
0.0
  0
SPLINE
  5
259
100
AcDbEntity
  8
0
 62
7
100
AcDbSpline
 70
8
 71
3
 72
8
 73
4
 74
0
 40
0
 40
0
 40
0
 40
0
 40
1
 40
1
 40
1
 40
1
 10
3.104039
 20
39.047284
 30
0.0
 10
3.129953
 20
39.040804
 30
0.0
 10
3.151818
 20
39.026228
 30
0.0
 10
3.169633
 20
39.003555
 30
0.0
  0
SPLINE
  5
25a
100
AcDbEntity
  8
0
 62
7
100
AcDbSpline
 70
8
 71
3
 72
8
 73
4
 74
0
 40
0
 40
0
 40
0
 40
0
 40
1
 40
1
 40
1
 40
1
 10
3.169633
 20
39.003555
 30
0.0
 10
3.187449
 20
38.980880
 30
0.0
 10
3.196357
 20
38.955776
 30
0.0
 10
3.196357
 20
38.928243
 30
0.0
  0
SPLINE
  5
25b
100
AcDbEntity
  8
0
 62
7
100
AcDbSpline
 70
8
 71
3
 72
8
 73
4
 74
0
 40
0
 40
0
 40
0
 40
0
 40
1
 40
1
 40
1
 40
1
 10
3.196357
 20
38.928243
 30
0.0
 10
3.196357
 20
38.894231
 30
0.0
 10
3.185020
 20
38.865078
 30
0.0
 10
3.162345
 20
38.840784
 30
0.0
  0
SPLINE
  5
25c
100
AcDbEntity
  8
0
 62
7
100
AcDbSpline
 70
8
 71
3
 72
8
 73
4
 74
0
 40
0
 40
0
 40
0
 40
0
 40
1
 40
1
 40
1
 40
1
 10
3.162345
 20
38.840784
 30
0.0
 10
3.138051
 20
38.818109
 30
0.0
 10
3.108898
 20
38.806772
 30
0.0
 10
3.074886
 20
38.806772
 30
0.0
  0
SPLINE
  5
25d
100
AcDbEntity
  8
0
 62
7
100
AcDbSpline
 70
8
 71
3
 72
8
 73
4
 74
0
 40
0
 40
0
 40
0
 40
0
 40
1
 40
1
 40
1
 40
1
 10
3.074886
 20
38.806772
 30
0.0
 10
3.061930
 20
38.806772
 30
0.0
 10
3.052212
 20
38.807582
 30
0.0
 10
3.045733
 20
38.809202
 30
0.0
  0
LINE
  5
25e
100
AcDbEntity
  8
0
 62
7
100
AcDbLine
 10
3.045733
 20
38.809202
 30
0.0
 11
2.559851
 21
38.930673
 31
0.0
  0
SPLINE
  5
25f
100
AcDbEntity
  8
0
 62
7
100
AcDbSpline
 70
8
 71
3
 72
8
 73
4
 74
0
 40
0
 40
0
 40
0
 40
0
 40
1
 40
1
 40
1
 40
1
 10
2.559851
 20
38.930673
 30
0.0
 10
2.533937
 20
38.937153
 30
0.0
 10
2.512072
 20
38.951729
 30
0.0
 10
2.494257
 20
38.974402
 30
0.0
  0
SPLINE
  5
260
100
AcDbEntity
  8
0
 62
7
100
AcDbSpline
 70
8
 71
3
 72
8
 73
4
 74
0
 40
0
 40
0
 40
0
 40
0
 40
1
 40
1
 40
1
 40
1
 10
2.494257
 20
38.974402
 30
0.0
 10
2.476441
 20
38.997076
 30
0.0
 10
2.467533
 20
39.022180
 30
0.0
 10
2.467533
 20
39.049714
 30
0.0
  0
LINE
  5
261
100
AcDbEntity
  8
0
 62
7
100
AcDbLine
 10
2.467533
 20
39.049714
 30
0.0
 11
2.467534
 21
39.049715
 31
0.0
  0
LINE
  5
262
100
AcDbEntity
  8
IfcBeam
 62
7
100
AcDbLine
 10
123.379000
 20
50.981220
 30
0.0
 11
123.379000
 21
49.939620
 31
0.0
  0
LINE
  5
263
100
AcDbEntity
  8
IfcBeam
 62
7
100
AcDbLine
 10
12.254100
 20
50.981220
 30
0.0
 11
12.254100
 21
49.939620
 31
0.0
  0
LINE
  5
264
100
AcDbEntity
  8
IfcBeam
 62
7
100
AcDbLine
 10
12.254100
 20
49.939620
 30
0.0
 11
20.175000
 21
49.939620
 31
0.0
  0
LINE
  5
265
100
AcDbEntity
  8
IfcBeam
 62
7
100
AcDbLine
 10
96.375000
 20
49.939620
 30
0.0
 11
96.590800
 21
49.939620
 31
0.0
  0
LINE
  5
266
100
AcDbEntity
  8
IfcBeam
 62
7
100
AcDbLine
 10
97.111700
 20
49.939620
 30
0.0
 11
123.379000
 21
49.939620
 31
0.0
  0
LINE
  5
267
100
AcDbEntity
  8
IfcBeam
 62
7
100
AcDbLine
 10
12.254100
 20
50.981220
 30
0.0
 11
20.175000
 21
50.981220
 31
0.0
  0
LINE
  5
268
100
AcDbEntity
  8
IfcBeam
 62
7
100
AcDbLine
 10
96.375000
 20
50.981220
 30
0.0
 11
96.590800
 21
50.981220
 31
0.0
  0
LINE
  5
269
100
AcDbEntity
  8
IfcBeam
 62
7
100
AcDbLine
 10
97.111700
 20
50.981220
 30
0.0
 11
123.379000
 21
50.981220
 31
0.0
  0
LINE
  5
26a
100
AcDbEntity
  8
IfcBeam
 62
7
100
AcDbLine
 10
123.379000
 20
18.688620
 30
0.0
 11
123.379000
 21
17.646920
 31
0.0
  0
LINE
  5
26b
100
AcDbEntity
  8
IfcBeam
 62
7
100
AcDbLine
 10
12.254100
 20
18.688620
 30
0.0
 11
12.254100
 21
17.646920
 31
0.0
  0
LINE
  5
26c
100
AcDbEntity
  8
IfcBeam
 62
7
100
AcDbLine
 10
12.254100
 20
17.646920
 30
0.0
 11
20.175000
 21
17.646920
 31
0.0
  0
LINE
  5
26d
100
AcDbEntity
  8
IfcBeam
 62
7
100
AcDbLine
 10
96.375000
 20
17.646920
 30
0.0
 11
96.590800
 21
17.646920
 31
0.0
  0
LINE
  5
26e
100
AcDbEntity
  8
IfcBeam
 62
7
100
AcDbLine
 10
97.111700
 20
17.646920
 30
0.0
 11
123.379000
 21
17.646920
 31
0.0
  0
LINE
  5
26f
100
AcDbEntity
  8
IfcBeam
 62
7
100
AcDbLine
 10
12.254100
 20
18.688620
 30
0.0
 11
20.175000
 21
18.688620
 31
0.0
  0
LINE
  5
270
100
AcDbEntity
  8
IfcBeam
 62
7
100
AcDbLine
 10
96.375000
 20
18.688620
 30
0.0
 11
96.590800
 21
18.688620
 31
0.0
  0
LINE
  5
271
100
AcDbEntity
  8
IfcBeam
 62
7
100
AcDbLine
 10
97.111700
 20
18.688620
 30
0.0
 11
123.379000
 21
18.688620
 31
0.0
  0
LINE
  5
272
100
AcDbEntity
  8
IfcBeam
 62
7
100
AcDbLine
 10
123.379000
 20
35.305220
 30
0.0
 11
123.379000
 21
34.263520
 31
0.0
  0
LINE
  5
273
100
AcDbEntity
  8
IfcBeam
 62
7
100
AcDbLine
 10
12.254100
 20
35.305220
 30
0.0
 11
12.254100
 21
34.263520
 31
0.0
  0
LINE
  5
274
100
AcDbEntity
  8
IfcBeam
 62
7
100
AcDbLine
 10
12.254100
 20
34.263520
 30
0.0
 11
20.175000
 21
34.263520
 31
0.0
  0
LINE
  5
275
100
AcDbEntity
  8
IfcBeam
 62
7
100
AcDbLine
 10
96.375000
 20
34.263520
 30
0.0
 11
96.590800
 21
34.263520
 31
0.0
  0
LINE
  5
276
100
AcDbEntity
  8
IfcBeam
 62
7
100
AcDbLine
 10
97.111700
 20
34.263520
 30
0.0
 11
123.379000
 21
34.263520
 31
0.0
  0
LINE
  5
277
100
AcDbEntity
  8
IfcBeam
 62
7
100
AcDbLine
 10
12.254100
 20
35.305220
 30
0.0
 11
20.175000
 21
35.305220
 31
0.0
  0
LINE
  5
278
100
AcDbEntity
  8
IfcBeam
 62
7
100
AcDbLine
 10
96.375000
 20
35.305220
 30
0.0
 11
96.590800
 21
35.305220
 31
0.0
  0
LINE
  5
279
100
AcDbEntity
  8
IfcBeam
 62
7
100
AcDbLine
 10
97.111700
 20
35.305220
 30
0.0
 11
123.379000
 21
35.305220
 31
0.0
  0
LINE
  5
27a
100
AcDbEntity
  8
IfcRailing
 62
7
100
AcDbLine
 10
96.851300
 20
57.334820
 30
0.0
 11
96.851300
 21
56.813920
 31
0.0
  0
LINE
  5
27b
100
AcDbEntity
  8
IfcRailing
 62
7
100
AcDbLine
 10
96.851300
 20
56.813920
 30
0.0
 11
73.136000
 21
56.813920
 31
0.0
  0
LINE
  5
27c
100
AcDbEntity
  8
IfcRailing
 62
7
100
AcDbLine
 10
73.136000
 20
57.334820
 30
0.0
 11
73.136000
 21
56.813920
 31
0.0
  0
LINE
  5
27d
100
AcDbEntity
  8
IfcRailing
 62
7
100
AcDbLine
 10
73.136000
 20
57.334820
 30
0.0
 11
96.851300
 21
57.334820
 31
0.0
  0
LINE
  5
27e
100
AcDbEntity
  8
IfcRailing
 62
7
100
AcDbLine
 10
97.111700
 20
11.671820
 30
0.0
 11
96.590800
 21
11.671820
 31
0.0
  0
LINE
  5
27f
100
AcDbEntity
  8
IfcRailing
 62
7
100
AcDbLine
 10
96.590800
 20
11.671820
 30
0.0
 11
96.590800
 21
57.074420
 31
0.0
  0
LINE
  5
280
100
AcDbEntity
  8
IfcRailing
 62
7
100
AcDbLine
 10
97.111700
 20
57.074420
 30
0.0
 11
96.590800
 21
57.074420
 31
0.0
  0
LINE
  5
281
100
AcDbEntity
  8
IfcRailing
 62
7
100
AcDbLine
 10
97.111700
 20
57.074420
 30
0.0
 11
97.111700
 21
11.671820
 31
0.0
  0
LINE
  5
282
100
AcDbEntity
  8
IfcRailing
 62
7
100
AcDbLine
 10
61.120500
 20
11.411420
 30
0.0
 11
61.120500
 21
11.932220
 31
0.0
  0
LINE
  5
283
100
AcDbEntity
  8
IfcRailing
 62
7
100
AcDbLine
 10
61.120500
 20
11.932220
 30
0.0
 11
96.851200
 21
11.932220
 31
0.0
  0
LINE
  5
284
100
AcDbEntity
  8
IfcRailing
 62
7
100
AcDbLine
 10
96.851200
 20
11.411420
 30
0.0
 11
96.851200
 21
11.932220
 31
0.0
  0
LINE
  5
285
100
AcDbEntity
  8
IfcRailing
 62
7
100
AcDbLine
 10
96.851200
 20
11.411420
 30
0.0
 11
61.120500
 21
11.411420
 31
0.0
  0
LINE
  5
286
100
AcDbEntity
  8
IfcPile
 62
7
100
AcDbLine
 10
15.288300
 20
34.036520
 30
0.0
 11
15.315900
 21
34.263520
 31
0.0
  0
LINE
  5
287
100
AcDbEntity
  8
IfcPile
 62
7
100
AcDbLine
 10
15.021200
 20
33.332120
 30
0.0
 11
15.288300
 21
34.036520
 31
0.0
  0
LINE
  5
288
100
AcDbEntity
  8
IfcPile
 62
7
100
AcDbLine
 10
14.593200
 20
32.712120
 30
0.0
 11
15.021200
 21
33.332120
 31
0.0
  0
LINE
  5
289
100
AcDbEntity
  8
IfcPile
 62
7
100
AcDbLine
 10
14.029300
 20
32.212520
 30
0.0
 11
14.593200
 21
32.712120
 31
0.0
  0
LINE
  5
28a
100
AcDbEntity
  8
IfcPile
 62
7
100
AcDbLine
 10
13.362300
 20
31.862420
 30
0.0
 11
14.029300
 21
32.212520
 31
0.0
  0
LINE
  5
28b
100
AcDbEntity
  8
IfcPile
 62
7
100
AcDbLine
 10
12.630800
 20
31.682120
 30
0.0
 11
13.362300
 21
31.862420
 31
0.0
  0
LINE
  5
28c
100
AcDbEntity
  8
IfcPile
 62
7
100
AcDbLine
 10
11.877400
 20
31.682120
 30
0.0
 11
12.630800
 21
31.682120
 31
0.0
  0
LINE
  5
28d
100
AcDbEntity
  8
IfcPile
 62
7
100
AcDbLine
 10
11.146000
 20
31.862420
 30
0.0
 11
11.877400
 21
31.682120
 31
0.0
  0
LINE
  5
28e
100
AcDbEntity
  8
IfcPile
 62
7
100
AcDbLine
 10
10.478900
 20
32.212520
 30
0.0
 11
11.146000
 21
31.862420
 31
0.0
  0
LINE
  5
28f
100
AcDbEntity
  8
IfcPile
 62
7
100
AcDbLine
 10
9.915020
 20
32.712120
 30
0.0
 11
10.478900
 21
32.212520
 31
0.0
  0
LINE
  5
290
100
AcDbEntity
  8
IfcPile
 62
7
100
AcDbLine
 10
9.487070
 20
33.332120
 30
0.0
 11
9.915020
 21
32.712120
 31
0.0
  0
LINE
  5
291
100
AcDbEntity
  8
IfcPile
 62
7
100
AcDbLine
 10
9.219920
 20
34.036520
 30
0.0
 11
9.487070
 21
33.332120
 31
0.0
  0
LINE
  5
292
100
AcDbEntity
  8
IfcPile
 62
7
100
AcDbLine
 10
9.129120
 20
34.784420
 30
0.0
 11
9.219920
 21
34.036520
 31
0.0
  0
LINE
  5
293
100
AcDbEntity
  8
IfcPile
 62
7
100
AcDbLine
 10
9.219920
 20
35.532220
 30
0.0
 11
9.129120
 21
34.784420
 31
0.0
  0
LINE
  5
294
100
AcDbEntity
  8
IfcPile
 62
7
100
AcDbLine
 10
9.487070
 20
36.236620
 30
0.0
 11
9.219920
 21
35.532220
 31
0.0
  0
LINE
  5
295
100
AcDbEntity
  8
IfcPile
 62
7
100
AcDbLine
 10
9.915020
 20
36.856620
 30
0.0
 11
9.487070
 21
36.236620
 31
0.0
  0
LINE
  5
296
100
AcDbEntity
  8
IfcPile
 62
7
100
AcDbLine
 10
10.478900
 20
37.356220
 30
0.0
 11
9.915020
 21
36.856620
 31
0.0
  0
LINE
  5
297
100
AcDbEntity
  8
IfcPile
 62
7
100
AcDbLine
 10
11.146000
 20
37.706320
 30
0.0
 11
10.478900
 21
37.356220
 31
0.0
  0
LINE
  5
298
100
AcDbEntity
  8
IfcPile
 62
7
100
AcDbLine
 10
11.877400
 20
37.886620
 30
0.0
 11
11.146000
 21
37.706320
 31
0.0
  0
LINE
  5
299
100
AcDbEntity
  8
IfcPile
 62
7
100
AcDbLine
 10
12.630800
 20
37.886620
 30
0.0
 11
11.877400
 21
37.886620
 31
0.0
  0
LINE
  5
29a
100
AcDbEntity
  8
IfcPile
 62
7
100
AcDbLine
 10
13.362300
 20
37.706320
 30
0.0
 11
12.630800
 21
37.886620
 31
0.0
  0
LINE
  5
29b
100
AcDbEntity
  8
IfcPile
 62
7
100
AcDbLine
 10
14.029300
 20
37.356220
 30
0.0
 11
13.362300
 21
37.706320
 31
0.0
  0
LINE
  5
29c
100
AcDbEntity
  8
IfcPile
 62
7
100
AcDbLine
 10
14.593200
 20
36.856620
 30
0.0
 11
14.029300
 21
37.356220
 31
0.0
  0
LINE
  5
29d
100
AcDbEntity
  8
IfcPile
 62
7
100
AcDbLine
 10
15.021200
 20
36.236620
 30
0.0
 11
14.593200
 21
36.856620
 31
0.0
  0
LINE
  5
29e
100
AcDbEntity
  8
IfcPile
 62
7
100
AcDbLine
 10
15.288300
 20
35.532220
 30
0.0
 11
15.021200
 21
36.236620
 31
0.0
  0
LINE
  5
29f
100
AcDbEntity
  8
IfcPile
 62
7
100
AcDbLine
 10
15.315900
 20
35.305220
 30
0.0
 11
15.288300
 21
35.532220
 31
0.0
  0
LINE
  5
2a0
100
AcDbEntity
  8
IfcPile
 62
7
100
AcDbLine
 10
15.288300
 20
49.718320
 30
0.0
 11
15.315200
 21
49.939620
 31
0.0
  0
LINE
  5
2a1
100
AcDbEntity
  8
IfcPile
 62
7
100
AcDbLine
 10
15.021200
 20
49.013920
 30
0.0
 11
15.288300
 21
49.718320
 31
0.0
  0
LINE
  5
2a2
100
AcDbEntity
  8
IfcPile
 62
7
100
AcDbLine
 10
14.593200
 20
48.393920
 30
0.0
 11
15.021200
 21
49.013920
 31
0.0
  0
LINE
  5
2a3
100
AcDbEntity
  8
IfcPile
 62
7
100
AcDbLine
 10
14.029300
 20
47.894420
 30
0.0
 11
14.593200
 21
48.393920
 31
0.0
  0
LINE
  5
2a4
100
AcDbEntity
  8
IfcPile
 62
7
100
AcDbLine
 10
13.362300
 20
47.544320
 30
0.0
 11
14.029300
 21
47.894420
 31
0.0
  0
LINE
  5
2a5
100
AcDbEntity
  8
IfcPile
 62
7
100
AcDbLine
 10
12.630800
 20
47.364020
 30
0.0
 11
13.362300
 21
47.544320
 31
0.0
  0
LINE
  5
2a6
100
AcDbEntity
  8
IfcPile
 62
7
100
AcDbLine
 10
11.877400
 20
47.364020
 30
0.0
 11
12.630800
 21
47.364020
 31
0.0
  0
LINE
  5
2a7
100
AcDbEntity
  8
IfcPile
 62
7
100
AcDbLine
 10
11.146000
 20
47.544320
 30
0.0
 11
11.877400
 21
47.364020
 31
0.0
  0
LINE
  5
2a8
100
AcDbEntity
  8
IfcPile
 62
7
100
AcDbLine
 10
10.478900
 20
47.894420
 30
0.0
 11
11.146000
 21
47.544320
 31
0.0
  0
LINE
  5
2a9
100
AcDbEntity
  8
IfcPile
 62
7
100
AcDbLine
 10
9.915020
 20
48.393920
 30
0.0
 11
10.478900
 21
47.894420
 31
0.0
  0
LINE
  5
2aa
100
AcDbEntity
  8
IfcPile
 62
7
100
AcDbLine
 10
9.487070
 20
49.013920
 30
0.0
 11
9.915020
 21
48.393920
 31
0.0
  0
LINE
  5
2ab
100
AcDbEntity
  8
IfcPile
 62
7
100
AcDbLine
 10
9.219920
 20
49.718320
 30
0.0
 11
9.487070
 21
49.013920
 31
0.0
  0
LINE
  5
2ac
100
AcDbEntity
  8
IfcPile
 62
7
100
AcDbLine
 10
9.129120
 20
50.466220
 30
0.0
 11
9.219920
 21
49.718320
 31
0.0
  0
LINE
  5
2ad
100
AcDbEntity
  8
IfcPile
 62
7
100
AcDbLine
 10
9.219920
 20
51.214120
 30
0.0
 11
9.129120
 21
50.466220
 31
0.0
  0
LINE
  5
2ae
100
AcDbEntity
  8
IfcPile
 62
7
100
AcDbLine
 10
9.487070
 20
51.918520
 30
0.0
 11
9.219920
 21
51.214120
 31
0.0
  0
LINE
  5
2af
100
AcDbEntity
  8
IfcPile
 62
7
100
AcDbLine
 10
9.915020
 20
52.538520
 30
0.0
 11
9.487070
 21
51.918520
 31
0.0
  0
LINE
  5
2b0
100
AcDbEntity
  8
IfcPile
 62
7
100
AcDbLine
 10
10.478900
 20
53.038020
 30
0.0
 11
9.915020
 21
52.538520
 31
0.0
  0
LINE
  5
2b1
100
AcDbEntity
  8
IfcPile
 62
7
100
AcDbLine
 10
11.146000
 20
53.388120
 30
0.0
 11
10.478900
 21
53.038020
 31
0.0
  0
LINE
  5
2b2
100
AcDbEntity
  8
IfcPile
 62
7
100
AcDbLine
 10
11.877400
 20
53.568420
 30
0.0
 11
11.146000
 21
53.388120
 31
0.0
  0
LINE
  5
2b3
100
AcDbEntity
  8
IfcPile
 62
7
100
AcDbLine
 10
12.630800
 20
53.568420
 30
0.0
 11
11.877400
 21
53.568420
 31
0.0
  0
LINE
  5
2b4
100
AcDbEntity
  8
IfcPile
 62
7
100
AcDbLine
 10
13.362300
 20
53.388120
 30
0.0
 11
12.630800
 21
53.568420
 31
0.0
  0
LINE
  5
2b5
100
AcDbEntity
  8
IfcPile
 62
7
100
AcDbLine
 10
14.029300
 20
53.038020
 30
0.0
 11
13.362300
 21
53.388120
 31
0.0
  0
LINE
  5
2b6
100
AcDbEntity
  8
IfcPile
 62
7
100
AcDbLine
 10
14.593200
 20
52.538520
 30
0.0
 11
14.029300
 21
53.038020
 31
0.0
  0
LINE
  5
2b7
100
AcDbEntity
  8
IfcPile
 62
7
100
AcDbLine
 10
15.021200
 20
51.918520
 30
0.0
 11
14.593200
 21
52.538520
 31
0.0
  0
LINE
  5
2b8
100
AcDbEntity
  8
IfcPile
 62
7
100
AcDbLine
 10
15.288300
 20
51.214120
 30
0.0
 11
15.021200
 21
51.918520
 31
0.0
  0
LINE
  5
2b9
100
AcDbEntity
  8
IfcPile
 62
7
100
AcDbLine
 10
15.316600
 20
50.981220
 30
0.0
 11
15.288300
 21
51.214120
 31
0.0
  0
LINE
  5
2ba
100
AcDbEntity
  8
IfcPile
 62
7
100
AcDbLine
 10
15.288300
 20
17.419920
 30
0.0
 11
15.315900
 21
17.646920
 31
0.0
  0
LINE
  5
2bb
100
AcDbEntity
  8
IfcPile
 62
7
100
AcDbLine
 10
15.021200
 20
16.715520
 30
0.0
 11
15.288300
 21
17.419920
 31
0.0
  0
LINE
  5
2bc
100
AcDbEntity
  8
IfcPile
 62
7
100
AcDbLine
 10
14.593200
 20
16.095520
 30
0.0
 11
15.021200
 21
16.715520
 31
0.0
  0
LINE
  5
2bd
100
AcDbEntity
  8
IfcPile
 62
7
100
AcDbLine
 10
14.029300
 20
15.595920
 30
0.0
 11
14.593200
 21
16.095520
 31
0.0
  0
LINE
  5
2be
100
AcDbEntity
  8
IfcPile
 62
7
100
AcDbLine
 10
13.362300
 20
15.245820
 30
0.0
 11
14.029300
 21
15.595920
 31
0.0
  0
LINE
  5
2bf
100
AcDbEntity
  8
IfcPile
 62
7
100
AcDbLine
 10
12.630800
 20
15.065520
 30
0.0
 11
13.362300
 21
15.245820
 31
0.0
  0
LINE
  5
2c0
100
AcDbEntity
  8
IfcPile
 62
7
100
AcDbLine
 10
11.877400
 20
15.065520
 30
0.0
 11
12.630800
 21
15.065520
 31
0.0
  0
LINE
  5
2c1
100
AcDbEntity
  8
IfcPile
 62
7
100
AcDbLine
 10
11.146000
 20
15.245820
 30
0.0
 11
11.877400
 21
15.065520
 31
0.0
  0
LINE
  5
2c2
100
AcDbEntity
  8
IfcPile
 62
7
100
AcDbLine
 10
10.478900
 20
15.595920
 30
0.0
 11
11.146000
 21
15.245820
 31
0.0
  0
LINE
  5
2c3
100
AcDbEntity
  8
IfcPile
 62
7
100
AcDbLine
 10
9.915020
 20
16.095520
 30
0.0
 11
10.478900
 21
15.595920
 31
0.0
  0
LINE
  5
2c4
100
AcDbEntity
  8
IfcPile
 62
7
100
AcDbLine
 10
9.487070
 20
16.715520
 30
0.0
 11
9.915020
 21
16.095520
 31
0.0
  0
LINE
  5
2c5
100
AcDbEntity
  8
IfcPile
 62
7
100
AcDbLine
 10
9.219920
 20
17.419920
 30
0.0
 11
9.487070
 21
16.715520
 31
0.0
  0
LINE
  5
2c6
100
AcDbEntity
  8
IfcPile
 62
7
100
AcDbLine
 10
9.129120
 20
18.167820
 30
0.0
 11
9.219920
 21
17.419920
 31
0.0
  0
LINE
  5
2c7
100
AcDbEntity
  8
IfcPile
 62
7
100
AcDbLine
 10
9.219920
 20
18.915620
 30
0.0
 11
9.129120
 21
18.167820
 31
0.0
  0
LINE
  5
2c8
100
AcDbEntity
  8
IfcPile
 62
7
100
AcDbLine
 10
9.487070
 20
19.620020
 30
0.0
 11
9.219920
 21
18.915620
 31
0.0
  0
LINE
  5
2c9
100
AcDbEntity
  8
IfcPile
 62
7
100
AcDbLine
 10
9.915020
 20
20.240020
 30
0.0
 11
9.487070
 21
19.620020
 31
0.0
  0
LINE
  5
2ca
100
AcDbEntity
  8
IfcPile
 62
7
100
AcDbLine
 10
10.478900
 20
20.739620
 30
0.0
 11
9.915020
 21
20.240020
 31
0.0
  0
LINE
  5
2cb
100
AcDbEntity
  8
IfcPile
 62
7
100
AcDbLine
 10
11.146000
 20
21.089720
 30
0.0
 11
10.478900
 21
20.739620
 31
0.0
  0
LINE
  5
2cc
100
AcDbEntity
  8
IfcPile
 62
7
100
AcDbLine
 10
11.877400
 20
21.270020
 30
0.0
 11
11.146000
 21
21.089720
 31
0.0
  0
LINE
  5
2cd
100
AcDbEntity
  8
IfcPile
 62
7
100
AcDbLine
 10
12.630800
 20
21.270020
 30
0.0
 11
11.877400
 21
21.270020
 31
0.0
  0
LINE
  5
2ce
100
AcDbEntity
  8
IfcPile
 62
7
100
AcDbLine
 10
13.362300
 20
21.089720
 30
0.0
 11
12.630800
 21
21.270020
 31
0.0
  0
LINE
  5
2cf
100
AcDbEntity
  8
IfcPile
 62
7
100
AcDbLine
 10
14.029300
 20
20.739620
 30
0.0
 11
13.362300
 21
21.089720
 31
0.0
  0
LINE
  5
2d0
100
AcDbEntity
  8
IfcPile
 62
7
100
AcDbLine
 10
14.593200
 20
20.240020
 30
0.0
 11
14.029300
 21
20.739620
 31
0.0
  0
LINE
  5
2d1
100
AcDbEntity
  8
IfcPile
 62
7
100
AcDbLine
 10
15.021200
 20
19.620020
 30
0.0
 11
14.593200
 21
20.240020
 31
0.0
  0
LINE
  5
2d2
100
AcDbEntity
  8
IfcPile
 62
7
100
AcDbLine
 10
15.288300
 20
18.915620
 30
0.0
 11
15.021200
 21
19.620020
 31
0.0
  0
LINE
  5
2d3
100
AcDbEntity
  8
IfcPile
 62
7
100
AcDbLine
 10
15.315900
 20
18.688620
 30
0.0
 11
15.288300
 21
18.915620
 31
0.0
  0
LINE
  5
2d4
100
AcDbEntity
  8
IfcWall
 62
7
100
AcDbLine
 10
21.216700
 20
13.189820
 30
0.0
 11
20.175000
 21
12.148120
 31
0.0
  0
LINE
  5
2d5
100
AcDbEntity
  8
IfcWall
 62
7
100
AcDbLine
 10
21.216700
 20
30.086920
 30
0.0
 11
21.216700
 21
13.189820
 31
0.0
  0
LINE
  5
2d6
100
AcDbEntity
  8
IfcWall
 62
7
100
AcDbLine
 10
21.216700
 20
30.086920
 30
0.0
 11
20.175000
 21
30.086920
 31
0.0
  0
LINE
  5
2d7
100
AcDbEntity
  8
IfcWall
 62
7
100
AcDbLine
 10
20.175000
 20
12.148120
 30
0.0
 11
20.175000
 21
30.086920
 31
0.0
  0
LINE
  5
2d8
100
AcDbEntity
  8
IfcWall
 62
7
100
AcDbLine
 10
21.216700
 20
30.086920
 30
0.0
 11
21.216700
 21
39.461920
 31
0.0
  0
LINE
  5
2d9
100
AcDbEntity
  8
IfcWall
 62
7
100
AcDbLine
 10
20.175000
 20
39.461920
 30
0.0
 11
20.175000
 21
30.086920
 31
0.0
  0
LINE
  5
2da
100
AcDbEntity
  8
IfcWall
 62
7
100
AcDbLine
 10
20.175000
 20
39.461920
 30
0.0
 11
21.216700
 21
39.461920
 31
0.0
  0
LINE
  5
2db
100
AcDbEntity
  8
IfcWall
 62
7
100
AcDbLine
 10
21.216700
 20
55.556420
 30
0.0
 11
21.216700
 21
39.461920
 31
0.0
  0
LINE
  5
2dc
100
AcDbEntity
  8
IfcWall
 62
7
100
AcDbLine
 10
20.175000
 20
56.598120
 30
0.0
 11
21.216700
 21
55.556420
 31
0.0
  0
LINE
  5
2dd
100
AcDbEntity
  8
IfcWall
 62
7
100
AcDbLine
 10
20.175000
 20
39.461920
 30
0.0
 11
20.175000
 21
56.598120
 31
0.0
  0
LINE
  5
2de
100
AcDbEntity
  8
IfcWall
 62
7
100
AcDbLine
 10
21.216600
 20
55.556420
 30
0.0
 11
20.175000
 21
56.598120
 31
0.0
  0
LINE
  5
2df
100
AcDbEntity
  8
IfcWall
 62
7
100
AcDbLine
 10
37.285500
 20
55.556420
 30
0.0
 11
21.216600
 21
55.556420
 31
0.0
  0
LINE
  5
2e0
100
AcDbEntity
  8
IfcWall
 62
7
100
AcDbLine
 10
37.285500
 20
55.556420
 30
0.0
 11
37.285500
 21
56.598120
 31
0.0
  0
LINE
  5
2e1
100
AcDbEntity
  8
IfcWall
 62
7
100
AcDbLine
 10
20.175000
 20
56.598120
 30
0.0
 11
37.285500
 21
56.598120
 31
0.0
  0
LINE
  5
2e2
100
AcDbEntity
  8
IfcWall
 62
7
100
AcDbLine
 10
37.285500
 20
55.556420
 30
0.0
 11
46.660500
 21
55.556420
 31
0.0
  0
LINE
  5
2e3
100
AcDbEntity
  8
IfcWall
 62
7
100
AcDbLine
 10
46.660500
 20
56.598120
 30
0.0
 11
37.285500
 21
56.598120
 31
0.0
  0
LINE
  5
2e4
100
AcDbEntity
  8
IfcWall
 62
7
100
AcDbLine
 10
46.660500
 20
56.598120
 30
0.0
 11
46.660500
 21
55.556420
 31
0.0
  0
LINE
  5
2e5
100
AcDbEntity
  8
IfcWall
 62
7
100
AcDbLine
 10
63.583300
 20
55.556420
 30
0.0
 11
46.660500
 21
55.556420
 31
0.0
  0
LINE
  5
2e6
100
AcDbEntity
  8
IfcWall
 62
7
100
AcDbLine
 10
64.625000
 20
56.598120
 30
0.0
 11
63.583300
 21
55.556420
 31
0.0
  0
LINE
  5
2e7
100
AcDbEntity
  8
IfcWall
 62
7
100
AcDbLine
 10
46.660500
 20
56.598120
 30
0.0
 11
64.625000
 21
56.598120
 31
0.0
  0
LINE
  5
2e8
100
AcDbEntity
  8
IfcWall
 62
7
100
AcDbLine
 10
63.583300
 20
13.189720
 30
0.0
 11
64.625000
 21
12.148120
 31
0.0
  0
LINE
  5
2e9
100
AcDbEntity
  8
IfcWall
 62
7
100
AcDbLine
 10
63.400300
 20
13.189720
 30
0.0
 11
63.583300
 21
13.189720
 31
0.0
  0
LINE
  5
2ea
100
AcDbEntity
  8
IfcWall
 62
7
100
AcDbLine
 10
63.400300
 20
13.189720
 30
0.0
 11
63.400300
 21
12.148120
 31
0.0
  0
LINE
  5
2eb
100
AcDbEntity
  8
IfcWall
 62
7
100
AcDbLine
 10
64.625000
 20
12.148120
 30
0.0
 11
63.400300
 21
12.148120
 31
0.0
  0
LINE
  5
2ec
100
AcDbEntity
  8
IfcWall
 62
7
100
AcDbLine
 10
63.400300
 20
13.189720
 30
0.0
 11
54.025300
 21
13.189720
 31
0.0
  0
LINE
  5
2ed
100
AcDbEntity
  8
IfcWall
 62
7
100
AcDbLine
 10
54.025300
 20
12.148120
 30
0.0
 11
63.400300
 21
12.148120
 31
0.0
  0
LINE
  5
2ee
100
AcDbEntity
  8
IfcWall
 62
7
100
AcDbLine
 10
54.025300
 20
12.148120
 30
0.0
 11
54.025300
 21
13.189720
 31
0.0
  0
LINE
  5
2ef
100
AcDbEntity
  8
IfcWall
 62
7
100
AcDbLine
 10
21.216700
 20
13.189720
 30
0.0
 11
54.025300
 21
13.189720
 31
0.0
  0
LINE
  5
2f0
100
AcDbEntity
  8
IfcWall
 62
7
100
AcDbLine
 10
20.175000
 20
12.148120
 30
0.0
 11
21.216700
 21
13.189720
 31
0.0
  0
LINE
  5
2f1
100
AcDbEntity
  8
IfcWall
 62
7
100
AcDbLine
 10
54.025300
 20
12.148120
 30
0.0
 11
20.175000
 21
12.148120
 31
0.0
  0
LINE
  5
2f2
100
AcDbEntity
  8
IfcWall
 62
7
100
AcDbLine
 10
64.625000
 20
44.131420
 30
0.0
 11
63.583300
 21
44.131420
 31
0.0
  0
LINE
  5
2f3
100
AcDbEntity
  8
IfcWall
 62
7
100
AcDbLine
 10
63.583300
 20
43.306920
 30
0.0
 11
63.583300
 21
44.131420
 31
0.0
  0
LINE
  5
2f4
100
AcDbEntity
  8
IfcWall
 62
7
100
AcDbLine
 10
63.583300
 20
43.306920
 30
0.0
 11
64.625000
 21
43.306920
 31
0.0
  0
LINE
  5
2f5
100
AcDbEntity
  8
IfcWall
 62
7
100
AcDbLine
 10
64.625000
 20
44.131420
 30
0.0
 11
64.625000
 21
43.306920
 31
0.0
  0
LINE
  5
2f6
100
AcDbEntity
  8
IfcWall
 62
7
100
AcDbLine
 10
63.583300
 20
43.306920
 30
0.0
 11
63.583300
 21
33.931920
 31
0.0
  0
LINE
  5
2f7
100
AcDbEntity
  8
IfcWall
 62
7
100
AcDbLine
 10
64.625000
 20
33.931920
 30
0.0
 11
64.625000
 21
43.306920
 31
0.0
  0
LINE
  5
2f8
100
AcDbEntity
  8
IfcWall
 62
7
100
AcDbLine
 10
64.625000
 20
33.931920
 30
0.0
 11
63.583300
 21
33.931920
 31
0.0
  0
LINE
  5
2f9
100
AcDbEntity
  8
IfcWall
 62
7
100
AcDbLine
 10
63.583300
 20
32.953820
 30
0.0
 11
63.583300
 21
33.931920
 31
0.0
  0
LINE
  5
2fa
100
AcDbEntity
  8
IfcWall
 62
7
100
AcDbLine
 10
63.583300
 20
32.953820
 30
0.0
 11
64.625000
 21
32.953820
 31
0.0
  0
LINE
  5
2fb
100
AcDbEntity
  8
IfcWall
 62
7
100
AcDbLine
 10
64.625000
 20
33.931920
 30
0.0
 11
64.625000
 21
32.953820
 31
0.0
  0
LINE
  5
2fc
100
AcDbEntity
  8
IfcWall
 62
7
100
AcDbLine
 10
63.583300
 20
32.953820
 30
0.0
 11
63.583300
 21
23.578820
 31
0.0
  0
LINE
  5
2fd
100
AcDbEntity
  8
IfcWall
 62
7
100
AcDbLine
 10
64.625000
 20
23.578820
 30
0.0
 11
64.625000
 21
32.953820
 31
0.0
  0
LINE
  5
2fe
100
AcDbEntity
  8
IfcWall
 62
7
100
AcDbLine
 10
64.625000
 20
23.578820
 30
0.0
 11
63.583300
 21
23.578820
 31
0.0
  0
LINE
  5
2ff
100
AcDbEntity
  8
IfcWall
 62
7
100
AcDbLine
 10
63.583300
 20
22.728920
 30
0.0
 11
63.583300
 21
23.578820
 31
0.0
  0
LINE
  5
300
100
AcDbEntity
  8
IfcWall
 62
7
100
AcDbLine
 10
63.583300
 20
22.728920
 30
0.0
 11
64.625000
 21
22.728920
 31
0.0
  0
LINE
  5
301
100
AcDbEntity
  8
IfcWall
 62
7
100
AcDbLine
 10
64.625000
 20
23.578820
 30
0.0
 11
64.625000
 21
22.728920
 31
0.0
  0
LINE
  5
302
100
AcDbEntity
  8
IfcWall
 62
7
100
AcDbLine
 10
63.583300
 20
22.728920
 30
0.0
 11
63.583300
 21
13.353920
 31
0.0
  0
LINE
  5
303
100
AcDbEntity
  8
IfcWall
 62
7
100
AcDbLine
 10
64.625000
 20
13.353920
 30
0.0
 11
64.625000
 21
22.728920
 31
0.0
  0
LINE
  5
304
100
AcDbEntity
  8
IfcWall
 62
7
100
AcDbLine
 10
64.625000
 20
13.353920
 30
0.0
 11
63.583300
 21
13.353920
 31
0.0
  0
LINE
  5
305
100
AcDbEntity
  8
IfcWall
 62
7
100
AcDbLine
 10
63.583300
 20
13.189820
 30
0.0
 11
63.583300
 21
13.353920
 31
0.0
  0
LINE
  5
306
100
AcDbEntity
  8
IfcWall
 62
7
100
AcDbLine
 10
64.625000
 20
12.148120
 30
0.0
 11
63.583300
 21
13.189820
 31
0.0
  0
LINE
  5
307
100
AcDbEntity
  8
IfcWall
 62
7
100
AcDbLine
 10
64.625000
 20
13.353920
 30
0.0
 11
64.625000
 21
12.148120
 31
0.0
  0
LINE
  5
308
100
AcDbEntity
  8
IfcWall
 62
7
100
AcDbLine
 10
63.583300
 20
55.556420
 30
0.0
 11
64.625000
 21
56.598120
 31
0.0
  0
LINE
  5
309
100
AcDbEntity
  8
IfcWall
 62
7
100
AcDbLine
 10
63.583300
 20
54.652220
 30
0.0
 11
63.583300
 21
55.556420
 31
0.0
  0
LINE
  5
30a
100
AcDbEntity
  8
IfcWall
 62
7
100
AcDbLine
 10
63.583300
 20
54.652220
 30
0.0
 11
64.625000
 21
54.652220
 31
0.0
  0
LINE
  5
30b
100
AcDbEntity
  8
IfcWall
 62
7
100
AcDbLine
 10
64.625000
 20
56.598120
 30
0.0
 11
64.625000
 21
54.652220
 31
0.0
  0
LINE
  5
30c
100
AcDbEntity
  8
IfcWall
 62
7
100
AcDbLine
 10
37.300000
 20
56.646220
 30
0.0
 11
20.200000
 21
56.646220
 31
0.0
  0
LINE
  5
30d
100
AcDbEntity
  8
IfcWall
 62
7
100
AcDbLine
 10
20.200000
 20
56.646220
 30
0.0
 11
20.200000
 21
39.446220
 31
0.0
  0
LINE
  5
30e
100
AcDbEntity
  8
IfcWall
 62
7
100
AcDbLine
 10
20.200000
 20
39.446220
 30
0.0
 11
21.200000
 21
39.446220
 31
0.0
  0
LINE
  5
30f
100
AcDbEntity
  8
IfcWall
 62
7
100
AcDbLine
 10
21.200000
 20
39.446220
 30
0.0
 11
21.200000
 21
55.546220
 31
0.0
  0
LINE
  5
310
100
AcDbEntity
  8
IfcWall
 62
7
100
AcDbLine
 10
21.200000
 20
55.546220
 30
0.0
 11
37.300000
 21
55.546220
 31
0.0
  0
LINE
  5
311
100
AcDbEntity
  8
IfcWall
 62
7
100
AcDbLine
 10
37.300000
 20
55.546220
 30
0.0
 11
37.300000
 21
56.646220
 31
0.0
  0
LINE
  5
312
100
AcDbEntity
  8
IfcWall
 62
7
100
AcDbLine
 10
46.700000
 20
56.646220
 30
0.0
 11
46.700000
 21
55.546220
 31
0.0
  0
LINE
  5
313
100
AcDbEntity
  8
IfcWall
 62
7
100
AcDbLine
 10
46.700000
 20
55.546220
 30
0.0
 11
63.600000
 21
55.546220
 31
0.0
  0
LINE
  5
314
100
AcDbEntity
  8
IfcWall
 62
7
100
AcDbLine
 10
63.600000
 20
55.546220
 30
0.0
 11
63.600000
 21
54.646220
 31
0.0
  0
LINE
  5
315
100
AcDbEntity
  8
IfcWall
 62
7
100
AcDbLine
 10
63.600000
 20
54.646220
 30
0.0
 11
64.600000
 21
54.646220
 31
0.0
  0
LINE
  5
316
100
AcDbEntity
  8
IfcWall
 62
7
100
AcDbLine
 10
64.600000
 20
54.646220
 30
0.0
 11
64.600000
 21
56.646220
 31
0.0
  0
LINE
  5
317
100
AcDbEntity
  8
IfcWall
 62
7
100
AcDbLine
 10
64.600000
 20
56.646220
 30
0.0
 11
46.700000
 21
56.646220
 31
0.0
  0
LINE
  5
318
100
AcDbEntity
  8
IfcWall
 62
7
100
AcDbLine
 10
54.000000
 20
12.146220
 30
0.0
 11
54.000000
 21
13.146220
 31
0.0
  0
LINE
  5
319
100
AcDbEntity
  8
IfcWall
 62
7
100
AcDbLine
 10
54.000000
 20
13.146220
 30
0.0
 11
21.200000
 21
13.146220
 31
0.0
  0
LINE
  5
31a
100
AcDbEntity
  8
IfcWall
 62
7
100
AcDbLine
 10
21.200000
 20
13.146220
 30
0.0
 11
21.200000
 21
30.046220
 31
0.0
  0
LINE
  5
31b
100
AcDbEntity
  8
IfcWall
 62
7
100
AcDbLine
 10
21.200000
 20
30.046220
 30
0.0
 11
20.200000
 21
30.046220
 31
0.0
  0
LINE
  5
31c
100
AcDbEntity
  8
IfcWall
 62
7
100
AcDbLine
 10
20.200000
 20
30.046220
 30
0.0
 11
20.200000
 21
12.146220
 31
0.0
  0
LINE
  5
31d
100
AcDbEntity
  8
IfcWall
 62
7
100
AcDbLine
 10
20.200000
 20
12.146220
 30
0.0
 11
54.000000
 21
12.146220
 31
0.0
  0
LINE
  5
31e
100
AcDbEntity
  8
IfcWall
 62
7
100
AcDbLine
 10
63.400000
 20
12.146220
 30
0.0
 11
64.600000
 21
12.146220
 31
0.0
  0
LINE
  5
31f
100
AcDbEntity
  8
IfcWall
 62
7
100
AcDbLine
 10
64.600000
 20
12.146220
 30
0.0
 11
64.600000
 21
13.346220
 31
0.0
  0
LINE
  5
320
100
AcDbEntity
  8
IfcWall
 62
7
100
AcDbLine
 10
64.600000
 20
13.346220
 30
0.0
 11
63.600000
 21
13.346220
 31
0.0
  0
LINE
  5
321
100
AcDbEntity
  8
IfcWall
 62
7
100
AcDbLine
 10
63.600000
 20
13.346220
 30
0.0
 11
63.600000
 21
13.146220
 31
0.0
  0
LINE
  5
322
100
AcDbEntity
  8
IfcWall
 62
7
100
AcDbLine
 10
63.600000
 20
13.146220
 30
0.0
 11
63.400000
 21
13.146220
 31
0.0
  0
LINE
  5
323
100
AcDbEntity
  8
IfcWall
 62
7
100
AcDbLine
 10
63.400000
 20
13.146220
 30
0.0
 11
63.400000
 21
12.146220
 31
0.0
  0
LINE
  5
324
100
AcDbEntity
  8
IfcWall
 62
7
100
AcDbLine
 10
64.600000
 20
44.146220
 30
0.0
 11
63.600000
 21
44.146220
 31
0.0
  0
LINE
  5
325
100
AcDbEntity
  8
IfcWall
 62
7
100
AcDbLine
 10
63.600000
 20
44.146220
 30
0.0
 11
63.600000
 21
43.346220
 31
0.0
  0
LINE
  5
326
100
AcDbEntity
  8
IfcWall
 62
7
100
AcDbLine
 10
63.600000
 20
43.346220
 30
0.0
 11
64.600000
 21
43.346220
 31
0.0
  0
LINE
  5
327
100
AcDbEntity
  8
IfcWall
 62
7
100
AcDbLine
 10
64.600000
 20
43.346220
 30
0.0
 11
64.600000
 21
44.146220
 31
0.0
  0
LINE
  5
328
100
AcDbEntity
  8
IfcWall
 62
7
100
AcDbLine
 10
64.600000
 20
32.946220
 30
0.0
 11
64.600000
 21
33.946220
 31
0.0
  0
LINE
  5
329
100
AcDbEntity
  8
IfcWall
 62
7
100
AcDbLine
 10
64.600000
 20
33.946220
 30
0.0
 11
63.600000
 21
33.946220
 31
0.0
  0
LINE
  5
32a
100
AcDbEntity
  8
IfcWall
 62
7
100
AcDbLine
 10
63.600000
 20
33.946220
 30
0.0
 11
63.600000
 21
32.946220
 31
0.0
  0
LINE
  5
32b
100
AcDbEntity
  8
IfcWall
 62
7
100
AcDbLine
 10
63.600000
 20
32.946220
 30
0.0
 11
64.600000
 21
32.946220
 31
0.0
  0
LINE
  5
32c
100
AcDbEntity
  8
IfcWall
 62
7
100
AcDbLine
 10
64.600000
 20
23.546220
 30
0.0
 11
63.600000
 21
23.546220
 31
0.0
  0
LINE
  5
32d
100
AcDbEntity
  8
IfcWall
 62
7
100
AcDbLine
 10
63.600000
 20
23.546220
 30
0.0
 11
63.600000
 21
22.746220
 31
0.0
  0
LINE
  5
32e
100
AcDbEntity
  8
IfcWall
 62
7
100
AcDbLine
 10
63.600000
 20
22.746220
 30
0.0
 11
64.600000
 21
22.746220
 31
0.0
  0
LINE
  5
32f
100
AcDbEntity
  8
IfcWall
 62
7
100
AcDbLine
 10
64.600000
 20
22.746220
 30
0.0
 11
64.600000
 21
23.546220
 31
0.0
  0
LINE
  5
330
100
AcDbEntity
  8
IfcStairFlight
 62
7
100
AcDbLine
 10
93.250000
 20
72.473120
 30
0.0
 11
93.250000
 21
57.334820
 31
0.0
  0
LINE
  5
331
100
AcDbEntity
  8
IfcStairFlight
 62
7
100
AcDbLine
 10
93.250000
 20
56.813920
 30
0.0
 11
93.250000
 21
56.598120
 31
0.0
  0
LINE
  5
332
100
AcDbEntity
  8
IfcStairFlight
 62
7
100
AcDbLine
 10
83.875000
 20
72.473110
 30
0.0
 11
83.875000
 21
57.334820
 31
0.0
  0
LINE
  5
333
100
AcDbEntity
  8
IfcStairFlight
 62
7
100
AcDbLine
 10
83.875000
 20
56.813920
 30
0.0
 11
83.875000
 21
56.598120
 31
0.0
  0
LINE
  5
334
100
AcDbEntity
  8
IfcStairFlight
 62
7
100
AcDbLine
 10
96.375000
 20
72.473120
 30
0.0
 11
96.375000
 21
57.334820
 31
0.0
  0
LINE
  5
335
100
AcDbEntity
  8
IfcStairFlight
 62
7
100
AcDbLine
 10
96.375000
 20
56.813920
 30
0.0
 11
96.375000
 21
56.598120
 31
0.0
  0
LINE
  5
336
100
AcDbEntity
  8
IfcStairFlight
 62
7
100
AcDbLine
 10
87.000000
 20
72.473110
 30
0.0
 11
87.000000
 21
57.334820
 31
0.0
  0
LINE
  5
337
100
AcDbEntity
  8
IfcStairFlight
 62
7
100
AcDbLine
 10
87.000000
 20
56.813920
 30
0.0
 11
87.000000
 21
56.598120
 31
0.0
  0
LINE
  5
338
100
AcDbEntity
  8
IfcStairFlight
 62
7
100
AcDbLine
 10
74.500000
 20
72.473110
 30
0.0
 11
74.500000
 21
57.334820
 31
0.0
  0
LINE
  5
339
100
AcDbEntity
  8
IfcStairFlight
 62
7
100
AcDbLine
 10
74.500000
 20
56.813920
 30
0.0
 11
74.500000
 21
56.598120
 31
0.0
  0
LINE
  5
33a
100
AcDbEntity
  8
IfcStairFlight
 62
7
100
AcDbLine
 10
77.625000
 20
72.473110
 30
0.0
 11
77.625000
 21
57.334820
 31
0.0
  0
LINE
  5
33b
100
AcDbEntity
  8
IfcStairFlight
 62
7
100
AcDbLine
 10
77.625000
 20
56.813920
 30
0.0
 11
77.625000
 21
56.598120
 31
0.0
  0
LINE
  5
33c
100
AcDbEntity
  8
IfcStairFlight
 62
7
100
AcDbLine
 10
90.125000
 20
72.473120
 30
0.0
 11
90.125000
 21
57.334820
 31
0.0
  0
LINE
  5
33d
100
AcDbEntity
  8
IfcStairFlight
 62
7
100
AcDbLine
 10
90.125000
 20
56.813920
 30
0.0
 11
90.125000
 21
56.598120
 31
0.0
  0
LINE
  5
33e
100
AcDbEntity
  8
IfcStairFlight
 62
7
100
AcDbLine
 10
80.750000
 20
72.473110
 30
0.0
 11
80.750000
 21
57.334820
 31
0.0
  0
LINE
  5
33f
100
AcDbEntity
  8
IfcStairFlight
 62
7
100
AcDbLine
 10
80.750000
 20
56.813920
 30
0.0
 11
80.750000
 21
56.598120
 31
0.0
  0
LINE
  5
340
100
AcDbEntity
  8
IfcStairFlight
 62
7
100
AcDbLine
 10
77.625000
 20
56.598120
 30
0.0
 11
93.250000
 21
56.598120
 31
0.0
  0
LINE
  5
341
100
AcDbEntity
  8
IfcStairFlight
 62
7
100
AcDbLine
 10
77.625000
 20
56.598120
 30
0.0
 11
74.500000
 21
56.598120
 31
0.0
  0
LINE
  5
342
100
AcDbEntity
  8
IfcStairFlight
 62
7
100
AcDbLine
 10
80.750000
 20
56.598120
 30
0.0
 11
77.625000
 21
56.598120
 31
0.0
  0
LINE
  5
343
100
AcDbEntity
  8
IfcStairFlight
 62
7
100
AcDbLine
 10
83.875000
 20
56.598120
 30
0.0
 11
80.750000
 21
56.598120
 31
0.0
  0
LINE
  5
344
100
AcDbEntity
  8
IfcStairFlight
 62
7
100
AcDbLine
 10
87.000000
 20
56.598120
 30
0.0
 11
83.875000
 21
56.598120
 31
0.0
  0
LINE
  5
345
100
AcDbEntity
  8
IfcStairFlight
 62
7
100
AcDbLine
 10
90.125000
 20
56.598120
 30
0.0
 11
87.000000
 21
56.598120
 31
0.0
  0
LINE
  5
346
100
AcDbEntity
  8
IfcStairFlight
 62
7
100
AcDbLine
 10
93.250000
 20
56.598120
 30
0.0
 11
90.125000
 21
56.598120
 31
0.0
  0
LINE
  5
347
100
AcDbEntity
  8
IfcStairFlight
 62
7
100
AcDbLine
 10
96.375000
 20
56.598120
 30
0.0
 11
93.250000
 21
56.598120
 31
0.0
  0
LINE
  5
348
100
AcDbEntity
  8
IfcStairFlight
 62
7
100
AcDbLine
 10
93.250000
 20
72.473120
 30
0.0
 11
90.125000
 21
72.473120
 31
0.0
  0
LINE
  5
349
100
AcDbEntity
  8
IfcStairFlight
 62
7
100
AcDbLine
 10
90.125000
 20
72.473120
 30
0.0
 11
87.000000
 21
72.473110
 31
0.0
  0
LINE
  5
34a
100
AcDbEntity
  8
IfcStairFlight
 62
7
100
AcDbLine
 10
87.000000
 20
72.473110
 30
0.0
 11
83.875000
 21
72.473110
 31
0.0
  0
LINE
  5
34b
100
AcDbEntity
  8
IfcStairFlight
 62
7
100
AcDbLine
 10
83.875000
 20
72.473110
 30
0.0
 11
80.750000
 21
72.473110
 31
0.0
  0
LINE
  5
34c
100
AcDbEntity
  8
IfcStairFlight
 62
7
100
AcDbLine
 10
80.750000
 20
72.473110
 30
0.0
 11
77.625000
 21
72.473110
 31
0.0
  0
LINE
  5
34d
100
AcDbEntity
  8
IfcStairFlight
 62
7
100
AcDbLine
 10
77.625000
 20
72.473110
 30
0.0
 11
74.500000
 21
72.473110
 31
0.0
  0
LINE
  5
34e
100
AcDbEntity
  8
IfcStairFlight
 62
7
100
AcDbLine
 10
77.625000
 20
72.473110
 30
0.0
 11
93.250000
 21
72.473120
 31
0.0
  0
LINE
  5
34f
100
AcDbEntity
  8
IfcStairFlight
 62
7
100
AcDbLine
 10
96.375000
 20
72.473120
 30
0.0
 11
93.250000
 21
72.473120
 31
0.0
  0
LINE
  5
350
100
AcDbEntity
  8
IfcSlab
 62
7
100
AcDbLine
 10
96.375000
 20
12.148120
 30
0.0
 11
54.025300
 21
12.148120
 31
0.0
  0
LINE
  5
351
100
AcDbEntity
  8
IfcSlab
 62
7
100
AcDbLine
 10
96.375000
 20
56.598120
 30
0.0
 11
96.375000
 21
12.148120
 31
0.0
  0
LINE
  5
352
100
AcDbEntity
  8
IfcSlab
 62
7
100
AcDbLine
 10
77.625000
 20
56.598120
 30
0.0
 11
96.375000
 21
56.598120
 31
0.0
  0
LINE
  5
353
100
AcDbEntity
  8
IfcSlab
 62
7
100
AcDbLine
 10
77.625000
 20
72.473120
 30
0.0
 11
77.625000
 21
57.334820
 31
0.0
  0
LINE
  5
354
100
AcDbEntity
  8
IfcSlab
 62
7
100
AcDbLine
 10
77.625000
 20
56.813920
 30
0.0
 11
77.625000
 21
56.598120
 31
0.0
  0
LINE
  5
355
100
AcDbEntity
  8
IfcSlab
 62
7
100
AcDbLine
 10
20.175000
 20
72.473120
 30
0.0
 11
77.625000
 21
72.473120
 31
0.0
  0
LINE
  5
356
100
AcDbEntity
  8
IfcSlab
 62
7
100
AcDbLine
 10
20.175000
 20
12.148120
 30
0.0
 11
20.175000
 21
12.148120
 31
0.0
  0
LINE
  5
357
100
AcDbEntity
  8
IfcSlab
 62
7
100
AcDbLine
 10
20.175000
 20
56.598120
 30
0.0
 11
20.175000
 21
72.473120
 31
0.0
  0
LINE
  5
358
100
AcDbEntity
  8
IfcColumn
 62
7
100
AcDbLine
 10
100.590000
 20
53.585420
 30
0.0
 11
100.590000
 21
50.981220
 31
0.0
  0
LINE
  5
359
100
AcDbEntity
  8
IfcColumn
 62
7
100
AcDbLine
 10
100.590000
 20
49.939620
 30
0.0
 11
100.590000
 21
47.335420
 31
0.0
  0
LINE
  5
35a
100
AcDbEntity
  8
IfcColumn
 62
7
100
AcDbLine
 10
105.799000
 20
53.585420
 30
0.0
 11
100.590000
 21
53.585420
 31
0.0
  0
LINE
  5
35b
100
AcDbEntity
  8
IfcColumn
 62
7
100
AcDbLine
 10
105.799000
 20
47.335420
 30
0.0
 11
105.799000
 21
49.939620
 31
0.0
  0
LINE
  5
35c
100
AcDbEntity
  8
IfcColumn
 62
7
100
AcDbLine
 10
105.799000
 20
50.981220
 30
0.0
 11
105.799000
 21
53.585420
 31
0.0
  0
LINE
  5
35d
100
AcDbEntity
  8
IfcColumn
 62
7
100
AcDbLine
 10
100.590000
 20
47.335420
 30
0.0
 11
105.799000
 21
47.335420
 31
0.0
  0
LINE
  5
35e
100
AcDbEntity
  8
IfcColumn
 62
7
100
AcDbLine
 10
100.590000
 20
37.909320
 30
0.0
 11
100.590000
 21
35.305220
 31
0.0
  0
LINE
  5
35f
100
AcDbEntity
  8
IfcColumn
 62
7
100
AcDbLine
 10
100.590000
 20
34.263520
 30
0.0
 11
100.590000
 21
31.659320
 31
0.0
  0
LINE
  5
360
100
AcDbEntity
  8
IfcColumn
 62
7
100
AcDbLine
 10
105.799000
 20
37.909320
 30
0.0
 11
100.590000
 21
37.909320
 31
0.0
  0
LINE
  5
361
100
AcDbEntity
  8
IfcColumn
 62
7
100
AcDbLine
 10
105.799000
 20
31.659320
 30
0.0
 11
105.799000
 21
34.263520
 31
0.0
  0
LINE
  5
362
100
AcDbEntity
  8
IfcColumn
 62
7
100
AcDbLine
 10
105.799000
 20
35.305220
 30
0.0
 11
105.799000
 21
37.909320
 31
0.0
  0
LINE
  5
363
100
AcDbEntity
  8
IfcColumn
 62
7
100
AcDbLine
 10
100.590000
 20
31.659320
 30
0.0
 11
105.799000
 21
31.659320
 31
0.0
  0
LINE
  5
364
100
AcDbEntity
  8
IfcColumn
 62
7
100
AcDbLine
 10
100.590000
 20
21.292720
 30
0.0
 11
100.590000
 21
18.688620
 31
0.0
  0
LINE
  5
365
100
AcDbEntity
  8
IfcColumn
 62
7
100
AcDbLine
 10
100.590000
 20
17.646920
 30
0.0
 11
100.590000
 21
15.042720
 31
0.0
  0
LINE
  5
366
100
AcDbEntity
  8
IfcColumn
 62
7
100
AcDbLine
 10
105.799000
 20
21.292720
 30
0.0
 11
100.590000
 21
21.292720
 31
0.0
  0
LINE
  5
367
100
AcDbEntity
  8
IfcColumn
 62
7
100
AcDbLine
 10
105.799000
 20
15.042720
 30
0.0
 11
105.799000
 21
17.646920
 31
0.0
  0
LINE
  5
368
100
AcDbEntity
  8
IfcColumn
 62
7
100
AcDbLine
 10
105.799000
 20
18.688620
 30
0.0
 11
105.799000
 21
21.292720
 31
0.0
  0
LINE
  5
369
100
AcDbEntity
  8
IfcColumn
 62
7
100
AcDbLine
 10
100.590000
 20
15.042720
 30
0.0
 11
105.799000
 21
15.042720
 31
0.0
  0
LINE
  5
36a
100
AcDbEntity
  8
IfcDuctSegment
 62
7
100
AcDbLine
 10
26.129000
 20
16.274220
 30
0.0
 11
21.962300
 21
16.274220
 31
0.0
  0
LINE
  5
36b
100
AcDbEntity
  8
IfcDuctSegment
 62
7
100
AcDbLine
 10
21.962300
 20
16.274220
 30
0.0
 11
21.962300
 21
14.190820
 31
0.0
  0
LINE
  5
36c
100
AcDbEntity
  8
IfcDuctSegment
 62
7
100
AcDbLine
 10
21.962300
 20
14.190820
 30
0.0
 11
26.129000
 21
14.190820
 31
0.0
  0
LINE
  5
36d
100
AcDbEntity
  8
IfcDuctSegment
 62
7
100
AcDbLine
 10
26.129000
 20
14.190820
 30
0.0
 11
26.129000
 21
16.274220
 31
0.0
  0
LINE
  5
36e
100
AcDbEntity
  8
IfcDuctSegment
 62
7
100
AcDbLine
 10
26.129000
 20
16.274220
 30
0.0
 11
21.962300
 21
16.274220
 31
0.0
  0
LINE
  5
36f
100
AcDbEntity
  8
IfcDuctSegment
 62
7
100
AcDbLine
 10
21.962300
 20
16.274220
 30
0.0
 11
21.962300
 21
14.190820
 31
0.0
  0
LINE
  5
370
100
AcDbEntity
  8
IfcDuctSegment
 62
7
100
AcDbLine
 10
21.962300
 20
14.190820
 30
0.0
 11
26.129000
 21
14.190820
 31
0.0
  0
LINE
  5
371
100
AcDbEntity
  8
IfcDuctSegment
 62
7
100
AcDbLine
 10
26.129000
 20
14.190820
 30
0.0
 11
26.129000
 21
16.274220
 31
0.0
  0
LINE
  5
372
100
AcDbEntity
  8
IfcPipeSegment
 62
7
100
AcDbLine
 10
27.842700
 20
15.702020
 30
0.0
 11
27.967300
 21
15.717120
 31
0.0
  0
LINE
  5
373
100
AcDbEntity
  8
IfcPipeSegment
 62
7
100
AcDbLine
 10
27.725300
 20
15.657520
 30
0.0
 11
27.842700
 21
15.702020
 31
0.0
  0
LINE
  5
374
100
AcDbEntity
  8
IfcPipeSegment
 62
7
100
AcDbLine
 10
27.622000
 20
15.586120
 30
0.0
 11
27.725300
 21
15.657520
 31
0.0
  0
LINE
  5
375
100
AcDbEntity
  8
IfcPipeSegment
 62
7
100
AcDbLine
 10
27.538700
 20
15.492120
 30
0.0
 11
27.622000
 21
15.586120
 31
0.0
  0
LINE
  5
376
100
AcDbEntity
  8
IfcPipeSegment
 62
7
100
AcDbLine
 10
27.480400
 20
15.381020
 30
0.0
 11
27.538700
 21
15.492120
 31
0.0
  0
LINE
  5
377
100
AcDbEntity
  8
IfcPipeSegment
 62
7
100
AcDbLine
 10
27.450300
 20
15.259120
 30
0.0
 11
27.480400
 21
15.381020
 31
0.0
  0
LINE
  5
378
100
AcDbEntity
  8
IfcPipeSegment
 62
7
100
AcDbLine
 10
27.450300
 20
15.133520
 30
0.0
 11
27.450300
 21
15.259120
 31
0.0
  0
LINE
  5
379
100
AcDbEntity
  8
IfcPipeSegment
 62
7
100
AcDbLine
 10
27.480400
 20
15.011620
 30
0.0
 11
27.450300
 21
15.133520
 31
0.0
  0
LINE
  5
37a
100
AcDbEntity
  8
IfcPipeSegment
 62
7
100
AcDbLine
 10
27.538700
 20
14.900420
 30
0.0
 11
27.480400
 21
15.011620
 31
0.0
  0
LINE
  5
37b
100
AcDbEntity
  8
IfcPipeSegment
 62
7
100
AcDbLine
 10
27.622000
 20
14.806420
 30
0.0
 11
27.538700
 21
14.900420
 31
0.0
  0
LINE
  5
37c
100
AcDbEntity
  8
IfcPipeSegment
 62
7
100
AcDbLine
 10
27.725300
 20
14.735120
 30
0.0
 11
27.622000
 21
14.806420
 31
0.0
  0
LINE
  5
37d
100
AcDbEntity
  8
IfcPipeSegment
 62
7
100
AcDbLine
 10
27.842700
 20
14.690620
 30
0.0
 11
27.725300
 21
14.735120
 31
0.0
  0
LINE
  5
37e
100
AcDbEntity
  8
IfcPipeSegment
 62
7
100
AcDbLine
 10
27.967300
 20
14.675420
 30
0.0
 11
27.842700
 21
14.690620
 31
0.0
  0
LINE
  5
37f
100
AcDbEntity
  8
IfcPipeSegment
 62
7
100
AcDbLine
 10
28.092000
 20
14.690620
 30
0.0
 11
27.967300
 21
14.675420
 31
0.0
  0
LINE
  5
380
100
AcDbEntity
  8
IfcPipeSegment
 62
7
100
AcDbLine
 10
28.209400
 20
14.735120
 30
0.0
 11
28.092000
 21
14.690620
 31
0.0
  0
LINE
  5
381
100
AcDbEntity
  8
IfcPipeSegment
 62
7
100
AcDbLine
 10
28.312700
 20
14.806420
 30
0.0
 11
28.209400
 21
14.735120
 31
0.0
  0
LINE
  5
382
100
AcDbEntity
  8
IfcPipeSegment
 62
7
100
AcDbLine
 10
28.396000
 20
14.900420
 30
0.0
 11
28.312700
 21
14.806420
 31
0.0
  0
LINE
  5
383
100
AcDbEntity
  8
IfcPipeSegment
 62
7
100
AcDbLine
 10
28.454300
 20
15.011620
 30
0.0
 11
28.396000
 21
14.900420
 31
0.0
  0
LINE
  5
384
100
AcDbEntity
  8
IfcPipeSegment
 62
7
100
AcDbLine
 10
28.484400
 20
15.133520
 30
0.0
 11
28.454300
 21
15.011620
 31
0.0
  0
LINE
  5
385
100
AcDbEntity
  8
IfcPipeSegment
 62
7
100
AcDbLine
 10
28.484400
 20
15.259120
 30
0.0
 11
28.484400
 21
15.133520
 31
0.0
  0
LINE
  5
386
100
AcDbEntity
  8
IfcPipeSegment
 62
7
100
AcDbLine
 10
28.454300
 20
15.381020
 30
0.0
 11
28.484400
 21
15.259120
 31
0.0
  0
LINE
  5
387
100
AcDbEntity
  8
IfcPipeSegment
 62
7
100
AcDbLine
 10
28.396000
 20
15.492120
 30
0.0
 11
28.454300
 21
15.381020
 31
0.0
  0
LINE
  5
388
100
AcDbEntity
  8
IfcPipeSegment
 62
7
100
AcDbLine
 10
28.312700
 20
15.586120
 30
0.0
 11
28.396000
 21
15.492120
 31
0.0
  0
LINE
  5
389
100
AcDbEntity
  8
IfcPipeSegment
 62
7
100
AcDbLine
 10
28.209400
 20
15.657520
 30
0.0
 11
28.312700
 21
15.586120
 31
0.0
  0
LINE
  5
38a
100
AcDbEntity
  8
IfcPipeSegment
 62
7
100
AcDbLine
 10
28.092000
 20
15.702020
 30
0.0
 11
28.209400
 21
15.657520
 31
0.0
  0
LINE
  5
38b
100
AcDbEntity
  8
IfcPipeSegment
 62
7
100
AcDbLine
 10
27.967300
 20
15.717120
 30
0.0
 11
28.092000
 21
15.702020
 31
0.0
  0
LINE
  5
38c
100
AcDbEntity
  8
IfcPipeSegment
 62
7
100
AcDbLine
 10
27.967300
 20
15.717120
 30
0.0
 11
27.967300
 21
15.717120
 31
0.0
  0
LINE
  5
38d
100
AcDbEntity
  8
IfcPipeSegment
 62
7
100
AcDbLine
 10
28.092000
 20
15.702020
 30
0.0
 11
28.092000
 21
15.702020
 31
0.0
  0
LINE
  5
38e
100
AcDbEntity
  8
IfcPipeSegment
 62
7
100
AcDbLine
 10
28.209400
 20
15.657520
 30
0.0
 11
28.209400
 21
15.657520
 31
0.0
  0
LINE
  5
38f
100
AcDbEntity
  8
IfcPipeSegment
 62
7
100
AcDbLine
 10
27.622000
 20
14.806420
 30
0.0
 11
27.622000
 21
14.806420
 31
0.0
  0
LINE
  5
390
100
AcDbEntity
  8
IfcPipeSegment
 62
7
100
AcDbLine
 10
27.538700
 20
14.900420
 30
0.0
 11
27.622000
 21
14.806420
 31
0.0
  0
LINE
  5
391
100
AcDbEntity
  8
IfcPipeSegment
 62
7
100
AcDbLine
 10
27.480400
 20
15.011620
 30
0.0
 11
27.538700
 21
14.900420
 31
0.0
  0
LINE
  5
392
100
AcDbEntity
  8
IfcPipeSegment
 62
7
100
AcDbLine
 10
27.450300
 20
15.133520
 30
0.0
 11
27.480400
 21
15.011620
 31
0.0
  0
LINE
  5
393
100
AcDbEntity
  8
IfcPipeSegment
 62
7
100
AcDbLine
 10
27.450300
 20
15.259120
 30
0.0
 11
27.450300
 21
15.133520
 31
0.0
  0
LINE
  5
394
100
AcDbEntity
  8
IfcPipeSegment
 62
7
100
AcDbLine
 10
27.480400
 20
15.381020
 30
0.0
 11
27.450300
 21
15.259120
 31
0.0
  0
LINE
  5
395
100
AcDbEntity
  8
IfcPipeSegment
 62
7
100
AcDbLine
 10
27.538700
 20
15.492120
 30
0.0
 11
27.480400
 21
15.381020
 31
0.0
  0
LINE
  5
396
100
AcDbEntity
  8
IfcPipeSegment
 62
7
100
AcDbLine
 10
27.622000
 20
15.586120
 30
0.0
 11
27.538700
 21
15.492120
 31
0.0
  0
LINE
  5
397
100
AcDbEntity
  8
IfcPipeSegment
 62
7
100
AcDbLine
 10
27.725300
 20
15.657520
 30
0.0
 11
27.622000
 21
15.586120
 31
0.0
  0
LINE
  5
398
100
AcDbEntity
  8
IfcPipeSegment
 62
7
100
AcDbLine
 10
27.842700
 20
15.702020
 30
0.0
 11
27.725300
 21
15.657520
 31
0.0
  0
LINE
  5
399
100
AcDbEntity
  8
IfcPipeSegment
 62
7
100
AcDbLine
 10
27.967300
 20
15.717120
 30
0.0
 11
27.842700
 21
15.702020
 31
0.0
  0
LINE
  5
39a
100
AcDbEntity
  8
IfcPipeSegment
 62
7
100
AcDbLine
 10
27.967300
 20
15.717120
 30
0.0
 11
28.166700
 21
15.677520
 31
0.0
  0
LINE
  5
39b
100
AcDbEntity
  8
IfcPipeSegment
 62
7
100
AcDbLine
 10
28.166700
 20
15.677520
 30
0.0
 11
28.335600
 21
15.564620
 31
0.0
  0
LINE
  5
39c
100
AcDbEntity
  8
IfcPipeSegment
 62
7
100
AcDbLine
 10
28.335600
 20
15.564620
 30
0.0
 11
28.448500
 21
15.395620
 31
0.0
  0
LINE
  5
39d
100
AcDbEntity
  8
IfcPipeSegment
 62
7
100
AcDbLine
 10
28.448500
 20
15.395620
 30
0.0
 11
28.488200
 21
15.196320
 31
0.0
  0
LINE
  5
39e
100
AcDbEntity
  8
IfcPipeSegment
 62
7
100
AcDbLine
 10
28.488200
 20
15.196320
 30
0.0
 11
28.448500
 21
14.997020
 31
0.0
  0
LINE
  5
39f
100
AcDbEntity
  8
IfcPipeSegment
 62
7
100
AcDbLine
 10
28.448500
 20
14.997020
 30
0.0
 11
28.335600
 21
14.828020
 31
0.0
  0
LINE
  5
3a0
100
AcDbEntity
  8
IfcPipeSegment
 62
7
100
AcDbLine
 10
28.335600
 20
14.828020
 30
0.0
 11
28.166700
 21
14.715120
 31
0.0
  0
LINE
  5
3a1
100
AcDbEntity
  8
IfcPipeSegment
 62
7
100
AcDbLine
 10
28.166700
 20
14.715120
 30
0.0
 11
27.967300
 21
14.675420
 31
0.0
  0
LINE
  5
3a2
100
AcDbEntity
  8
IfcPipeSegment
 62
7
100
AcDbLine
 10
27.967300
 20
14.675420
 30
0.0
 11
27.768000
 21
14.715120
 31
0.0
  0
LINE
  5
3a3
100
AcDbEntity
  8
IfcPipeSegment
 62
7
100
AcDbLine
 10
27.768000
 20
14.715120
 30
0.0
 11
27.599100
 21
14.828020
 31
0.0
  0
LINE
  5
3a4
100
AcDbEntity
  8
IfcPipeSegment
 62
7
100
AcDbLine
 10
27.599100
 20
14.828020
 30
0.0
 11
27.486200
 21
14.997020
 31
0.0
  0
LINE
  5
3a5
100
AcDbEntity
  8
IfcPipeSegment
 62
7
100
AcDbLine
 10
27.486200
 20
14.997020
 30
0.0
 11
27.446500
 21
15.196320
 31
0.0
  0
LINE
  5
3a6
100
AcDbEntity
  8
IfcPipeSegment
 62
7
100
AcDbLine
 10
27.446500
 20
15.196320
 30
0.0
 11
27.486200
 21
15.395620
 31
0.0
  0
LINE
  5
3a7
100
AcDbEntity
  8
IfcPipeSegment
 62
7
100
AcDbLine
 10
27.486200
 20
15.395620
 30
0.0
 11
27.599100
 21
15.564620
 31
0.0
  0
LINE
  5
3a8
100
AcDbEntity
  8
IfcPipeSegment
 62
7
100
AcDbLine
 10
27.599100
 20
15.564620
 30
0.0
 11
27.768000
 21
15.677520
 31
0.0
  0
LINE
  5
3a9
100
AcDbEntity
  8
IfcPipeSegment
 62
7
100
AcDbLine
 10
27.768000
 20
15.677520
 30
0.0
 11
27.967300
 21
15.717120
 31
0.0
  0
LINE
  5
3aa
100
AcDbEntity
  8
IfcFurniture
 62
7
100
AcDbLine
 10
32.423900
 20
40.861820
 30
0.0
 11
32.423900
 21
39.038820
 31
0.0
  0
LINE
  5
3ab
100
AcDbEntity
  8
IfcFurniture
 62
7
100
AcDbLine
 10
50.653100
 20
40.861820
 30
0.0
 11
32.423900
 21
40.861820
 31
0.0
  0
LINE
  5
3ac
100
AcDbEntity
  8
IfcFurniture
 62
7
100
AcDbLine
 10
50.653100
 20
39.038820
 30
0.0
 11
50.653100
 21
40.861820
 31
0.0
  0
LINE
  5
3ad
100
AcDbEntity
  8
IfcFurniture
 62
7
100
AcDbLine
 10
32.423900
 20
39.038820
 30
0.0
 11
50.653100
 21
39.038820
 31
0.0
  0
LINE
  5
3ae
100
AcDbEntity
  8
IfcFurniture
 62
7
100
AcDbLine
 10
44.576700
 20
39.038820
 30
0.0
 11
44.576700
 21
31.486820
 31
0.0
  0
LINE
  5
3af
100
AcDbEntity
  8
IfcFurniture
 62
7
100
AcDbLine
 10
50.653100
 20
39.038820
 30
0.0
 11
44.576700
 21
39.038820
 31
0.0
  0
LINE
  5
3b0
100
AcDbEntity
  8
IfcFurniture
 62
7
100
AcDbLine
 10
50.653100
 20
31.486820
 30
0.0
 11
50.653100
 21
39.038820
 31
0.0
  0
LINE
  5
3b1
100
AcDbEntity
  8
IfcFurniture
 62
7
100
AcDbLine
 10
44.576700
 20
31.486820
 30
0.0
 11
50.653100
 21
31.486820
 31
0.0
  0
LINE
  5
3b2
100
AcDbEntity
  8
IfcFurniture
 62
7
100
AcDbLine
 10
38.500300
 20
39.038820
 30
0.0
 11
38.500300
 21
31.486820
 31
0.0
  0
LINE
  5
3b3
100
AcDbEntity
  8
IfcFurniture
 62
7
100
AcDbLine
 10
44.576700
 20
39.038820
 30
0.0
 11
38.500300
 21
39.038820
 31
0.0
  0
LINE
  5
3b4
100
AcDbEntity
  8
IfcFurniture
 62
7
100
AcDbLine
 10
44.576700
 20
31.486820
 30
0.0
 11
44.576700
 21
39.038820
 31
0.0
  0
LINE
  5
3b5
100
AcDbEntity
  8
IfcFurniture
 62
7
100
AcDbLine
 10
38.500300
 20
31.486820
 30
0.0
 11
44.576700
 21
31.486820
 31
0.0
  0
LINE
  5
3b6
100
AcDbEntity
  8
IfcFurniture
 62
7
100
AcDbLine
 10
32.423900
 20
39.038820
 30
0.0
 11
32.423900
 21
31.486820
 31
0.0
  0
LINE
  5
3b7
100
AcDbEntity
  8
IfcFurniture
 62
7
100
AcDbLine
 10
38.500300
 20
39.038820
 30
0.0
 11
32.423900
 21
39.038820
 31
0.0
  0
LINE
  5
3b8
100
AcDbEntity
  8
IfcFurniture
 62
7
100
AcDbLine
 10
38.500300
 20
31.486820
 30
0.0
 11
38.500300
 21
39.038820
 31
0.0
  0
LINE
  5
3b9
100
AcDbEntity
  8
IfcFurniture
 62
7
100
AcDbLine
 10
32.423900
 20
31.486820
 30
0.0
 11
38.500300
 21
31.486820
 31
0.0
  0
LINE
  5
3ba
100
AcDbEntity
  8
IfcFurniture
 62
7
100
AcDbLine
 10
50.653100
 20
40.861820
 30
0.0
 11
50.653100
 21
31.486820
 31
0.0
  0
LINE
  5
3bb
100
AcDbEntity
  8
IfcFurniture
 62
7
100
AcDbLine
 10
52.476000
 20
40.861820
 30
0.0
 11
50.653100
 21
40.861820
 31
0.0
  0
LINE
  5
3bc
100
AcDbEntity
  8
IfcFurniture
 62
7
100
AcDbLine
 10
52.476000
 20
31.486820
 30
0.0
 11
52.476000
 21
40.861820
 31
0.0
  0
LINE
  5
3bd
100
AcDbEntity
  8
IfcFurniture
 62
7
100
AcDbLine
 10
50.653100
 20
31.486820
 30
0.0
 11
52.476000
 21
31.486820
 31
0.0
  0
LINE
  5
3be
100
AcDbEntity
  8
IfcFurniture
 62
7
100
AcDbLine
 10
30.601000
 20
40.861820
 30
0.0
 11
30.601000
 21
31.486820
 31
0.0
  0
LINE
  5
3bf
100
AcDbEntity
  8
IfcFurniture
 62
7
100
AcDbLine
 10
32.423900
 20
40.861820
 30
0.0
 11
30.601000
 21
40.861820
 31
0.0
  0
LINE
  5
3c0
100
AcDbEntity
  8
IfcFurniture
 62
7
100
AcDbLine
 10
32.423900
 20
31.486820
 30
0.0
 11
32.423900
 21
40.861820
 31
0.0
  0
LINE
  5
3c1
100
AcDbEntity
  8
IfcFurniture
 62
7
100
AcDbLine
 10
30.601000
 20
31.486820
 30
0.0
 11
32.423900
 21
31.486820
 31
0.0
  0
LINE
  5
3c2
100
AcDbEntity
  8
IfcFurniture
 62
7
100
AcDbLine
 10
91.274400
 20
15.442420
 30
0.0
 11
90.904000
 21
15.737120
 31
0.0
  0
LINE
  5
3c3
100
AcDbEntity
  8
IfcFurniture
 62
7
100
AcDbLine
 10
91.481600
 20
15.396820
 30
0.0
 11
91.274400
 21
15.442420
 31
0.0
  0
LINE
  5
3c4
100
AcDbEntity
  8
IfcFurniture
 62
7
100
AcDbLine
 10
91.970400
 20
15.477320
 30
0.0
 11
91.481600
 21
15.396820
 31
0.0
  0
LINE
  5
3c5
100
AcDbEntity
  8
IfcFurniture
 62
7
100
AcDbLine
 10
92.139000
 20
15.566020
 30
0.0
 11
91.970400
 21
15.477320
 31
0.0
  0
LINE
  5
3c6
100
AcDbEntity
  8
IfcFurniture
 62
7
100
AcDbLine
 10
92.250000
 20
15.755920
 30
0.0
 11
92.139000
 21
15.566020
 31
0.0
  0
LINE
  5
3c7
100
AcDbEntity
  8
IfcFurniture
 62
7
100
AcDbLine
 10
92.181000
 20
16.036820
 30
0.0
 11
92.250000
 21
15.755920
 31
0.0
  0
LINE
  5
3c8
100
AcDbEntity
  8
IfcFurniture
 62
7
100
AcDbLine
 10
92.097500
 20
16.164220
 30
0.0
 11
92.181000
 21
16.036820
 31
0.0
  0
LINE
  5
3c9
100
AcDbEntity
  8
IfcFurniture
 62
7
100
AcDbLine
 10
91.900200
 20
16.361720
 30
0.0
 11
91.572600
 21
16.541820
 31
0.0
  0
LINE
  5
3ca
100
AcDbEntity
  8
IfcFurniture
 62
7
100
AcDbLine
 10
92.097500
 20
16.164220
 30
0.0
 11
91.900200
 21
16.361720
 31
0.0
  0
LINE
  5
3cb
100
AcDbEntity
  8
IfcFurniture
 62
7
100
AcDbLine
 10
92.103000
 20
16.517320
 30
0.0
 11
92.097500
 21
16.164220
 31
0.0
  0
LINE
  5
3cc
100
AcDbEntity
  8
IfcFurniture
 62
7
100
AcDbLine
 10
92.127800
 20
16.922320
 30
0.0
 11
92.103000
 21
16.517320
 31
0.0
  0
LINE
  5
3cd
100
AcDbEntity
  8
IfcFurniture
 62
7
100
AcDbLine
 10
92.391800
 20
17.243420
 30
0.0
 11
92.127800
 21
16.922320
 31
0.0
  0
LINE
  5
3ce
100
AcDbEntity
  8
IfcFurniture
 62
7
100
AcDbLine
 10
92.445300
 20
17.689920
 30
0.0
 11
92.391800
 21
17.243420
 31
0.0
  0
LINE
  5
3cf
100
AcDbEntity
  8
IfcFurniture
 62
7
100
AcDbLine
 10
92.308900
 20
18.162820
 30
0.0
 11
92.445300
 21
17.689920
 31
0.0
  0
LINE
  5
3d0
100
AcDbEntity
  8
IfcFurniture
 62
7
100
AcDbLine
 10
92.058600
 20
18.518120
 30
0.0
 11
92.308900
 21
18.162820
 31
0.0
  0
LINE
  5
3d1
100
AcDbEntity
  8
IfcFurniture
 62
7
100
AcDbLine
 10
91.803000
 20
18.771120
 30
0.0
 11
92.058600
 21
18.518120
 31
0.0
  0
LINE
  5
3d2
100
AcDbEntity
  8
IfcFurniture
 62
7
100
AcDbLine
 10
91.110400
 20
16.629420
 30
0.0
 11
91.179500
 21
16.348420
 31
0.0
  0
LINE
  5
3d3
100
AcDbEntity
  8
IfcFurniture
 62
7
100
AcDbLine
 10
90.829400
 20
17.099320
 30
0.0
 11
91.110400
 21
16.629420
 31
0.0
  0
LINE
  5
3d4
100
AcDbEntity
  8
IfcFurniture
 62
7
100
AcDbLine
 10
90.419400
 20
17.357320
 30
0.0
 11
90.829400
 21
17.099320
 31
0.0
  0
LINE
  5
3d5
100
AcDbEntity
  8
IfcFurniture
 62
7
100
AcDbLine
 10
90.285800
 20
17.431020
 30
0.0
 11
90.419400
 21
17.357320
 31
0.0
  0
LINE
  5
3d6
100
AcDbEntity
  8
IfcFurniture
 62
7
100
AcDbLine
 10
90.232400
 20
17.400720
 30
0.0
 11
90.285800
 21
17.431020
 31
0.0
  0
LINE
  5
3d7
100
AcDbEntity
  8
IfcFurniture
 62
7
100
AcDbLine
 10
90.310900
 20
16.995020
 30
0.0
 11
90.232400
 21
17.400720
 31
0.0
  0
LINE
  5
3d8
100
AcDbEntity
  8
IfcFurniture
 62
7
100
AcDbLine
 10
90.513300
 20
16.672220
 30
0.0
 11
90.310900
 21
16.995020
 31
0.0
  0
LINE
  5
3d9
100
AcDbEntity
  8
IfcFurniture
 62
7
100
AcDbLine
 10
90.784500
 20
16.386320
 30
0.0
 11
90.513300
 21
16.672220
 31
0.0
  0
LINE
  5
3da
100
AcDbEntity
  8
IfcFurniture
 62
7
100
AcDbLine
 10
90.939300
 20
16.210420
 30
0.0
 11
90.784500
 21
16.386320
 31
0.0
  0
LINE
  5
3db
100
AcDbEntity
  8
IfcFurniture
 62
7
100
AcDbLine
 10
90.834000
 20
16.675520
 30
0.0
 11
90.981400
 21
16.288520
 31
0.0
  0
LINE
  5
3dc
100
AcDbEntity
  8
IfcFurniture
 62
7
100
AcDbLine
 10
90.645100
 20
16.896620
 30
0.0
 11
90.834000
 21
16.675520
 31
0.0
  0
LINE
  5
3dd
100
AcDbEntity
  8
IfcFurniture
 62
7
100
AcDbLine
 10
90.539200
 20
17.131520
 30
0.0
 11
90.645100
 21
16.896620
 31
0.0
  0
LINE
  5
3de
100
AcDbEntity
  8
IfcFurniture
 62
7
100
AcDbLine
 10
90.396400
 20
17.278920
 30
0.0
 11
90.539200
 21
17.131520
 31
0.0
  0
LINE
  5
3df
100
AcDbEntity
  8
IfcFurniture
 62
7
100
AcDbLine
 10
90.973400
 20
19.000820
 30
0.0
 11
90.819300
 21
18.751120
 31
0.0
  0
LINE
  5
3e0
100
AcDbEntity
  8
IfcFurniture
 62
7
100
AcDbLine
 10
91.168900
 20
19.114020
 30
0.0
 11
90.973400
 21
19.000820
 31
0.0
  0
LINE
  5
3e1
100
AcDbEntity
  8
IfcFurniture
 62
7
100
AcDbLine
 10
91.478000
 20
19.152020
 30
0.0
 11
91.168900
 21
19.114020
 31
0.0
  0
LINE
  5
3e2
100
AcDbEntity
  8
IfcFurniture
 62
7
100
AcDbLine
 10
91.692800
 20
19.049920
 30
0.0
 11
91.478000
 21
19.152020
 31
0.0
  0
LINE
  5
3e3
100
AcDbEntity
  8
IfcFurniture
 62
7
100
AcDbLine
 10
91.803000
 20
18.771120
 30
0.0
 11
91.692800
 21
19.049920
 31
0.0
  0
LINE
  5
3e4
100
AcDbEntity
  8
IfcFurniture
 62
7
100
AcDbLine
 10
91.460300
 20
18.865120
 30
0.0
 11
91.803000
 21
18.771120
 31
0.0
  0
LINE
  5
3e5
100
AcDbEntity
  8
IfcFurniture
 62
7
100
AcDbLine
 10
91.167300
 20
18.881720
 30
0.0
 11
91.460300
 21
18.865120
 31
0.0
  0
LINE
  5
3e6
100
AcDbEntity
  8
IfcFurniture
 62
7
100
AcDbLine
 10
90.819300
 20
18.751120
 30
0.0
 11
91.167300
 21
18.881720
 31
0.0
  0
LINE
  5
3e7
100
AcDbEntity
  8
IfcFurniture
 62
7
100
AcDbLine
 10
90.589700
 20
18.510520
 30
0.0
 11
90.819300
 21
18.751120
 31
0.0
  0
LINE
  5
3e8
100
AcDbEntity
  8
IfcFurniture
 62
7
100
AcDbLine
 10
90.309700
 20
18.178220
 30
0.0
 11
90.589700
 21
18.510520
 31
0.0
  0
LINE
  5
3e9
100
AcDbEntity
  8
IfcFurniture
 62
7
100
AcDbLine
 10
90.137200
 20
17.654820
 30
0.0
 11
90.309700
 21
18.178220
 31
0.0
  0
LINE
  5
3ea
100
AcDbEntity
  8
IfcFurniture
 62
7
100
AcDbLine
 10
90.094800
 20
17.320920
 30
0.0
 11
90.137200
 21
17.654820
 31
0.0
  0
LINE
  5
3eb
100
AcDbEntity
  8
IfcFurniture
 62
7
100
AcDbLine
 10
90.261300
 20
16.934420
 30
0.0
 11
90.094800
 21
17.320920
 31
0.0
  0
LINE
  5
3ec
100
AcDbEntity
  8
IfcFurniture
 62
7
100
AcDbLine
 10
90.464900
 20
16.691220
 30
0.0
 11
90.261300
 21
16.934420
 31
0.0
  0
LINE
  5
3ed
100
AcDbEntity
  8
IfcFurniture
 62
7
100
AcDbLine
 10
90.528600
 20
16.353020
 30
0.0
 11
90.464900
 21
16.691220
 31
0.0
  0
LINE
  5
3ee
100
AcDbEntity
  8
IfcFurniture
 62
7
100
AcDbLine
 10
90.638000
 20
16.038020
 30
0.0
 11
90.528600
 21
16.353020
 31
0.0
  0
LINE
  5
3ef
100
AcDbEntity
  8
IfcFurniture
 62
7
100
AcDbLine
 10
90.012900
 20
16.069620
 30
0.0
 11
89.787300
 21
15.990020
 31
0.0
  0
LINE
  5
3f0
100
AcDbEntity
  8
IfcFurniture
 62
7
100
AcDbLine
 10
90.384400
 20
16.009920
 30
0.0
 11
90.012900
 21
16.069620
 31
0.0
  0
LINE
  5
3f1
100
AcDbEntity
  8
IfcFurniture
 62
7
100
AcDbLine
 10
90.815600
 20
15.903720
 30
0.0
 11
90.384400
 21
16.009920
 31
0.0
  0
LINE
  5
3f2
100
AcDbEntity
  8
IfcFurniture
 62
7
100
AcDbLine
 10
90.614800
 20
15.796120
 30
0.0
 11
91.076300
 21
15.701920
 31
0.0
  0
LINE
  5
3f3
100
AcDbEntity
  8
IfcFurniture
 62
7
100
AcDbLine
 10
90.451700
 20
15.794520
 30
0.0
 11
90.614800
 21
15.796120
 31
0.0
  0
LINE
  5
3f4
100
AcDbEntity
  8
IfcFurniture
 62
7
100
AcDbLine
 10
90.083500
 20
15.813120
 30
0.0
 11
90.451700
 21
15.794520
 31
0.0
  0
LINE
  5
3f5
100
AcDbEntity
  8
IfcFurniture
 62
7
100
AcDbLine
 10
89.793600
 20
15.825720
 30
0.0
 11
90.083500
 21
15.813120
 31
0.0
  0
LINE
  5
3f6
100
AcDbEntity
  8
IfcFurniture
 62
7
100
AcDbLine
 10
89.669100
 20
15.948120
 30
0.0
 11
89.793600
 21
15.825720
 31
0.0
  0
LINE
  5
3f7
100
AcDbEntity
  8
IfcFurniture
 62
7
100
AcDbLine
 10
89.646200
 20
16.068020
 30
0.0
 11
89.669100
 21
15.948120
 31
0.0
  0
LINE
  5
3f8
100
AcDbEntity
  8
IfcFurniture
 62
7
100
AcDbLine
 10
89.717200
 20
16.131920
 30
0.0
 11
89.646200
 21
16.068020
 31
0.0
  0
LINE
  5
3f9
100
AcDbEntity
  8
IfcFurniture
 62
7
100
AcDbLine
 10
89.964400
 20
16.153320
 30
0.0
 11
89.717200
 21
16.131920
 31
0.0
  0
LINE
  5
3fa
100
AcDbEntity
  8
IfcFurniture
 62
7
100
AcDbLine
 10
90.198700
 20
16.160320
 30
0.0
 11
89.964400
 21
16.153320
 31
0.0
  0
LINE
  5
3fb
100
AcDbEntity
  8
IfcFurniture
 62
7
100
AcDbLine
 10
90.427400
 20
16.116620
 30
0.0
 11
90.198700
 21
16.160320
 31
0.0
  0
LINE
  5
3fc
100
AcDbEntity
  8
IfcFurniture
 62
7
100
AcDbLine
 10
90.708400
 20
16.011820
 30
0.0
 11
90.427400
 21
16.116620
 31
0.0
  0
LINE
  5
3fd
100
AcDbEntity
  8
IfcFurniture
 62
7
100
AcDbLine
 10
91.023500
 20
16.028320
 30
0.0
 11
90.708400
 21
16.011820
 31
0.0
  0
LINE
  5
3fe
100
AcDbEntity
  8
IfcElectricAppliance
 62
7
100
AcDbLine
 10
35.324500
 20
53.675120
 30
0.0
 11
35.347200
 21
53.862120
 31
0.0
  0
LINE
  5
3ff
100
AcDbEntity
  8
IfcElectricAppliance
 62
7
100
AcDbLine
 10
35.257800
 20
53.499020
 30
0.0
 11
35.324500
 21
53.675120
 31
0.0
  0
LINE
  5
400
100
AcDbEntity
  8
IfcElectricAppliance
 62
7
100
AcDbLine
 10
35.150800
 20
53.344020
 30
0.0
 11
35.257800
 21
53.499020
 31
0.0
  0
LINE
  5
401
100
AcDbEntity
  8
IfcElectricAppliance
 62
7
100
AcDbLine
 10
35.009800
 20
53.219120
 30
0.0
 11
35.150800
 21
53.344020
 31
0.0
  0
LINE
  5
402
100
AcDbEntity
  8
IfcElectricAppliance
 62
7
100
AcDbLine
 10
34.843000
 20
53.131620
 30
0.0
 11
35.009800
 21
53.219120
 31
0.0
  0
LINE
  5
403
100
AcDbEntity
  8
IfcElectricAppliance
 62
7
100
AcDbLine
 10
34.660200
 20
53.086520
 30
0.0
 11
34.843000
 21
53.131620
 31
0.0
  0
LINE
  5
404
100
AcDbEntity
  8
IfcElectricAppliance
 62
7
100
AcDbLine
 10
34.471800
 20
53.086520
 30
0.0
 11
34.660200
 21
53.086520
 31
0.0
  0
LINE
  5
405
100
AcDbEntity
  8
IfcElectricAppliance
 62
7
100
AcDbLine
 10
34.289000
 20
53.131620
 30
0.0
 11
34.471800
 21
53.086520
 31
0.0
  0
LINE
  5
406
100
AcDbEntity
  8
IfcElectricAppliance
 62
7
100
AcDbLine
 10
34.122200
 20
53.219120
 30
0.0
 11
34.289000
 21
53.131620
 31
0.0
  0
LINE
  5
407
100
AcDbEntity
  8
IfcElectricAppliance
 62
7
100
AcDbLine
 10
33.981200
 20
53.344020
 30
0.0
 11
34.122200
 21
53.219120
 31
0.0
  0
LINE
  5
408
100
AcDbEntity
  8
IfcElectricAppliance
 62
7
100
AcDbLine
 10
33.874200
 20
53.499020
 30
0.0
 11
33.981200
 21
53.344020
 31
0.0
  0
LINE
  5
409
100
AcDbEntity
  8
IfcElectricAppliance
 62
7
100
AcDbLine
 10
33.807400
 20
53.675120
 30
0.0
 11
33.874200
 21
53.499020
 31
0.0
  0
LINE
  5
40a
100
AcDbEntity
  8
IfcElectricAppliance
 62
7
100
AcDbLine
 10
33.784700
 20
53.862120
 30
0.0
 11
33.807400
 21
53.675120
 31
0.0
  0
LINE
  5
40b
100
AcDbEntity
  8
IfcElectricAppliance
 62
7
100
AcDbLine
 10
33.807400
 20
54.049120
 30
0.0
 11
33.784700
 21
53.862120
 31
0.0
  0
LINE
  5
40c
100
AcDbEntity
  8
IfcElectricAppliance
 62
7
100
AcDbLine
 10
33.874200
 20
54.225220
 30
0.0
 11
33.807400
 21
54.049120
 31
0.0
  0
LINE
  5
40d
100
AcDbEntity
  8
IfcElectricAppliance
 62
7
100
AcDbLine
 10
33.981200
 20
54.380120
 30
0.0
 11
33.874200
 21
54.225220
 31
0.0
  0
LINE
  5
40e
100
AcDbEntity
  8
IfcElectricAppliance
 62
7
100
AcDbLine
 10
34.122200
 20
54.505020
 30
0.0
 11
33.981200
 21
54.380120
 31
0.0
  0
LINE
  5
40f
100
AcDbEntity
  8
IfcElectricAppliance
 62
7
100
AcDbLine
 10
34.289000
 20
54.592620
 30
0.0
 11
34.122200
 21
54.505020
 31
0.0
  0
LINE
  5
410
100
AcDbEntity
  8
IfcElectricAppliance
 62
7
100
AcDbLine
 10
34.471800
 20
54.637620
 30
0.0
 11
34.289000
 21
54.592620
 31
0.0
  0
LINE
  5
411
100
AcDbEntity
  8
IfcElectricAppliance
 62
7
100
AcDbLine
 10
34.660200
 20
54.637620
 30
0.0
 11
34.471800
 21
54.637620
 31
0.0
  0
LINE
  5
412
100
AcDbEntity
  8
IfcElectricAppliance
 62
7
100
AcDbLine
 10
34.843000
 20
54.592620
 30
0.0
 11
34.660200
 21
54.637620
 31
0.0
  0
LINE
  5
413
100
AcDbEntity
  8
IfcElectricAppliance
 62
7
100
AcDbLine
 10
35.009800
 20
54.505020
 30
0.0
 11
34.843000
 21
54.592620
 31
0.0
  0
LINE
  5
414
100
AcDbEntity
  8
IfcElectricAppliance
 62
7
100
AcDbLine
 10
35.150800
 20
54.380120
 30
0.0
 11
35.009800
 21
54.505020
 31
0.0
  0
LINE
  5
415
100
AcDbEntity
  8
IfcElectricAppliance
 62
7
100
AcDbLine
 10
35.257800
 20
54.225220
 30
0.0
 11
35.150800
 21
54.380120
 31
0.0
  0
LINE
  5
416
100
AcDbEntity
  8
IfcElectricAppliance
 62
7
100
AcDbLine
 10
35.324500
 20
54.049120
 30
0.0
 11
35.257800
 21
54.225220
 31
0.0
  0
LINE
  5
417
100
AcDbEntity
  8
IfcElectricAppliance
 62
7
100
AcDbLine
 10
35.347200
 20
53.862120
 30
0.0
 11
35.324500
 21
54.049120
 31
0.0
  0
LINE
  5
418
100
AcDbEntity
  8
IfcElectricAppliance
 62
7
100
AcDbLine
 10
30.637000
 20
53.675120
 30
0.0
 11
30.659700
 21
53.862120
 31
0.0
  0
LINE
  5
419
100
AcDbEntity
  8
IfcElectricAppliance
 62
7
100
AcDbLine
 10
30.570300
 20
53.499020
 30
0.0
 11
30.637000
 21
53.675120
 31
0.0
  0
LINE
  5
41a
100
AcDbEntity
  8
IfcElectricAppliance
 62
7
100
AcDbLine
 10
30.463300
 20
53.344020
 30
0.0
 11
30.570300
 21
53.499020
 31
0.0
  0
LINE
  5
41b
100
AcDbEntity
  8
IfcElectricAppliance
 62
7
100
AcDbLine
 10
30.322300
 20
53.219120
 30
0.0
 11
30.463300
 21
53.344020
 31
0.0
  0
LINE
  5
41c
100
AcDbEntity
  8
IfcElectricAppliance
 62
7
100
AcDbLine
 10
30.155500
 20
53.131620
 30
0.0
 11
30.322300
 21
53.219120
 31
0.0
  0
LINE
  5
41d
100
AcDbEntity
  8
IfcElectricAppliance
 62
7
100
AcDbLine
 10
29.972700
 20
53.086520
 30
0.0
 11
30.155500
 21
53.131620
 31
0.0
  0
LINE
  5
41e
100
AcDbEntity
  8
IfcElectricAppliance
 62
7
100
AcDbLine
 10
29.784300
 20
53.086520
 30
0.0
 11
29.972700
 21
53.086520
 31
0.0
  0
LINE
  5
41f
100
AcDbEntity
  8
IfcElectricAppliance
 62
7
100
AcDbLine
 10
29.601500
 20
53.131620
 30
0.0
 11
29.784300
 21
53.086520
 31
0.0
  0
LINE
  5
420
100
AcDbEntity
  8
IfcElectricAppliance
 62
7
100
AcDbLine
 10
29.434700
 20
53.219120
 30
0.0
 11
29.601500
 21
53.131620
 31
0.0
  0
LINE
  5
421
100
AcDbEntity
  8
IfcElectricAppliance
 62
7
100
AcDbLine
 10
29.293700
 20
53.344020
 30
0.0
 11
29.434700
 21
53.219120
 31
0.0
  0
LINE
  5
422
100
AcDbEntity
  8
IfcElectricAppliance
 62
7
100
AcDbLine
 10
29.186700
 20
53.499020
 30
0.0
 11
29.293700
 21
53.344020
 31
0.0
  0
LINE
  5
423
100
AcDbEntity
  8
IfcElectricAppliance
 62
7
100
AcDbLine
 10
29.119900
 20
53.675120
 30
0.0
 11
29.186700
 21
53.499020
 31
0.0
  0
LINE
  5
424
100
AcDbEntity
  8
IfcElectricAppliance
 62
7
100
AcDbLine
 10
29.097200
 20
53.862120
 30
0.0
 11
29.119900
 21
53.675120
 31
0.0
  0
LINE
  5
425
100
AcDbEntity
  8
IfcElectricAppliance
 62
7
100
AcDbLine
 10
29.119900
 20
54.049120
 30
0.0
 11
29.097200
 21
53.862120
 31
0.0
  0
LINE
  5
426
100
AcDbEntity
  8
IfcElectricAppliance
 62
7
100
AcDbLine
 10
29.186700
 20
54.225220
 30
0.0
 11
29.119900
 21
54.049120
 31
0.0
  0
LINE
  5
427
100
AcDbEntity
  8
IfcElectricAppliance
 62
7
100
AcDbLine
 10
29.293700
 20
54.380120
 30
0.0
 11
29.186700
 21
54.225220
 31
0.0
  0
LINE
  5
428
100
AcDbEntity
  8
IfcElectricAppliance
 62
7
100
AcDbLine
 10
29.434700
 20
54.505020
 30
0.0
 11
29.293700
 21
54.380120
 31
0.0
  0
LINE
  5
429
100
AcDbEntity
  8
IfcElectricAppliance
 62
7
100
AcDbLine
 10
29.601500
 20
54.592620
 30
0.0
 11
29.434700
 21
54.505020
 31
0.0
  0
LINE
  5
42a
100
AcDbEntity
  8
IfcElectricAppliance
 62
7
100
AcDbLine
 10
29.784300
 20
54.637620
 30
0.0
 11
29.601500
 21
54.592620
 31
0.0
  0
LINE
  5
42b
100
AcDbEntity
  8
IfcElectricAppliance
 62
7
100
AcDbLine
 10
29.972700
 20
54.637620
 30
0.0
 11
29.784300
 21
54.637620
 31
0.0
  0
LINE
  5
42c
100
AcDbEntity
  8
IfcElectricAppliance
 62
7
100
AcDbLine
 10
30.155500
 20
54.592620
 30
0.0
 11
29.972700
 21
54.637620
 31
0.0
  0
LINE
  5
42d
100
AcDbEntity
  8
IfcElectricAppliance
 62
7
100
AcDbLine
 10
30.322300
 20
54.505020
 30
0.0
 11
30.155500
 21
54.592620
 31
0.0
  0
LINE
  5
42e
100
AcDbEntity
  8
IfcElectricAppliance
 62
7
100
AcDbLine
 10
30.463300
 20
54.380120
 30
0.0
 11
30.322300
 21
54.505020
 31
0.0
  0
LINE
  5
42f
100
AcDbEntity
  8
IfcElectricAppliance
 62
7
100
AcDbLine
 10
30.570300
 20
54.225220
 30
0.0
 11
30.463300
 21
54.380120
 31
0.0
  0
LINE
  5
430
100
AcDbEntity
  8
IfcElectricAppliance
 62
7
100
AcDbLine
 10
30.637000
 20
54.049120
 30
0.0
 11
30.570300
 21
54.225220
 31
0.0
  0
LINE
  5
431
100
AcDbEntity
  8
IfcElectricAppliance
 62
7
100
AcDbLine
 10
30.659700
 20
53.862120
 30
0.0
 11
30.637000
 21
54.049120
 31
0.0
  0
LINE
  5
432
100
AcDbEntity
  8
IfcElectricAppliance
 62
7
100
AcDbLine
 10
35.324500
 20
50.487620
 30
0.0
 11
35.347200
 21
50.674620
 31
0.0
  0
LINE
  5
433
100
AcDbEntity
  8
IfcElectricAppliance
 62
7
100
AcDbLine
 10
35.257800
 20
50.311520
 30
0.0
 11
35.324500
 21
50.487620
 31
0.0
  0
LINE
  5
434
100
AcDbEntity
  8
IfcElectricAppliance
 62
7
100
AcDbLine
 10
35.150800
 20
50.156520
 30
0.0
 11
35.257800
 21
50.311520
 31
0.0
  0
LINE
  5
435
100
AcDbEntity
  8
IfcElectricAppliance
 62
7
100
AcDbLine
 10
35.009800
 20
50.031620
 30
0.0
 11
35.150800
 21
50.156520
 31
0.0
  0
LINE
  5
436
100
AcDbEntity
  8
IfcElectricAppliance
 62
7
100
AcDbLine
 10
34.843000
 20
49.944120
 30
0.0
 11
35.009800
 21
50.031620
 31
0.0
  0
LINE
  5
437
100
AcDbEntity
  8
IfcElectricAppliance
 62
7
100
AcDbLine
 10
34.660200
 20
49.899020
 30
0.0
 11
34.843000
 21
49.944120
 31
0.0
  0
LINE
  5
438
100
AcDbEntity
  8
IfcElectricAppliance
 62
7
100
AcDbLine
 10
34.471800
 20
49.899020
 30
0.0
 11
34.660200
 21
49.899020
 31
0.0
  0
LINE
  5
439
100
AcDbEntity
  8
IfcElectricAppliance
 62
7
100
AcDbLine
 10
34.289000
 20
49.944120
 30
0.0
 11
34.471800
 21
49.899020
 31
0.0
  0
LINE
  5
43a
100
AcDbEntity
  8
IfcElectricAppliance
 62
7
100
AcDbLine
 10
34.122200
 20
50.031620
 30
0.0
 11
34.289000
 21
49.944120
 31
0.0
  0
LINE
  5
43b
100
AcDbEntity
  8
IfcElectricAppliance
 62
7
100
AcDbLine
 10
33.981200
 20
50.156520
 30
0.0
 11
34.122200
 21
50.031620
 31
0.0
  0
LINE
  5
43c
100
AcDbEntity
  8
IfcElectricAppliance
 62
7
100
AcDbLine
 10
33.874200
 20
50.311520
 30
0.0
 11
33.981200
 21
50.156520
 31
0.0
  0
LINE
  5
43d
100
AcDbEntity
  8
IfcElectricAppliance
 62
7
100
AcDbLine
 10
33.807400
 20
50.487620
 30
0.0
 11
33.874200
 21
50.311520
 31
0.0
  0
LINE
  5
43e
100
AcDbEntity
  8
IfcElectricAppliance
 62
7
100
AcDbLine
 10
33.784700
 20
50.674620
 30
0.0
 11
33.807400
 21
50.487620
 31
0.0
  0
LINE
  5
43f
100
AcDbEntity
  8
IfcElectricAppliance
 62
7
100
AcDbLine
 10
33.807400
 20
50.861620
 30
0.0
 11
33.784700
 21
50.674620
 31
0.0
  0
LINE
  5
440
100
AcDbEntity
  8
IfcElectricAppliance
 62
7
100
AcDbLine
 10
33.874200
 20
51.037720
 30
0.0
 11
33.807400
 21
50.861620
 31
0.0
  0
LINE
  5
441
100
AcDbEntity
  8
IfcElectricAppliance
 62
7
100
AcDbLine
 10
33.981200
 20
51.192620
 30
0.0
 11
33.874200
 21
51.037720
 31
0.0
  0
LINE
  5
442
100
AcDbEntity
  8
IfcElectricAppliance
 62
7
100
AcDbLine
 10
34.122200
 20
51.317520
 30
0.0
 11
33.981200
 21
51.192620
 31
0.0
  0
LINE
  5
443
100
AcDbEntity
  8
IfcElectricAppliance
 62
7
100
AcDbLine
 10
34.289000
 20
51.405120
 30
0.0
 11
34.122200
 21
51.317520
 31
0.0
  0
LINE
  5
444
100
AcDbEntity
  8
IfcElectricAppliance
 62
7
100
AcDbLine
 10
34.471800
 20
51.450120
 30
0.0
 11
34.289000
 21
51.405120
 31
0.0
  0
LINE
  5
445
100
AcDbEntity
  8
IfcElectricAppliance
 62
7
100
AcDbLine
 10
34.660200
 20
51.450120
 30
0.0
 11
34.471800
 21
51.450120
 31
0.0
  0
LINE
  5
446
100
AcDbEntity
  8
IfcElectricAppliance
 62
7
100
AcDbLine
 10
34.843000
 20
51.405120
 30
0.0
 11
34.660200
 21
51.450120
 31
0.0
  0
LINE
  5
447
100
AcDbEntity
  8
IfcElectricAppliance
 62
7
100
AcDbLine
 10
35.009800
 20
51.317520
 30
0.0
 11
34.843000
 21
51.405120
 31
0.0
  0
LINE
  5
448
100
AcDbEntity
  8
IfcElectricAppliance
 62
7
100
AcDbLine
 10
35.150800
 20
51.192620
 30
0.0
 11
35.009800
 21
51.317520
 31
0.0
  0
LINE
  5
449
100
AcDbEntity
  8
IfcElectricAppliance
 62
7
100
AcDbLine
 10
35.257800
 20
51.037720
 30
0.0
 11
35.150800
 21
51.192620
 31
0.0
  0
LINE
  5
44a
100
AcDbEntity
  8
IfcElectricAppliance
 62
7
100
AcDbLine
 10
35.324500
 20
50.861620
 30
0.0
 11
35.257800
 21
51.037720
 31
0.0
  0
LINE
  5
44b
100
AcDbEntity
  8
IfcElectricAppliance
 62
7
100
AcDbLine
 10
35.347200
 20
50.674620
 30
0.0
 11
35.324500
 21
50.861620
 31
0.0
  0
LINE
  5
44c
100
AcDbEntity
  8
IfcElectricAppliance
 62
7
100
AcDbLine
 10
30.637000
 20
50.487620
 30
0.0
 11
30.659700
 21
50.674620
 31
0.0
  0
LINE
  5
44d
100
AcDbEntity
  8
IfcElectricAppliance
 62
7
100
AcDbLine
 10
30.570300
 20
50.311520
 30
0.0
 11
30.637000
 21
50.487620
 31
0.0
  0
LINE
  5
44e
100
AcDbEntity
  8
IfcElectricAppliance
 62
7
100
AcDbLine
 10
30.463300
 20
50.156520
 30
0.0
 11
30.570300
 21
50.311520
 31
0.0
  0
LINE
  5
44f
100
AcDbEntity
  8
IfcElectricAppliance
 62
7
100
AcDbLine
 10
30.322300
 20
50.031620
 30
0.0
 11
30.463300
 21
50.156520
 31
0.0
  0
LINE
  5
450
100
AcDbEntity
  8
IfcElectricAppliance
 62
7
100
AcDbLine
 10
30.155500
 20
49.944120
 30
0.0
 11
30.322300
 21
50.031620
 31
0.0
  0
LINE
  5
451
100
AcDbEntity
  8
IfcElectricAppliance
 62
7
100
AcDbLine
 10
29.972700
 20
49.899020
 30
0.0
 11
30.155500
 21
49.944120
 31
0.0
  0
LINE
  5
452
100
AcDbEntity
  8
IfcElectricAppliance
 62
7
100
AcDbLine
 10
29.784300
 20
49.899020
 30
0.0
 11
29.972700
 21
49.899020
 31
0.0
  0
LINE
  5
453
100
AcDbEntity
  8
IfcElectricAppliance
 62
7
100
AcDbLine
 10
29.601500
 20
49.944120
 30
0.0
 11
29.784300
 21
49.899020
 31
0.0
  0
LINE
  5
454
100
AcDbEntity
  8
IfcElectricAppliance
 62
7
100
AcDbLine
 10
29.434700
 20
50.031620
 30
0.0
 11
29.601500
 21
49.944120
 31
0.0
  0
LINE
  5
455
100
AcDbEntity
  8
IfcElectricAppliance
 62
7
100
AcDbLine
 10
29.293700
 20
50.156520
 30
0.0
 11
29.434700
 21
50.031620
 31
0.0
  0
LINE
  5
456
100
AcDbEntity
  8
IfcElectricAppliance
 62
7
100
AcDbLine
 10
29.186700
 20
50.311520
 30
0.0
 11
29.293700
 21
50.156520
 31
0.0
  0
LINE
  5
457
100
AcDbEntity
  8
IfcElectricAppliance
 62
7
100
AcDbLine
 10
29.119900
 20
50.487620
 30
0.0
 11
29.186700
 21
50.311520
 31
0.0
  0
LINE
  5
458
100
AcDbEntity
  8
IfcElectricAppliance
 62
7
100
AcDbLine
 10
29.097200
 20
50.674620
 30
0.0
 11
29.119900
 21
50.487620
 31
0.0
  0
LINE
  5
459
100
AcDbEntity
  8
IfcElectricAppliance
 62
7
100
AcDbLine
 10
29.119900
 20
50.861620
 30
0.0
 11
29.097200
 21
50.674620
 31
0.0
  0
LINE
  5
45a
100
AcDbEntity
  8
IfcElectricAppliance
 62
7
100
AcDbLine
 10
29.186700
 20
51.037720
 30
0.0
 11
29.119900
 21
50.861620
 31
0.0
  0
LINE
  5
45b
100
AcDbEntity
  8
IfcElectricAppliance
 62
7
100
AcDbLine
 10
29.293700
 20
51.192620
 30
0.0
 11
29.186700
 21
51.037720
 31
0.0
  0
LINE
  5
45c
100
AcDbEntity
  8
IfcElectricAppliance
 62
7
100
AcDbLine
 10
29.434700
 20
51.317520
 30
0.0
 11
29.293700
 21
51.192620
 31
0.0
  0
LINE
  5
45d
100
AcDbEntity
  8
IfcElectricAppliance
 62
7
100
AcDbLine
 10
29.601500
 20
51.405120
 30
0.0
 11
29.434700
 21
51.317520
 31
0.0
  0
LINE
  5
45e
100
AcDbEntity
  8
IfcElectricAppliance
 62
7
100
AcDbLine
 10
29.784300
 20
51.450120
 30
0.0
 11
29.601500
 21
51.405120
 31
0.0
  0
LINE
  5
45f
100
AcDbEntity
  8
IfcElectricAppliance
 62
7
100
AcDbLine
 10
29.972700
 20
51.450120
 30
0.0
 11
29.784300
 21
51.450120
 31
0.0
  0
LINE
  5
460
100
AcDbEntity
  8
IfcElectricAppliance
 62
7
100
AcDbLine
 10
30.155500
 20
51.405120
 30
0.0
 11
29.972700
 21
51.450120
 31
0.0
  0
LINE
  5
461
100
AcDbEntity
  8
IfcElectricAppliance
 62
7
100
AcDbLine
 10
30.322300
 20
51.317520
 30
0.0
 11
30.155500
 21
51.405120
 31
0.0
  0
LINE
  5
462
100
AcDbEntity
  8
IfcElectricAppliance
 62
7
100
AcDbLine
 10
30.463300
 20
51.192620
 30
0.0
 11
30.322300
 21
51.317520
 31
0.0
  0
LINE
  5
463
100
AcDbEntity
  8
IfcElectricAppliance
 62
7
100
AcDbLine
 10
30.570300
 20
51.037720
 30
0.0
 11
30.463300
 21
51.192620
 31
0.0
  0
LINE
  5
464
100
AcDbEntity
  8
IfcElectricAppliance
 62
7
100
AcDbLine
 10
30.637000
 20
50.861620
 30
0.0
 11
30.570300
 21
51.037720
 31
0.0
  0
LINE
  5
465
100
AcDbEntity
  8
IfcElectricAppliance
 62
7
100
AcDbLine
 10
30.659700
 20
50.674620
 30
0.0
 11
30.637000
 21
50.861620
 31
0.0
  0
LINE
  5
466
100
AcDbEntity
  8
IfcElectricAppliance
 62
7
100
AcDbLine
 10
28.316000
 20
54.924620
 30
0.0
 11
28.316000
 21
49.612120
 31
0.0
  0
LINE
  5
467
100
AcDbEntity
  8
IfcElectricAppliance
 62
7
100
AcDbLine
 10
36.128500
 20
54.924620
 30
0.0
 11
28.316000
 21
54.924620
 31
0.0
  0
LINE
  5
468
100
AcDbEntity
  8
IfcElectricAppliance
 62
7
100
AcDbLine
 10
36.128500
 20
49.612120
 30
0.0
 11
36.128500
 21
54.924620
 31
0.0
  0
LINE
  5
469
100
AcDbEntity
  8
IfcElectricAppliance
 62
7
100
AcDbLine
 10
28.316000
 20
49.612120
 30
0.0
 11
36.128500
 21
49.612120
 31
0.0
  0
LINE
  5
46a
100
AcDbEntity
  8
IfcSanitaryTerminal
 62
7
100
AcDbLine
 10
44.722200
 20
54.794420
 30
0.0
 11
44.722200
 21
53.544420
 31
0.0
  0
LINE
  5
46b
100
AcDbEntity
  8
IfcSanitaryTerminal
 62
7
100
AcDbLine
 10
44.962800
 20
53.522820
 30
0.0
 11
44.982700
 21
53.622520
 31
0.0
  0
LINE
  5
46c
100
AcDbEntity
  8
IfcSanitaryTerminal
 62
7
100
AcDbLine
 10
44.906400
 20
53.438420
 30
0.0
 11
44.962800
 21
53.522820
 31
0.0
  0
LINE
  5
46d
100
AcDbEntity
  8
IfcSanitaryTerminal
 62
7
100
AcDbLine
 10
44.821900
 20
53.381920
 30
0.0
 11
44.906400
 21
53.438420
 31
0.0
  0
LINE
  5
46e
100
AcDbEntity
  8
IfcSanitaryTerminal
 62
7
100
AcDbLine
 10
44.722200
 20
53.362120
 30
0.0
 11
44.821900
 21
53.381920
 31
0.0
  0
LINE
  5
46f
100
AcDbEntity
  8
IfcSanitaryTerminal
 62
7
100
AcDbLine
 10
44.622600
 20
53.381920
 30
0.0
 11
44.722200
 21
53.362120
 31
0.0
  0
LINE
  5
470
100
AcDbEntity
  8
IfcSanitaryTerminal
 62
7
100
AcDbLine
 10
44.538100
 20
53.438420
 30
0.0
 11
44.622600
 21
53.381920
 31
0.0
  0
LINE
  5
471
100
AcDbEntity
  8
IfcSanitaryTerminal
 62
7
100
AcDbLine
 10
44.481700
 20
53.522820
 30
0.0
 11
44.538100
 21
53.438420
 31
0.0
  0
LINE
  5
472
100
AcDbEntity
  8
IfcSanitaryTerminal
 62
7
100
AcDbLine
 10
44.461800
 20
53.622520
 30
0.0
 11
44.481700
 21
53.522820
 31
0.0
  0
LINE
  5
473
100
AcDbEntity
  8
IfcSanitaryTerminal
 62
7
100
AcDbLine
 10
44.481700
 20
53.722220
 30
0.0
 11
44.461800
 21
53.622520
 31
0.0
  0
LINE
  5
474
100
AcDbEntity
  8
IfcSanitaryTerminal
 62
7
100
AcDbLine
 10
44.538100
 20
53.806620
 30
0.0
 11
44.481700
 21
53.722220
 31
0.0
  0
LINE
  5
475
100
AcDbEntity
  8
IfcSanitaryTerminal
 62
7
100
AcDbLine
 10
44.622600
 20
53.863120
 30
0.0
 11
44.538100
 21
53.806620
 31
0.0
  0
LINE
  5
476
100
AcDbEntity
  8
IfcSanitaryTerminal
 62
7
100
AcDbLine
 10
44.722200
 20
53.882920
 30
0.0
 11
44.622600
 21
53.863120
 31
0.0
  0
LINE
  5
477
100
AcDbEntity
  8
IfcSanitaryTerminal
 62
7
100
AcDbLine
 10
44.821900
 20
53.863120
 30
0.0
 11
44.722200
 21
53.882920
 31
0.0
  0
LINE
  5
478
100
AcDbEntity
  8
IfcSanitaryTerminal
 62
7
100
AcDbLine
 10
44.906400
 20
53.806620
 30
0.0
 11
44.821900
 21
53.863120
 31
0.0
  0
LINE
  5
479
100
AcDbEntity
  8
IfcSanitaryTerminal
 62
7
100
AcDbLine
 10
44.962800
 20
53.722220
 30
0.0
 11
44.906400
 21
53.806620
 31
0.0
  0
LINE
  5
47a
100
AcDbEntity
  8
IfcSanitaryTerminal
 62
7
100
AcDbLine
 10
44.982700
 20
53.622520
 30
0.0
 11
44.962800
 21
53.722220
 31
0.0
  0
LINE
  5
47b
100
AcDbEntity
  8
IfcSanitaryTerminal
 62
7
100
AcDbLine
 10
42.118100
 20
54.143320
 30
0.0
 11
42.118100
 21
50.601720
 31
0.0
  0
LINE
  5
47c
100
AcDbEntity
  8
IfcSanitaryTerminal
 62
7
100
AcDbLine
 10
42.131100
 20
54.259220
 30
0.0
 11
42.118100
 21
54.143320
 31
0.0
  0
LINE
  5
47d
100
AcDbEntity
  8
IfcSanitaryTerminal
 62
7
100
AcDbLine
 10
42.169700
 20
54.369320
 30
0.0
 11
42.131100
 21
54.259220
 31
0.0
  0
LINE
  5
47e
100
AcDbEntity
  8
IfcSanitaryTerminal
 62
7
100
AcDbLine
 10
42.231700
 20
54.468120
 30
0.0
 11
42.169700
 21
54.369320
 31
0.0
  0
LINE
  5
47f
100
AcDbEntity
  8
IfcSanitaryTerminal
 62
7
100
AcDbLine
 10
42.314200
 20
54.550520
 30
0.0
 11
42.231700
 21
54.468120
 31
0.0
  0
LINE
  5
480
100
AcDbEntity
  8
IfcSanitaryTerminal
 62
7
100
AcDbLine
 10
42.412900
 20
54.612620
 30
0.0
 11
42.314200
 21
54.550520
 31
0.0
  0
LINE
  5
481
100
AcDbEntity
  8
IfcSanitaryTerminal
 62
7
100
AcDbLine
 10
42.523000
 20
54.651120
 30
0.0
 11
42.412900
 21
54.612620
 31
0.0
  0
LINE
  5
482
100
AcDbEntity
  8
IfcSanitaryTerminal
 62
7
100
AcDbLine
 10
42.638900
 20
54.664220
 30
0.0
 11
42.523000
 21
54.651120
 31
0.0
  0
LINE
  5
483
100
AcDbEntity
  8
IfcSanitaryTerminal
 62
7
100
AcDbLine
 10
46.805600
 20
54.664220
 30
0.0
 11
42.638900
 21
54.664220
 31
0.0
  0
LINE
  5
484
100
AcDbEntity
  8
IfcSanitaryTerminal
 62
7
100
AcDbLine
 10
46.921500
 20
54.651120
 30
0.0
 11
46.805600
 21
54.664220
 31
0.0
  0
LINE
  5
485
100
AcDbEntity
  8
IfcSanitaryTerminal
 62
7
100
AcDbLine
 10
47.031600
 20
54.612620
 30
0.0
 11
46.921500
 21
54.651120
 31
0.0
  0
LINE
  5
486
100
AcDbEntity
  8
IfcSanitaryTerminal
 62
7
100
AcDbLine
 10
47.130300
 20
54.550520
 30
0.0
 11
47.031600
 21
54.612620
 31
0.0
  0
LINE
  5
487
100
AcDbEntity
  8
IfcSanitaryTerminal
 62
7
100
AcDbLine
 10
47.212800
 20
54.468120
 30
0.0
 11
47.130300
 21
54.550520
 31
0.0
  0
LINE
  5
488
100
AcDbEntity
  8
IfcSanitaryTerminal
 62
7
100
AcDbLine
 10
47.274800
 20
54.369320
 30
0.0
 11
47.212800
 21
54.468120
 31
0.0
  0
LINE
  5
489
100
AcDbEntity
  8
IfcSanitaryTerminal
 62
7
100
AcDbLine
 10
47.313400
 20
54.259220
 30
0.0
 11
47.274800
 21
54.369320
 31
0.0
  0
LINE
  5
48a
100
AcDbEntity
  8
IfcSanitaryTerminal
 62
7
100
AcDbLine
 10
47.326400
 20
54.143320
 30
0.0
 11
47.313400
 21
54.259220
 31
0.0
  0
LINE
  5
48b
100
AcDbEntity
  8
IfcSanitaryTerminal
 62
7
100
AcDbLine
 10
47.326400
 20
50.601720
 30
0.0
 11
47.326400
 21
54.143320
 31
0.0
  0
LINE
  5
48c
100
AcDbEntity
  8
IfcSanitaryTerminal
 62
7
100
AcDbLine
 10
47.313400
 20
50.485820
 30
0.0
 11
47.326400
 21
50.601720
 31
0.0
  0
LINE
  5
48d
100
AcDbEntity
  8
IfcSanitaryTerminal
 62
7
100
AcDbLine
 10
47.274800
 20
50.375720
 30
0.0
 11
47.313400
 21
50.485820
 31
0.0
  0
LINE
  5
48e
100
AcDbEntity
  8
IfcSanitaryTerminal
 62
7
100
AcDbLine
 10
47.212800
 20
50.276920
 30
0.0
 11
47.274800
 21
50.375720
 31
0.0
  0
LINE
  5
48f
100
AcDbEntity
  8
IfcSanitaryTerminal
 62
7
100
AcDbLine
 10
47.130300
 20
50.194520
 30
0.0
 11
47.212800
 21
50.276920
 31
0.0
  0
LINE
  5
490
100
AcDbEntity
  8
IfcSanitaryTerminal
 62
7
100
AcDbLine
 10
47.031600
 20
50.132420
 30
0.0
 11
47.130300
 21
50.194520
 31
0.0
  0
LINE
  5
491
100
AcDbEntity
  8
IfcSanitaryTerminal
 62
7
100
AcDbLine
 10
46.921500
 20
50.093920
 30
0.0
 11
47.031600
 21
50.132420
 31
0.0
  0
LINE
  5
492
100
AcDbEntity
  8
IfcSanitaryTerminal
 62
7
100
AcDbLine
 10
46.805600
 20
50.080820
 30
0.0
 11
46.921500
 21
50.093920
 31
0.0
  0
LINE
  5
493
100
AcDbEntity
  8
IfcSanitaryTerminal
 62
7
100
AcDbLine
 10
42.638900
 20
50.080820
 30
0.0
 11
46.805600
 21
50.080820
 31
0.0
  0
LINE
  5
494
100
AcDbEntity
  8
IfcSanitaryTerminal
 62
7
100
AcDbLine
 10
42.523000
 20
50.093920
 30
0.0
 11
42.638900
 21
50.080820
 31
0.0
  0
LINE
  5
495
100
AcDbEntity
  8
IfcSanitaryTerminal
 62
7
100
AcDbLine
 10
42.412900
 20
50.132420
 30
0.0
 11
42.523000
 21
50.093920
 31
0.0
  0
LINE
  5
496
100
AcDbEntity
  8
IfcSanitaryTerminal
 62
7
100
AcDbLine
 10
42.314200
 20
50.194520
 30
0.0
 11
42.412900
 21
50.132420
 31
0.0
  0
LINE
  5
497
100
AcDbEntity
  8
IfcSanitaryTerminal
 62
7
100
AcDbLine
 10
42.231700
 20
50.276920
 30
0.0
 11
42.314200
 21
50.194520
 31
0.0
  0
LINE
  5
498
100
AcDbEntity
  8
IfcSanitaryTerminal
 62
7
100
AcDbLine
 10
42.169700
 20
50.375720
 30
0.0
 11
42.231700
 21
50.276920
 31
0.0
  0
LINE
  5
499
100
AcDbEntity
  8
IfcSanitaryTerminal
 62
7
100
AcDbLine
 10
42.131100
 20
50.485820
 30
0.0
 11
42.169700
 21
50.375720
 31
0.0
  0
LINE
  5
49a
100
AcDbEntity
  8
IfcSanitaryTerminal
 62
7
100
AcDbLine
 10
42.118100
 20
50.601720
 30
0.0
 11
42.131100
 21
50.485820
 31
0.0
  0
LINE
  5
49b
100
AcDbEntity
  8
IfcSanitaryTerminal
 62
7
100
AcDbLine
 10
42.118100
 20
54.143320
 30
0.0
 11
42.118100
 21
50.601720
 31
0.0
  0
LINE
  5
49c
100
AcDbEntity
  8
IfcSanitaryTerminal
 62
7
100
AcDbLine
 10
36.128500
 20
54.924620
 30
0.0
 11
36.128500
 21
49.820420
 31
0.0
  0
LINE
  5
49d
100
AcDbEntity
  8
IfcSanitaryTerminal
 62
7
100
AcDbLine
 10
47.586800
 20
54.924620
 30
0.0
 11
36.128500
 21
54.924620
 31
0.0
  0
LINE
  5
49e
100
AcDbEntity
  8
IfcSanitaryTerminal
 62
7
100
AcDbLine
 10
47.586800
 20
49.820420
 30
0.0
 11
47.586800
 21
54.924620
 31
0.0
  0
LINE
  5
49f
100
AcDbEntity
  8
IfcSanitaryTerminal
 62
7
100
AcDbLine
 10
36.128500
 20
49.820420
 30
0.0
 11
47.586800
 21
49.820420
 31
0.0
  0
LINE
  5
4a0
100
AcDbEntity
  8
IfcDoor
 62
7
100
AcDbLine
 10
64.625000
 20
44.704320
 30
0.0
 11
64.625000
 21
44.131420
 31
0.0
  0
LINE
  5
4a1
100
AcDbEntity
  8
IfcDoor
 62
7
100
AcDbLine
 10
64.052100
 20
44.704320
 30
0.0
 11
64.625000
 21
44.704320
 31
0.0
  0
LINE
  5
4a2
100
AcDbEntity
  8
IfcDoor
 62
7
100
AcDbLine
 10
64.052100
 20
44.548120
 30
0.0
 11
64.052100
 21
44.704320
 31
0.0
  0
LINE
  5
4a3
100
AcDbEntity
  8
IfcDoor
 62
7
100
AcDbLine
 10
63.583300
 20
44.548120
 30
0.0
 11
64.052100
 21
44.548120
 31
0.0
  0
LINE
  5
4a4
100
AcDbEntity
  8
IfcDoor
 62
7
100
AcDbLine
 10
63.583300
 20
44.131420
 30
0.0
 11
63.583300
 21
44.548120
 31
0.0
  0
LINE
  5
4a5
100
AcDbEntity
  8
IfcDoor
 62
7
100
AcDbLine
 10
64.625000
 20
44.131420
 30
0.0
 11
64.625000
 21
44.131420
 31
0.0
  0
LINE
  5
4a6
100
AcDbEntity
  8
IfcDoor
 62
7
100
AcDbLine
 10
63.583300
 20
54.235620
 30
0.0
 11
64.052100
 21
54.235620
 31
0.0
  0
LINE
  5
4a7
100
AcDbEntity
  8
IfcDoor
 62
7
100
AcDbLine
 10
63.583300
 20
54.652220
 30
0.0
 11
63.583300
 21
54.235620
 31
0.0
  0
LINE
  5
4a8
100
AcDbEntity
  8
IfcDoor
 62
7
100
AcDbLine
 10
64.625000
 20
54.652220
 30
0.0
 11
64.625000
 21
54.652220
 31
0.0
  0
LINE
  5
4a9
100
AcDbEntity
  8
IfcDoor
 62
7
100
AcDbLine
 10
64.625000
 20
54.079320
 30
0.0
 11
64.625000
 21
54.652220
 31
0.0
  0
LINE
  5
4aa
100
AcDbEntity
  8
IfcDoor
 62
7
100
AcDbLine
 10
64.052100
 20
54.079320
 30
0.0
 11
64.625000
 21
54.079320
 31
0.0
  0
LINE
  5
4ab
100
AcDbEntity
  8
IfcDoor
 62
7
100
AcDbLine
 10
64.052100
 20
54.235620
 30
0.0
 11
64.052100
 21
54.079320
 31
0.0
  0
LINE
  5
4ac
100
AcDbEntity
  8
IfcDoor
 62
7
100
AcDbLine
 10
62.332500
 20
44.682120
 30
0.0
 11
63.583300
 21
44.600120
 31
0.0
  0
LINE
  5
4ad
100
AcDbEntity
  8
IfcDoor
 62
7
100
AcDbLine
 10
61.103000
 20
44.926720
 30
0.0
 11
62.332500
 21
44.682120
 31
0.0
  0
LINE
  5
4ae
100
AcDbEntity
  8
IfcDoor
 62
7
100
AcDbLine
 10
59.916000
 20
45.329620
 30
0.0
 11
61.103000
 21
44.926720
 31
0.0
  0
LINE
  5
4af
100
AcDbEntity
  8
IfcDoor
 62
7
100
AcDbLine
 10
58.791700
 20
45.884120
 30
0.0
 11
59.916000
 21
45.329620
 31
0.0
  0
LINE
  5
4b0
100
AcDbEntity
  8
IfcDoor
 62
7
100
AcDbLine
 10
57.749400
 20
46.580520
 30
0.0
 11
58.791700
 21
45.884120
 31
0.0
  0
LINE
  5
4b1
100
AcDbEntity
  8
IfcDoor
 62
7
100
AcDbLine
 10
56.806900
 20
47.407020
 30
0.0
 11
57.749400
 21
46.580520
 31
0.0
  0
LINE
  5
4b2
100
AcDbEntity
  8
IfcDoor
 62
7
100
AcDbLine
 10
55.980400
 20
48.349520
 30
0.0
 11
56.806900
 21
47.407020
 31
0.0
  0
LINE
  5
4b3
100
AcDbEntity
  8
IfcDoor
 62
7
100
AcDbLine
 10
55.283900
 20
49.391820
 30
0.0
 11
55.980400
 21
48.349520
 31
0.0
  0
LINE
  5
4b4
100
AcDbEntity
  8
IfcDoor
 62
7
100
AcDbLine
 10
54.729500
 20
50.516120
 30
0.0
 11
55.283900
 21
49.391820
 31
0.0
  0
LINE
  5
4b5
100
AcDbEntity
  8
IfcDoor
 62
7
100
AcDbLine
 10
54.326500
 20
51.703120
 30
0.0
 11
54.729500
 21
50.516120
 31
0.0
  0
LINE
  5
4b6
100
AcDbEntity
  8
IfcDoor
 62
7
100
AcDbLine
 10
54.082000
 20
52.932620
 30
0.0
 11
54.326500
 21
51.703120
 31
0.0
  0
LINE
  5
4b7
100
AcDbEntity
  8
IfcDoor
 62
7
100
AcDbLine
 10
54.000000
 20
54.183520
 30
0.0
 11
54.082000
 21
52.932620
 31
0.0
  0
LINE
  5
4b8
100
AcDbEntity
  8
IfcDoor
 62
7
100
AcDbLine
 10
54.000000
 20
53.766820
 30
0.0
 11
54.000000
 21
54.183520
 31
0.0
  0
LINE
  5
4b9
100
AcDbEntity
  8
IfcDoor
 62
7
100
AcDbLine
 10
63.583300
 20
53.766820
 30
0.0
 11
54.000000
 21
53.766820
 31
0.0
  0
LINE
  5
4ba
100
AcDbEntity
  8
IfcDoor
 62
7
100
AcDbLine
 10
63.583300
 20
54.183520
 30
0.0
 11
63.583300
 21
53.766820
 31
0.0
  0
LINE
  5
4bb
100
AcDbEntity
  8
IfcDoor
 62
7
100
AcDbLine
 10
54.000000
 20
54.183520
 30
0.0
 11
63.583300
 21
54.183520
 31
0.0
  0
LINE
  5
4bc
100
AcDbEntity
  8
IfcWindow
 62
7
100
AcDbLine
 10
64.625000
 20
34.973620
 30
0.0
 11
64.625000
 21
42.265220
 31
0.0
  0
LINE
  5
4bd
100
AcDbEntity
  8
IfcWindow
 62
7
100
AcDbLine
 10
64.104200
 20
34.973620
 30
0.0
 11
64.104200
 21
42.265220
 31
0.0
  0
LINE
  5
4be
100
AcDbEntity
  8
IfcWindow
 62
7
100
AcDbLine
 10
64.625000
 20
33.931920
 30
0.0
 11
64.625000
 21
33.931920
 31
0.0
  0
LINE
  5
4bf
100
AcDbEntity
  8
IfcWindow
 62
7
100
AcDbLine
 10
64.104200
 20
34.973620
 30
0.0
 11
64.104200
 21
33.931920
 31
0.0
  0
LINE
  5
4c0
100
AcDbEntity
  8
IfcWindow
 62
7
100
AcDbLine
 10
64.625000
 20
34.973620
 30
0.0
 11
64.104200
 21
34.973620
 31
0.0
  0
LINE
  5
4c1
100
AcDbEntity
  8
IfcWindow
 62
7
100
AcDbLine
 10
64.625000
 20
33.931920
 30
0.0
 11
64.625000
 21
34.973620
 31
0.0
  0
LINE
  5
4c2
100
AcDbEntity
  8
IfcWindow
 62
7
100
AcDbLine
 10
64.625000
 20
43.306920
 30
0.0
 11
64.625000
 21
43.306920
 31
0.0
  0
LINE
  5
4c3
100
AcDbEntity
  8
IfcWindow
 62
7
100
AcDbLine
 10
64.625000
 20
42.265220
 30
0.0
 11
64.625000
 21
43.306920
 31
0.0
  0
LINE
  5
4c4
100
AcDbEntity
  8
IfcWindow
 62
7
100
AcDbLine
 10
64.104200
 20
42.265220
 30
0.0
 11
64.625000
 21
42.265220
 31
0.0
  0
LINE
  5
4c5
100
AcDbEntity
  8
IfcWindow
 62
7
100
AcDbLine
 10
64.104200
 20
43.306920
 30
0.0
 11
64.104200
 21
42.265220
 31
0.0
  0
LINE
  5
4c6
100
AcDbEntity
  8
IfcWindow
 62
7
100
AcDbLine
 10
64.312500
 20
34.973620
 30
0.0
 11
64.416700
 21
34.973620
 31
0.0
  0
LINE
  5
4c7
100
AcDbEntity
  8
IfcWindow
 62
7
100
AcDbLine
 10
64.312500
 20
42.265220
 30
0.0
 11
64.312500
 21
34.973620
 31
0.0
  0
LINE
  5
4c8
100
AcDbEntity
  8
IfcWindow
 62
7
100
AcDbLine
 10
64.416700
 20
42.265220
 30
0.0
 11
64.312500
 21
42.265220
 31
0.0
  0
LINE
  5
4c9
100
AcDbEntity
  8
IfcWindow
 62
7
100
AcDbLine
 10
64.416700
 20
34.973620
 30
0.0
 11
64.416700
 21
42.265220
 31
0.0
  0
LINE
  5
4ca
100
AcDbEntity
  8
IfcWindow
 62
7
100
AcDbLine
 10
64.625000
 20
24.620520
 30
0.0
 11
64.625000
 21
31.912120
 31
0.0
  0
LINE
  5
4cb
100
AcDbEntity
  8
IfcWindow
 62
7
100
AcDbLine
 10
64.104200
 20
24.620520
 30
0.0
 11
64.104200
 21
31.912120
 31
0.0
  0
LINE
  5
4cc
100
AcDbEntity
  8
IfcWindow
 62
7
100
AcDbLine
 10
64.625000
 20
23.578820
 30
0.0
 11
64.625000
 21
23.578820
 31
0.0
  0
LINE
  5
4cd
100
AcDbEntity
  8
IfcWindow
 62
7
100
AcDbLine
 10
64.104200
 20
24.620520
 30
0.0
 11
64.104200
 21
23.578820
 31
0.0
  0
LINE
  5
4ce
100
AcDbEntity
  8
IfcWindow
 62
7
100
AcDbLine
 10
64.625000
 20
24.620520
 30
0.0
 11
64.104200
 21
24.620520
 31
0.0
  0
LINE
  5
4cf
100
AcDbEntity
  8
IfcWindow
 62
7
100
AcDbLine
 10
64.625000
 20
23.578820
 30
0.0
 11
64.625000
 21
24.620520
 31
0.0
  0
LINE
  5
4d0
100
AcDbEntity
  8
IfcWindow
 62
7
100
AcDbLine
 10
64.625000
 20
32.953820
 30
0.0
 11
64.625000
 21
32.953820
 31
0.0
  0
LINE
  5
4d1
100
AcDbEntity
  8
IfcWindow
 62
7
100
AcDbLine
 10
64.625000
 20
31.912120
 30
0.0
 11
64.625000
 21
32.953820
 31
0.0
  0
LINE
  5
4d2
100
AcDbEntity
  8
IfcWindow
 62
7
100
AcDbLine
 10
64.104200
 20
31.912120
 30
0.0
 11
64.625000
 21
31.912120
 31
0.0
  0
LINE
  5
4d3
100
AcDbEntity
  8
IfcWindow
 62
7
100
AcDbLine
 10
64.104200
 20
32.953820
 30
0.0
 11
64.104200
 21
31.912120
 31
0.0
  0
LINE
  5
4d4
100
AcDbEntity
  8
IfcWindow
 62
7
100
AcDbLine
 10
64.312500
 20
24.620520
 30
0.0
 11
64.416700
 21
24.620520
 31
0.0
  0
LINE
  5
4d5
100
AcDbEntity
  8
IfcWindow
 62
7
100
AcDbLine
 10
64.312500
 20
31.912120
 30
0.0
 11
64.312500
 21
24.620520
 31
0.0
  0
LINE
  5
4d6
100
AcDbEntity
  8
IfcWindow
 62
7
100
AcDbLine
 10
64.416700
 20
31.912120
 30
0.0
 11
64.312500
 21
31.912120
 31
0.0
  0
LINE
  5
4d7
100
AcDbEntity
  8
IfcWindow
 62
7
100
AcDbLine
 10
64.416700
 20
24.620520
 30
0.0
 11
64.416700
 21
31.912120
 31
0.0
  0
LINE
  5
4d8
100
AcDbEntity
  8
IfcWindow
 62
7
100
AcDbLine
 10
64.625000
 20
14.395520
 30
0.0
 11
64.625000
 21
21.687220
 31
0.0
  0
LINE
  5
4d9
100
AcDbEntity
  8
IfcWindow
 62
7
100
AcDbLine
 10
64.104200
 20
14.395520
 30
0.0
 11
64.104200
 21
21.687220
 31
0.0
  0
LINE
  5
4da
100
AcDbEntity
  8
IfcWindow
 62
7
100
AcDbLine
 10
64.104200
 20
14.395520
 30
0.0
 11
64.104200
 21
13.353920
 31
0.0
  0
LINE
  5
4db
100
AcDbEntity
  8
IfcWindow
 62
7
100
AcDbLine
 10
64.625000
 20
14.395520
 30
0.0
 11
64.104200
 21
14.395520
 31
0.0
  0
LINE
  5
4dc
100
AcDbEntity
  8
IfcWindow
 62
7
100
AcDbLine
 10
64.625000
 20
13.353920
 30
0.0
 11
64.625000
 21
14.395520
 31
0.0
  0
LINE
  5
4dd
100
AcDbEntity
  8
IfcWindow
 62
7
100
AcDbLine
 10
64.625000
 20
22.728920
 30
0.0
 11
64.625000
 21
22.728920
 31
0.0
  0
LINE
  5
4de
100
AcDbEntity
  8
IfcWindow
 62
7
100
AcDbLine
 10
64.625000
 20
21.687220
 30
0.0
 11
64.625000
 21
22.728920
 31
0.0
  0
LINE
  5
4df
100
AcDbEntity
  8
IfcWindow
 62
7
100
AcDbLine
 10
64.104200
 20
21.687220
 30
0.0
 11
64.625000
 21
21.687220
 31
0.0
  0
LINE
  5
4e0
100
AcDbEntity
  8
IfcWindow
 62
7
100
AcDbLine
 10
64.104200
 20
22.728920
 30
0.0
 11
64.104200
 21
21.687220
 31
0.0
  0
LINE
  5
4e1
100
AcDbEntity
  8
IfcWindow
 62
7
100
AcDbLine
 10
64.312500
 20
14.395520
 30
0.0
 11
64.416700
 21
14.395520
 31
0.0
  0
LINE
  5
4e2
100
AcDbEntity
  8
IfcWindow
 62
7
100
AcDbLine
 10
64.312500
 20
21.687220
 30
0.0
 11
64.312500
 21
14.395520
 31
0.0
  0
LINE
  5
4e3
100
AcDbEntity
  8
IfcWindow
 62
7
100
AcDbLine
 10
64.416700
 20
21.687220
 30
0.0
 11
64.312500
 21
21.687220
 31
0.0
  0
LINE
  5
4e4
100
AcDbEntity
  8
IfcWindow
 62
7
100
AcDbLine
 10
64.416700
 20
14.395520
 30
0.0
 11
64.416700
 21
21.687220
 31
0.0
  0
LINE
  5
4e5
100
AcDbEntity
  8
IfcWindow
 62
7
100
AcDbLine
 10
45.618800
 20
56.598120
 30
0.0
 11
38.327100
 21
56.598120
 31
0.0
  0
LINE
  5
4e6
100
AcDbEntity
  8
IfcWindow
 62
7
100
AcDbLine
 10
45.618800
 20
56.077320
 30
0.0
 11
38.327100
 21
56.077220
 31
0.0
  0
LINE
  5
4e7
100
AcDbEntity
  8
IfcWindow
 62
7
100
AcDbLine
 10
45.618800
 20
56.077320
 30
0.0
 11
46.660500
 21
56.077320
 31
0.0
  0
LINE
  5
4e8
100
AcDbEntity
  8
IfcWindow
 62
7
100
AcDbLine
 10
45.618800
 20
56.598120
 30
0.0
 11
45.618800
 21
56.077320
 31
0.0
  0
LINE
  5
4e9
100
AcDbEntity
  8
IfcWindow
 62
7
100
AcDbLine
 10
46.660500
 20
56.598120
 30
0.0
 11
45.618800
 21
56.598120
 31
0.0
  0
LINE
  5
4ea
100
AcDbEntity
  8
IfcWindow
 62
7
100
AcDbLine
 10
38.327100
 20
56.598120
 30
0.0
 11
37.285500
 21
56.598120
 31
0.0
  0
LINE
  5
4eb
100
AcDbEntity
  8
IfcWindow
 62
7
100
AcDbLine
 10
38.327100
 20
56.077220
 30
0.0
 11
38.327100
 21
56.598120
 31
0.0
  0
LINE
  5
4ec
100
AcDbEntity
  8
IfcWindow
 62
7
100
AcDbLine
 10
37.285500
 20
56.077220
 30
0.0
 11
38.327100
 21
56.077220
 31
0.0
  0
LINE
  5
4ed
100
AcDbEntity
  8
IfcWindow
 62
7
100
AcDbLine
 10
45.618800
 20
56.285620
 30
0.0
 11
45.618800
 21
56.389820
 31
0.0
  0
LINE
  5
4ee
100
AcDbEntity
  8
IfcWindow
 62
7
100
AcDbLine
 10
38.327100
 20
56.285620
 30
0.0
 11
45.618800
 21
56.285620
 31
0.0
  0
LINE
  5
4ef
100
AcDbEntity
  8
IfcWindow
 62
7
100
AcDbLine
 10
38.327100
 20
56.389720
 30
0.0
 11
38.327100
 21
56.285620
 31
0.0
  0
LINE
  5
4f0
100
AcDbEntity
  8
IfcWindow
 62
7
100
AcDbLine
 10
45.618800
 20
56.389820
 30
0.0
 11
38.327100
 21
56.389720
 31
0.0
  0
LINE
  5
4f1
100
AcDbEntity
  8
IfcWindow
 62
7
100
AcDbLine
 10
20.175000
 20
38.420220
 30
0.0
 11
20.175000
 21
31.128520
 31
0.0
  0
LINE
  5
4f2
100
AcDbEntity
  8
IfcWindow
 62
7
100
AcDbLine
 10
20.695800
 20
38.420220
 30
0.0
 11
20.695800
 21
31.128520
 31
0.0
  0
LINE
  5
4f3
100
AcDbEntity
  8
IfcWindow
 62
7
100
AcDbLine
 10
20.695800
 20
38.420220
 30
0.0
 11
20.695800
 21
39.461920
 31
0.0
  0
LINE
  5
4f4
100
AcDbEntity
  8
IfcWindow
 62
7
100
AcDbLine
 10
20.175000
 20
38.420220
 30
0.0
 11
20.695800
 21
38.420220
 31
0.0
  0
LINE
  5
4f5
100
AcDbEntity
  8
IfcWindow
 62
7
100
AcDbLine
 10
20.175000
 20
39.461920
 30
0.0
 11
20.175000
 21
38.420220
 31
0.0
  0
LINE
  5
4f6
100
AcDbEntity
  8
IfcWindow
 62
7
100
AcDbLine
 10
20.175000
 20
31.128520
 30
0.0
 11
20.175000
 21
30.086920
 31
0.0
  0
LINE
  5
4f7
100
AcDbEntity
  8
IfcWindow
 62
7
100
AcDbLine
 10
20.695800
 20
31.128520
 30
0.0
 11
20.175000
 21
31.128520
 31
0.0
  0
LINE
  5
4f8
100
AcDbEntity
  8
IfcWindow
 62
7
100
AcDbLine
 10
20.695800
 20
30.086920
 30
0.0
 11
20.695800
 21
31.128520
 31
0.0
  0
LINE
  5
4f9
100
AcDbEntity
  8
IfcWindow
 62
7
100
AcDbLine
 10
20.487500
 20
38.420220
 30
0.0
 11
20.383300
 21
38.420220
 31
0.0
  0
LINE
  5
4fa
100
AcDbEntity
  8
IfcWindow
 62
7
100
AcDbLine
 10
20.487500
 20
31.128520
 30
0.0
 11
20.487500
 21
38.420220
 31
0.0
  0
LINE
  5
4fb
100
AcDbEntity
  8
IfcWindow
 62
7
100
AcDbLine
 10
20.383300
 20
31.128520
 30
0.0
 11
20.487500
 21
31.128520
 31
0.0
  0
LINE
  5
4fc
100
AcDbEntity
  8
IfcWindow
 62
7
100
AcDbLine
 10
20.383300
 20
38.420220
 30
0.0
 11
20.383300
 21
31.128520
 31
0.0
  0
LINE
  5
4fd
100
AcDbEntity
  8
IfcWindow
 62
7
100
AcDbLine
 10
55.067000
 20
12.148120
 30
0.0
 11
62.358700
 21
12.148120
 31
0.0
  0
LINE
  5
4fe
100
AcDbEntity
  8
IfcWindow
 62
7
100
AcDbLine
 10
55.067000
 20
12.668920
 30
0.0
 11
62.358700
 21
12.668920
 31
0.0
  0
LINE
  5
4ff
100
AcDbEntity
  8
IfcWindow
 62
7
100
AcDbLine
 10
55.067000
 20
12.668920
 30
0.0
 11
54.025300
 21
12.668920
 31
0.0
  0
LINE
  5
500
100
AcDbEntity
  8
IfcWindow
 62
7
100
AcDbLine
 10
55.067000
 20
12.148120
 30
0.0
 11
55.067000
 21
12.668920
 31
0.0
  0
LINE
  5
501
100
AcDbEntity
  8
IfcWindow
 62
7
100
AcDbLine
 10
54.025300
 20
12.148120
 30
0.0
 11
55.067000
 21
12.148120
 31
0.0
  0
LINE
  5
502
100
AcDbEntity
  8
IfcWindow
 62
7
100
AcDbLine
 10
62.358700
 20
12.148120
 30
0.0
 11
63.400300
 21
12.148120
 31
0.0
  0
LINE
  5
503
100
AcDbEntity
  8
IfcWindow
 62
7
100
AcDbLine
 10
62.358700
 20
12.668920
 30
0.0
 11
62.358700
 21
12.148120
 31
0.0
  0
LINE
  5
504
100
AcDbEntity
  8
IfcWindow
 62
7
100
AcDbLine
 10
63.400300
 20
12.668920
 30
0.0
 11
62.358700
 21
12.668920
 31
0.0
  0
LINE
  5
505
100
AcDbEntity
  8
IfcWindow
 62
7
100
AcDbLine
 10
55.067000
 20
12.460620
 30
0.0
 11
55.067000
 21
12.356420
 31
0.0
  0
LINE
  5
506
100
AcDbEntity
  8
IfcWindow
 62
7
100
AcDbLine
 10
62.358700
 20
12.460620
 30
0.0
 11
55.067000
 21
12.460620
 31
0.0
  0
LINE
  5
507
100
AcDbEntity
  8
IfcWindow
 62
7
100
AcDbLine
 10
62.358700
 20
12.356420
 30
0.0
 11
62.358700
 21
12.460620
 31
0.0
  0
LINE
  5
508
100
AcDbEntity
  8
IfcWindow
 62
7
100
AcDbLine
 10
55.067000
 20
12.356420
 30
0.0
 11
62.358700
 21
12.356420
 31
0.0
  0
ENDSEC
  0
SECTION
  2
OBJECTS
  0
DICTIONARY
  5
C
330
0
100
AcDbDictionary
  3
ACAD_GROUP
350
D
  3
ACAD_MLINESTYLE
350
17
  0
DICTIONARY
  5
D
330
C
100
AcDbDictionary
  0
DICTIONARY
  5
1A
330
C
100
AcDbDictionary
  0
DICTIONARY
  5
17
330
C
100
AcDbDictionary
  3
STANDARD
350
18
  0
DICTIONARY
  5
19
330
C
100
AcDbDictionary
  0
ENDSEC
  0
EOF
